<svg width="99" height="56" viewBox="0 0 99 56" fill="none" xmlns="http://www.w3.org/2000/svg">
<rect width="99" height="56" rx="27.5" fill="url(#paint0_linear_189_45)" fill-opacity="0.7"/>
<path d="M73.1432 17.7119C72.8228 17.7885 72.6463 18.0017 72.6292 18.3242C72.6182 18.6039 72.7001 18.7521 72.951 18.8946C73.0347 18.9421 73.1437 19.124 73.1847 19.2951L73.2619 19.5975L72.46 19.7419C72.0213 19.8158 71.6045 19.8833 71.5398 19.8836C71.3346 19.887 71.2039 19.3052 71.3465 19.054C71.4784 18.8058 71.4679 18.5972 71.3088 18.3407C71.0798 17.98 70.4602 18.0156 70.2461 18.3924C70.1074 18.6366 70.2162 19.0952 70.4394 19.222C70.5231 19.2695 70.642 19.4661 70.6963 19.6631L70.7966 20.0061L69.8862 20.1153L68.9789 20.2181L68.8933 19.9297C68.8339 19.7579 68.8405 19.5675 68.9037 19.4561C69.2129 18.9119 68.6539 18.2718 68.0911 18.515C67.6686 18.69 67.6077 19.3661 67.9914 19.584C68.1588 19.6791 68.3522 20.1024 68.2808 20.228C68.261 20.263 68.0084 20.2856 66.898 20.3559C66.8513 20.3568 66.6181 20.6861 66.3853 21.0797C66.003 21.7205 65.9145 21.8272 65.539 22.0661C65.3084 22.2119 64.8235 22.4161 64.4553 22.5117C63.0304 22.8925 53.2448 25.3705 53.1842 25.3635C53.1483 25.3614 52.9656 25.0178 52.7791 24.5984C51.8835 22.6505 50.6083 21.3541 49.1687 20.9326C48.0544 20.604 47.1671 20.7369 45.3956 21.4838C43.3049 22.3714 42.3226 22.6715 41.271 22.7198C40.464 22.7597 39.9575 22.6935 37.813 22.278C36.7566 22.0746 35.6309 21.8965 35.3193 21.8764C33.8323 21.7978 31.9177 22.1311 30.7648 22.6665C30.0908 22.9755 29.2662 23.55 28.7654 24.0586C28.2037 24.6254 27.4528 25.9795 27.2271 26.848C26.559 29.421 26.9837 32.8642 28.4349 36.5303C29.0699 38.1087 29.9911 39.5733 31.0016 40.572C31.6402 41.2025 32.9716 41.9771 33.7582 42.1841C34.963 42.4992 36.2444 42.4524 37.6278 42.0479C39.3728 41.5258 40.4797 40.8444 42.4346 39.0761C45.1291 36.6391 45.6777 36.3879 49.3623 35.8789C51.2663 35.6133 52.0962 35.2729 52.8854 34.4202C53.9066 33.3208 54.3349 31.5438 54.1096 29.4229C54.055 28.9672 54.0357 28.5782 54.0658 28.5583C54.1182 28.5144 63.6063 25.683 65.0983 25.2661C65.5178 25.1447 66.0941 25.0566 66.3664 25.0639C66.8112 25.0768 66.9418 25.1231 67.5984 25.4777C67.9999 25.6966 68.3684 25.8598 68.4094 25.8368C69.41 25.3257 69.635 25.2228 69.6765 25.2464C69.7464 25.2861 69.8317 25.7039 69.7871 25.7985C69.7594 25.8472 69.7217 25.9457 69.686 26.0087C69.5957 26.216 69.7562 26.5835 69.9935 26.7184C70.2866 26.8848 70.6883 26.7625 70.8557 26.4517C71.0074 26.1686 70.886 25.7491 70.5999 25.5865C70.4812 25.5191 70.3815 25.37 70.3414 25.1812L70.2598 24.8858L71.0987 24.5135L71.9346 24.1303L72.027 24.4871C72.0873 24.7058 72.0798 24.9139 72.0163 25.0256C71.8895 25.2488 72.0399 25.6664 72.298 25.813C72.6748 26.027 73.2225 25.7291 73.2299 25.3091C73.235 25.0077 73.1374 24.8227 72.8971 24.6771C72.6459 24.5344 72.4603 23.9677 72.6382 23.8655C72.6939 23.8327 73.0865 23.6772 73.5012 23.516L74.2639 23.2295L74.3525 23.5287C74.4049 23.6967 74.4044 23.9087 74.3568 23.9924C74.2141 24.2436 74.2196 24.4128 74.3726 24.6471C74.7711 25.261 75.6975 24.8643 75.5008 24.1714C75.4628 24.0111 75.3487 23.8543 75.23 23.7869C75.1044 23.7156 75.0047 23.5665 74.9514 23.3518L74.8679 23.0275L75.4405 22.8636C76.1334 22.6669 76.2151 22.5563 76.2022 21.7829C76.1895 21.0746 76.0238 20.473 75.6619 19.8428C75.2911 19.18 75.1577 19.1225 74.4616 19.3087L73.8858 19.4612L73.7914 19.1399C73.7273 18.9282 73.7366 18.7491 73.8079 18.6235C74.0599 18.1773 73.6343 17.5941 73.1432 17.7119ZM45.8855 28.2569C47.0839 29.9802 45.7386 32.3163 43.6077 32.1854C42.5835 32.1202 41.6472 31.3486 41.363 30.3383C41.1861 29.6749 41.27 29.0398 41.6267 28.4119C42.0139 27.7463 42.471 27.3969 43.1882 27.2227C44.2982 26.958 45.2312 27.3133 45.8855 28.2569ZM38.1789 31.1681C38.4814 32.3088 38.7186 33.3203 38.696 33.4085C38.6126 33.8316 38.0248 34.0052 37.7137 33.7086C37.6388 33.6294 37.3208 32.6457 37.0074 31.508C36.474 29.5718 36.4497 29.4198 36.5845 29.1824C36.7588 28.8756 37.0939 28.7891 37.4077 28.9673C37.5895 29.0711 37.6989 29.3821 38.1789 31.1681Z" fill="url(#paint1_linear_189_45)" fill-opacity="0.85"/>
<defs>
<linearGradient id="paint0_linear_189_45" x1="49.5" y1="0" x2="49.5" y2="56" gradientUnits="userSpaceOnUse">
<stop stop-opacity="0.68"/>
<stop offset="0.505208" stop-color="#272727" stop-opacity="0.34"/>
<stop offset="1" stop-color="white" stop-opacity="0.55"/>
</linearGradient>
<linearGradient id="paint1_linear_189_45" x1="39.838" y1="45.8057" x2="60.1019" y2="10.1328" gradientUnits="userSpaceOnUse">
<stop offset="0.15625" stop-color="#FE5B00"/>
<stop offset="0.71875" stop-color="#F9BE79"/>
<stop offset="0.890625" stop-color="#E66000"/>
</linearGradient>
</defs>
</svg>
