<svg width="99" height="56" viewBox="0 0 99 56" fill="none" xmlns="http://www.w3.org/2000/svg">
<rect width="99" height="56" rx="27.5" fill="url(#paint0_linear_189_45)" fill-opacity="0.7"/>
<g style="mix-blend-mode:hard-light">
<rect x="37" y="22" width="26" height="18" fill="url(#paint1_linear_189_45)" fill-opacity="0.85"/>
<path fill-rule="evenodd" clip-rule="evenodd" d="M58.5 35.5C58.5 35.2239 58.7239 35 59 35H61C61.2761 35 61.5 35.2239 61.5 35.5V37.5C61.5 37.7761 61.2761 38 61 38H59C58.7239 38 58.5 37.7761 58.5 37.5V35.5Z" fill="url(#paint2_linear_189_45)" fill-opacity="0.9"/>
<path fill-rule="evenodd" clip-rule="evenodd" d="M53.5 35.5C53.5 35.2239 53.7239 35 54 35H56C56.2761 35 56.5 35.2239 56.5 35.5V37.5C56.5 37.7761 56.2761 38 56 38H54C53.7239 38 53.5 37.7761 53.5 37.5V35.5Z" fill="url(#paint3_linear_189_45)" fill-opacity="0.9"/>
<path fill-rule="evenodd" clip-rule="evenodd" d="M48.5 35.5C48.5 35.2239 48.7239 35 49 35H51C51.2761 35 51.5 35.2239 51.5 35.5V37.5C51.5 37.7761 51.2761 38 51 38H49C48.7239 38 48.5 37.7761 48.5 37.5V35.5Z" fill="url(#paint4_linear_189_45)" fill-opacity="0.9"/>
<path fill-rule="evenodd" clip-rule="evenodd" d="M43.5 35.5C43.5 35.2239 43.7239 35 44 35H46C46.2761 35 46.5 35.2239 46.5 35.5V37.5C46.5 37.7761 46.2761 38 46 38H44C43.7239 38 43.5 37.7761 43.5 37.5V35.5Z" fill="url(#paint5_linear_189_45)" fill-opacity="0.9"/>
<path fill-rule="evenodd" clip-rule="evenodd" d="M38.5 35.5C38.5 35.2239 38.7239 35 39 35H41C41.2761 35 41.5 35.2239 41.5 35.5V37.5C41.5 37.7761 41.2761 38 41 38H39C38.7239 38 38.5 37.7761 38.5 37.5V35.5Z" fill="url(#paint6_linear_189_45)" fill-opacity="0.9"/>
<path fill-rule="evenodd" clip-rule="evenodd" d="M58.5 30.5C58.5 30.2239 58.7239 30 59 30H61C61.2761 30 61.5 30.2239 61.5 30.5V32.5C61.5 32.7761 61.2761 33 61 33H59C58.7239 33 58.5 32.7761 58.5 32.5V30.5Z" fill="url(#paint7_linear_189_45)" fill-opacity="0.9"/>
<path fill-rule="evenodd" clip-rule="evenodd" d="M53.5 30.5C53.5 30.2239 53.7239 30 54 30H56C56.2761 30 56.5 30.2239 56.5 30.5V32.5C56.5 32.7761 56.2761 33 56 33H54C53.7239 33 53.5 32.7761 53.5 32.5V30.5Z" fill="url(#paint8_linear_189_45)" fill-opacity="0.9"/>
<path fill-rule="evenodd" clip-rule="evenodd" d="M48.5 30.5C48.5 30.2239 48.7239 30 49 30H51C51.2761 30 51.5 30.2239 51.5 30.5V32.5C51.5 32.7761 51.2761 33 51 33H49C48.7239 33 48.5 32.7761 48.5 32.5V30.5Z" fill="url(#paint9_linear_189_45)" fill-opacity="0.9"/>
<path fill-rule="evenodd" clip-rule="evenodd" d="M43.5 30.5C43.5 30.2239 43.7239 30 44 30H46C46.2761 30 46.5 30.2239 46.5 30.5V32.5C46.5 32.7761 46.2761 33 46 33H44C43.7239 33 43.5 32.7761 43.5 32.5V30.5Z" fill="url(#paint10_linear_189_45)" fill-opacity="0.9"/>
<path fill-rule="evenodd" clip-rule="evenodd" d="M38.5 30.5C38.5 30.2239 38.7239 30 39 30H41C41.2761 30 41.5 30.2239 41.5 30.5V32.5C41.5 32.7761 41.2761 33 41 33H39C38.7239 33 38.5 32.7761 38.5 32.5V30.5Z" fill="url(#paint11_linear_189_45)" fill-opacity="0.9"/>
<path fill-rule="evenodd" clip-rule="evenodd" d="M58.5 25.5C58.5 25.2239 58.7239 25 59 25H61C61.2761 25 61.5 25.2239 61.5 25.5V27.5C61.5 27.7761 61.2761 28 61 28H59C58.7239 28 58.5 27.7761 58.5 27.5V25.5Z" fill="url(#paint12_linear_189_45)" fill-opacity="0.9"/>
<path fill-rule="evenodd" clip-rule="evenodd" d="M53.5 25.5C53.5 25.2239 53.7239 25 54 25H56C56.2761 25 56.5 25.2239 56.5 25.5V27.5C56.5 27.7761 56.2761 28 56 28H54C53.7239 28 53.5 27.7761 53.5 27.5V25.5Z" fill="url(#paint13_linear_189_45)" fill-opacity="0.9"/>
<path fill-rule="evenodd" clip-rule="evenodd" d="M48.5 25.5C48.5 25.2239 48.7239 25 49 25H51C51.2761 25 51.5 25.2239 51.5 25.5V27.5C51.5 27.7761 51.2761 28 51 28H49C48.7239 28 48.5 27.7761 48.5 27.5V25.5Z" fill="url(#paint14_linear_189_45)" fill-opacity="0.9"/>
<path fill-rule="evenodd" clip-rule="evenodd" d="M43.5 25.5C43.5 25.2239 43.7239 25 44 25H46C46.2761 25 46.5 25.2239 46.5 25.5V27.5C46.5 27.7761 46.2761 28 46 28H44C43.7239 28 43.5 27.7761 43.5 27.5V25.5Z" fill="url(#paint15_linear_189_45)" fill-opacity="0.9"/>
<path fill-rule="evenodd" clip-rule="evenodd" d="M38.5 25.5C38.5 25.2239 38.7239 25 39 25H41C41.2761 25 41.5 25.2239 41.5 25.5V27.5C41.5 27.7761 41.2761 28 41 28H39C38.7239 28 38.5 27.7761 38.5 27.5V25.5Z" fill="url(#paint16_linear_189_45)" fill-opacity="0.9"/>
<path d="M56 12.4384C56 12.1963 56.4477 12 56.9998 12C57.5523 12 58 12.1963 58 12.4384V16.5615C58 16.8037 57.5523 17 56.9998 17C56.4477 17 56 16.8037 56 16.5615V12.4384Z" fill="url(#paint17_linear_189_45)" fill-opacity="0.85"/>
<path d="M42 12.4384C42 12.1963 42.4478 12 43.0001 12C43.5522 12 44 12.1963 44 12.4384V16.5615C44 16.8037 43.5522 17 43.0001 17C42.4478 17 42 16.8037 42 16.5615V12.4384Z" fill="url(#paint18_linear_189_45)" fill-opacity="0.85"/>
<path d="M36.4434 23C36.1985 23 36 22.5523 36 22C36 21.4477 36.1985 21 36.4434 21H63.5566C63.8015 21 64 21.4477 64 22C64 22.5523 63.8015 23 63.5566 23H36.4434Z" fill="url(#paint19_linear_189_45)" fill-opacity="0.85"/>
<path d="M36.4434 23.5C36.2191 23.5 36.0433 23.3954 35.9257 23.2832C35.8107 23.1735 35.7298 23.0384 35.6728 22.9098C35.5582 22.6513 35.5 22.3292 35.5 22C35.5 21.6708 35.5582 21.3487 35.6728 21.0902C35.7298 20.9616 35.8107 20.8265 35.9257 20.7168C36.0433 20.6046 36.2191 20.5 36.4434 20.5H63.5566C63.7809 20.5 63.9567 20.6046 64.0743 20.7168C64.1893 20.8265 64.2702 20.9616 64.3272 21.0902C64.4418 21.3487 64.5 21.6708 64.5 22C64.5 22.3292 64.4418 22.6513 64.3272 22.9098C64.2702 23.0384 64.1893 23.1735 64.0743 23.2832C63.9567 23.3954 63.7809 23.5 63.5566 23.5H36.4434Z" stroke="url(#paint20_linear_189_45)" stroke-opacity="0.85"/>
<path d="M37.6442 39.2929C38.1096 39.7653 38.7499 40.0588 39.4522 40.0602L60.6506 40.0956V40.0938C61.3579 40.0938 62.0258 39.7893 62.5157 39.3044C62.9956 38.8292 63.3019 38.1816 63.3019 37.4801V17.6342C63.3019 16.9205 63.0137 16.2712 62.5497 15.8003C62.0857 15.3293 61.446 15.037 60.7427 15.037H39.4522C38.7489 15.037 38.1092 15.3293 37.6451 15.8003C37.1811 16.2712 36.893 16.9205 36.893 17.6342V37.4613C36.893 38.1746 37.1807 38.8226 37.6442 39.2929ZM39.4522 40.963C38.5007 40.961 37.6371 40.5673 37.0129 39.9337C36.3879 39.2994 36 38.4248 36 37.4613V17.6342C36 16.6703 36.3883 15.7943 37.0137 15.1595C37.6392 14.5248 38.5024 14.1308 39.4522 14.1308H60.7427C61.6925 14.1308 62.5556 14.5248 63.1811 15.1595C63.8066 15.7943 64.1949 16.6703 64.1949 17.6342V37.4801C64.1949 38.4355 63.7826 39.3127 63.1365 39.9522C62.4864 40.596 61.5963 41 60.6506 41V40.9982L39.4522 40.963Z" stroke="url(#paint21_linear_189_45)" stroke-opacity="0.85"/>
</g>
<defs>
<linearGradient id="paint0_linear_189_45" x1="49.5" y1="0" x2="49.5" y2="56" gradientUnits="userSpaceOnUse">
<stop stop-opacity="0.68"/>
<stop offset="0.505208" stop-color="#272727" stop-opacity="0.34"/>
<stop offset="1" stop-color="white" stop-opacity="0.55"/>
</linearGradient>
<linearGradient id="paint1_linear_189_45" x1="50" y1="22" x2="50" y2="40" gradientUnits="userSpaceOnUse">
<stop offset="0.427083" stop-color="#FE5B00"/>
<stop offset="0.890625" stop-color="#D04013"/>
</linearGradient>
<linearGradient id="paint2_linear_189_45" x1="59.8227" y1="38" x2="61.2926" y2="35.4166" gradientUnits="userSpaceOnUse">
<stop offset="0.176216" stop-color="#DBDBDB"/>
</linearGradient>
<linearGradient id="paint3_linear_189_45" x1="54.8227" y1="38" x2="56.2926" y2="35.4166" gradientUnits="userSpaceOnUse">
<stop offset="0.176216" stop-color="#DBDBDB"/>
</linearGradient>
<linearGradient id="paint4_linear_189_45" x1="49.8227" y1="38" x2="51.2926" y2="35.4166" gradientUnits="userSpaceOnUse">
<stop offset="0.176216" stop-color="#DBDBDB"/>
</linearGradient>
<linearGradient id="paint5_linear_189_45" x1="44.8227" y1="38" x2="46.2926" y2="35.4166" gradientUnits="userSpaceOnUse">
<stop offset="0.176216" stop-color="#DBDBDB"/>
</linearGradient>
<linearGradient id="paint6_linear_189_45" x1="39.8227" y1="38" x2="41.2926" y2="35.4166" gradientUnits="userSpaceOnUse">
<stop offset="0.176216" stop-color="#DBDBDB"/>
</linearGradient>
<linearGradient id="paint7_linear_189_45" x1="59.8227" y1="33" x2="61.2926" y2="30.4166" gradientUnits="userSpaceOnUse">
<stop offset="0.176216" stop-color="#DBDBDB"/>
</linearGradient>
<linearGradient id="paint8_linear_189_45" x1="54.8227" y1="33" x2="56.2926" y2="30.4166" gradientUnits="userSpaceOnUse">
<stop offset="0.176216" stop-color="#DBDBDB"/>
</linearGradient>
<linearGradient id="paint9_linear_189_45" x1="49.8227" y1="33" x2="51.2926" y2="30.4166" gradientUnits="userSpaceOnUse">
<stop offset="0.176216" stop-color="#DBDBDB"/>
</linearGradient>
<linearGradient id="paint10_linear_189_45" x1="44.8227" y1="33" x2="46.2926" y2="30.4166" gradientUnits="userSpaceOnUse">
<stop offset="0.176216" stop-color="#DBDBDB"/>
</linearGradient>
<linearGradient id="paint11_linear_189_45" x1="39.8227" y1="33" x2="41.2926" y2="30.4166" gradientUnits="userSpaceOnUse">
<stop offset="0.176216" stop-color="#DBDBDB"/>
</linearGradient>
<linearGradient id="paint12_linear_189_45" x1="59.8227" y1="28" x2="61.2926" y2="25.4166" gradientUnits="userSpaceOnUse">
<stop offset="0.176216" stop-color="#DBDBDB"/>
</linearGradient>
<linearGradient id="paint13_linear_189_45" x1="54.8227" y1="28" x2="56.2926" y2="25.4166" gradientUnits="userSpaceOnUse">
<stop offset="0.176216" stop-color="#DBDBDB"/>
</linearGradient>
<linearGradient id="paint14_linear_189_45" x1="49.8227" y1="28" x2="51.2926" y2="25.4166" gradientUnits="userSpaceOnUse">
<stop offset="0.176216" stop-color="#DBDBDB"/>
</linearGradient>
<linearGradient id="paint15_linear_189_45" x1="44.8227" y1="28" x2="46.2926" y2="25.4166" gradientUnits="userSpaceOnUse">
<stop offset="0.176216" stop-color="#DBDBDB"/>
</linearGradient>
<linearGradient id="paint16_linear_189_45" x1="39.8227" y1="28" x2="41.2926" y2="25.4166" gradientUnits="userSpaceOnUse">
<stop offset="0.176216" stop-color="#DBDBDB"/>
</linearGradient>
<linearGradient id="paint17_linear_189_45" x1="57" y1="17" x2="57" y2="12" gradientUnits="userSpaceOnUse">
<stop offset="0.427083" stop-color="#FE5B00"/>
<stop offset="0.890625" stop-color="#D04013"/>
</linearGradient>
<linearGradient id="paint18_linear_189_45" x1="43" y1="17" x2="43" y2="12" gradientUnits="userSpaceOnUse">
<stop offset="0.427083" stop-color="#FE5B00"/>
<stop offset="0.890625" stop-color="#D04013"/>
</linearGradient>
<linearGradient id="paint19_linear_189_45" x1="50" y1="23" x2="50" y2="21" gradientUnits="userSpaceOnUse">
<stop stop-color="#F9BE79"/>
<stop offset="0.427083" stop-color="#FE5B00"/>
<stop offset="0.890625" stop-color="#D04013"/>
</linearGradient>
<linearGradient id="paint20_linear_189_45" x1="50" y1="23" x2="50" y2="21" gradientUnits="userSpaceOnUse">
<stop offset="0.427083" stop-color="#FE5B00"/>
<stop offset="0.890625" stop-color="#D04013"/>
</linearGradient>
<linearGradient id="paint21_linear_189_45" x1="50.0974" y1="41" x2="50.0974" y2="14.1308" gradientUnits="userSpaceOnUse">
<stop stop-color="#7A4200"/>
<stop offset="0.416667" stop-color="#F45800"/>
<stop offset="0.760417" stop-color="#C64700"/>
</linearGradient>
</defs>
</svg>
