<svg width="132" height="100" viewBox="0 0 132 100" fill="none" xmlns="http://www.w3.org/2000/svg">
<mask id="path-1-inside-1_358_113" fill="white">
<path d="M0 25C0 11.1929 11.1929 0 25 0H106.287C120.094 0 131.287 11.1929 131.287 25V74.9212C131.287 88.7283 120.094 99.9213 106.287 99.9213H25C11.1929 99.9213 0 88.7284 0 74.9213V25Z"/>
</mask>
<path d="M0 25C0 11.1929 11.1929 0 25 0H106.287C120.094 0 131.287 11.1929 131.287 25V74.9212C131.287 88.7283 120.094 99.9213 106.287 99.9213H25C11.1929 99.9213 0 88.7284 0 74.9213V25Z" fill="url(#paint0_linear_358_113)" fill-opacity="0.7"/>
<path d="M-4 25C-4 10.0883 8.08831 -2 23 -2H108.287C123.199 -2 135.287 10.0883 135.287 25H127.287C127.287 12.2975 117.885 2 106.287 2H25C13.402 2 4 12.2975 4 25H-4ZM135.287 74.9213C135.287 89.8329 123.199 101.921 108.287 101.921H23C8.08831 101.921 -4 89.8329 -4 74.9213H4C4 87.6238 13.402 97.9213 25 97.9213H106.287C117.885 97.9213 127.287 87.6238 127.287 74.9213H135.287ZM23 101.921C8.08831 101.921 -4 89.8329 -4 74.9213V25C-4 10.0883 8.08831 -2 23 -2L25 2C13.402 2 4 12.2975 4 25V74.9213C4 87.6238 13.402 97.9213 25 97.9213L23 101.921ZM108.287 -2C123.199 -2 135.287 10.0883 135.287 25V74.9213C135.287 89.8329 123.199 101.921 108.287 101.921L106.287 97.9213C117.885 97.9213 127.287 87.6238 127.287 74.9213V25C127.287 12.2975 117.885 2 106.287 2L108.287 -2Z" fill="url(#paint1_linear_358_113)" mask="url(#path-1-inside-1_358_113)"/>
<defs>
<linearGradient id="paint0_linear_358_113" x1="38.5" y1="-1.95573e-07" x2="65.6436" y2="99.9213" gradientUnits="userSpaceOnUse">
<stop stop-color="#D7D7D7"/>
<stop offset="0.271813" stop-color="#8F8A99"/>
<stop offset="0.4375" stop-color="#C0C0C1"/>
<stop offset="0.817708" stop-color="#9995A0"/>
<stop offset="1" stop-color="#B5B4B6"/>
</linearGradient>
<linearGradient id="paint1_linear_358_113" x1="-17.5" y1="-7" x2="110" y2="112" gradientUnits="userSpaceOnUse">
<stop stop-color="#898585"/>
<stop offset="0.287319" stop-color="white"/>
<stop offset="0.469994" stop-color="#727272" stop-opacity="0.792134"/>
<stop offset="0.675138" stop-color="#E8E8E8"/>
<stop offset="0.823394" stop-color="#ACACAC" stop-opacity="0.39"/>
<stop offset="1"/>
</linearGradient>
</defs>
</svg>
