<svg width="132" height="100" viewBox="0 0 132 100" fill="none" xmlns="http://www.w3.org/2000/svg">
<mask id="path-1-inside-1_358_132" fill="white">
<path d="M0 25C0 11.1929 11.1929 0 25 0H106.287C120.094 0 131.287 11.1929 131.287 25V74.9212C131.287 88.7283 120.094 99.9213 106.287 99.9213H25C11.1929 99.9213 0 88.7284 0 74.9213V25Z"/>
</mask>
<path d="M0 25C0 11.1929 11.1929 0 25 0H106.287C120.094 0 131.287 11.1929 131.287 25V74.9212C131.287 88.7283 120.094 99.9213 106.287 99.9213H25C11.1929 99.9213 0 88.7284 0 74.9213V25Z" fill="url(#paint0_linear_358_132)" fill-opacity="0.9"/>
<path d="M-4 25C-4 10.0883 8.08831 -2 23 -2H108.287C123.199 -2 135.287 10.0883 135.287 25H127.287C127.287 12.2975 117.885 2 106.287 2H25C13.402 2 4 12.2975 4 25H-4ZM135.287 74.9213C135.287 89.8329 123.199 101.921 108.287 101.921H23C8.08831 101.921 -4 89.8329 -4 74.9213H4C4 87.6238 13.402 97.9213 25 97.9213H106.287C117.885 97.9213 127.287 87.6238 127.287 74.9213H135.287ZM23 101.921C8.08831 101.921 -4 89.8329 -4 74.9213V25C-4 10.0883 8.08831 -2 23 -2L25 2C13.402 2 4 12.2975 4 25V74.9213C4 87.6238 13.402 97.9213 25 97.9213L23 101.921ZM108.287 -2C123.199 -2 135.287 10.0883 135.287 25V74.9213C135.287 89.8329 123.199 101.921 108.287 101.921L106.287 97.9213C117.885 97.9213 127.287 87.6238 127.287 74.9213V25C127.287 12.2975 117.885 2 106.287 2L108.287 -2Z" fill="url(#paint1_linear_358_132)" fill-opacity="0.9" mask="url(#path-1-inside-1_358_132)"/>
<defs>
<linearGradient id="paint0_linear_358_132" x1="38.5" y1="-1.95573e-07" x2="65.6436" y2="99.9213" gradientUnits="userSpaceOnUse">
<stop stop-color="#FFE475"/>
<stop offset="0.271813" stop-color="#F3DB8B"/>
<stop offset="0.4375" stop-color="#FFD340"/>
<stop offset="0.927083" stop-color="#EADA96"/>
<stop offset="1" stop-color="#DAB750"/>
</linearGradient>
<linearGradient id="paint1_linear_358_132" x1="57.8858" y1="-1.45892e-06" x2="99.4196" y2="95.9137" gradientUnits="userSpaceOnUse">
<stop stop-color="#FEF9CF"/>
<stop offset="0.176216" stop-color="#E6E4BA"/>
<stop offset="0.697288" stop-color="#A8A684"/>
<stop offset="1" stop-color="#5F584E"/>
</linearGradient>
</defs>
</svg>
