<svg width="32" height="30" viewBox="0 0 32 30" fill="none" xmlns="http://www.w3.org/2000/svg">
<g filter="url(#filter0_b_358_140)">
<path d="M1 15C1 7.8203 6.8203 2 14 2H18C25.1797 2 31 7.8203 31 15V15C31 22.1797 25.1797 28 18 28H14C6.8203 28 1 22.1797 1 15V15Z" fill="url(#paint0_linear_358_140)" fill-opacity="0.7"/>
<path d="M0.25 14C0.25 6.40608 6.40608 0.25 14 0.25H18C25.5939 0.25 31.75 6.40608 31.75 14L30.25 15C30.25 8.7868 24.7655 3.75 18 3.75H14C7.23451 3.75 1.75 8.7868 1.75 15L0.25 14ZM31.75 16C31.75 23.5939 25.5939 29.75 18 29.75H14C6.40608 29.75 0.25 23.5939 0.25 16L1.75 15C1.75 21.2132 7.23451 26.25 14 26.25H18C24.7655 26.25 30.25 21.2132 30.25 15L31.75 16ZM14 29.75C6.40608 29.75 0.25 23.5939 0.25 16V14C0.25 6.40608 6.40608 0.25 14 0.25V3.75C7.23451 3.75 1.75 8.7868 1.75 15C1.75 21.2132 7.23451 26.25 14 26.25V29.75ZM18 0.25C25.5939 0.25 31.75 6.40608 31.75 14V16C31.75 23.5939 25.5939 29.75 18 29.75V26.25C24.7655 26.25 30.25 21.2132 30.25 15C30.25 8.7868 24.7655 3.75 18 3.75V0.25Z" fill="url(#paint1_linear_358_140)" fill-opacity="0.9"/>
</g>
<path d="M19.2124 15.5475H16.4624V18.2975H14.6421V15.5475H11.8843V13.7193H14.6421V10.9693H16.4624V13.7193H19.2124V15.5475Z" fill="url(#paint2_linear_358_140)"/>
<defs>
<filter id="filter0_b_358_140" x="-4.75" y="-4.75" width="41.5" height="39.5" filterUnits="userSpaceOnUse" color-interpolation-filters="sRGB">
<feFlood flood-opacity="0" result="BackgroundImageFix"/>
<feGaussianBlur in="BackgroundImageFix" stdDeviation="2.5"/>
<feComposite in2="SourceAlpha" operator="in" result="effect1_backgroundBlur_358_140"/>
<feBlend mode="normal" in="SourceGraphic" in2="effect1_backgroundBlur_358_140" result="shape"/>
</filter>
<linearGradient id="paint0_linear_358_140" x1="10" y1="2" x2="18" y2="26.5" gradientUnits="userSpaceOnUse">
<stop offset="0.265625" stop-color="#FEFEFE"/>
<stop offset="0.557292" stop-color="white"/>
<stop offset="1" stop-color="#B8B1B1"/>
</linearGradient>
<linearGradient id="paint1_linear_358_140" x1="14.2273" y1="2" x2="25.983" y2="25.8403" gradientUnits="userSpaceOnUse">
<stop stop-color="#FFFEDC"/>
<stop offset="0.176216" stop-color="#E6E4BA"/>
<stop offset="0.697288" stop-color="#A8A684"/>
<stop offset="1" stop-color="#5F5E4E"/>
</linearGradient>
<linearGradient id="paint2_linear_358_140" x1="-1.49988" y1="-7" x2="22.5001" y2="31" gradientUnits="userSpaceOnUse">
<stop offset="0.518108" stop-color="#616060"/>
<stop offset="0.599218" stop-color="#8D8C8C"/>
<stop offset="0.683082"/>
</linearGradient>
</defs>
</svg>
