<svg width="192" height="66" viewBox="0 0 192 66" fill="none" xmlns="http://www.w3.org/2000/svg">
<rect width="192" height="66" rx="27.5" fill="url(#paint0_linear_276_90)" fill-opacity="0.9"/>
<rect x="1" y="1" width="190" height="64" rx="26.5" stroke="url(#paint1_linear_276_90)" stroke-opacity="0.7" stroke-width="2"/>
<path d="M74.2328 26H72.2016V23.25H65.0609V26H63.0297V20.3984C63.0297 19.5807 63.1703 18.8281 63.4516 18.1406C63.7328 17.4531 64.1234 16.862 64.6234 16.3672C65.1234 15.8724 65.7146 15.487 66.3969 15.2109C67.0792 14.9349 67.824 14.7969 68.6312 14.7969H73.2094C73.35 14.7969 73.4828 14.8229 73.6078 14.875C73.7328 14.9271 73.8422 15 73.9359 15.0938C74.0297 15.1875 74.1026 15.2969 74.1547 15.4219C74.2068 15.5469 74.2328 15.6797 74.2328 15.8203V26ZM65.0609 21.2188H72.2016V16.8281H68.6312C68.5687 16.8281 68.4359 16.8385 68.2328 16.8594C68.0349 16.875 67.8031 16.9193 67.5375 16.9922C67.2771 17.0651 67.001 17.1771 66.7094 17.3281C66.4177 17.4792 66.1495 17.6875 65.9047 17.9531C65.6599 18.2188 65.4568 18.5521 65.2953 18.9531C65.1391 19.349 65.0609 19.8307 65.0609 20.3984V21.2188ZM87.1397 23.5391C87.1397 23.7891 87.0954 24.0573 87.0069 24.3438C86.9235 24.6302 86.7829 24.8958 86.585 25.1406C86.3923 25.3854 86.1397 25.5911 85.8272 25.7578C85.5147 25.9193 85.1319 26 84.6787 26H76.9678C76.822 26 76.6866 25.974 76.5616 25.9219C76.4366 25.8698 76.3272 25.7995 76.2334 25.7109C76.1449 25.6172 76.0746 25.5078 76.0225 25.3828C75.9704 25.2578 75.9444 25.1224 75.9444 24.9766V15.8203C75.9444 15.6797 75.9704 15.5469 76.0225 15.4219C76.0746 15.2969 76.1449 15.1875 76.2334 15.0938C76.3272 15 76.4366 14.9271 76.5616 14.875C76.6866 14.8229 76.822 14.7969 76.9678 14.7969H83.7647C84.0147 14.7969 84.2829 14.8411 84.5694 14.9297C84.8558 15.0182 85.1215 15.1615 85.3662 15.3594C85.6162 15.5521 85.822 15.8047 85.9834 16.1172C86.1501 16.4297 86.2334 16.8125 86.2334 17.2656V17.6484C86.2334 18.0078 86.1735 18.3958 86.0537 18.8125C85.934 19.224 85.7412 19.6146 85.4756 19.9844C85.7048 20.125 85.9183 20.2943 86.1162 20.4922C86.3194 20.6901 86.4965 20.9193 86.6475 21.1797C86.7985 21.4401 86.9183 21.7344 87.0069 22.0625C87.0954 22.3906 87.1397 22.7526 87.1397 23.1484V23.5391ZM85.1084 23.1484C85.1084 22.8828 85.0668 22.6458 84.9834 22.4375C84.9001 22.224 84.7829 22.0417 84.6319 21.8906C84.4808 21.7396 84.2985 21.625 84.085 21.5469C83.8715 21.4635 83.6319 21.4219 83.3662 21.4219H78.7881V19.375H82.4522C82.7178 19.375 82.9574 19.3359 83.1709 19.2578C83.3845 19.1745 83.5668 19.0573 83.7178 18.9062C83.8689 18.7552 83.9834 18.5755 84.0616 18.3672C84.1449 18.1536 84.1866 17.9141 84.1866 17.6484V17.2656C84.1866 16.974 84.0459 16.8281 83.7647 16.8281H77.9756V23.9688H84.6787C84.7152 23.9688 84.7595 23.9661 84.8116 23.9609C84.8636 23.9557 84.9105 23.9401 84.9522 23.9141C84.9939 23.888 85.0303 23.8438 85.0616 23.7812C85.0928 23.7188 85.1084 23.6328 85.1084 23.5234V23.1484ZM100.031 21.4688C100.031 22.151 99.9137 22.7786 99.6794 23.3516C99.445 23.9245 99.1195 24.4193 98.7028 24.8359C98.2861 25.2526 97.7914 25.5781 97.2184 25.8125C96.6507 26.0417 96.0309 26.1562 95.3591 26.1562H92.6091C91.9372 26.1562 91.3148 26.0417 90.7419 25.8125C90.169 25.5781 89.6742 25.2526 89.2575 24.8359C88.8408 24.4193 88.5127 23.9245 88.2731 23.3516C88.0387 22.7786 87.9216 22.151 87.9216 21.4688V19.3281C87.9216 18.651 88.0387 18.026 88.2731 17.4531C88.5127 16.875 88.8408 16.3802 89.2575 15.9688C89.6742 15.5521 90.169 15.2266 90.7419 14.9922C91.3148 14.7578 91.9372 14.6406 92.6091 14.6406H95.3591C96.0309 14.6406 96.6507 14.7578 97.2184 14.9922C97.7914 15.2266 98.2861 15.5521 98.7028 15.9688C99.1195 16.3802 99.445 16.875 99.6794 17.4531C99.9137 18.026 100.031 18.651 100.031 19.3281V21.4688ZM97.9997 19.3281C97.9997 18.9271 97.9346 18.5651 97.8044 18.2422C97.6794 17.9141 97.4997 17.6354 97.2653 17.4062C97.0361 17.1719 96.7575 16.9922 96.4294 16.8672C96.1065 16.737 95.7497 16.6719 95.3591 16.6719H92.6091C92.2132 16.6719 91.8512 16.737 91.5231 16.8672C91.2002 16.9922 90.9216 17.1719 90.6872 17.4062C90.4528 17.6354 90.2705 17.9141 90.1403 18.2422C90.0153 18.5651 89.9528 18.9271 89.9528 19.3281V21.4688C89.9528 21.8698 90.0153 22.2344 90.1403 22.5625C90.2705 22.8854 90.4528 23.1641 90.6872 23.3984C90.9216 23.6276 91.2002 23.8073 91.5231 23.9375C91.8512 24.0625 92.2132 24.125 92.6091 24.125H95.3434C95.7393 24.125 96.0986 24.0625 96.4216 23.9375C96.7497 23.8073 97.0309 23.6276 97.2653 23.3984C97.4997 23.1641 97.6794 22.8854 97.8044 22.5625C97.9346 22.2344 97.9997 21.8698 97.9997 21.4688V19.3281ZM112.375 24.9766C112.375 25.1224 112.349 25.2578 112.297 25.3828C112.245 25.5078 112.172 25.6172 112.078 25.7109C111.985 25.7995 111.875 25.8698 111.75 25.9219C111.625 25.974 111.493 26 111.352 26H106.774C106.341 26 105.904 25.9531 105.461 25.8594C105.019 25.7656 104.589 25.6224 104.172 25.4297C103.761 25.2318 103.373 24.9818 103.008 24.6797C102.644 24.3776 102.323 24.0208 102.047 23.6094C101.776 23.1927 101.563 22.7188 101.407 22.1875C101.25 21.651 101.172 21.0547 101.172 20.3984V14.7969H103.203V20.3984C103.203 20.9714 103.282 21.4557 103.438 21.8516C103.599 22.2474 103.802 22.5781 104.047 22.8438C104.292 23.1094 104.56 23.3177 104.852 23.4688C105.144 23.6198 105.42 23.7318 105.68 23.8047C105.946 23.8776 106.177 23.9245 106.375 23.9453C106.578 23.9609 106.711 23.9688 106.774 23.9688H110.344V14.7969H112.375V24.9766ZM124.227 16.8281H119.751V26H117.72V16.8281H113.235V14.7969H124.227V16.8281ZM44.3481 42.8281H39.8716V52H37.8403V42.8281H33.3559V40.7969H44.3481V42.8281ZM47.255 45.375H54.3878V40.7969H56.4191V52H54.3878V47.4219H47.255V52H45.2238V40.7969H47.255V45.375ZM67.3728 47.4219H60.9587V45.375H67.3728V47.4219ZM68.2869 52H60.9587C60.6775 52 60.3702 51.9505 60.0369 51.8516C59.7035 51.7526 59.3936 51.5911 59.1072 51.3672C58.8259 51.138 58.589 50.8438 58.3962 50.4844C58.2087 50.1198 58.115 49.6745 58.115 49.1484V41.8203C58.115 41.6797 58.141 41.5469 58.1931 41.4219C58.2452 41.2969 58.3155 41.1875 58.4041 41.0938C58.4978 41 58.6072 40.9271 58.7322 40.875C58.8572 40.8229 58.9926 40.7969 59.1384 40.7969H68.2869V42.8281H60.1462V49.1484C60.1462 49.4141 60.2166 49.6172 60.3572 49.7578C60.4978 49.8984 60.7035 49.9688 60.9744 49.9688H68.2869V52ZM83.4444 47.4219H77.0225V45.375H83.4444V47.4219ZM84.3506 42.8281H76.21V52H74.1787V41.8203C74.1787 41.6797 74.2048 41.5469 74.2569 41.4219C74.309 41.2969 74.3793 41.1875 74.4678 41.0938C74.5616 41 74.6709 40.9271 74.7959 40.875C74.9209 40.8229 75.0564 40.7969 75.2022 40.7969H84.3506V42.8281ZM94.5622 47.4219H88.1481V45.375H94.5622V47.4219ZM95.4762 52H88.1481C87.8669 52 87.5596 51.9505 87.2262 51.8516C86.8929 51.7526 86.583 51.5911 86.2966 51.3672C86.0153 51.138 85.7783 50.8438 85.5856 50.4844C85.3981 50.1198 85.3044 49.6745 85.3044 49.1484V41.8203C85.3044 41.6797 85.3304 41.5469 85.3825 41.4219C85.4346 41.2969 85.5049 41.1875 85.5934 41.0938C85.6872 41 85.7966 40.9271 85.9216 40.875C86.0466 40.8229 86.182 40.7969 86.3278 40.7969H95.4762V42.8281H87.3356V49.1484C87.3356 49.4141 87.4059 49.6172 87.5466 49.7578C87.6872 49.8984 87.8929 49.9688 88.1637 49.9688H95.4762V52ZM107.524 48.7031C107.524 49.1042 107.472 49.4661 107.368 49.7891C107.269 50.1068 107.136 50.388 106.969 50.6328C106.802 50.8776 106.607 51.0859 106.383 51.2578C106.159 51.4297 105.927 51.5703 105.688 51.6797C105.448 51.7891 105.203 51.8698 104.953 51.9219C104.709 51.974 104.477 52 104.258 52H96.4222V49.9688H104.258C104.649 49.9688 104.951 49.8542 105.164 49.625C105.383 49.3958 105.493 49.0885 105.493 48.7031C105.493 48.5156 105.464 48.3438 105.407 48.1875C105.349 48.0312 105.266 47.8958 105.157 47.7812C105.052 47.6667 104.922 47.5781 104.766 47.5156C104.615 47.4531 104.446 47.4219 104.258 47.4219H99.5863C99.2581 47.4219 98.904 47.3646 98.5238 47.25C98.1435 47.1302 97.7894 46.9401 97.4613 46.6797C97.1383 46.4193 96.8675 46.0781 96.6488 45.6562C96.4352 45.2344 96.3284 44.7188 96.3284 44.1094C96.3284 43.5 96.4352 42.987 96.6488 42.5703C96.8675 42.1484 97.1383 41.8073 97.4613 41.5469C97.7894 41.2812 98.1435 41.0911 98.5238 40.9766C98.904 40.8568 99.2581 40.7969 99.5863 40.7969H106.5V42.8281H99.5863C99.2008 42.8281 98.8988 42.9453 98.68 43.1797C98.4665 43.4141 98.3597 43.724 98.3597 44.1094C98.3597 44.5 98.4665 44.8099 98.68 45.0391C98.8988 45.263 99.2008 45.375 99.5863 45.375H104.258H104.274C104.493 45.3802 104.724 45.4115 104.969 45.4688C105.214 45.5208 105.456 45.6042 105.696 45.7188C105.94 45.8333 106.172 45.9792 106.391 46.1562C106.61 46.3281 106.802 46.5365 106.969 46.7812C107.141 47.026 107.276 47.3073 107.375 47.625C107.474 47.9427 107.524 48.3021 107.524 48.7031ZM118.571 42.8281H114.095V52H112.063V42.8281H107.579V40.7969H118.571V42.8281ZM121.478 52H119.447V40.7969H121.478V52ZM134.424 40.7969L129.119 51.6016C129.036 51.7682 128.911 51.901 128.744 52C128.583 52.1042 128.403 52.1562 128.205 52.1562C128.013 52.1562 127.833 52.1042 127.666 52C127.505 51.901 127.38 51.7682 127.291 51.6016L121.994 40.7969H124.268L128.205 48.8672L132.158 40.7969H134.424ZM145.628 52H143.597V49.25H136.456V52H134.425V46.3984C134.425 45.5807 134.565 44.8281 134.847 44.1406C135.128 43.4531 135.518 42.862 136.018 42.3672C136.518 41.8724 137.11 41.487 137.792 41.2109C138.474 40.9349 139.219 40.7969 140.026 40.7969H144.604C144.745 40.7969 144.878 40.8229 145.003 40.875C145.128 40.9271 145.237 41 145.331 41.0938C145.425 41.1875 145.498 41.2969 145.55 41.4219C145.602 41.5469 145.628 41.6797 145.628 41.8203V52ZM136.456 47.2188H143.597V42.8281H140.026C139.964 42.8281 139.831 42.8385 139.628 42.8594C139.43 42.875 139.198 42.9193 138.932 42.9922C138.672 43.0651 138.396 43.1771 138.104 43.3281C137.813 43.4792 137.544 43.6875 137.3 43.9531C137.055 44.2188 136.852 44.5521 136.69 44.9531C136.534 45.349 136.456 45.8307 136.456 46.3984V47.2188ZM157.644 52H148.378C148.233 52 148.097 51.974 147.972 51.9219C147.847 51.8698 147.738 51.7995 147.644 51.7109C147.556 51.6172 147.485 51.5078 147.433 51.3828C147.381 51.2578 147.355 51.1224 147.355 50.9766V40.7969H149.386V49.9688H157.644V52Z" fill="url(#paint2_linear_276_90)"/>
<defs>
<linearGradient id="paint0_linear_276_90" x1="84.6545" y1="-9.63645e-07" x2="98.8266" y2="72.461" gradientUnits="userSpaceOnUse">
<stop stop-color="white"/>
<stop offset="0.176216" stop-color="#DBDBDB"/>
<stop offset="0.697288" stop-color="#9E9E9E"/>
<stop offset="1" stop-color="#535252"/>
</linearGradient>
<linearGradient id="paint1_linear_276_90" x1="96" y1="0" x2="96" y2="66" gradientUnits="userSpaceOnUse">
<stop stop-color="#2E13D0"/>
<stop offset="0.604167" stop-color="#784CD6"/>
<stop offset="1" stop-color="#D2C5F8"/>
</linearGradient>
<linearGradient id="paint2_linear_276_90" x1="64.4832" y1="22.5" x2="103.791" y2="72.9801" gradientUnits="userSpaceOnUse">
<stop stop-color="#9E00FF"/>
<stop offset="1" stop-color="#0500FF"/>
</linearGradient>
</defs>
</svg>
