<svg width="124" height="56" viewBox="0 0 124 56" fill="none" xmlns="http://www.w3.org/2000/svg">
<g filter="url(#filter0_b_382_99)">
<rect width="124" height="56" rx="28" fill="url(#paint0_linear_382_99)" fill-opacity="0.9"/>
<rect x="1" y="1" width="122" height="54" rx="27" stroke="url(#paint1_linear_382_99)" stroke-opacity="0.7" stroke-width="2"/>
</g>
<path d="M53.6553 32.5391C53.6553 32.7891 53.611 33.0573 53.5225 33.3438C53.4392 33.6302 53.2985 33.8958 53.1006 34.1406C52.9079 34.3854 52.6553 34.5911 52.3428 34.7578C52.0303 34.9193 51.6475 35 51.1944 35H43.4834C43.3376 35 43.2022 34.974 43.0772 34.9219C42.9522 34.8698 42.8428 34.7995 42.7491 34.7109C42.6605 34.6172 42.5902 34.5078 42.5381 34.3828C42.486 34.2578 42.46 34.1224 42.46 33.9766V24.8203C42.46 24.6797 42.486 24.5469 42.5381 24.4219C42.5902 24.2969 42.6605 24.1875 42.7491 24.0938C42.8428 24 42.9522 23.9271 43.0772 23.875C43.2022 23.8229 43.3376 23.7969 43.4834 23.7969H50.2803C50.5303 23.7969 50.7985 23.8411 51.085 23.9297C51.3715 24.0182 51.6371 24.1615 51.8819 24.3594C52.1319 24.5521 52.3376 24.8047 52.4991 25.1172C52.6657 25.4297 52.7491 25.8125 52.7491 26.2656V26.6484C52.7491 27.0078 52.6892 27.3958 52.5694 27.8125C52.4496 28.224 52.2569 28.6146 51.9912 28.9844C52.2204 29.125 52.434 29.2943 52.6319 29.4922C52.835 29.6901 53.0121 29.9193 53.1631 30.1797C53.3142 30.4401 53.434 30.7344 53.5225 31.0625C53.611 31.3906 53.6553 31.7526 53.6553 32.1484V32.5391ZM51.6241 32.1484C51.6241 31.8828 51.5824 31.6458 51.4991 31.4375C51.4157 31.224 51.2985 31.0417 51.1475 30.8906C50.9965 30.7396 50.8142 30.625 50.6006 30.5469C50.3871 30.4635 50.1475 30.4219 49.8819 30.4219H45.3037V28.375H48.9678C49.2334 28.375 49.473 28.3359 49.6866 28.2578C49.9001 28.1745 50.0824 28.0573 50.2334 27.9062C50.3845 27.7552 50.4991 27.5755 50.5772 27.3672C50.6605 27.1536 50.7022 26.9141 50.7022 26.6484V26.2656C50.7022 25.974 50.5616 25.8281 50.2803 25.8281H44.4912V32.9688H51.1944C51.2308 32.9688 51.2751 32.9661 51.3272 32.9609C51.3793 32.9557 51.4261 32.9401 51.4678 32.9141C51.5095 32.888 51.5459 32.8438 51.5772 32.7812C51.6084 32.7188 51.6241 32.6328 51.6241 32.5234V32.1484ZM63.2809 32.2031C63.2809 32.4844 63.2315 32.7891 63.1325 33.1172C63.0335 33.4401 62.8721 33.7422 62.6481 34.0234C62.4294 34.2995 62.1403 34.5312 61.7809 34.7188C61.4268 34.9062 60.9945 35 60.4841 35H56.82C56.5387 35 56.2341 34.9505 55.9059 34.8516C55.583 34.7526 55.2809 34.5938 54.9997 34.375C54.7236 34.151 54.4919 33.862 54.3044 33.5078C54.1169 33.1484 54.0231 32.7135 54.0231 32.2031C54.0231 31.9219 54.0726 31.6172 54.1716 31.2891C54.2705 30.9609 54.4294 30.6589 54.6481 30.3828C54.8721 30.1016 55.1611 29.8672 55.5153 29.6797C55.8747 29.4922 56.3096 29.3984 56.82 29.3984H60.4841V31.3359H56.82C56.544 31.3359 56.3304 31.4219 56.1794 31.5938C56.0283 31.7604 55.9528 31.9688 55.9528 32.2188C55.9528 32.4844 56.0387 32.6927 56.2106 32.8438C56.3877 32.9896 56.596 33.0625 56.8356 33.0625H60.4841C60.7601 33.0625 60.9736 32.9792 61.1247 32.8125C61.2757 32.6458 61.3512 32.4375 61.3512 32.1875V29.3516C61.3512 29.0859 61.2679 28.875 61.1012 28.7188C60.9398 28.5625 60.7341 28.4844 60.4841 28.4844H56.0231V26.5547H60.4841C60.7653 26.5547 61.0674 26.6042 61.3903 26.7031C61.7184 26.8021 62.0205 26.9635 62.2966 27.1875C62.5778 27.4062 62.8122 27.6953 62.9997 28.0547C63.1872 28.4089 63.2809 28.8411 63.2809 29.3516V32.2031ZM72.555 35H67.0472C66.7659 35 66.4586 34.9505 66.1253 34.8516C65.792 34.7526 65.4821 34.5911 65.1956 34.3672C64.9144 34.138 64.6774 33.8438 64.4847 33.4844C64.2972 33.1198 64.2034 32.6745 64.2034 32.1484V29.3984C64.2034 29.2057 64.2243 29.0026 64.2659 28.7891C64.3128 28.5755 64.3831 28.3646 64.4769 28.1562C64.5706 27.9427 64.6904 27.7396 64.8363 27.5469C64.9873 27.3542 65.167 27.1849 65.3753 27.0391C65.5889 26.8932 65.8336 26.776 66.1097 26.6875C66.3857 26.599 66.6982 26.5547 67.0472 26.5547H72.555V28.5859H67.0472C66.7816 28.5859 66.5784 28.6536 66.4378 28.7891C66.3024 28.9245 66.2347 29.1328 66.2347 29.4141V32.1484C66.2347 32.4141 66.305 32.6172 66.4456 32.7578C66.5863 32.8984 66.792 32.9688 67.0628 32.9688H72.555V35ZM83.5166 35H80.5869L76.4931 31.0469C76.264 30.8385 76.1572 30.5781 76.1728 30.2656C76.1832 30.1198 76.2197 29.9844 76.2822 29.8594C76.3499 29.7292 76.441 29.6198 76.5556 29.5312L80.2666 26.5391H83.5166L78.7353 30.3906L83.5166 35ZM75.6572 35H73.6259V22.9844H75.6572V35Z" fill="black"/>
<defs>
<filter id="filter0_b_382_99" x="-5" y="-5" width="134" height="66" filterUnits="userSpaceOnUse" color-interpolation-filters="sRGB">
<feFlood flood-opacity="0" result="BackgroundImageFix"/>
<feGaussianBlur in="BackgroundImageFix" stdDeviation="2.5"/>
<feComposite in2="SourceAlpha" operator="in" result="effect1_backgroundBlur_382_99"/>
<feBlend mode="normal" in="SourceGraphic" in2="effect1_backgroundBlur_382_99" result="shape"/>
</filter>
<linearGradient id="paint0_linear_382_99" x1="54.6727" y1="-8.17638e-07" x2="70.0591" y2="59.8803" gradientUnits="userSpaceOnUse">
<stop stop-color="white"/>
<stop offset="0.176216" stop-color="#DBDBDB"/>
<stop offset="0.697288" stop-color="#9E9E9E"/>
<stop offset="1" stop-color="#535252"/>
</linearGradient>
<linearGradient id="paint1_linear_382_99" x1="62" y1="0" x2="62" y2="56" gradientUnits="userSpaceOnUse">
<stop stop-color="#2E13D0"/>
<stop offset="0.604167" stop-color="#784CD6"/>
<stop offset="1" stop-color="#D2C5F8"/>
</linearGradient>
</defs>
</svg>
