<svg width="99" height="57" viewBox="0 0 99 57" fill="none" xmlns="http://www.w3.org/2000/svg">
<rect y="1" width="99" height="55" rx="27.5" fill="url(#paint0_linear_189_55)" fill-opacity="0.7"/>
<rect x="14" y="4" width="71" height="31" rx="15.5" fill="url(#paint1_linear_189_55)" fill-opacity="0.71"/>
<path d="M73.4381 18.615C73.1193 18.6912 72.9436 18.9034 72.9266 19.2244C72.9156 19.5027 72.9972 19.6502 73.2468 19.7919C73.3301 19.8393 73.4386 20.0202 73.4794 20.1905L73.5562 20.4914L72.7582 20.6352C72.3216 20.7087 71.9068 20.7759 71.8424 20.7762C71.6383 20.7796 71.5081 20.2006 71.6501 19.9506C71.7813 19.7036 71.7709 19.496 71.6126 19.2407C71.3847 18.8818 70.7681 18.9172 70.5551 19.2922C70.417 19.5352 70.5253 19.9916 70.7474 20.1177C70.8307 20.1651 70.9491 20.3607 71.003 20.5567L71.1029 20.898L70.1968 21.0067L69.2939 21.1091L69.2088 20.8221C69.1497 20.651 69.1562 20.4616 69.2192 20.3508C69.5268 19.8092 68.9706 19.1722 68.4105 19.4142C67.9901 19.5884 67.9294 20.2611 68.3112 20.478C68.4779 20.5727 68.6703 20.9939 68.5993 21.1189C68.5796 21.1537 68.3282 21.1762 67.2232 21.2462C67.1767 21.2471 66.9446 21.5748 66.713 21.9664C66.3325 22.6042 66.2444 22.7103 65.8708 22.948C65.6412 23.0932 65.1588 23.2963 64.7923 23.3915C63.3743 23.7705 53.6362 26.2364 53.5759 26.2295C53.5402 26.2274 53.3583 25.8855 53.1728 25.4681C52.2815 23.5297 51.0125 22.2396 49.5799 21.8201C48.471 21.4931 47.588 21.6254 45.8251 22.3686C43.7445 23.2519 42.767 23.5505 41.7205 23.5986C40.9174 23.6383 40.4134 23.5724 38.2793 23.1589C37.228 22.9566 36.1078 22.7793 35.7976 22.7593C34.3179 22.6811 32.4126 23.0128 31.2652 23.5455C30.5946 23.8531 29.7739 24.4248 29.2756 24.9309C28.7165 25.495 27.9693 26.8425 27.7448 27.7068C27.0799 30.2673 27.5025 33.6938 28.9466 37.3421C29.5786 38.9129 30.4953 40.3704 31.5009 41.3642C32.1364 41.9916 33.4613 42.7625 34.2441 42.9685C35.4431 43.2821 36.7183 43.2355 38.095 42.833C39.8315 42.3134 40.933 41.6353 42.8785 39.8756C45.5598 37.4504 46.1058 37.2004 49.7725 36.6939C51.6673 36.4296 52.4932 36.0908 53.2785 35.2422C54.2948 34.1482 54.721 32.3798 54.4968 30.2692C54.4425 29.8157 54.4233 29.4286 54.4533 29.4088C54.5054 29.3651 63.9474 26.5474 65.4322 26.1326C65.8497 26.0118 66.4232 25.9241 66.6941 25.9313C67.1368 25.9441 67.2668 25.9902 67.9202 26.3432C68.3197 26.561 68.6865 26.7234 68.7273 26.7005C69.723 26.1918 69.9469 26.0895 69.9882 26.113C70.0577 26.1525 70.1426 26.5682 70.0983 26.6623C70.0707 26.7109 70.0332 26.8089 69.9976 26.8716C69.9078 27.0778 70.0675 27.4436 70.3037 27.5778C70.5953 27.7434 70.9951 27.6217 71.1617 27.3124C71.3126 27.0306 71.1918 26.6132 70.9071 26.4514C70.789 26.3844 70.6898 26.236 70.6499 26.048L70.5686 25.7541L71.4035 25.3836L72.2353 25.0023L72.3273 25.3574C72.3873 25.5749 72.3798 25.782 72.3167 25.8932C72.1905 26.1153 72.3401 26.5309 72.597 26.6768C72.9719 26.8898 73.517 26.5933 73.5244 26.1754C73.5295 25.8754 73.4323 25.6913 73.1931 25.5464C72.9432 25.4044 72.7585 24.8404 72.9355 24.7388C72.991 24.7061 73.3817 24.5514 73.7943 24.391L74.5534 24.1058L74.6415 24.4036C74.6937 24.5707 74.6931 24.7817 74.6458 24.8651C74.5038 25.115 74.5093 25.2834 74.6615 25.5165C75.0581 26.1275 75.98 25.7327 75.7842 25.0431C75.7464 24.8837 75.6328 24.7276 75.5147 24.6605C75.3898 24.5895 75.2905 24.4412 75.2375 24.2275L75.1544 23.9048L75.7243 23.7417C76.4138 23.5459 76.495 23.4359 76.4823 22.6663C76.4696 21.9614 76.3047 21.3627 75.9446 20.7355C75.5756 20.076 75.4428 20.0188 74.7501 20.2041L74.177 20.3558L74.0832 20.0361C74.0193 19.8254 74.0286 19.6472 74.0996 19.5222C74.3504 19.0781 73.9268 18.4978 73.4381 18.615ZM46.3126 29.1089C47.5052 30.8238 46.1664 33.1486 44.0459 33.0183C43.0266 32.9534 42.0948 32.1855 41.8121 31.1801C41.636 30.52 41.7195 29.888 42.0745 29.2631C42.4598 28.6008 42.9147 28.253 43.6284 28.0796C44.733 27.8163 45.6615 28.1698 46.3126 29.1089ZM38.6434 32.006C38.9445 33.1411 39.1805 34.1477 39.1579 34.2355C39.075 34.6565 38.49 34.8293 38.1805 34.5341C38.1059 34.4553 37.7894 33.4763 37.4776 32.3442C36.9468 30.4174 36.9225 30.2661 37.0567 30.0299C37.2302 29.7245 37.5637 29.6385 37.876 29.8158C38.0569 29.9191 38.1657 30.2286 38.6434 32.006Z" fill="url(#paint2_linear_189_55)"/>
<defs>
<linearGradient id="paint0_linear_189_55" x1="49.5" y1="1" x2="49.5" y2="56" gradientUnits="userSpaceOnUse">
<stop stop-color="#BBBBBB" stop-opacity="0.26"/>
<stop offset="0.432292" stop-color="#494949"/>
<stop offset="1" stop-color="#D8D8D8" stop-opacity="0.72"/>
</linearGradient>
<linearGradient id="paint1_linear_189_55" x1="49.5" y1="4" x2="49.5" y2="35" gradientUnits="userSpaceOnUse">
<stop offset="0.119792" stop-color="white"/>
<stop offset="0.53125" stop-color="#D1D1D1" stop-opacity="0.44"/>
<stop offset="1" stop-color="#8E8E8E" stop-opacity="0"/>
</linearGradient>
<linearGradient id="paint2_linear_189_55" x1="46.1491" y1="54.3835" x2="53.805" y2="10.3906" gradientUnits="userSpaceOnUse">
<stop stop-color="#2400FF"/>
<stop offset="0.541667" stop-color="#9E00FF"/>
<stop offset="1" stop-color="#3600FF"/>
</linearGradient>
</defs>
</svg>
