<svg width="99" height="56" viewBox="0 0 99 56" fill="none" xmlns="http://www.w3.org/2000/svg">
<rect width="99" height="55" rx="27.5" fill="url(#paint0_linear_339_284)" fill-opacity="0.7"/>
<rect width="99" height="55" rx="27.5" fill="url(#paint1_radial_339_284)" fill-opacity="0.7"/>
<rect x="2" y="2" width="95" height="51" rx="25.5" stroke="#FFF8F8" stroke-opacity="0.01" stroke-width="4"/>
<path d="M72.7291 17.626C72.4103 17.7022 72.2346 17.9144 72.2176 18.2353C72.2066 18.5137 72.2882 18.6611 72.5378 18.8029C72.6211 18.8502 72.7296 19.0312 72.7704 19.2014L72.8472 19.5024L72.0492 19.6461C71.6126 19.7196 71.1978 19.7868 71.1334 19.7872C70.9293 19.7905 70.7992 19.2115 70.9412 18.9616C71.0724 18.7146 71.0619 18.5069 70.9036 18.2517C70.6757 17.8928 70.0591 17.9282 69.8461 18.3031C69.708 18.5462 69.8163 19.0025 70.0384 19.1287C70.1217 19.176 70.2401 19.3717 70.2941 19.5677L70.3939 19.909L69.4878 20.0177L68.585 20.1201L68.4998 19.833C68.4407 19.662 68.4472 19.4726 68.5102 19.3617C68.8178 18.8201 68.2616 18.1831 67.7015 18.4251C67.2811 18.5993 67.2204 19.2721 67.6022 19.489C67.7689 19.5837 67.9613 20.0049 67.8903 20.1299C67.8706 20.1647 67.6192 20.1872 66.5142 20.2572C66.4677 20.2581 66.2356 20.5857 66.004 20.9774C65.6235 21.6151 65.5354 21.7213 65.1618 21.959C64.9323 22.1041 64.4498 22.3073 64.0833 22.4024C62.6654 22.7814 52.9272 25.2474 52.8669 25.2405C52.8312 25.2384 52.6493 24.8964 52.4638 24.4791C51.5726 22.5406 50.3035 21.2505 48.8709 20.8311C47.762 20.504 46.879 20.6363 45.1161 21.3796C43.0355 22.2629 42.058 22.5615 41.0115 22.6096C40.2084 22.6493 39.7044 22.5834 37.5703 22.1699C36.519 21.9675 35.3988 21.7902 35.0886 21.7703C33.6089 21.692 31.7036 22.0238 30.5562 22.5565C29.8856 22.8641 29.0649 23.4358 28.5666 23.9419C28.0075 24.5059 27.2603 25.8534 27.0358 26.7177C26.3709 29.2783 26.7935 32.7047 28.2376 36.3531C28.8696 37.9238 29.7863 39.3813 30.7919 40.3752C31.4274 41.0026 32.7523 41.7734 33.5352 41.9795C34.7341 42.293 36.0093 42.2464 37.386 41.844C39.1225 41.3244 40.224 40.6463 42.1695 38.8865C44.8509 36.4614 45.3968 36.2114 49.0636 35.7049C50.9584 35.4405 51.7842 35.1018 52.5696 34.2532C53.5858 33.1592 54.012 31.3907 53.7879 29.2801C53.7335 28.8267 53.7143 28.4396 53.7443 28.4197C53.7964 28.376 63.2384 25.5584 64.7232 25.1435C65.1407 25.0227 65.7142 24.935 65.9851 24.9423C66.4278 24.9551 66.5578 25.0012 67.2112 25.3541C67.6107 25.5719 67.9775 25.7343 68.0183 25.7115C69.014 25.2028 69.2379 25.1005 69.2792 25.1239C69.3487 25.1634 69.4336 25.5792 69.3893 25.6733C69.3617 25.7218 69.3242 25.8199 69.2886 25.8825C69.1988 26.0888 69.3585 26.4546 69.5947 26.5887C69.8863 26.7544 70.2861 26.6327 70.4527 26.3234C70.6036 26.0416 70.4828 25.6241 70.1981 25.4624C70.08 25.3953 69.9808 25.2469 69.9409 25.059L69.8596 24.7651L70.6945 24.3946L71.5263 24.0132L71.6183 24.3683C71.6783 24.5859 71.6708 24.793 71.6077 24.9042C71.4815 25.1263 71.6312 25.5419 71.888 25.6878C72.2629 25.9008 72.808 25.6043 72.8154 25.1863C72.8205 24.8864 72.7233 24.7023 72.4842 24.5573C72.2342 24.4153 72.0495 23.8514 72.2266 23.7498C72.282 23.7171 72.6727 23.5624 73.0854 23.4019L73.8444 23.1168L73.9325 23.4146C73.9847 23.5817 73.9841 23.7927 73.9368 23.876C73.7948 24.126 73.8003 24.2944 73.9525 24.5275C74.3491 25.1385 75.271 24.7436 75.0753 24.0541C75.0374 23.8946 74.9239 23.7386 74.8058 23.6715C74.6808 23.6005 74.5815 23.4521 74.5285 23.2385L74.4454 22.9158L75.0153 22.7527C75.7048 22.5569 75.7861 22.4468 75.7733 21.6772C75.7606 20.9724 75.5957 20.3737 75.2356 19.7465C74.8666 19.087 74.7338 19.0297 74.0411 19.2151L73.4681 19.3668L73.3742 19.047C73.3103 18.8364 73.3196 18.6581 73.3906 18.5331C73.6414 18.0891 73.2178 17.5088 72.7291 17.626ZM45.6036 28.1199C46.7962 29.8347 45.4574 32.1595 43.3369 32.0292C42.3176 31.9644 41.3859 31.1965 41.1031 30.1911C40.927 29.531 41.0105 28.8989 41.3655 28.274C41.7508 27.6117 42.2057 27.264 42.9194 27.0906C44.024 26.8273 44.9525 27.1808 45.6036 28.1199ZM37.9344 31.0169C38.2355 32.152 38.4715 33.1587 38.449 33.2465C38.366 33.6675 37.781 33.8402 37.4715 33.5451C37.3969 33.4663 37.0805 32.4873 36.7686 31.3552C36.2378 29.4284 36.2135 29.2771 36.3477 29.0409C36.5212 28.7355 36.8547 28.6494 37.167 28.8268C37.3479 28.93 37.4567 29.2396 37.9344 31.0169Z" fill="url(#paint2_linear_339_284)" fill-opacity="0.85"/>
<defs>
<linearGradient id="paint0_linear_339_284" x1="49.5" y1="0" x2="49.5" y2="55" gradientUnits="userSpaceOnUse">
<stop stop-color="#BFBCBC" stop-opacity="0.63"/>
<stop offset="0.354148" stop-color="#646363"/>
<stop offset="1" stop-color="#FDFDFD" stop-opacity="0.72"/>
</linearGradient>
<radialGradient id="paint1_radial_339_284" cx="0" cy="0" r="1" gradientUnits="userSpaceOnUse" gradientTransform="translate(50 28) rotate(90) scale(40.5 55.7629)">
<stop stop-color="#FFFDFD" stop-opacity="0.51"/>
<stop offset="0.860343" stop-opacity="0.73"/>
</radialGradient>
<linearGradient id="paint2_linear_339_284" x1="42" y1="18" x2="33.5" y2="44" gradientUnits="userSpaceOnUse">
<stop offset="0.129555" stop-color="#FE5B00"/>
<stop offset="0.399068" stop-color="#F9BE79"/>
<stop offset="0.694742" stop-color="#D04013"/>
</linearGradient>
</defs>
</svg>
