<svg width="99" height="56" viewBox="0 0 99 56" fill="none" xmlns="http://www.w3.org/2000/svg">
<rect y="1" width="99" height="55" rx="27.5" fill="url(#paint0_linear_215_59)" fill-opacity="0.9"/>
<rect x="1" y="2" width="97" height="53" rx="26.5" stroke="url(#paint1_linear_215_59)" stroke-opacity="0.85" stroke-width="2"/>
<path d="M72.09 16.6545C71.7888 16.7266 71.6228 16.927 71.6068 17.2303C71.5963 17.4933 71.6734 17.6326 71.9093 17.7666C71.988 17.8113 72.0905 17.9823 72.1291 18.1432L72.2016 18.4275L71.4476 18.5633C71.0351 18.6328 70.6431 18.6963 70.5823 18.6966C70.3894 18.6998 70.2665 18.1527 70.4006 17.9165C70.5246 17.6832 70.5147 17.487 70.3651 17.2458C70.1498 16.9066 69.5672 16.9401 69.3659 17.2944C69.2354 17.5241 69.3378 17.9552 69.5476 18.0744C69.6263 18.1192 69.7382 18.304 69.7892 18.4892L69.8835 18.8117L69.0274 18.9145L68.1743 19.0112L68.0938 18.74C68.038 18.5784 68.0442 18.3994 68.1037 18.2946C68.3943 17.7829 67.8688 17.181 67.3396 17.4097C66.9423 17.5742 66.885 18.21 67.2457 18.4149C67.4032 18.5043 67.585 18.9024 67.5179 19.0205C67.4993 19.0533 67.2617 19.0746 66.2177 19.1407C66.1738 19.1416 65.9544 19.4512 65.7356 19.8213C65.3761 20.4239 65.2928 20.5242 64.9398 20.7487C64.7229 20.8859 64.267 21.0779 63.9208 21.1678C62.581 21.5259 53.3795 23.8559 53.3226 23.8494C53.2888 23.8474 53.117 23.5243 52.9416 23.13C52.0995 21.2983 50.9004 20.0793 49.5468 19.683C48.499 19.374 47.6646 19.499 45.9989 20.2013C44.033 21.0359 43.1094 21.318 42.1206 21.3635C41.3617 21.401 40.8855 21.3387 38.869 20.948C37.8757 20.7568 36.8172 20.5893 36.5241 20.5704C35.1259 20.4965 33.3257 20.8099 32.2415 21.3133C31.6078 21.6039 30.8324 22.1441 30.3615 22.6223C29.8333 23.1553 29.1273 24.4285 28.9151 25.2452C28.2869 27.6646 28.6862 30.9022 30.0507 34.3495C30.6478 35.8337 31.514 37.2108 32.4642 38.1499C33.0647 38.7427 34.3166 39.4711 35.0563 39.6658C36.1892 39.9621 37.3941 39.918 38.6949 39.5378C40.3356 39.0468 41.3764 38.4061 43.2147 36.7433C45.7483 34.4518 46.2642 34.2156 49.7288 33.737C51.5192 33.4872 52.2995 33.1672 53.0416 32.3654C54.0018 31.3316 54.4046 29.6607 54.1927 27.6664C54.1414 27.2379 54.1232 26.8722 54.1515 26.8534C54.2008 26.8121 63.1224 24.1497 64.5254 23.7578C64.9198 23.6436 65.4618 23.5607 65.7178 23.5676C66.136 23.5797 66.2589 23.6233 66.8762 23.9567C67.2537 24.1626 67.6003 24.316 67.6388 24.2944C68.5797 23.8138 68.7912 23.7171 68.8303 23.7393C68.896 23.7766 68.9762 24.1694 68.9343 24.2583C68.9082 24.3042 68.8728 24.3968 68.8392 24.456C68.7543 24.6509 68.9052 24.9966 69.1284 25.1233C69.4039 25.2799 69.7817 25.1648 69.9391 24.8726C70.0817 24.6063 69.9676 24.2119 69.6985 24.0591C69.5869 23.9957 69.4932 23.8555 69.4555 23.6779L69.3787 23.4002L70.1675 23.0501L70.9535 22.6898L71.0405 23.0253C71.0971 23.2309 71.0901 23.4265 71.0304 23.5316C70.9112 23.7415 71.0526 24.1342 71.2953 24.272C71.6496 24.4733 72.1646 24.1931 72.1716 23.7982C72.1764 23.5148 72.0846 23.3409 71.8586 23.2039C71.6224 23.0697 71.4479 22.5368 71.6152 22.4408C71.6676 22.4099 72.0368 22.2638 72.4267 22.1122L73.1439 21.8427L73.2271 22.1241C73.2764 22.282 73.2759 22.4814 73.2312 22.5601C73.097 22.7963 73.1022 22.9554 73.246 23.1757C73.6207 23.753 74.4918 23.3799 74.3069 22.7284C74.2711 22.5777 74.1638 22.4303 74.0522 22.3669C73.9341 22.2998 73.8404 22.1596 73.7902 21.9577L73.7117 21.6528L74.2502 21.4987C74.9018 21.3137 74.9785 21.2097 74.9664 20.4825C74.9545 19.8165 74.7986 19.2508 74.4584 18.6582C74.1097 18.035 73.9842 17.9809 73.3297 18.156L72.7883 18.2994L72.6996 17.9973C72.6392 17.7982 72.648 17.6298 72.7151 17.5117C72.952 17.0921 72.5518 16.5438 72.09 16.6545ZM46.4595 26.5701C47.5864 28.1904 46.3214 30.3871 44.3178 30.264C43.3547 30.2027 42.4743 29.4771 42.2071 28.5271C42.0407 27.9034 42.1196 27.3062 42.4551 26.7157C42.8191 26.0899 43.2489 25.7614 43.9233 25.5975C44.967 25.3487 45.8444 25.6827 46.4595 26.5701ZM39.213 29.3075C39.4975 30.38 39.7206 31.3311 39.6992 31.4141C39.6209 31.8119 39.0681 31.9752 38.7756 31.6963C38.7052 31.6218 38.4062 30.6968 38.1115 29.6271C37.61 27.8064 37.587 27.6635 37.7138 27.4403C37.8777 27.1517 38.1929 27.0704 38.4879 27.238C38.6589 27.3356 38.7617 27.6281 39.213 29.3075Z" fill="url(#paint2_linear_215_59)" fill-opacity="0.85"/>
<defs>
<linearGradient id="paint0_linear_215_59" x1="46.75" y1="-4" x2="71.0629" y2="57.203" gradientUnits="userSpaceOnUse">
<stop offset="0.0104696" stop-color="#5F5E5E"/>
<stop offset="0.267233" stop-color="#959595"/>
<stop offset="0.624561" stop-color="#D7D7D7"/>
<stop offset="0.959766" stop-color="white"/>
</linearGradient>
<linearGradient id="paint1_linear_215_59" x1="49.5" y1="1" x2="49.5" y2="56" gradientUnits="userSpaceOnUse">
<stop stop-color="#F9BE79"/>
<stop offset="0.427083" stop-color="#FE5B00"/>
<stop offset="0.890625" stop-color="#D04013"/>
</linearGradient>
<linearGradient id="paint2_linear_215_59" x1="40.7731" y1="43.0712" x2="59.8272" y2="9.52791" gradientUnits="userSpaceOnUse">
<stop offset="0.15625" stop-color="#FE5B00"/>
<stop offset="0.71875" stop-color="#F9BE79"/>
<stop offset="0.890625" stop-color="#E66000"/>
</linearGradient>
</defs>
</svg>
