<svg width="191" height="55" viewBox="0 0 191 55" fill="none" xmlns="http://www.w3.org/2000/svg">
<rect x="3" width="184" height="55" rx="27.5" fill="url(#paint0_linear_346_90)" fill-opacity="0.7"/>
<rect x="29.0202" y="3" width="131.96" height="31" rx="15.5" fill="url(#paint1_linear_346_90)" fill-opacity="0.71"/>
<path d="M45.2991 26.375H52.4319V21.7969H54.4632V33H52.4319V28.4219H45.2991V33H43.2679V21.7969H45.2991V26.375ZM68.6038 28.4688C68.6038 29.151 68.4866 29.7786 68.2522 30.3516C68.0179 30.9245 67.6923 31.4193 67.2757 31.8359C66.859 32.2526 66.3642 32.5781 65.7913 32.8125C65.2236 33.0417 64.6038 33.1562 63.9319 33.1562H61.1819C60.51 33.1562 59.8877 33.0417 59.3147 32.8125C58.7418 32.5781 58.247 32.2526 57.8304 31.8359C57.4137 31.4193 57.0856 30.9245 56.846 30.3516C56.6116 29.7786 56.4944 29.151 56.4944 28.4688V26.3281C56.4944 25.651 56.6116 25.026 56.846 24.4531C57.0856 23.875 57.4137 23.3802 57.8304 22.9688C58.247 22.5521 58.7418 22.2266 59.3147 21.9922C59.8877 21.7578 60.51 21.6406 61.1819 21.6406H63.9319C64.6038 21.6406 65.2236 21.7578 65.7913 21.9922C66.3642 22.2266 66.859 22.5521 67.2757 22.9688C67.6923 23.3802 68.0179 23.875 68.2522 24.4531C68.4866 25.026 68.6038 25.651 68.6038 26.3281V28.4688ZM66.5725 26.3281C66.5725 25.9271 66.5074 25.5651 66.3772 25.2422C66.2522 24.9141 66.0725 24.6354 65.8382 24.4062C65.609 24.1719 65.3304 23.9922 65.0022 23.8672C64.6793 23.737 64.3225 23.6719 63.9319 23.6719H61.1819C60.7861 23.6719 60.4241 23.737 60.096 23.8672C59.7731 23.9922 59.4944 24.1719 59.26 24.4062C59.0257 24.6354 58.8434 24.9141 58.7132 25.2422C58.5882 25.5651 58.5257 25.9271 58.5257 26.3281V28.4688C58.5257 28.8698 58.5882 29.2344 58.7132 29.5625C58.8434 29.8854 59.0257 30.1641 59.26 30.3984C59.4944 30.6276 59.7731 30.8073 60.096 30.9375C60.4241 31.0625 60.7861 31.125 61.1819 31.125H63.9163C64.3121 31.125 64.6715 31.0625 64.9944 30.9375C65.3225 30.8073 65.6038 30.6276 65.8382 30.3984C66.0725 30.1641 66.2522 29.8854 66.3772 29.5625C66.5074 29.2344 66.5725 28.8698 66.5725 28.4688V26.3281ZM83.6507 33H81.6038V26.3281L78.0022 32.6641C77.9137 32.8255 77.7887 32.9479 77.6272 33.0312C77.471 33.1146 77.3017 33.1562 77.1194 33.1562C76.9423 33.1562 76.7757 33.1146 76.6194 33.0312C76.4684 32.9479 76.3486 32.8255 76.26 32.6641L72.6429 26.3281V33H70.6116V22.6641C70.6116 22.4297 70.6793 22.2214 70.8147 22.0391C70.9554 21.8568 71.1377 21.7344 71.3616 21.6719C71.471 21.6458 71.5804 21.638 71.6897 21.6484C71.7991 21.6536 71.9033 21.6771 72.0022 21.7188C72.1064 21.7552 72.2002 21.8099 72.2835 21.8828C72.3668 21.9505 72.4371 22.0339 72.4944 22.1328L77.1194 30.1719L81.7444 22.1328C81.8642 21.9349 82.0283 21.7943 82.2366 21.7109C82.4502 21.6276 82.6715 21.6146 82.9007 21.6719C83.1194 21.7344 83.2991 21.8568 83.4397 22.0391C83.5804 22.2214 83.6507 22.4297 83.6507 22.6641V33ZM95.2288 28.4219H88.8147V26.375H95.2288V28.4219ZM96.1429 33H88.8147C88.5335 33 88.2262 32.9505 87.8929 32.8516C87.5595 32.7526 87.2496 32.5911 86.9632 32.3672C86.6819 32.138 86.4449 31.8438 86.2522 31.4844C86.0647 31.1198 85.971 30.6745 85.971 30.1484V22.8203C85.971 22.6797 85.997 22.5469 86.0491 22.4219C86.1012 22.2969 86.1715 22.1875 86.26 22.0938C86.3538 22 86.4632 21.9271 86.5882 21.875C86.7132 21.8229 86.8486 21.7969 86.9944 21.7969H96.1429V23.8281H88.0022V30.1484C88.0022 30.4141 88.0725 30.6172 88.2132 30.7578C88.3538 30.8984 88.5595 30.9688 88.8304 30.9688H96.1429V33ZM109.276 26.4844C109.276 26.9479 109.218 27.362 109.104 27.7266C108.989 28.0911 108.833 28.4141 108.635 28.6953C108.442 28.9714 108.218 29.2083 107.963 29.4062C107.708 29.6042 107.44 29.7656 107.158 29.8906C106.882 30.0156 106.601 30.1068 106.315 30.1641C106.033 30.2214 105.768 30.25 105.518 30.25H100.924V28.2188H105.518C105.778 28.1979 106.013 28.1458 106.221 28.0625C106.435 27.974 106.617 27.8568 106.768 27.7109C106.919 27.5651 107.036 27.3906 107.119 27.1875C107.203 26.9792 107.244 26.7448 107.244 26.4844V25.5625C107.218 25.3073 107.164 25.0729 107.08 24.8594C106.997 24.6458 106.882 24.4635 106.737 24.3125C106.596 24.1615 106.424 24.0443 106.221 23.9609C106.018 23.8724 105.783 23.8281 105.518 23.8281H100.94C100.669 23.8281 100.463 23.8984 100.323 24.0391C100.182 24.1797 100.112 24.3828 100.112 24.6484V33H98.0804V24.6484C98.0804 24.1276 98.1741 23.6849 98.3616 23.3203C98.5543 22.9557 98.7913 22.6615 99.0725 22.4375C99.359 22.2135 99.6689 22.0521 100.002 21.9531C100.336 21.849 100.643 21.7969 100.924 21.7969H105.518C105.976 21.7969 106.388 21.8568 106.752 21.9766C107.117 22.0911 107.437 22.2474 107.713 22.4453C107.994 22.638 108.231 22.862 108.424 23.1172C108.622 23.3724 108.783 23.6406 108.908 23.9219C109.039 24.1979 109.132 24.4792 109.19 24.7656C109.247 25.0469 109.276 25.3125 109.276 25.5625V26.4844ZM122.01 33H119.979V30.25H112.838V33H110.807V27.3984C110.807 26.5807 110.948 25.8281 111.229 25.1406C111.51 24.4531 111.901 23.862 112.401 23.3672C112.901 22.8724 113.492 22.487 114.174 22.2109C114.856 21.9349 115.601 21.7969 116.408 21.7969H120.987C121.127 21.7969 121.26 21.8229 121.385 21.875C121.51 21.9271 121.619 22 121.713 22.0938C121.807 22.1875 121.88 22.2969 121.932 22.4219C121.984 22.5469 122.01 22.6797 122.01 22.8203V33ZM112.838 28.2188H119.979V23.8281H116.408C116.346 23.8281 116.213 23.8385 116.01 23.8594C115.812 23.875 115.58 23.9193 115.315 23.9922C115.054 24.0651 114.778 24.1771 114.487 24.3281C114.195 24.4792 113.927 24.6875 113.682 24.9531C113.437 25.2188 113.234 25.5521 113.073 25.9531C112.916 26.349 112.838 26.8307 112.838 27.3984V28.2188ZM135.432 31.9766C135.432 32.1224 135.406 32.2578 135.354 32.3828C135.302 32.5078 135.229 32.6172 135.135 32.7109C135.047 32.7995 134.94 32.8698 134.815 32.9219C134.69 32.974 134.554 33 134.408 33H127.08C126.893 33 126.69 32.9792 126.471 32.9375C126.257 32.8906 126.044 32.8203 125.83 32.7266C125.622 32.6328 125.422 32.513 125.229 32.3672C125.036 32.2161 124.864 32.0365 124.713 31.8281C124.567 31.6146 124.45 31.3698 124.362 31.0938C124.273 30.8125 124.229 30.4974 124.229 30.1484V24.6484C124.229 24.4609 124.25 24.2604 124.291 24.0469C124.338 23.8281 124.408 23.6146 124.502 23.4062C124.596 23.1927 124.718 22.9896 124.869 22.7969C125.02 22.6042 125.2 22.4349 125.408 22.2891C125.622 22.138 125.867 22.0182 126.143 21.9297C126.419 21.8411 126.731 21.7969 127.08 21.7969H135.338V23.8281H127.08C126.815 23.8281 126.612 23.8984 126.471 24.0391C126.33 24.1797 126.26 24.388 126.26 24.6641V30.1484C126.26 30.4089 126.33 30.612 126.471 30.7578C126.617 30.8984 126.82 30.9688 127.08 30.9688H133.401V28.4219H127.994V26.375H134.408C134.554 26.375 134.69 26.4036 134.815 26.4609C134.94 26.513 135.047 26.5859 135.135 26.6797C135.229 26.7734 135.302 26.8828 135.354 27.0078C135.406 27.1276 135.432 27.2578 135.432 27.3984V31.9766ZM146.76 28.4219H140.346V26.375H146.76V28.4219ZM147.674 33H140.346C140.065 33 139.757 32.9505 139.424 32.8516C139.091 32.7526 138.781 32.5911 138.494 32.3672C138.213 32.138 137.976 31.8438 137.783 31.4844C137.596 31.1198 137.502 30.6745 137.502 30.1484V22.8203C137.502 22.6797 137.528 22.5469 137.58 22.4219C137.632 22.2969 137.703 22.1875 137.791 22.0938C137.885 22 137.994 21.9271 138.119 21.875C138.244 21.8229 138.38 21.7969 138.526 21.7969H147.674V23.8281H139.533V30.1484C139.533 30.4141 139.604 30.6172 139.744 30.7578C139.885 30.8984 140.091 30.9688 140.362 30.9688H147.674V33Z" fill="white" fill-opacity="0.7"/>
<defs>
<linearGradient id="paint0_linear_346_90" x1="95" y1="0" x2="95" y2="55" gradientUnits="userSpaceOnUse">
<stop stop-color="#D2C5F8"/>
<stop offset="0.427083" stop-color="#784CD6"/>
<stop offset="0.890625" stop-color="#2E13D0"/>
</linearGradient>
<linearGradient id="paint1_linear_346_90" x1="95" y1="3" x2="95" y2="34" gradientUnits="userSpaceOnUse">
<stop offset="0.119792" stop-color="white"/>
<stop offset="0.53125" stop-color="#D1D1D1" stop-opacity="0.44"/>
<stop offset="1" stop-color="#8E8E8E" stop-opacity="0"/>
</linearGradient>
</defs>
</svg>
