<svg width="101" height="35" viewBox="0 0 101 35" fill="none" xmlns="http://www.w3.org/2000/svg">
<rect width="100.746" height="35" rx="17.5" fill="url(#paint0_linear_220_89)" fill-opacity="0.5"/>
<rect x="1" y="1" width="98.7464" height="33" rx="16.5" stroke="url(#paint1_linear_220_89)" stroke-opacity="0.5" stroke-width="2"/>
<path d="M21.0684 21.3334H15.5723C15.4316 21.3334 15.2793 21.3177 15.1152 21.2865C14.9551 21.2513 14.7949 21.1986 14.6348 21.1283C14.4785 21.058 14.3281 20.9681 14.1836 20.8588C14.0391 20.7455 13.9102 20.6107 13.7969 20.4545C13.6875 20.2943 13.5996 20.1107 13.5332 19.9037C13.4668 19.6927 13.4336 19.4564 13.4336 19.1947V15.0697C13.4336 14.9291 13.4492 14.7787 13.4805 14.6185C13.5156 14.4545 13.5684 14.2943 13.6387 14.1381C13.709 13.9779 13.8008 13.8256 13.9141 13.681C14.0273 13.5365 14.1621 13.4095 14.3184 13.3002C14.4785 13.1869 14.6621 13.097 14.8691 13.0306C15.0762 12.9642 15.3105 12.931 15.5723 12.931H21.0684V14.4545H15.5723C15.373 14.4545 15.2207 14.5072 15.1152 14.6127C15.0098 14.7181 14.957 14.8744 14.957 15.0814V19.1947C14.957 19.39 15.0098 19.5424 15.1152 19.6517C15.2246 19.7572 15.377 19.8099 15.5723 19.8099H21.0684V21.3334ZM24.0449 16.3646H29.3945V12.931H30.918V21.3334H29.3945V17.8998H24.0449V21.3334H22.5215V12.931H24.0449V16.3646ZM39.6133 17.8998H34.8027V16.3646H39.6133V17.8998ZM40.2988 21.3334H34.8027C34.5918 21.3334 34.3613 21.2963 34.1113 21.222C33.8613 21.1478 33.6289 21.0267 33.4141 20.8588C33.2031 20.6869 33.0254 20.4662 32.8809 20.1967C32.7402 19.9232 32.6699 19.5892 32.6699 19.1947V13.6986C32.6699 13.5931 32.6895 13.4935 32.7285 13.3998C32.7676 13.306 32.8203 13.224 32.8867 13.1537C32.957 13.0834 33.0391 13.0287 33.1328 12.9896C33.2266 12.9506 33.3281 12.931 33.4375 12.931H40.2988V14.4545H34.1934V19.1947C34.1934 19.3939 34.2461 19.5463 34.3516 19.6517C34.457 19.7572 34.6113 19.8099 34.8145 19.8099H40.2988V21.3334ZM49.2402 21.3334H43.7441C43.6035 21.3334 43.4512 21.3177 43.2871 21.2865C43.127 21.2513 42.9668 21.1986 42.8066 21.1283C42.6504 21.058 42.5 20.9681 42.3555 20.8588C42.2109 20.7455 42.082 20.6107 41.9688 20.4545C41.8594 20.2943 41.7715 20.1107 41.7051 19.9037C41.6387 19.6927 41.6055 19.4564 41.6055 19.1947V15.0697C41.6055 14.9291 41.6211 14.7787 41.6523 14.6185C41.6875 14.4545 41.7402 14.2943 41.8105 14.1381C41.8809 13.9779 41.9727 13.8256 42.0859 13.681C42.1992 13.5365 42.334 13.4095 42.4902 13.3002C42.6504 13.1869 42.834 13.097 43.041 13.0306C43.248 12.9642 43.4824 12.931 43.7441 12.931H49.2402V14.4545H43.7441C43.5449 14.4545 43.3926 14.5072 43.2871 14.6127C43.1816 14.7181 43.1289 14.8744 43.1289 15.0814V19.1947C43.1289 19.39 43.1816 19.5424 43.2871 19.6517C43.3965 19.7572 43.5488 19.8099 43.7441 19.8099H49.2402V21.3334ZM59.4883 21.3334H57.3262L53.8984 17.8998H52.8262V16.3646H53.8984L57.3262 12.931H59.4883L55.1699 17.1322L59.4883 21.3334ZM52.2168 21.3334H50.6934V12.931H52.2168V21.3334ZM68.9922 17.9349C68.9922 18.4467 68.9043 18.9174 68.7285 19.347C68.5527 19.7767 68.3086 20.1478 67.9961 20.4603C67.6836 20.7728 67.3125 21.017 66.8828 21.1927C66.457 21.3646 65.9922 21.4506 65.4883 21.4506H63.4258C62.9219 21.4506 62.4551 21.3646 62.0254 21.1927C61.5957 21.017 61.2246 20.7728 60.9121 20.4603C60.5996 20.1478 60.3535 19.7767 60.1738 19.347C59.998 18.9174 59.9102 18.4467 59.9102 17.9349V16.3295C59.9102 15.8217 59.998 15.3529 60.1738 14.9232C60.3535 14.4896 60.5996 14.1185 60.9121 13.8099C61.2246 13.4974 61.5957 13.2533 62.0254 13.0775C62.4551 12.9017 62.9219 12.8138 63.4258 12.8138H65.4883C65.9922 12.8138 66.457 12.9017 66.8828 13.0775C67.3125 13.2533 67.6836 13.4974 67.9961 13.8099C68.3086 14.1185 68.5527 14.4896 68.7285 14.9232C68.9043 15.3529 68.9922 15.8217 68.9922 16.3295V17.9349ZM67.4688 16.3295C67.4688 16.0287 67.4199 15.7572 67.3223 15.515C67.2285 15.2689 67.0938 15.0599 66.918 14.8881C66.7461 14.7123 66.5371 14.5775 66.291 14.4838C66.0488 14.3861 65.7812 14.3373 65.4883 14.3373H63.4258C63.1289 14.3373 62.8574 14.3861 62.6113 14.4838C62.3691 14.5775 62.1602 14.7123 61.9844 14.8881C61.8086 15.0599 61.6719 15.2689 61.5742 15.515C61.4805 15.7572 61.4336 16.0287 61.4336 16.3295V17.9349C61.4336 18.2357 61.4805 18.5092 61.5742 18.7552C61.6719 18.9974 61.8086 19.2064 61.9844 19.3822C62.1602 19.5541 62.3691 19.6888 62.6113 19.7865C62.8574 19.8802 63.1289 19.9271 63.4258 19.9271H65.4766C65.7734 19.9271 66.043 19.8802 66.2852 19.7865C66.5312 19.6888 66.7422 19.5541 66.918 19.3822C67.0938 19.2064 67.2285 18.9974 67.3223 18.7552C67.4199 18.5092 67.4688 18.2357 67.4688 17.9349V16.3295ZM78.7305 20.5658C78.7305 20.6752 78.7109 20.7767 78.6719 20.8705C78.6328 20.9642 78.5781 21.0463 78.5078 21.1166C78.4375 21.183 78.3555 21.2357 78.2617 21.2748C78.168 21.3138 78.0684 21.3334 77.9629 21.3334H74.5293C74.2051 21.3334 73.877 21.2982 73.5449 21.2279C73.2129 21.1576 72.8906 21.0502 72.5781 20.9056C72.2695 20.7572 71.9785 20.5697 71.7051 20.3431C71.4316 20.1166 71.1914 19.849 70.9844 19.5404C70.7812 19.2279 70.6211 18.8724 70.5039 18.474C70.3867 18.0717 70.3281 17.6244 70.3281 17.1322V12.931H71.8516V17.1322C71.8516 17.5619 71.9102 17.9252 72.0273 18.222C72.1484 18.5189 72.3008 18.767 72.4844 18.9662C72.668 19.1654 72.8691 19.3217 73.0879 19.4349C73.3066 19.5482 73.5137 19.6322 73.709 19.6869C73.9082 19.7416 74.082 19.7767 74.2305 19.7924C74.3828 19.8041 74.4824 19.8099 74.5293 19.8099H77.207V12.931H78.7305V20.5658ZM88.0996 14.4545H84.7422V21.3334H83.2188V14.4545H79.8555V12.931H88.0996V14.4545Z" fill="url(#paint2_linear_220_89)"/>
<defs>
<linearGradient id="paint0_linear_220_89" x1="50.3732" y1="0" x2="50.3732" y2="35" gradientUnits="userSpaceOnUse">
<stop stop-color="#626161"/>
<stop offset="0.276042" stop-color="#ADADAD"/>
<stop offset="1" stop-color="white"/>
</linearGradient>
<linearGradient id="paint1_linear_220_89" x1="50.3732" y1="0" x2="50.3732" y2="35" gradientUnits="userSpaceOnUse">
<stop stop-color="white"/>
<stop offset="0.739583" stop-color="#9E9E9E"/>
<stop offset="1" stop-color="#4F4F4F"/>
</linearGradient>
<linearGradient id="paint2_linear_220_89" x1="59.0461" y1="4.96799" x2="61.4896" y2="33.4697" gradientUnits="userSpaceOnUse">
<stop/>
<stop offset="0.245986" stop-color="#979797"/>
<stop offset="0.640625" stop-color="#A6A6A6"/>
<stop offset="0.791667" stop-color="#4B4B4B"/>
</linearGradient>
</defs>
</svg>
