<svg width="70" height="45" viewBox="0 0 70 45" fill="none" xmlns="http://www.w3.org/2000/svg">
<rect width="70" height="45" rx="22.5" fill="url(#paint0_linear_323_141)" fill-opacity="0.9"/>
<rect x="1" y="1" width="68" height="43" rx="21.5" stroke="url(#paint1_linear_323_141)" stroke-opacity="0.7" stroke-width="2"/>
<path d="M22.4346 27H17.6152C17.3691 27 17.1003 26.9567 16.8086 26.8701C16.5169 26.7835 16.2458 26.6423 15.9951 26.4463C15.749 26.2458 15.5417 25.9883 15.373 25.6738C15.209 25.3548 15.127 24.9652 15.127 24.5049V22.0986C15.127 21.93 15.1452 21.7523 15.1816 21.5654C15.2227 21.3786 15.2842 21.194 15.3662 21.0117C15.4482 20.8249 15.5531 20.6471 15.6807 20.4785C15.8128 20.3099 15.9701 20.1618 16.1523 20.0342C16.3392 19.9066 16.5534 19.804 16.7949 19.7266C17.0365 19.6491 17.3099 19.6104 17.6152 19.6104H22.4346V21.3877H17.6152C17.3828 21.3877 17.2051 21.4469 17.082 21.5654C16.9635 21.6839 16.9043 21.8662 16.9043 22.1123V24.5049C16.9043 24.7373 16.9658 24.915 17.0889 25.0381C17.2119 25.1611 17.3919 25.2227 17.6289 25.2227H22.4346V27ZM27.1514 27H26.3584C26.1032 27 25.8298 26.9567 25.5381 26.8701C25.251 26.7835 24.9821 26.6423 24.7314 26.4463C24.4808 26.2458 24.2734 25.9883 24.1094 25.6738C23.9453 25.3548 23.8633 24.9652 23.8633 24.5049V16.4863H25.6406V24.5049C25.6406 24.7236 25.709 24.8991 25.8457 25.0312C25.9824 25.1589 26.1533 25.2227 26.3584 25.2227H27.1514V27ZM36.332 24.5049C36.332 24.8102 36.2933 25.0859 36.2158 25.332C36.1383 25.5736 36.0358 25.7878 35.9082 25.9746C35.7806 26.1569 35.6325 26.3141 35.4639 26.4463C35.2952 26.5739 35.1175 26.6787 34.9307 26.7607C34.7484 26.8428 34.5615 26.9043 34.3701 26.9453C34.1833 26.9818 34.0055 27 33.8369 27H30.6309C30.3848 27 30.1159 26.9567 29.8242 26.8701C29.5326 26.7835 29.2614 26.6423 29.0107 26.4463C28.7646 26.2458 28.5573 25.9883 28.3887 25.6738C28.2246 25.3548 28.1426 24.9652 28.1426 24.5049V22.0986C28.1426 21.6429 28.2246 21.2578 28.3887 20.9434C28.5573 20.6243 28.7646 20.3669 29.0107 20.1709C29.2614 19.9704 29.5326 19.8268 29.8242 19.7402C30.1159 19.6536 30.3848 19.6104 30.6309 19.6104H33.8369C34.2926 19.6104 34.68 19.6924 34.999 19.8564C35.318 20.0205 35.5755 20.2279 35.7715 20.4785C35.9674 20.7246 36.1087 20.9935 36.1953 21.2852C36.2865 21.5768 36.332 21.848 36.332 22.0986V24.5049ZM34.5547 22.1123C34.5547 21.8662 34.4932 21.6839 34.3701 21.5654C34.2471 21.4469 34.0693 21.3877 33.8369 21.3877H30.6445C30.4076 21.3877 30.2275 21.4492 30.1045 21.5723C29.9814 21.6908 29.9199 21.8662 29.9199 22.0986V24.5049C29.9199 24.7373 29.9814 24.915 30.1045 25.0381C30.2275 25.1611 30.4076 25.2227 30.6445 25.2227H33.8369C34.0785 25.2227 34.2585 25.1611 34.377 25.0381C34.4954 24.915 34.5547 24.7373 34.5547 24.5049V22.1123ZM44.9932 24.5049C44.9932 24.8102 44.9544 25.0859 44.877 25.332C44.7995 25.5736 44.6969 25.7878 44.5693 25.9746C44.4417 26.1569 44.2936 26.3141 44.125 26.4463C43.9564 26.5739 43.7786 26.6787 43.5918 26.7607C43.4095 26.8428 43.2227 26.9043 43.0312 26.9453C42.8444 26.9818 42.6667 27 42.498 27H37.6855V25.2227H42.4844C42.7259 25.2227 42.9082 25.1611 43.0312 25.0381C43.1543 24.915 43.2158 24.7373 43.2158 24.5049C43.193 24.0309 42.9538 23.7939 42.498 23.7939H39.7432C39.3512 23.7939 39.0186 23.7256 38.7451 23.5889C38.4717 23.4521 38.2484 23.2812 38.0752 23.0762C37.9066 22.8711 37.7835 22.6501 37.7061 22.4131C37.6331 22.1761 37.5967 21.9551 37.5967 21.75C37.5967 21.3535 37.6673 21.0208 37.8086 20.752C37.9499 20.4785 38.1276 20.2575 38.3418 20.0889C38.556 19.9202 38.7884 19.7995 39.0391 19.7266C39.2897 19.6491 39.5244 19.6104 39.7432 19.6104H44.1113V21.3877H39.7568C39.6657 21.3877 39.5928 21.3991 39.5381 21.4219C39.488 21.4401 39.4492 21.4674 39.4219 21.5039C39.3991 21.5358 39.3854 21.5723 39.3809 21.6133C39.3763 21.6497 39.374 21.6862 39.374 21.7227C39.3786 21.7956 39.3923 21.8525 39.415 21.8936C39.4378 21.9346 39.4652 21.9642 39.4971 21.9824C39.5335 22.0007 39.5723 22.012 39.6133 22.0166C39.6589 22.0166 39.7021 22.0166 39.7432 22.0166H42.498C42.9538 22.0166 43.3411 22.0986 43.6602 22.2627C43.9792 22.4268 44.2367 22.6341 44.4326 22.8848C44.6286 23.1309 44.7699 23.3997 44.8564 23.6914C44.9476 23.9831 44.9932 24.2542 44.9932 24.5049ZM54.1943 22.0576C54.1943 22.3037 54.151 22.5703 54.0645 22.8574C53.9779 23.14 53.8366 23.4043 53.6406 23.6504C53.4492 23.8919 53.1963 24.0947 52.8818 24.2588C52.5719 24.4229 52.1937 24.5049 51.7471 24.5049H48.541V22.8164H51.7471C51.9886 22.8164 52.1755 22.7435 52.3076 22.5977C52.4398 22.4473 52.5059 22.2627 52.5059 22.0439C52.5059 21.8115 52.4307 21.6292 52.2803 21.4971C52.1344 21.3649 51.9567 21.2988 51.7471 21.2988H48.541C48.2995 21.2988 48.1126 21.374 47.9805 21.5244C47.8483 21.6702 47.7822 21.8525 47.7822 22.0713V24.5527C47.7822 24.7897 47.8551 24.9743 48.001 25.1064C48.1514 25.2386 48.3359 25.3047 48.5547 25.3047H51.7471V27H48.541C48.2949 27 48.0283 26.9567 47.7412 26.8701C47.4587 26.7835 47.1943 26.6445 46.9482 26.4531C46.7067 26.2572 46.5039 26.0042 46.3398 25.6943C46.1758 25.3799 46.0938 24.9993 46.0938 24.5527V22.0576C46.0938 21.8115 46.137 21.5472 46.2236 21.2646C46.3102 20.9775 46.4492 20.7132 46.6406 20.4717C46.8366 20.2256 47.0895 20.0205 47.3994 19.8564C47.7139 19.6924 48.0944 19.6104 48.541 19.6104H51.7471C51.9932 19.6104 52.2575 19.6536 52.54 19.7402C52.8271 19.8268 53.0915 19.9681 53.333 20.1641C53.5791 20.3555 53.7842 20.6084 53.9482 20.9229C54.1123 21.2327 54.1943 21.611 54.1943 22.0576Z" fill="url(#paint2_linear_323_141)"/>
<defs>
<linearGradient id="paint0_linear_323_141" x1="35" y1="0" x2="35" y2="45" gradientUnits="userSpaceOnUse">
<stop stop-color="white"/>
<stop offset="0.739583" stop-color="#9E9E9E"/>
<stop offset="1" stop-color="#4F4F4F"/>
</linearGradient>
<linearGradient id="paint1_linear_323_141" x1="35" y1="0" x2="35" y2="45" gradientUnits="userSpaceOnUse">
<stop stop-color="#2E13D0"/>
<stop offset="0.604167" stop-color="#784CD6"/>
<stop offset="1" stop-color="#D2C5F8"/>
</linearGradient>
<linearGradient id="paint2_linear_323_141" x1="24.3265" y1="19" x2="35.0893" y2="34.8677" gradientUnits="userSpaceOnUse">
<stop stop-color="#9E00FF"/>
<stop offset="1" stop-color="#0500FF"/>
</linearGradient>
</defs>
</svg>
