<svg width="178" height="56" viewBox="0 0 178 56" fill="none" xmlns="http://www.w3.org/2000/svg">
<g filter="url(#filter0_b_382_99)">
<rect width="178" height="56" rx="28" fill="url(#paint0_linear_382_99)" fill-opacity="0.9"/>
<rect x="1" y="1" width="176" height="54" rx="27" stroke="url(#paint1_linear_382_99)" stroke-opacity="0.7" stroke-width="2"/>
</g>
<path d="M30.7381 35H23.41C23.2225 35 23.0194 34.9792 22.8006 34.9375C22.5871 34.8906 22.3735 34.8203 22.16 34.7266C21.9517 34.6328 21.7511 34.513 21.5584 34.3672C21.3657 34.2161 21.1939 34.0365 21.0428 33.8281C20.897 33.6146 20.7798 33.3698 20.6913 33.0938C20.6027 32.8125 20.5584 32.4974 20.5584 32.1484V26.6484C20.5584 26.4609 20.5793 26.2604 20.6209 26.0469C20.6678 25.8281 20.7381 25.6146 20.8319 25.4062C20.9256 25.1927 21.048 24.9896 21.1991 24.7969C21.3501 24.6042 21.5298 24.4349 21.7381 24.2891C21.9517 24.138 22.1965 24.0182 22.4725 23.9297C22.7485 23.8411 23.061 23.7969 23.41 23.7969H30.7381V25.8281H23.41C23.1444 25.8281 22.9413 25.8984 22.8006 26.0391C22.66 26.1797 22.5897 26.388 22.5897 26.6641V32.1484C22.5897 32.4089 22.66 32.612 22.8006 32.7578C22.9465 32.8984 23.1496 32.9688 23.41 32.9688H30.7381V35ZM40.8716 32.1484C40.8716 32.4974 40.8273 32.8125 40.7388 33.0938C40.6502 33.3698 40.533 33.6146 40.3872 33.8281C40.2414 34.0365 40.0721 34.2161 39.8794 34.3672C39.6867 34.513 39.4835 34.6328 39.27 34.7266C39.0617 34.8203 38.8481 34.8906 38.6294 34.9375C38.4158 34.9792 38.2127 35 38.02 35H34.3559C34.0747 35 33.7674 34.9505 33.4341 34.8516C33.1007 34.7526 32.7908 34.5911 32.5044 34.3672C32.2231 34.138 31.9861 33.8438 31.7934 33.4844C31.6059 33.1198 31.5122 32.6745 31.5122 32.1484V29.3984C31.5122 28.8776 31.6059 28.4375 31.7934 28.0781C31.9861 27.7135 32.2231 27.4193 32.5044 27.1953C32.7908 26.9661 33.1007 26.8021 33.4341 26.7031C33.7674 26.6042 34.0747 26.5547 34.3559 26.5547H38.02C38.5408 26.5547 38.9835 26.6484 39.3481 26.8359C39.7127 27.0234 40.007 27.2604 40.2309 27.5469C40.4549 27.8281 40.6164 28.1354 40.7153 28.4688C40.8195 28.8021 40.8716 29.112 40.8716 29.3984V32.1484ZM38.8403 29.4141C38.8403 29.1328 38.77 28.9245 38.6294 28.7891C38.4888 28.6536 38.2856 28.5859 38.02 28.5859H34.3716C34.1007 28.5859 33.895 28.6562 33.7544 28.7969C33.6138 28.9323 33.5434 29.1328 33.5434 29.3984V32.1484C33.5434 32.4141 33.6138 32.6172 33.7544 32.7578C33.895 32.8984 34.1007 32.9688 34.3716 32.9688H38.02C38.296 32.9688 38.5018 32.8984 38.6372 32.7578C38.7726 32.6172 38.8403 32.4141 38.8403 32.1484V29.4141ZM51.3253 35H49.2941V30.3125C49.2941 30.0469 49.2472 29.8099 49.1534 29.6016C49.0649 29.388 48.9425 29.2057 48.7863 29.0547C48.63 28.9036 48.4451 28.7891 48.2316 28.7109C48.0232 28.6276 47.7967 28.5859 47.5519 28.5859H43.9972V35H41.9659V27.5625C41.9659 27.4219 41.992 27.2917 42.0441 27.1719C42.0961 27.0469 42.1691 26.9401 42.2628 26.8516C42.3566 26.7578 42.4659 26.6849 42.5909 26.6328C42.7159 26.5807 42.8488 26.5547 42.9894 26.5547H47.5675C47.8227 26.5547 48.0909 26.5833 48.3722 26.6406C48.6586 26.6979 48.9399 26.7917 49.2159 26.9219C49.4972 27.0469 49.7628 27.2083 50.0128 27.4062C50.268 27.599 50.492 27.8359 50.6847 28.1172C50.8826 28.3932 51.0389 28.7135 51.1534 29.0781C51.268 29.4427 51.3253 29.8542 51.3253 30.3125V35ZM59.9431 24.9219H55.365C55.089 24.9219 54.8806 24.9922 54.74 25.1328C54.5994 25.2682 54.5291 25.4688 54.5291 25.7344V35H52.4978V25.7344C52.4978 25.3854 52.5421 25.0729 52.6306 24.7969C52.7192 24.5208 52.8364 24.2786 52.9822 24.0703C53.1332 23.8568 53.3051 23.6771 53.4978 23.5312C53.6905 23.3802 53.891 23.2578 54.0994 23.1641C54.3129 23.0703 54.5265 23.0026 54.74 22.9609C54.9535 22.9141 55.1567 22.8906 55.3494 22.8906H59.9431V24.9219ZM62.865 35H60.8338L60.8181 28.5859H55.3494V26.5547H62.8806L62.865 35ZM62.865 24.9219H60.8338V22.9219H62.865V24.9219ZM71.5609 28.5859H66.9906C66.7146 28.5859 66.5063 28.6562 66.3656 28.7969C66.225 28.9323 66.1547 29.1328 66.1547 29.3984V35H64.1234V29.3984C64.1234 29.0495 64.1677 28.737 64.2563 28.4609C64.3448 28.1849 64.462 27.9427 64.6078 27.7344C64.7589 27.5208 64.9307 27.3411 65.1234 27.1953C65.3161 27.0443 65.5167 26.9219 65.725 26.8281C65.9385 26.7344 66.1521 26.6667 66.3656 26.625C66.5844 26.5781 66.7875 26.5547 66.975 26.5547H71.5609V28.5859ZM79.8038 35H77.7725V29.3984C77.7725 29.1328 77.7022 28.9323 77.5616 28.7969C77.4209 28.6562 77.2126 28.5859 76.9366 28.5859H74.2959V35H72.2647V27.5625C72.2647 27.4219 72.2907 27.2917 72.3428 27.1719C72.3949 27.0469 72.4678 26.9401 72.5616 26.8516C72.6553 26.7578 72.7647 26.6849 72.8897 26.6328C73.0147 26.5807 73.1475 26.5547 73.2881 26.5547H76.9522C77.2334 26.5547 77.5355 26.6042 77.8584 26.7031C78.1814 26.8021 78.4886 26.9609 78.7803 27.1797V26.5547H81.5303C81.723 26.5547 81.9261 26.5781 82.1397 26.625C82.3532 26.6667 82.5642 26.7344 82.7725 26.8281C82.986 26.9219 83.1892 27.0443 83.3819 27.1953C83.5746 27.3411 83.7439 27.5208 83.8897 27.7344C84.0355 27.9427 84.1527 28.1849 84.2413 28.4609C84.3298 28.737 84.3741 29.0495 84.3741 29.3984V35H82.3428V29.3984C82.3428 29.1328 82.2751 28.9323 82.1397 28.7969C82.0095 28.6562 81.8064 28.5859 81.5303 28.5859H79.7022C79.7699 28.8359 79.8038 29.1068 79.8038 29.3984V35ZM99.4847 32.1484C99.4847 32.4974 99.4404 32.8125 99.3519 33.0938C99.2633 33.3698 99.1461 33.6146 99.0003 33.8281C98.8545 34.0365 98.6852 34.2161 98.4925 34.3672C98.2998 34.513 98.0967 34.6328 97.8831 34.7266C97.6748 34.8203 97.4639 34.8906 97.2503 34.9375C97.0368 34.9792 96.8336 35 96.6409 35H92.9769V32.9688H96.6409C96.9118 32.9688 97.1149 32.8984 97.2503 32.7578C97.3857 32.6172 97.4534 32.4141 97.4534 32.1484V29.4141C97.4534 29.1328 97.3831 28.9245 97.2425 28.7891C97.1071 28.6536 96.9066 28.5859 96.6409 28.5859H92.9925C92.7165 28.5859 92.5081 28.6562 92.3675 28.7969C92.2269 28.9323 92.1566 29.1328 92.1566 29.3984V37.6406H90.1253V29.3984C90.1253 29.0495 90.1696 28.737 90.2581 28.4609C90.3467 28.1849 90.4639 27.9427 90.6097 27.7344C90.7607 27.5208 90.9326 27.3411 91.1253 27.1953C91.318 27.0443 91.5185 26.9219 91.7269 26.8281C91.9404 26.7344 92.154 26.6667 92.3675 26.625C92.5863 26.5781 92.7894 26.5547 92.9769 26.5547H96.6409C96.9899 26.5547 97.3024 26.599 97.5784 26.6875C97.8545 26.776 98.0967 26.8932 98.305 27.0391C98.5185 27.1849 98.6982 27.3542 98.8441 27.5469C98.9951 27.7396 99.1175 27.9427 99.2113 28.1562C99.305 28.3646 99.3727 28.5755 99.4144 28.7891C99.4613 29.0026 99.4847 29.2057 99.4847 29.3984V32.1484ZM109.298 32.2031C109.298 32.4844 109.248 32.7891 109.149 33.1172C109.05 33.4401 108.889 33.7422 108.665 34.0234C108.446 34.2995 108.157 34.5312 107.798 34.7188C107.444 34.9062 107.011 35 106.501 35H102.837C102.556 35 102.251 34.9505 101.923 34.8516C101.6 34.7526 101.298 34.5938 101.017 34.375C100.741 34.151 100.509 33.862 100.321 33.5078C100.134 33.1484 100.04 32.7135 100.04 32.2031C100.04 31.9219 100.089 31.6172 100.188 31.2891C100.287 30.9609 100.446 30.6589 100.665 30.3828C100.889 30.1016 101.178 29.8672 101.532 29.6797C101.892 29.4922 102.326 29.3984 102.837 29.3984H106.501V31.3359H102.837C102.561 31.3359 102.347 31.4219 102.196 31.5938C102.045 31.7604 101.97 31.9688 101.97 32.2188C101.97 32.4844 102.056 32.6927 102.228 32.8438C102.405 32.9896 102.613 33.0625 102.853 33.0625H106.501C106.777 33.0625 106.991 32.9792 107.142 32.8125C107.293 32.6458 107.368 32.4375 107.368 32.1875V29.3516C107.368 29.0859 107.285 28.875 107.118 28.7188C106.957 28.5625 106.751 28.4844 106.501 28.4844H102.04V26.5547H106.501C106.782 26.5547 107.084 26.6042 107.407 26.7031C107.735 26.8021 108.037 26.9635 108.313 27.1875C108.595 27.4062 108.829 27.6953 109.017 28.0547C109.204 28.4089 109.298 28.8411 109.298 29.3516V32.2031ZM119.705 35.8125C119.705 36.1615 119.66 36.474 119.572 36.75C119.483 37.0312 119.366 37.276 119.22 37.4844C119.074 37.6979 118.905 37.8776 118.713 38.0234C118.52 38.1745 118.317 38.2969 118.103 38.3906C117.895 38.4844 117.684 38.5521 117.47 38.5938C117.257 38.6406 117.054 38.6641 116.861 38.6641H113.197V36.6328H116.861C117.132 36.6328 117.335 36.5625 117.47 36.4219C117.606 36.2812 117.673 36.0781 117.673 35.8125V26.5547H119.705V35.8125ZM116.861 35H113.197C112.905 35 112.593 34.9505 112.259 34.8516C111.931 34.7526 111.624 34.5911 111.338 34.3672C111.051 34.138 110.814 33.8438 110.627 33.4844C110.439 33.1198 110.345 32.6745 110.345 32.1484V26.5547H112.377V32.1484C112.377 32.4141 112.447 32.6172 112.588 32.7578C112.728 32.8984 112.936 32.9688 113.213 32.9688H116.861V35ZM128.541 35H126.51V29.3984C126.51 29.1328 126.44 28.9323 126.299 28.7969C126.158 28.6562 125.95 28.5859 125.674 28.5859H123.033V35H121.002V27.5625C121.002 27.4219 121.028 27.2917 121.08 27.1719C121.132 27.0469 121.205 26.9401 121.299 26.8516C121.393 26.7578 121.502 26.6849 121.627 26.6328C121.752 26.5807 121.885 26.5547 122.026 26.5547H125.69C125.971 26.5547 126.273 26.6042 126.596 26.7031C126.919 26.8021 127.226 26.9609 127.518 27.1797V26.5547H130.268C130.461 26.5547 130.664 26.5781 130.877 26.625C131.091 26.6667 131.302 26.7344 131.51 26.8281C131.724 26.9219 131.927 27.0443 132.119 27.1953C132.312 27.3411 132.481 27.5208 132.627 27.7344C132.773 27.9427 132.89 28.1849 132.979 28.4609C133.067 28.737 133.112 29.0495 133.112 29.3984V35H131.08V29.3984C131.08 29.1328 131.013 28.9323 130.877 28.7969C130.747 28.6562 130.544 28.5859 130.268 28.5859H128.44C128.507 28.8359 128.541 29.1068 128.541 29.3984V35ZM143.433 29.3516C143.433 29.6328 143.383 29.9375 143.284 30.2656C143.185 30.5885 143.024 30.8906 142.8 31.1719C142.581 31.4479 142.292 31.6797 141.933 31.8672C141.578 32.0547 141.146 32.1484 140.636 32.1484H136.972V30.2188H140.636C140.912 30.2188 141.125 30.1354 141.276 29.9688C141.427 29.7969 141.503 29.5859 141.503 29.3359C141.503 29.0703 141.417 28.862 141.245 28.7109C141.078 28.5599 140.875 28.4844 140.636 28.4844H136.972C136.696 28.4844 136.482 28.5703 136.331 28.7422C136.18 28.9089 136.104 29.1172 136.104 29.3672V32.2031C136.104 32.474 136.188 32.6849 136.354 32.8359C136.526 32.987 136.737 33.0625 136.987 33.0625H140.636V35H136.972C136.69 35 136.386 34.9505 136.058 34.8516C135.735 34.7526 135.433 34.5938 135.151 34.375C134.875 34.151 134.643 33.862 134.456 33.5078C134.268 33.1484 134.175 32.7135 134.175 32.2031V29.3516C134.175 29.0703 134.224 28.7682 134.323 28.4453C134.422 28.1172 134.581 27.8151 134.8 27.5391C135.024 27.2578 135.313 27.0234 135.667 26.8359C136.026 26.6484 136.461 26.5547 136.972 26.5547H140.636C140.917 26.5547 141.219 26.6042 141.542 26.7031C141.87 26.8021 142.172 26.9635 142.448 27.1875C142.729 27.4062 142.964 27.6953 143.151 28.0547C143.339 28.4089 143.433 28.8411 143.433 29.3516ZM153.519 35H151.488V30.3125C151.488 30.0469 151.441 29.8099 151.347 29.6016C151.259 29.388 151.136 29.2057 150.98 29.0547C150.824 28.9036 150.639 28.7891 150.425 28.7109C150.217 28.6276 149.99 28.5859 149.746 28.5859H146.191V35H144.16V27.5625C144.16 27.4219 144.186 27.2917 144.238 27.1719C144.29 27.0469 144.363 26.9401 144.457 26.8516C144.55 26.7578 144.66 26.6849 144.785 26.6328C144.91 26.5807 145.043 26.5547 145.183 26.5547H149.761C150.016 26.5547 150.285 26.5833 150.566 26.6406C150.852 26.6979 151.134 26.7917 151.41 26.9219C151.691 27.0469 151.957 27.2083 152.207 27.4062C152.462 27.599 152.686 27.8359 152.878 28.1172C153.076 28.3932 153.233 28.7135 153.347 29.0781C153.462 29.4427 153.519 29.8542 153.519 30.3125V35ZM162.09 28.5859H158.543V35H156.488V28.5859H153.848V26.5547H156.488V23.7969H158.543V26.5547H162.09V28.5859Z" fill="#9E00FF"/>
<defs>
<filter id="filter0_b_382_99" x="-5" y="-5" width="188" height="66" filterUnits="userSpaceOnUse" color-interpolation-filters="sRGB">
<feFlood flood-opacity="0" result="BackgroundImageFix"/>
<feGaussianBlur in="BackgroundImageFix" stdDeviation="2.5"/>
<feComposite in2="SourceAlpha" operator="in" result="effect1_backgroundBlur_382_99"/>
<feBlend mode="normal" in="SourceGraphic" in2="effect1_backgroundBlur_382_99" result="shape"/>
</filter>
<linearGradient id="paint0_linear_382_99" x1="78.4818" y1="-8.17638e-07" x2="89.5534" y2="61.852" gradientUnits="userSpaceOnUse">
<stop stop-color="white"/>
<stop offset="0.176216" stop-color="#DBDBDB"/>
<stop offset="0.697288" stop-color="#9E9E9E"/>
<stop offset="1" stop-color="#535252"/>
</linearGradient>
<linearGradient id="paint1_linear_382_99" x1="89" y1="0" x2="89" y2="56" gradientUnits="userSpaceOnUse">
<stop stop-color="#2E13D0"/>
<stop offset="0.604167" stop-color="#784CD6"/>
<stop offset="1" stop-color="#D2C5F8"/>
</linearGradient>
</defs>
</svg>
