<svg width="70" height="45" viewBox="0 0 70 45" fill="none" xmlns="http://www.w3.org/2000/svg">
<rect width="70" height="45" rx="22.5" fill="url(#paint0_linear_119_194)" fill-opacity="0.9"/>
<rect x="1" y="1" width="68" height="43" rx="21.5" stroke="url(#paint1_linear_119_194)" stroke-opacity="0.85" stroke-width="2"/>
<path d="M31.6719 14.5859H27.0781V12.5547H31.6719V14.5859ZM31.6719 10.9219H27.0938C26.8177 10.9219 26.6094 10.9922 26.4688 11.1328C26.3281 11.2682 26.2578 11.4688 26.2578 11.7344V21H24.2266V11.7344C24.2266 11.3854 24.2708 11.0729 24.3594 10.7969C24.4479 10.5208 24.5651 10.2786 24.7109 10.0703C24.862 9.85677 25.0339 9.67708 25.2266 9.53125C25.4193 9.38021 25.6198 9.25781 25.8281 9.16406C26.0417 9.07031 26.2552 9.0026 26.4688 8.96094C26.6823 8.91406 26.8854 8.89062 27.0781 8.89062H31.6719V10.9219ZM40.3516 14.5859H35.7812C35.5052 14.5859 35.2969 14.6562 35.1562 14.7969C35.0156 14.9323 34.9453 15.1328 34.9453 15.3984V21H32.9141V15.3984C32.9141 15.0495 32.9583 14.737 33.0469 14.4609C33.1354 14.1849 33.2526 13.9427 33.3984 13.7344C33.5495 13.5208 33.7214 13.3411 33.9141 13.1953C34.1068 13.0443 34.3073 12.9219 34.5156 12.8281C34.7292 12.7344 34.9427 12.6667 35.1562 12.625C35.375 12.5781 35.5781 12.5547 35.7656 12.5547H40.3516V14.5859ZM43.7578 10.8203H41.7266V8.98438H43.7578V10.8203ZM43.7578 21H41.7266V12.5547H43.7578V21Z" fill="url(#paint2_linear_119_194)" fill-opacity="0.85"/>
<path d="M28.1182 25.3203C28.1735 25.4212 28.2012 25.5286 28.2012 25.6426C28.2012 25.7533 28.1735 25.859 28.1182 25.96L24.5977 32H23.1279L26.458 26.2676H22.3467V24.998H27.5664C27.6803 24.998 27.7861 25.0273 27.8838 25.0859C27.9847 25.1413 28.0628 25.2194 28.1182 25.3203ZM29.6807 31.3604C29.6807 31.4482 29.6628 31.5312 29.627 31.6094C29.5944 31.6842 29.5488 31.751 29.4902 31.8096C29.4349 31.8649 29.3682 31.9089 29.29 31.9414C29.2152 31.974 29.1354 31.9902 29.0508 31.9902C28.9629 31.9902 28.8799 31.974 28.8018 31.9414C28.7269 31.9089 28.6602 31.8649 28.6016 31.8096C28.5462 31.751 28.5023 31.6842 28.4697 31.6094C28.4372 31.5312 28.4209 31.4482 28.4209 31.3604C28.4209 31.2757 28.4372 31.196 28.4697 31.1211C28.5023 31.043 28.5462 30.9762 28.6016 30.9209C28.6602 30.8623 28.7269 30.8167 28.8018 30.7842C28.8799 30.7484 28.9629 30.7305 29.0508 30.7305C29.1354 30.7305 29.2152 30.7484 29.29 30.7842C29.3682 30.8167 29.4349 30.8623 29.4902 30.9209C29.5488 30.9762 29.5944 31.043 29.627 31.1211C29.6628 31.196 29.6807 31.2757 29.6807 31.3604ZM38.6943 29.0703C38.6943 29.3568 38.6569 29.6286 38.582 29.8857C38.5104 30.1396 38.4079 30.3757 38.2744 30.5938C38.141 30.8118 37.9831 31.0072 37.8008 31.1797C37.6185 31.3522 37.4183 31.5003 37.2002 31.624C36.9854 31.7445 36.7559 31.8372 36.5117 31.9023C36.2676 31.9674 36.0186 32 35.7646 32H33.4746C33.2174 32 32.9668 31.9674 32.7227 31.9023C32.4785 31.8372 32.2474 31.7445 32.0293 31.624C31.8145 31.5003 31.6159 31.3522 31.4336 31.1797C31.2513 31.0072 31.0934 30.8118 30.96 30.5938C30.8298 30.3757 30.7272 30.1396 30.6523 29.8857C30.5807 29.6286 30.5449 29.3568 30.5449 29.0703V27.9277C30.5449 27.498 30.6247 27.1042 30.7842 26.7461C30.9469 26.388 31.1634 26.0804 31.4336 25.8232C31.7038 25.5628 32.0146 25.361 32.3662 25.2178C32.721 25.0713 33.0905 24.998 33.4746 24.998H35.7646C36.0186 24.998 36.2676 25.0306 36.5117 25.0957C36.7559 25.1608 36.9854 25.2552 37.2002 25.3789C37.4183 25.4993 37.6185 25.6458 37.8008 25.8184C37.9831 25.9909 38.141 26.1862 38.2744 26.4043C38.4079 26.6224 38.5104 26.86 38.582 27.1172C38.6569 27.3711 38.6943 27.6413 38.6943 27.9277V29.0703ZM37.415 27.9277C37.415 27.6771 37.3695 27.4492 37.2783 27.2441C37.1872 27.0391 37.0651 26.8633 36.9121 26.7168C36.7624 26.5703 36.5882 26.458 36.3896 26.3799C36.1911 26.3018 35.9827 26.2643 35.7646 26.2676H33.4746C33.263 26.2643 33.0563 26.3018 32.8545 26.3799C32.6559 26.4548 32.4785 26.5654 32.3223 26.7119C32.1693 26.8551 32.0456 27.0309 31.9512 27.2393C31.86 27.4443 31.8145 27.6738 31.8145 27.9277V29.0703C31.8145 29.3242 31.86 29.5537 31.9512 29.7588C32.0423 29.9639 32.1644 30.1396 32.3174 30.2861C32.4704 30.4294 32.6462 30.54 32.8447 30.6182C33.0465 30.6963 33.2565 30.7337 33.4746 30.7305H35.7646C36.0153 30.7305 36.2415 30.6898 36.4434 30.6084C36.6484 30.5238 36.8226 30.4082 36.9658 30.2617C37.109 30.1152 37.2197 29.9411 37.2979 29.7393C37.376 29.5342 37.415 29.3112 37.415 29.0703V27.9277ZM36.8633 27C36.9121 27.0716 36.9447 27.1497 36.9609 27.2344C36.9772 27.3158 36.9772 27.3971 36.9609 27.4785C36.9447 27.5566 36.9121 27.6315 36.8633 27.7031C36.8177 27.7715 36.7575 27.8301 36.6826 27.8789L33.2549 30.1689C33.1995 30.2113 33.1426 30.2406 33.084 30.2568C33.0254 30.2731 32.9652 30.2812 32.9033 30.2812C32.7992 30.2812 32.6999 30.2568 32.6055 30.208C32.5111 30.1592 32.4346 30.0892 32.376 29.998C32.3271 29.9264 32.2946 29.8499 32.2783 29.7686C32.262 29.6839 32.2604 29.6025 32.2734 29.5244C32.2897 29.443 32.3206 29.3682 32.3662 29.2998C32.4118 29.2282 32.472 29.168 32.5469 29.1191L35.9844 26.8291C36.056 26.7803 36.1325 26.7477 36.2139 26.7314C36.2985 26.7152 36.3799 26.7152 36.458 26.7314C36.5394 26.7477 36.6143 26.7786 36.6826 26.8242C36.7542 26.8698 36.8145 26.9284 36.8633 27ZM46.2041 32H44.9248V29.1387H40.4131C40.3219 29.1387 40.2373 29.1224 40.1592 29.0898C40.0811 29.054 40.0127 29.0085 39.9541 28.9531C39.8988 28.8945 39.8548 28.8262 39.8223 28.748C39.7897 28.6699 39.7734 28.5869 39.7734 28.499V24.998H41.043V27.8594H44.9248V24.998H46.2041V32Z" fill="url(#paint3_linear_119_194)" fill-opacity="0.85"/>
<defs>
<linearGradient id="paint0_linear_119_194" x1="35" y1="0" x2="35" y2="45" gradientUnits="userSpaceOnUse">
<stop stop-color="#626161"/>
<stop offset="0.276042" stop-color="#ADADAD"/>
<stop offset="1" stop-color="white"/>
</linearGradient>
<linearGradient id="paint1_linear_119_194" x1="35" y1="0" x2="35" y2="45" gradientUnits="userSpaceOnUse">
<stop stop-color="#F9BE79"/>
<stop offset="0.427083" stop-color="#FE5B00"/>
<stop offset="0.890625" stop-color="#D04013"/>
</linearGradient>
<linearGradient id="paint2_linear_119_194" x1="34" y1="8" x2="34" y2="22" gradientUnits="userSpaceOnUse">
<stop offset="0.15625" stop-color="#FE5B00"/>
<stop offset="0.489583" stop-color="#F9BE79"/>
<stop offset="0.890625" stop-color="#E66000"/>
</linearGradient>
<linearGradient id="paint3_linear_119_194" x1="34.5" y1="24" x2="34.5" y2="33" gradientUnits="userSpaceOnUse">
<stop stop-color="#F9BE79"/>
<stop offset="0.427083" stop-color="#FE5B00"/>
<stop offset="0.890625" stop-color="#D04013"/>
</linearGradient>
</defs>
</svg>
