<svg width="191" height="55" viewBox="0 0 191 55" fill="none" xmlns="http://www.w3.org/2000/svg">
<rect x="3" width="184" height="55" rx="27.5" fill="url(#paint0_linear_346_90)" fill-opacity="0.85"/>
<rect x="29.0202" y="3" width="131.96" height="31" rx="15.5" fill="url(#paint1_linear_346_90)" fill-opacity="0.71"/>
<path d="M48.0725 31.9766C48.0725 32.1224 48.0465 32.2578 47.9944 32.3828C47.9423 32.5078 47.8694 32.6172 47.7757 32.7109C47.6871 32.7995 47.5804 32.8698 47.4554 32.9219C47.3304 32.974 47.1949 33 47.0491 33H39.721C39.5335 33 39.3304 32.9792 39.1116 32.9375C38.8981 32.8906 38.6845 32.8203 38.471 32.7266C38.2627 32.6328 38.0621 32.513 37.8694 32.3672C37.6767 32.2161 37.5048 32.0365 37.3538 31.8281C37.208 31.6146 37.0908 31.3698 37.0022 31.0938C36.9137 30.8125 36.8694 30.4974 36.8694 30.1484V24.6484C36.8694 24.4609 36.8903 24.2604 36.9319 24.0469C36.9788 23.8281 37.0491 23.6146 37.1429 23.4062C37.2366 23.1927 37.359 22.9896 37.51 22.7969C37.6611 22.6042 37.8408 22.4349 38.0491 22.2891C38.2627 22.138 38.5074 22.0182 38.7835 21.9297C39.0595 21.8411 39.372 21.7969 39.721 21.7969H47.9788V23.8281H39.721C39.4554 23.8281 39.2522 23.8984 39.1116 24.0391C38.971 24.1797 38.9007 24.388 38.9007 24.6641V30.1484C38.9007 30.4089 38.971 30.612 39.1116 30.7578C39.2574 30.8984 39.4606 30.9688 39.721 30.9688H46.0413V28.4219H40.635V26.375H47.0491C47.1949 26.375 47.3304 26.4036 47.4554 26.4609C47.5804 26.513 47.6871 26.5859 47.7757 26.6797C47.8694 26.7734 47.9423 26.8828 47.9944 27.0078C48.0465 27.1276 48.0725 27.2578 48.0725 27.3984V31.9766ZM59.4007 28.4219H52.9866V26.375H59.4007V28.4219ZM60.3147 33H52.9866C52.7054 33 52.3981 32.9505 52.0647 32.8516C51.7314 32.7526 51.4215 32.5911 51.135 32.3672C50.8538 32.138 50.6168 31.8438 50.4241 31.4844C50.2366 31.1198 50.1429 30.6745 50.1429 30.1484V22.8203C50.1429 22.6797 50.1689 22.5469 50.221 22.4219C50.2731 22.2969 50.3434 22.1875 50.4319 22.0938C50.5257 22 50.635 21.9271 50.76 21.875C50.885 21.8229 51.0205 21.7969 51.1663 21.7969H60.3147V23.8281H52.1741V30.1484C52.1741 30.4141 52.2444 30.6172 52.385 30.7578C52.5257 30.8984 52.7314 30.9688 53.0022 30.9688H60.3147V33ZM72.4085 23.8281H67.9319V33H65.9007V23.8281H61.4163V21.7969H72.4085V23.8281ZM88.8929 23.8281H84.4163V33H82.385V23.8281H77.9007V21.7969H88.8929V23.8281ZM92.4397 33H90.4085V21.7969H92.4397V33ZM104.846 33H97.5179C97.3304 33 97.1272 32.9792 96.9085 32.9375C96.6949 32.8906 96.4814 32.8203 96.2679 32.7266C96.0595 32.6328 95.859 32.513 95.6663 32.3672C95.4736 32.2161 95.3017 32.0365 95.1507 31.8281C95.0048 31.6146 94.8877 31.3698 94.7991 31.0938C94.7106 30.8125 94.6663 30.4974 94.6663 30.1484V24.6484C94.6663 24.4609 94.6871 24.2604 94.7288 24.0469C94.7757 23.8281 94.846 23.6146 94.9397 23.4062C95.0335 23.1927 95.1559 22.9896 95.3069 22.7969C95.458 22.6042 95.6377 22.4349 95.846 22.2891C96.0595 22.138 96.3043 22.0182 96.5804 21.9297C96.8564 21.8411 97.1689 21.7969 97.5179 21.7969H104.846V23.8281H97.5179C97.2522 23.8281 97.0491 23.8984 96.9085 24.0391C96.7679 24.1797 96.6975 24.388 96.6975 24.6641V30.1484C96.6975 30.4089 96.7679 30.612 96.9085 30.7578C97.0543 30.8984 97.2574 30.9688 97.5179 30.9688H104.846V33ZM118.51 33H115.627L111.057 28.4219H109.627V26.375H111.057L115.627 21.7969H118.51L112.752 27.3984L118.51 33ZM108.815 33H106.783V21.7969H108.815V33ZM128.916 28.4219H122.502V26.375H128.916V28.4219ZM129.83 33H122.502C122.221 33 121.914 32.9505 121.58 32.8516C121.247 32.7526 120.937 32.5911 120.651 32.3672C120.369 32.138 120.132 31.8438 119.94 31.4844C119.752 31.1198 119.658 30.6745 119.658 30.1484V22.8203C119.658 22.6797 119.685 22.5469 119.737 22.4219C119.789 22.2969 119.859 22.1875 119.948 22.0938C120.041 22 120.151 21.9271 120.276 21.875C120.401 21.8229 120.536 21.7969 120.682 21.7969H129.83V23.8281H121.69V30.1484C121.69 30.4141 121.76 30.6172 121.901 30.7578C122.041 30.8984 122.247 30.9688 122.518 30.9688H129.83V33ZM141.924 23.8281H137.448V33H135.416V23.8281H130.932V21.7969H141.924V23.8281ZM154.19 29.7031C154.19 30.1042 154.138 30.4661 154.033 30.7891C153.935 31.1068 153.802 31.388 153.635 31.6328C153.468 31.8776 153.273 32.0859 153.049 32.2578C152.825 32.4297 152.593 32.5703 152.354 32.6797C152.114 32.7891 151.869 32.8698 151.619 32.9219C151.375 32.974 151.143 33 150.924 33H143.088V30.9688H150.924C151.315 30.9688 151.617 30.8542 151.83 30.625C152.049 30.3958 152.158 30.0885 152.158 29.7031C152.158 29.5156 152.13 29.3438 152.073 29.1875C152.015 29.0312 151.932 28.8958 151.823 28.7812C151.718 28.6667 151.588 28.5781 151.432 28.5156C151.281 28.4531 151.112 28.4219 150.924 28.4219H146.252C145.924 28.4219 145.57 28.3646 145.19 28.25C144.81 28.1302 144.455 27.9401 144.127 27.6797C143.804 27.4193 143.533 27.0781 143.315 26.6562C143.101 26.2344 142.994 25.7188 142.994 25.1094C142.994 24.5 143.101 23.987 143.315 23.5703C143.533 23.1484 143.804 22.8073 144.127 22.5469C144.455 22.2812 144.81 22.0911 145.19 21.9766C145.57 21.8568 145.924 21.7969 146.252 21.7969H153.166V23.8281H146.252C145.867 23.8281 145.565 23.9453 145.346 24.1797C145.132 24.4141 145.026 24.724 145.026 25.1094C145.026 25.5 145.132 25.8099 145.346 26.0391C145.565 26.263 145.867 26.375 146.252 26.375H150.924H150.94C151.158 26.3802 151.39 26.4115 151.635 26.4688C151.88 26.5208 152.122 26.6042 152.362 26.7188C152.606 26.8333 152.838 26.9792 153.057 27.1562C153.276 27.3281 153.468 27.5365 153.635 27.7812C153.807 28.026 153.942 28.3073 154.041 28.625C154.14 28.9427 154.19 29.3021 154.19 29.7031Z" fill="white" fill-opacity="0.7"/>
<defs>
<linearGradient id="paint0_linear_346_90" x1="95" y1="0" x2="95" y2="55" gradientUnits="userSpaceOnUse">
<stop stop-color="#F9BE79"/>
<stop offset="0.546875" stop-color="#FE5B00"/>
<stop offset="1" stop-color="#D04013"/>
</linearGradient>
<linearGradient id="paint1_linear_346_90" x1="95" y1="3" x2="95" y2="34" gradientUnits="userSpaceOnUse">
<stop offset="0.119792" stop-color="white"/>
<stop offset="0.53125" stop-color="#D1D1D1" stop-opacity="0.44"/>
<stop offset="1" stop-color="#8E8E8E" stop-opacity="0"/>
</linearGradient>
</defs>
</svg>
