<svg width="124" height="56" viewBox="0 0 124 56" fill="none" xmlns="http://www.w3.org/2000/svg">
<g filter="url(#filter0_b_382_99)">
<rect width="124" height="56" rx="28" fill="url(#paint0_linear_382_99)" fill-opacity="0.9"/>
<rect x="1" y="1" width="122" height="54" rx="27" stroke="url(#paint1_linear_382_99)" stroke-opacity="0.7" stroke-width="2"/>
</g>
<path d="M40.795 33.9766C40.795 34.1224 40.769 34.2578 40.7169 34.3828C40.6648 34.5078 40.5919 34.6172 40.4981 34.7109C40.4096 34.7995 40.3028 34.8698 40.1778 34.9219C40.0528 34.974 39.9174 35 39.7716 35H32.4434C32.2559 35 32.0528 34.9792 31.8341 34.9375C31.6205 34.8906 31.407 34.8203 31.1934 34.7266C30.9851 34.6328 30.7846 34.513 30.5919 34.3672C30.3992 34.2161 30.2273 34.0365 30.0762 33.8281C29.9304 33.6146 29.8132 33.3698 29.7247 33.0938C29.6361 32.8125 29.5919 32.4974 29.5919 32.1484V26.6484C29.5919 26.4609 29.6127 26.2604 29.6544 26.0469C29.7012 25.8281 29.7716 25.6146 29.8653 25.4062C29.9591 25.1927 30.0815 24.9896 30.2325 24.7969C30.3835 24.6042 30.5632 24.4349 30.7716 24.2891C30.9851 24.138 31.2299 24.0182 31.5059 23.9297C31.782 23.8411 32.0945 23.7969 32.4434 23.7969H40.7012V25.8281H32.4434C32.1778 25.8281 31.9747 25.8984 31.8341 26.0391C31.6934 26.1797 31.6231 26.388 31.6231 26.6641V32.1484C31.6231 32.4089 31.6934 32.612 31.8341 32.7578C31.9799 32.8984 32.183 32.9688 32.4434 32.9688H38.7637V30.4219H33.3575V28.375H39.7716C39.9174 28.375 40.0528 28.4036 40.1778 28.4609C40.3028 28.513 40.4096 28.5859 40.4981 28.6797C40.5919 28.7734 40.6648 28.8828 40.7169 29.0078C40.769 29.1276 40.795 29.2578 40.795 29.3984V33.9766ZM51.2331 32.1484C51.2331 32.4974 51.1889 32.8125 51.1003 33.0938C51.0118 33.3698 50.8946 33.6146 50.7487 33.8281C50.6029 34.0365 50.4336 34.2161 50.2409 34.3672C50.0482 34.513 49.8451 34.6328 49.6316 34.7266C49.4232 34.8203 49.2097 34.8906 48.9909 34.9375C48.7774 34.9792 48.5743 35 48.3816 35H44.7175C44.4362 35 44.129 34.9505 43.7956 34.8516C43.4623 34.7526 43.1524 34.5911 42.8659 34.3672C42.5847 34.138 42.3477 33.8438 42.155 33.4844C41.9675 33.1198 41.8737 32.6745 41.8737 32.1484V29.3984C41.8737 28.8776 41.9675 28.4375 42.155 28.0781C42.3477 27.7135 42.5847 27.4193 42.8659 27.1953C43.1524 26.9661 43.4623 26.8021 43.7956 26.7031C44.129 26.6042 44.4362 26.5547 44.7175 26.5547H48.3816C48.9024 26.5547 49.3451 26.6484 49.7097 26.8359C50.0743 27.0234 50.3685 27.2604 50.5925 27.5469C50.8165 27.8281 50.9779 28.1354 51.0769 28.4688C51.181 28.8021 51.2331 29.112 51.2331 29.3984V32.1484ZM49.2019 29.4141C49.2019 29.1328 49.1316 28.9245 48.9909 28.7891C48.8503 28.6536 48.6472 28.5859 48.3816 28.5859H44.7331C44.4623 28.5859 44.2566 28.6562 44.1159 28.7969C43.9753 28.9323 43.905 29.1328 43.905 29.3984V32.1484C43.905 32.4141 43.9753 32.6172 44.1159 32.7578C44.2566 32.8984 44.4623 32.9688 44.7331 32.9688H48.3816C48.6576 32.9688 48.8633 32.8984 48.9987 32.7578C49.1342 32.6172 49.2019 32.4141 49.2019 32.1484V29.4141ZM66.2031 32.1484C66.2031 32.3411 66.1797 32.5443 66.1328 32.7578C66.0911 32.9714 66.0234 33.1849 65.9297 33.3984C65.8359 33.6068 65.7135 33.8073 65.5625 34C65.4167 34.1927 65.237 34.3646 65.0234 34.5156C64.8151 34.6615 64.5729 34.7786 64.2969 34.8672C64.0208 34.9557 63.7083 35 63.3594 35H59.6953C59.5026 35 59.2995 34.9792 59.0859 34.9375C58.8724 34.8906 58.6589 34.8203 58.4453 34.7266C58.237 34.6328 58.0365 34.513 57.8438 34.3672C57.651 34.2161 57.4792 34.0365 57.3281 33.8281C57.1823 33.6146 57.0651 33.3698 56.9766 33.0938C56.888 32.8125 56.8438 32.4974 56.8438 32.1484V22.9844H58.875V32.1484C58.875 32.3984 58.9531 32.599 59.1094 32.75C59.2656 32.8958 59.4609 32.9688 59.6953 32.9688H63.3594C63.6146 32.9688 63.8125 32.8932 63.9531 32.7422C64.099 32.5911 64.1719 32.3932 64.1719 32.1484V29.3984C64.1719 29.1432 64.0964 28.9453 63.9453 28.8047C63.7943 28.6589 63.599 28.5859 63.3594 28.5859H59.6953V26.5547H63.3594C63.5521 26.5547 63.7552 26.5781 63.9688 26.625C64.1823 26.6667 64.3932 26.7344 64.6016 26.8281C64.8151 26.9219 65.0182 27.0443 65.2109 27.1953C65.4036 27.3411 65.5729 27.5208 65.7188 27.7344C65.8646 27.9427 65.9818 28.1849 66.0703 28.4609C66.1589 28.737 66.2031 29.0495 66.2031 29.3984V32.1484ZM76.0162 32.2031C76.0162 32.4844 75.9668 32.7891 75.8678 33.1172C75.7689 33.4401 75.6074 33.7422 75.3834 34.0234C75.1647 34.2995 74.8756 34.5312 74.5162 34.7188C74.1621 34.9062 73.7298 35 73.2194 35H69.5553C69.2741 35 68.9694 34.9505 68.6412 34.8516C68.3183 34.7526 68.0162 34.5938 67.735 34.375C67.459 34.151 67.2272 33.862 67.0397 33.5078C66.8522 33.1484 66.7584 32.7135 66.7584 32.2031C66.7584 31.9219 66.8079 31.6172 66.9069 31.2891C67.0058 30.9609 67.1647 30.6589 67.3834 30.3828C67.6074 30.1016 67.8965 29.8672 68.2506 29.6797C68.61 29.4922 69.0449 29.3984 69.5553 29.3984H73.2194V31.3359H69.5553C69.2793 31.3359 69.0657 31.4219 68.9147 31.5938C68.7636 31.7604 68.6881 31.9688 68.6881 32.2188C68.6881 32.4844 68.7741 32.6927 68.9459 32.8438C69.123 32.9896 69.3314 33.0625 69.5709 33.0625H73.2194C73.4954 33.0625 73.709 32.9792 73.86 32.8125C74.011 32.6458 74.0866 32.4375 74.0866 32.1875V29.3516C74.0866 29.0859 74.0032 28.875 73.8366 28.7188C73.6751 28.5625 73.4694 28.4844 73.2194 28.4844H68.7584V26.5547H73.2194C73.5006 26.5547 73.8027 26.6042 74.1256 26.7031C74.4537 26.8021 74.7558 26.9635 75.0319 27.1875C75.3131 27.4062 75.5475 27.6953 75.735 28.0547C75.9225 28.4089 76.0162 28.8411 76.0162 29.3516V32.2031ZM85.2903 35H79.7825C79.5012 35 79.194 34.9505 78.8606 34.8516C78.5273 34.7526 78.2174 34.5911 77.9309 34.3672C77.6497 34.138 77.4127 33.8438 77.22 33.4844C77.0325 33.1198 76.9387 32.6745 76.9387 32.1484V29.3984C76.9387 29.2057 76.9596 29.0026 77.0012 28.7891C77.0481 28.5755 77.1184 28.3646 77.2122 28.1562C77.3059 27.9427 77.4257 27.7396 77.5716 27.5469C77.7226 27.3542 77.9023 27.1849 78.1106 27.0391C78.3242 26.8932 78.569 26.776 78.845 26.6875C79.121 26.599 79.4335 26.5547 79.7825 26.5547H85.2903V28.5859H79.7825C79.5169 28.5859 79.3137 28.6536 79.1731 28.7891C79.0377 28.9245 78.97 29.1328 78.97 29.4141V32.1484C78.97 32.4141 79.0403 32.6172 79.1809 32.7578C79.3216 32.8984 79.5273 32.9688 79.7981 32.9688H85.2903V35ZM96.2519 35H93.3222L89.2284 31.0469C88.9993 30.8385 88.8925 30.5781 88.9081 30.2656C88.9185 30.1198 88.955 29.9844 89.0175 29.8594C89.0852 29.7292 89.1764 29.6198 89.2909 29.5312L93.0019 26.5391H96.2519L91.4706 30.3906L96.2519 35ZM88.3925 35H86.3613V22.9844H88.3925V35Z" fill="black"/>
<defs>
<filter id="filter0_b_382_99" x="-5" y="-5" width="134" height="66" filterUnits="userSpaceOnUse" color-interpolation-filters="sRGB">
<feFlood flood-opacity="0" result="BackgroundImageFix"/>
<feGaussianBlur in="BackgroundImageFix" stdDeviation="2.5"/>
<feComposite in2="SourceAlpha" operator="in" result="effect1_backgroundBlur_382_99"/>
<feBlend mode="normal" in="SourceGraphic" in2="effect1_backgroundBlur_382_99" result="shape"/>
</filter>
<linearGradient id="paint0_linear_382_99" x1="54.6727" y1="-8.17638e-07" x2="70.0591" y2="59.8803" gradientUnits="userSpaceOnUse">
<stop stop-color="white"/>
<stop offset="0.176216" stop-color="#DBDBDB"/>
<stop offset="0.697288" stop-color="#9E9E9E"/>
<stop offset="1" stop-color="#535252"/>
</linearGradient>
<linearGradient id="paint1_linear_382_99" x1="62" y1="0" x2="62" y2="56" gradientUnits="userSpaceOnUse">
<stop stop-color="#2E13D0"/>
<stop offset="0.604167" stop-color="#784CD6"/>
<stop offset="1" stop-color="#D2C5F8"/>
</linearGradient>
</defs>
</svg>
