<svg width="191" height="55" viewBox="0 0 191 55" fill="none" xmlns="http://www.w3.org/2000/svg">
<rect x="3" width="184" height="55" rx="27.5" fill="url(#paint0_linear_346_90)" fill-opacity="0.7"/>
<rect x="29.0202" y="3" width="131.96" height="31" rx="15.5" fill="url(#paint1_linear_346_90)" fill-opacity="0.71"/>
<path d="M56.7132 31.9766C56.7132 32.1224 56.6871 32.2578 56.635 32.3828C56.583 32.5078 56.51 32.6172 56.4163 32.7109C56.3278 32.7995 56.221 32.8698 56.096 32.9219C55.971 32.974 55.8356 33 55.6897 33H48.3616C48.1741 33 47.971 32.9792 47.7522 32.9375C47.5387 32.8906 47.3252 32.8203 47.1116 32.7266C46.9033 32.6328 46.7028 32.513 46.51 32.3672C46.3173 32.2161 46.1455 32.0365 45.9944 31.8281C45.8486 31.6146 45.7314 31.3698 45.6429 31.0938C45.5543 30.8125 45.51 30.4974 45.51 30.1484V24.6484C45.51 24.4609 45.5309 24.2604 45.5725 24.0469C45.6194 23.8281 45.6897 23.6146 45.7835 23.4062C45.8772 23.1927 45.9996 22.9896 46.1507 22.7969C46.3017 22.6042 46.4814 22.4349 46.6897 22.2891C46.9033 22.138 47.1481 22.0182 47.4241 21.9297C47.7002 21.8411 48.0127 21.7969 48.3616 21.7969H56.6194V23.8281H48.3616C48.096 23.8281 47.8929 23.8984 47.7522 24.0391C47.6116 24.1797 47.5413 24.388 47.5413 24.6641V30.1484C47.5413 30.4089 47.6116 30.612 47.7522 30.7578C47.8981 30.8984 48.1012 30.9688 48.3616 30.9688H54.6819V28.4219H49.2757V26.375H55.6897C55.8356 26.375 55.971 26.4036 56.096 26.4609C56.221 26.513 56.3278 26.5859 56.4163 26.6797C56.51 26.7734 56.583 26.8828 56.635 27.0078C56.6871 27.1276 56.7132 27.2578 56.7132 27.3984V31.9766ZM70.5882 28.4688C70.5882 29.151 70.471 29.7786 70.2366 30.3516C70.0022 30.9245 69.6767 31.4193 69.26 31.8359C68.8434 32.2526 68.3486 32.5781 67.7757 32.8125C67.208 33.0417 66.5882 33.1562 65.9163 33.1562H63.1663C62.4944 33.1562 61.872 33.0417 61.2991 32.8125C60.7262 32.5781 60.2314 32.2526 59.8147 31.8359C59.3981 31.4193 59.0699 30.9245 58.8304 30.3516C58.596 29.7786 58.4788 29.151 58.4788 28.4688V26.3281C58.4788 25.651 58.596 25.026 58.8304 24.4531C59.0699 23.875 59.3981 23.3802 59.8147 22.9688C60.2314 22.5521 60.7262 22.2266 61.2991 21.9922C61.872 21.7578 62.4944 21.6406 63.1663 21.6406H65.9163C66.5882 21.6406 67.208 21.7578 67.7757 21.9922C68.3486 22.2266 68.8434 22.5521 69.26 22.9688C69.6767 23.3802 70.0022 23.875 70.2366 24.4531C70.471 25.026 70.5882 25.651 70.5882 26.3281V28.4688ZM68.5569 26.3281C68.5569 25.9271 68.4918 25.5651 68.3616 25.2422C68.2366 24.9141 68.0569 24.6354 67.8225 24.4062C67.5934 24.1719 67.3147 23.9922 66.9866 23.8672C66.6637 23.737 66.3069 23.6719 65.9163 23.6719H63.1663C62.7705 23.6719 62.4085 23.737 62.0804 23.8672C61.7574 23.9922 61.4788 24.1719 61.2444 24.4062C61.01 24.6354 60.8278 24.9141 60.6975 25.2422C60.5725 25.5651 60.51 25.9271 60.51 26.3281V28.4688C60.51 28.8698 60.5725 29.2344 60.6975 29.5625C60.8278 29.8854 61.01 30.1641 61.2444 30.3984C61.4788 30.6276 61.7574 30.8073 62.0804 30.9375C62.4085 31.0625 62.7705 31.125 63.1663 31.125H65.9007C66.2965 31.125 66.6559 31.0625 66.9788 30.9375C67.3069 30.8073 67.5882 30.6276 67.8225 30.3984C68.0569 30.1641 68.2366 29.8854 68.3616 29.5625C68.4918 29.2344 68.5569 28.8698 68.5569 28.4688V26.3281ZM87.7522 23.8281H83.2757V33H81.2444V23.8281H76.76V21.7969H87.7522V23.8281ZM100.854 28.4688C100.854 29.151 100.737 29.7786 100.502 30.3516C100.268 30.9245 99.9423 31.4193 99.5257 31.8359C99.109 32.2526 98.6142 32.5781 98.0413 32.8125C97.4736 33.0417 96.8538 33.1562 96.1819 33.1562H93.4319C92.76 33.1562 92.1377 33.0417 91.5647 32.8125C90.9918 32.5781 90.497 32.2526 90.0804 31.8359C89.6637 31.4193 89.3356 30.9245 89.096 30.3516C88.8616 29.7786 88.7444 29.151 88.7444 28.4688V26.3281C88.7444 25.651 88.8616 25.026 89.096 24.4531C89.3356 23.875 89.6637 23.3802 90.0804 22.9688C90.497 22.5521 90.9918 22.2266 91.5647 21.9922C92.1377 21.7578 92.76 21.6406 93.4319 21.6406H96.1819C96.8538 21.6406 97.4736 21.7578 98.0413 21.9922C98.6142 22.2266 99.109 22.5521 99.5257 22.9688C99.9423 23.3802 100.268 23.875 100.502 24.4531C100.737 25.026 100.854 25.651 100.854 26.3281V28.4688ZM98.8225 26.3281C98.8225 25.9271 98.7574 25.5651 98.6272 25.2422C98.5022 24.9141 98.3225 24.6354 98.0882 24.4062C97.859 24.1719 97.5804 23.9922 97.2522 23.8672C96.9293 23.737 96.5725 23.6719 96.1819 23.6719H93.4319C93.0361 23.6719 92.6741 23.737 92.346 23.8672C92.0231 23.9922 91.7444 24.1719 91.51 24.4062C91.2757 24.6354 91.0934 24.9141 90.9632 25.2422C90.8382 25.5651 90.7757 25.9271 90.7757 26.3281V28.4688C90.7757 28.8698 90.8382 29.2344 90.9632 29.5625C91.0934 29.8854 91.2757 30.1641 91.51 30.3984C91.7444 30.6276 92.0231 30.8073 92.346 30.9375C92.6741 31.0625 93.0361 31.125 93.4319 31.125H96.1663C96.5621 31.125 96.9215 31.0625 97.2444 30.9375C97.5725 30.8073 97.8538 30.6276 98.0882 30.3984C98.3225 30.1641 98.5022 29.8854 98.6272 29.5625C98.7574 29.2344 98.8225 28.8698 98.8225 28.4688V26.3281ZM119.057 33H117.026V30.25H109.885V33H107.854V27.3984C107.854 26.5807 107.994 25.8281 108.276 25.1406C108.557 24.4531 108.948 23.862 109.448 23.3672C109.948 22.8724 110.539 22.487 111.221 22.2109C111.903 21.9349 112.648 21.7969 113.455 21.7969H118.033C118.174 21.7969 118.307 21.8229 118.432 21.875C118.557 21.9271 118.666 22 118.76 22.0938C118.854 22.1875 118.927 22.2969 118.979 22.4219C119.031 22.5469 119.057 22.6797 119.057 22.8203V33ZM109.885 28.2188H117.026V23.8281H113.455C113.393 23.8281 113.26 23.8385 113.057 23.8594C112.859 23.875 112.627 23.9193 112.362 23.9922C112.101 24.0651 111.825 24.1771 111.533 24.3281C111.242 24.4792 110.974 24.6875 110.729 24.9531C110.484 25.2188 110.281 25.5521 110.119 25.9531C109.963 26.349 109.885 26.8307 109.885 27.3984V28.2188ZM132.588 26.4844C132.588 26.9479 132.531 27.362 132.416 27.7266C132.302 28.0911 132.145 28.4141 131.948 28.6953C131.755 28.9714 131.531 29.2083 131.276 29.4062C131.02 29.6042 130.752 29.7656 130.471 29.8906C130.195 30.0156 129.914 30.1068 129.627 30.1641C129.346 30.2214 129.08 30.25 128.83 30.25H124.237V28.2188H128.83C129.091 28.1979 129.325 28.1458 129.533 28.0625C129.747 27.974 129.929 27.8568 130.08 27.7109C130.231 27.5651 130.349 27.3906 130.432 27.1875C130.515 26.9792 130.557 26.7448 130.557 26.4844V25.5625C130.531 25.3073 130.476 25.0729 130.393 24.8594C130.31 24.6458 130.195 24.4635 130.049 24.3125C129.908 24.1615 129.737 24.0443 129.533 23.9609C129.33 23.8724 129.096 23.8281 128.83 23.8281H124.252C123.981 23.8281 123.776 23.8984 123.635 24.0391C123.494 24.1797 123.424 24.3828 123.424 24.6484V33H121.393V24.6484C121.393 24.1276 121.487 23.6849 121.674 23.3203C121.867 22.9557 122.104 22.6615 122.385 22.4375C122.672 22.2135 122.981 22.0521 123.315 21.9531C123.648 21.849 123.955 21.7969 124.237 21.7969H128.83C129.289 21.7969 129.7 21.8568 130.065 21.9766C130.429 22.0911 130.75 22.2474 131.026 22.4453C131.307 22.638 131.544 22.862 131.737 23.1172C131.935 23.3724 132.096 23.6406 132.221 23.9219C132.351 24.1979 132.445 24.4792 132.502 24.7656C132.56 25.0469 132.588 25.3125 132.588 25.5625V26.4844ZM145.494 26.4844C145.494 26.9479 145.437 27.362 145.323 27.7266C145.208 28.0911 145.052 28.4141 144.854 28.6953C144.661 28.9714 144.437 29.2083 144.182 29.4062C143.927 29.6042 143.658 29.7656 143.377 29.8906C143.101 30.0156 142.82 30.1068 142.533 30.1641C142.252 30.2214 141.987 30.25 141.737 30.25H137.143V28.2188H141.737C141.997 28.1979 142.231 28.1458 142.44 28.0625C142.653 27.974 142.836 27.8568 142.987 27.7109C143.138 27.5651 143.255 27.3906 143.338 27.1875C143.421 26.9792 143.463 26.7448 143.463 26.4844V25.5625C143.437 25.3073 143.382 25.0729 143.299 24.8594C143.216 24.6458 143.101 24.4635 142.955 24.3125C142.815 24.1615 142.643 24.0443 142.44 23.9609C142.237 23.8724 142.002 23.8281 141.737 23.8281H137.158C136.888 23.8281 136.682 23.8984 136.541 24.0391C136.401 24.1797 136.33 24.3828 136.33 24.6484V33H134.299V24.6484C134.299 24.1276 134.393 23.6849 134.58 23.3203C134.773 22.9557 135.01 22.6615 135.291 22.4375C135.578 22.2135 135.888 22.0521 136.221 21.9531C136.554 21.849 136.862 21.7969 137.143 21.7969H141.737C142.195 21.7969 142.606 21.8568 142.971 21.9766C143.336 22.0911 143.656 22.2474 143.932 22.4453C144.213 22.638 144.45 22.862 144.643 23.1172C144.841 23.3724 145.002 23.6406 145.127 23.9219C145.257 24.1979 145.351 24.4792 145.408 24.7656C145.466 25.0469 145.494 25.3125 145.494 25.5625V26.4844Z" fill="white" fill-opacity="0.7"/>
<defs>
<linearGradient id="paint0_linear_346_90" x1="95" y1="0" x2="95" y2="55" gradientUnits="userSpaceOnUse">
<stop stop-color="#D2C5F8"/>
<stop offset="0.427083" stop-color="#784CD6"/>
<stop offset="0.890625" stop-color="#2E13D0"/>
</linearGradient>
<linearGradient id="paint1_linear_346_90" x1="95" y1="3" x2="95" y2="34" gradientUnits="userSpaceOnUse">
<stop offset="0.119792" stop-color="white"/>
<stop offset="0.53125" stop-color="#D1D1D1" stop-opacity="0.44"/>
<stop offset="1" stop-color="#8E8E8E" stop-opacity="0"/>
</linearGradient>
</defs>
</svg>
