<svg width="191" height="55" viewBox="0 0 191 55" fill="none" xmlns="http://www.w3.org/2000/svg">
<rect x="3" width="184" height="55" rx="27.5" fill="url(#paint0_linear_346_90)" fill-opacity="0.9"/>
<rect x="29.0202" y="3" width="131.96" height="31" rx="15.5" fill="url(#paint1_linear_346_90)" fill-opacity="0.71"/>
<path d="M59.8538 28.4688C59.8538 29.151 59.7366 29.7786 59.5022 30.3516C59.2679 30.9245 58.9423 31.4193 58.5257 31.8359C58.109 32.2526 57.6142 32.5781 57.0413 32.8125C56.4736 33.0417 55.8538 33.1562 55.1819 33.1562H52.4319C51.76 33.1562 51.1377 33.0417 50.5647 32.8125C49.9918 32.5781 49.497 32.2526 49.0804 31.8359C48.6637 31.4193 48.3356 30.9245 48.096 30.3516C47.8616 29.7786 47.7444 29.151 47.7444 28.4688V26.3281C47.7444 25.651 47.8616 25.026 48.096 24.4531C48.3356 23.875 48.6637 23.3802 49.0804 22.9688C49.497 22.5521 49.9918 22.2266 50.5647 21.9922C51.1377 21.7578 51.76 21.6406 52.4319 21.6406H55.1819C55.8538 21.6406 56.4736 21.7578 57.0413 21.9922C57.6142 22.2266 58.109 22.5521 58.5257 22.9688C58.9423 23.3802 59.2679 23.875 59.5022 24.4531C59.7366 25.026 59.8538 25.651 59.8538 26.3281V28.4688ZM57.8225 26.3281C57.8225 25.9271 57.7574 25.5651 57.6272 25.2422C57.5022 24.9141 57.3225 24.6354 57.0882 24.4062C56.859 24.1719 56.5804 23.9922 56.2522 23.8672C55.9293 23.737 55.5725 23.6719 55.1819 23.6719H52.4319C52.0361 23.6719 51.6741 23.737 51.346 23.8672C51.0231 23.9922 50.7444 24.1719 50.51 24.4062C50.2757 24.6354 50.0934 24.9141 49.9632 25.2422C49.8382 25.5651 49.7757 25.9271 49.7757 26.3281V28.4688C49.7757 28.8698 49.8382 29.2344 49.9632 29.5625C50.0934 29.8854 50.2757 30.1641 50.51 30.3984C50.7444 30.6276 51.0231 30.8073 51.346 30.9375C51.6741 31.0625 52.0361 31.125 52.4319 31.125H55.1663C55.5621 31.125 55.9215 31.0625 56.2444 30.9375C56.5725 30.8073 56.8538 30.6276 57.0882 30.3984C57.3225 30.1641 57.5022 29.8854 57.6272 29.5625C57.7574 29.2344 57.8225 28.8698 57.8225 28.4688V26.3281ZM73.0257 26.4844C73.0257 26.9479 72.9684 27.362 72.8538 27.7266C72.7392 28.0911 72.583 28.4141 72.385 28.6953C72.1923 28.9714 71.9684 29.2083 71.7132 29.4062C71.458 29.6042 71.1897 29.7656 70.9085 29.8906C70.6324 30.0156 70.3512 30.1068 70.0647 30.1641C69.7835 30.2214 69.5179 30.25 69.2679 30.25H64.6741V28.2188H69.2679C69.5283 28.1979 69.7627 28.1458 69.971 28.0625C70.1845 27.974 70.3668 27.8568 70.5179 27.7109C70.6689 27.5651 70.7861 27.3906 70.8694 27.1875C70.9528 26.9792 70.9944 26.7448 70.9944 26.4844V25.5625C70.9684 25.3073 70.9137 25.0729 70.8304 24.8594C70.747 24.6458 70.6324 24.4635 70.4866 24.3125C70.346 24.1615 70.1741 24.0443 69.971 23.9609C69.7679 23.8724 69.5335 23.8281 69.2679 23.8281H64.6897C64.4189 23.8281 64.2132 23.8984 64.0725 24.0391C63.9319 24.1797 63.8616 24.3828 63.8616 24.6484V33H61.8304V24.6484C61.8304 24.1276 61.9241 23.6849 62.1116 23.3203C62.3043 22.9557 62.5413 22.6615 62.8225 22.4375C63.109 22.2135 63.4189 22.0521 63.7522 21.9531C64.0856 21.849 64.3929 21.7969 64.6741 21.7969H69.2679C69.7262 21.7969 70.1377 21.8568 70.5022 21.9766C70.8668 22.0911 71.1871 22.2474 71.4632 22.4453C71.7444 22.638 71.9814 22.862 72.1741 23.1172C72.372 23.3724 72.5335 23.6406 72.6585 23.9219C72.7887 24.1979 72.8824 24.4792 72.9397 24.7656C72.997 25.0469 73.0257 25.3125 73.0257 25.5625V26.4844ZM83.9788 28.4219H77.5647V26.375H83.9788V28.4219ZM84.8929 33H77.5647C77.2835 33 76.9762 32.9505 76.6429 32.8516C76.3095 32.7526 75.9996 32.5911 75.7132 32.3672C75.4319 32.138 75.1949 31.8438 75.0022 31.4844C74.8147 31.1198 74.721 30.6745 74.721 30.1484V22.8203C74.721 22.6797 74.747 22.5469 74.7991 22.4219C74.8512 22.2969 74.9215 22.1875 75.01 22.0938C75.1038 22 75.2132 21.9271 75.3382 21.875C75.4632 21.8229 75.5986 21.7969 75.7444 21.7969H84.8929V23.8281H76.7522V30.1484C76.7522 30.4141 76.8225 30.6172 76.9632 30.7578C77.1038 30.8984 77.3095 30.9688 77.5804 30.9688H84.8929V33ZM98.0569 32.1328C98.0569 32.2786 98.0283 32.4141 97.971 32.5391C97.9189 32.6641 97.846 32.7734 97.7522 32.8672C97.6637 32.9557 97.5569 33.026 97.4319 33.0781C97.3069 33.1302 97.1741 33.1562 97.0335 33.1562C96.9085 33.1562 96.7809 33.1328 96.6507 33.0859C96.5257 33.0391 96.4137 32.9635 96.3147 32.8594L88.8929 25.1094V33H86.8616V22.6641C86.8616 22.4557 86.9189 22.2682 87.0335 22.1016C87.1533 21.9297 87.3043 21.8021 87.4866 21.7188C87.6793 21.6406 87.8772 21.6224 88.0804 21.6641C88.2835 21.7005 88.458 21.7943 88.6038 21.9453L96.0257 29.6875V21.7969H98.0569V32.1328ZM116.619 33H114.588V30.25H107.448V33H105.416V27.3984C105.416 26.5807 105.557 25.8281 105.838 25.1406C106.119 24.4531 106.51 23.862 107.01 23.3672C107.51 22.8724 108.101 22.487 108.783 22.2109C109.466 21.9349 110.211 21.7969 111.018 21.7969H115.596C115.737 21.7969 115.869 21.8229 115.994 21.875C116.119 21.9271 116.229 22 116.323 22.0938C116.416 22.1875 116.489 22.2969 116.541 22.4219C116.593 22.5469 116.619 22.6797 116.619 22.8203V33ZM107.448 28.2188H114.588V23.8281H111.018C110.955 23.8281 110.823 23.8385 110.619 23.8594C110.422 23.875 110.19 23.9193 109.924 23.9922C109.664 24.0651 109.388 24.1771 109.096 24.3281C108.804 24.4792 108.536 24.6875 108.291 24.9531C108.047 25.2188 107.843 25.5521 107.682 25.9531C107.526 26.349 107.448 26.8307 107.448 27.3984V28.2188ZM130.151 26.4844C130.151 26.9479 130.093 27.362 129.979 27.7266C129.864 28.0911 129.708 28.4141 129.51 28.6953C129.317 28.9714 129.093 29.2083 128.838 29.4062C128.583 29.6042 128.315 29.7656 128.033 29.8906C127.757 30.0156 127.476 30.1068 127.19 30.1641C126.908 30.2214 126.643 30.25 126.393 30.25H121.799V28.2188H126.393C126.653 28.1979 126.888 28.1458 127.096 28.0625C127.31 27.974 127.492 27.8568 127.643 27.7109C127.794 27.5651 127.911 27.3906 127.994 27.1875C128.078 26.9792 128.119 26.7448 128.119 26.4844V25.5625C128.093 25.3073 128.039 25.0729 127.955 24.8594C127.872 24.6458 127.757 24.4635 127.612 24.3125C127.471 24.1615 127.299 24.0443 127.096 23.9609C126.893 23.8724 126.658 23.8281 126.393 23.8281H121.815C121.544 23.8281 121.338 23.8984 121.198 24.0391C121.057 24.1797 120.987 24.3828 120.987 24.6484V33H118.955V24.6484C118.955 24.1276 119.049 23.6849 119.237 23.3203C119.429 22.9557 119.666 22.6615 119.948 22.4375C120.234 22.2135 120.544 22.0521 120.877 21.9531C121.211 21.849 121.518 21.7969 121.799 21.7969H126.393C126.851 21.7969 127.263 21.8568 127.627 21.9766C127.992 22.0911 128.312 22.2474 128.588 22.4453C128.869 22.638 129.106 22.862 129.299 23.1172C129.497 23.3724 129.658 23.6406 129.783 23.9219C129.914 24.1979 130.007 24.4792 130.065 24.7656C130.122 25.0469 130.151 25.3125 130.151 25.5625V26.4844ZM143.057 26.4844C143.057 26.9479 143 27.362 142.885 27.7266C142.77 28.0911 142.614 28.4141 142.416 28.6953C142.224 28.9714 142 29.2083 141.744 29.4062C141.489 29.6042 141.221 29.7656 140.94 29.8906C140.664 30.0156 140.382 30.1068 140.096 30.1641C139.815 30.2214 139.549 30.25 139.299 30.25H134.705V28.2188H139.299C139.56 28.1979 139.794 28.1458 140.002 28.0625C140.216 27.974 140.398 27.8568 140.549 27.7109C140.7 27.5651 140.817 27.3906 140.901 27.1875C140.984 26.9792 141.026 26.7448 141.026 26.4844V25.5625C141 25.3073 140.945 25.0729 140.862 24.8594C140.778 24.6458 140.664 24.4635 140.518 24.3125C140.377 24.1615 140.205 24.0443 140.002 23.9609C139.799 23.8724 139.565 23.8281 139.299 23.8281H134.721C134.45 23.8281 134.244 23.8984 134.104 24.0391C133.963 24.1797 133.893 24.3828 133.893 24.6484V33H131.862V24.6484C131.862 24.1276 131.955 23.6849 132.143 23.3203C132.336 22.9557 132.573 22.6615 132.854 22.4375C133.14 22.2135 133.45 22.0521 133.783 21.9531C134.117 21.849 134.424 21.7969 134.705 21.7969H139.299C139.757 21.7969 140.169 21.8568 140.533 21.9766C140.898 22.0911 141.218 22.2474 141.494 22.4453C141.776 22.638 142.013 22.862 142.205 23.1172C142.403 23.3724 142.565 23.6406 142.69 23.9219C142.82 24.1979 142.914 24.4792 142.971 24.7656C143.028 25.0469 143.057 25.3125 143.057 25.5625V26.4844Z" fill="white" fill-opacity="0.7"/>
<defs>
<linearGradient id="paint0_linear_346_90" x1="95" y1="0" x2="95" y2="55" gradientUnits="userSpaceOnUse">
<stop stop-color="#D2C5F8"/>
<stop offset="0.427083" stop-color="#784CD6"/>
<stop offset="0.890625" stop-color="#2E13D0"/>
</linearGradient>
<linearGradient id="paint1_linear_346_90" x1="95" y1="3" x2="95" y2="34" gradientUnits="userSpaceOnUse">
<stop offset="0.119792" stop-color="white"/>
<stop offset="0.53125" stop-color="#D1D1D1" stop-opacity="0.44"/>
<stop offset="1" stop-color="#8E8E8E" stop-opacity="0"/>
</linearGradient>
</defs>
</svg>
