<svg width="192" height="66" viewBox="0 0 192 66" fill="none" xmlns="http://www.w3.org/2000/svg">
<rect width="192" height="66" rx="27.5" fill="url(#paint0_linear_276_90)" fill-opacity="0.9"/>
<rect x="1" y="1" width="190" height="64" rx="26.5" stroke="url(#paint1_linear_276_90)" stroke-opacity="0.7" stroke-width="2"/>
<path d="M50.2469 26H48.2V19.3281L44.5984 25.6641C44.5099 25.8255 44.3849 25.9479 44.2234 26.0312C44.0672 26.1146 43.8979 26.1562 43.7156 26.1562C43.5385 26.1562 43.3719 26.1146 43.2156 26.0312C43.0646 25.9479 42.9448 25.8255 42.8563 25.6641L39.2391 19.3281V26H37.2078V15.6641C37.2078 15.4297 37.2755 15.2214 37.4109 15.0391C37.5516 14.8568 37.7339 14.7344 37.9578 14.6719C38.0672 14.6458 38.1766 14.638 38.2859 14.6484C38.3953 14.6536 38.4995 14.6771 38.5984 14.7188C38.7026 14.7552 38.7964 14.8099 38.8797 14.8828C38.963 14.9505 39.0333 15.0339 39.0906 15.1328L43.7156 23.1719L48.3406 15.1328C48.4604 14.9349 48.6245 14.7943 48.8328 14.7109C49.0464 14.6276 49.2677 14.6146 49.4969 14.6719C49.7156 14.7344 49.8953 14.8568 50.0359 15.0391C50.1766 15.2214 50.2469 15.4297 50.2469 15.6641V26ZM62.9663 26H60.935V23.25H53.7944V26H51.7631V20.3984C51.7631 19.5807 51.9038 18.8281 52.185 18.1406C52.4663 17.4531 52.8569 16.862 53.3569 16.3672C53.8569 15.8724 54.448 15.487 55.1303 15.2109C55.8126 14.9349 56.5574 14.7969 57.3647 14.7969H61.9428C62.0834 14.7969 62.2163 14.8229 62.3413 14.875C62.4663 14.9271 62.5756 15 62.6694 15.0938C62.7631 15.1875 62.836 15.2969 62.8881 15.4219C62.9402 15.5469 62.9663 15.6797 62.9663 15.8203V26ZM53.7944 21.2188H60.935V16.8281H57.3647C57.3022 16.8281 57.1694 16.8385 56.9663 16.8594C56.7683 16.875 56.5366 16.9193 56.2709 16.9922C56.0105 17.0651 55.7345 17.1771 55.4428 17.3281C55.1511 17.4792 54.8829 17.6875 54.6381 17.9531C54.3933 18.2188 54.1902 18.5521 54.0288 18.9531C53.8725 19.349 53.7944 19.8307 53.7944 20.3984V21.2188ZM75.8575 19.4844C75.8575 19.9479 75.8002 20.362 75.6856 20.7266C75.571 21.0911 75.4148 21.4141 75.2169 21.6953C75.0242 21.9714 74.8002 22.2083 74.545 22.4062C74.2898 22.6042 74.0216 22.7656 73.7403 22.8906C73.4643 23.0156 73.183 23.1068 72.8966 23.1641C72.6153 23.2214 72.3497 23.25 72.0997 23.25H67.5059V21.2188H72.0997C72.3601 21.1979 72.5945 21.1458 72.8028 21.0625C73.0164 20.974 73.1986 20.8568 73.3497 20.7109C73.5007 20.5651 73.6179 20.3906 73.7012 20.1875C73.7846 19.9792 73.8262 19.7448 73.8262 19.4844V18.5625C73.8002 18.3073 73.7455 18.0729 73.6622 17.8594C73.5789 17.6458 73.4643 17.4635 73.3184 17.3125C73.1778 17.1615 73.0059 17.0443 72.8028 16.9609C72.5997 16.8724 72.3653 16.8281 72.0997 16.8281H67.5216C67.2507 16.8281 67.045 16.8984 66.9044 17.0391C66.7637 17.1797 66.6934 17.3828 66.6934 17.6484V26H64.6622V17.6484C64.6622 17.1276 64.7559 16.6849 64.9434 16.3203C65.1361 15.9557 65.3731 15.6615 65.6544 15.4375C65.9408 15.2135 66.2507 15.0521 66.5841 14.9531C66.9174 14.849 67.2247 14.7969 67.5059 14.7969H72.0997C72.558 14.7969 72.9695 14.8568 73.3341 14.9766C73.6986 15.0911 74.019 15.2474 74.295 15.4453C74.5762 15.638 74.8132 15.862 75.0059 16.1172C75.2039 16.3724 75.3653 16.6406 75.4903 16.9219C75.6205 17.1979 75.7143 17.4792 75.7716 17.7656C75.8289 18.0469 75.8575 18.3125 75.8575 18.5625V19.4844ZM91.3353 16.8281H86.8587V26H84.8275V16.8281H80.3431V14.7969H91.3353V16.8281ZM103.797 21.4688C103.797 22.151 103.68 22.7786 103.445 23.3516C103.211 23.9245 102.885 24.4193 102.469 24.8359C102.052 25.2526 101.557 25.5781 100.984 25.8125C100.417 26.0417 99.7969 26.1562 99.125 26.1562H96.375C95.7031 26.1562 95.0807 26.0417 94.5078 25.8125C93.9349 25.5781 93.4401 25.2526 93.0234 24.8359C92.6068 24.4193 92.2786 23.9245 92.0391 23.3516C91.8047 22.7786 91.6875 22.151 91.6875 21.4688V19.3281C91.6875 18.651 91.8047 18.026 92.0391 17.4531C92.2786 16.875 92.6068 16.3802 93.0234 15.9688C93.4401 15.5521 93.9349 15.2266 94.5078 14.9922C95.0807 14.7578 95.7031 14.6406 96.375 14.6406H99.125C99.7969 14.6406 100.417 14.7578 100.984 14.9922C101.557 15.2266 102.052 15.5521 102.469 15.9688C102.885 16.3802 103.211 16.875 103.445 17.4531C103.68 18.026 103.797 18.651 103.797 19.3281V21.4688ZM101.766 19.3281C101.766 18.9271 101.701 18.5651 101.57 18.2422C101.445 17.9141 101.266 17.6354 101.031 17.4062C100.802 17.1719 100.523 16.9922 100.195 16.8672C99.8724 16.737 99.5156 16.6719 99.125 16.6719H96.375C95.9792 16.6719 95.6172 16.737 95.2891 16.8672C94.9661 16.9922 94.6875 17.1719 94.4531 17.4062C94.2188 17.6354 94.0365 17.9141 93.9062 18.2422C93.7812 18.5651 93.7188 18.9271 93.7188 19.3281V21.4688C93.7188 21.8698 93.7812 22.2344 93.9062 22.5625C94.0365 22.8854 94.2188 23.1641 94.4531 23.3984C94.6875 23.6276 94.9661 23.8073 95.2891 23.9375C95.6172 24.0625 95.9792 24.125 96.375 24.125H99.1094C99.5052 24.125 99.8646 24.0625 100.188 23.9375C100.516 23.8073 100.797 23.6276 101.031 23.3984C101.266 23.1641 101.445 22.8854 101.57 22.5625C101.701 22.2344 101.766 21.8698 101.766 21.4688V19.3281ZM119.681 16.8281H115.204V26H113.173V16.8281H108.689V14.7969H119.681V16.8281ZM122.588 19.375H129.721V14.7969H131.752V26H129.721V21.4219H122.588V26H120.557V14.7969H122.588V19.375ZM142.706 21.4219H136.292V19.375H142.706V21.4219ZM143.62 26H136.292C136.01 26 135.703 25.9505 135.37 25.8516C135.036 25.7526 134.726 25.5911 134.44 25.3672C134.159 25.138 133.922 24.8438 133.729 24.4844C133.542 24.1198 133.448 23.6745 133.448 23.1484V15.8203C133.448 15.6797 133.474 15.5469 133.526 15.4219C133.578 15.2969 133.648 15.1875 133.737 15.0938C133.831 15 133.94 14.9271 134.065 14.875C134.19 14.8229 134.325 14.7969 134.471 14.7969H143.62V16.8281H135.479V23.1484C135.479 23.4141 135.549 23.6172 135.69 23.7578C135.831 23.8984 136.036 23.9688 136.307 23.9688H143.62V26ZM25.4253 40.7969L20.1206 51.6016C20.0373 51.7682 19.9123 51.901 19.7456 52C19.5842 52.1042 19.4045 52.1562 19.2066 52.1562C19.0139 52.1562 18.8342 52.1042 18.6675 52C18.506 51.901 18.381 51.7682 18.2925 51.6016L12.9956 40.7969H15.2691L19.2066 48.8672L23.1597 40.7969H25.4253ZM36.6291 52H34.5978V49.25H27.4572V52H25.4259V46.3984C25.4259 45.5807 25.5666 44.8281 25.8478 44.1406C26.1291 43.4531 26.5197 42.862 27.0197 42.3672C27.5197 41.8724 28.1108 41.487 28.7931 41.2109C29.4754 40.9349 30.2202 40.7969 31.0275 40.7969H35.6056C35.7463 40.7969 35.8791 40.8229 36.0041 40.875C36.1291 40.9271 36.2384 41 36.3322 41.0938C36.4259 41.1875 36.4989 41.2969 36.5509 41.4219C36.603 41.5469 36.6291 41.6797 36.6291 41.8203V52ZM27.4572 47.2188H34.5978V42.8281H31.0275C30.965 42.8281 30.8322 42.8385 30.6291 42.8594C30.4311 42.875 30.1994 42.9193 29.9338 42.9922C29.6733 43.0651 29.3973 43.1771 29.1056 43.3281C28.814 43.4792 28.5457 43.6875 28.3009 43.9531C28.0561 44.2188 27.853 44.5521 27.6916 44.9531C27.5353 45.349 27.4572 45.8307 27.4572 46.3984V47.2188ZM48.6453 52H39.3797C39.2339 52 39.0984 51.974 38.9734 51.9219C38.8484 51.8698 38.7391 51.7995 38.6453 51.7109C38.5568 51.6172 38.4865 51.5078 38.4344 51.3828C38.3823 51.2578 38.3563 51.1224 38.3563 50.9766V40.7969H40.3875V49.9688H48.6453V52ZM59.7866 52H50.5209C50.3751 52 50.2397 51.974 50.1147 51.9219C49.9897 51.8698 49.8803 51.7995 49.7866 51.7109C49.698 51.6172 49.6277 51.5078 49.5756 51.3828C49.5235 51.2578 49.4975 51.1224 49.4975 50.9766V40.7969H51.5288V49.9688H59.7866V52ZM69.8028 47.4219H63.3888V45.375H69.8028V47.4219ZM70.7169 52H63.3888C63.1075 52 62.8002 51.9505 62.4669 51.8516C62.1335 51.7526 61.8236 51.5911 61.5372 51.3672C61.2559 51.138 61.019 50.8438 60.8263 50.4844C60.6388 50.1198 60.545 49.6745 60.545 49.1484V41.8203C60.545 41.6797 60.571 41.5469 60.6231 41.4219C60.6752 41.2969 60.7455 41.1875 60.8341 41.0938C60.9278 41 61.0372 40.9271 61.1622 40.875C61.2872 40.8229 61.4226 40.7969 61.5684 40.7969H70.7169V42.8281H62.5763V49.1484C62.5763 49.4141 62.6466 49.6172 62.7872 49.7578C62.9278 49.8984 63.1335 49.9688 63.4044 49.9688H70.7169V52ZM82.7175 44.5469C82.7175 45.0104 82.6576 45.4245 82.5378 45.7891C82.4232 46.1536 82.2696 46.4766 82.0769 46.7578C81.8842 47.0339 81.6576 47.2708 81.3972 47.4688C81.142 47.6667 80.8764 47.8307 80.6003 47.9609C80.3243 48.0859 80.043 48.1771 79.7566 48.2344C79.4753 48.2917 79.2097 48.3203 78.9597 48.3203H78.1394V52H76.0925V48.3203H75.28C75.03 48.3203 74.7618 48.2917 74.4753 48.2344C74.1941 48.1771 73.9128 48.0859 73.6316 47.9609C73.3555 47.8307 73.0899 47.6667 72.8347 47.4688C72.5795 47.2708 72.3529 47.0339 72.155 46.7578C71.9623 46.4766 71.806 46.1536 71.6863 45.7891C71.5717 45.4193 71.5144 45.0052 71.5144 44.5469V40.7969H73.5456V44.5469C73.5456 44.8125 73.5873 45.0521 73.6706 45.2656C73.754 45.474 73.8711 45.6536 74.0222 45.8047C74.1732 45.9557 74.3555 46.0729 74.5691 46.1562C74.7878 46.2344 75.03 46.2734 75.2956 46.2734H78.9597C79.1524 46.2422 79.3503 46.2031 79.5534 46.1562C79.7566 46.1042 79.9415 46.0182 80.1081 45.8984C80.2748 45.7786 80.4128 45.612 80.5222 45.3984C80.6316 45.1849 80.6863 44.901 80.6863 44.5469V40.7969H82.7175V44.5469ZM100.086 47.4688C100.086 48.151 99.9688 48.7786 99.7344 49.3516C99.5 49.9245 99.1745 50.4193 98.7578 50.8359C98.3411 51.2526 97.8464 51.5781 97.2734 51.8125C96.7057 52.0417 96.0859 52.1562 95.4141 52.1562H92.6641C91.9922 52.1562 91.3698 52.0417 90.7969 51.8125C90.224 51.5781 89.7292 51.2526 89.3125 50.8359C88.8958 50.4193 88.5677 49.9245 88.3281 49.3516C88.0938 48.7786 87.9766 48.151 87.9766 47.4688V45.3281C87.9766 44.651 88.0938 44.026 88.3281 43.4531C88.5677 42.875 88.8958 42.3802 89.3125 41.9688C89.7292 41.5521 90.224 41.2266 90.7969 40.9922C91.3698 40.7578 91.9922 40.6406 92.6641 40.6406H95.4141C96.0859 40.6406 96.7057 40.7578 97.2734 40.9922C97.8464 41.2266 98.3411 41.5521 98.7578 41.9688C99.1745 42.3802 99.5 42.875 99.7344 43.4531C99.9688 44.026 100.086 44.651 100.086 45.3281V47.4688ZM98.0547 45.3281C98.0547 44.9271 97.9896 44.5651 97.8594 44.2422C97.7344 43.9141 97.5547 43.6354 97.3203 43.4062C97.0911 43.1719 96.8125 42.9922 96.4844 42.8672C96.1615 42.737 95.8047 42.6719 95.4141 42.6719H92.6641C92.2682 42.6719 91.9062 42.737 91.5781 42.8672C91.2552 42.9922 90.9766 43.1719 90.7422 43.4062C90.5078 43.6354 90.3255 43.9141 90.1953 44.2422C90.0703 44.5651 90.0078 44.9271 90.0078 45.3281V47.4688C90.0078 47.8698 90.0703 48.2344 90.1953 48.5625C90.3255 48.8854 90.5078 49.1641 90.7422 49.3984C90.9766 49.6276 91.2552 49.8073 91.5781 49.9375C91.9062 50.0625 92.2682 50.125 92.6641 50.125H95.3984C95.7943 50.125 96.1536 50.0625 96.4766 49.9375C96.8047 49.8073 97.0859 49.6276 97.3203 49.3984C97.5547 49.1641 97.7344 48.8854 97.8594 48.5625C97.9896 48.2344 98.0547 47.8698 98.0547 47.4688V45.3281ZM110.719 47.4219H104.298V45.375H110.719V47.4219ZM111.626 42.8281H103.485V52H101.454V41.8203C101.454 41.6797 101.48 41.5469 101.532 41.4219C101.584 41.2969 101.654 41.1875 101.743 41.0938C101.837 41 101.946 40.9271 102.071 40.875C102.196 40.8229 102.331 40.7969 102.477 40.7969H111.626V42.8281ZM128.228 47.3125C128.228 47.9948 128.109 48.6224 127.869 49.1953C127.635 49.7682 127.309 50.263 126.893 50.6797C126.476 51.0911 125.981 51.4141 125.408 51.6484C124.835 51.8828 124.213 52 123.541 52H118.057C117.911 52 117.775 51.974 117.65 51.9219C117.525 51.8698 117.416 51.7995 117.322 51.7109C117.234 51.6172 117.163 51.5078 117.111 51.3828C117.059 51.2578 117.033 51.1224 117.033 50.9766V41.8203C117.033 41.6797 117.059 41.5469 117.111 41.4219C117.163 41.2969 117.234 41.1875 117.322 41.0938C117.416 41 117.525 40.9271 117.65 40.875C117.775 40.8229 117.911 40.7969 118.057 40.7969H123.541C124.213 40.7969 124.835 40.9141 125.408 41.1484C125.981 41.3828 126.476 41.7083 126.893 42.125C127.309 42.5365 127.635 43.0312 127.869 43.6094C128.109 44.1823 128.228 44.8073 128.228 45.4844V47.3125ZM126.197 45.4844C126.197 45.0885 126.132 44.7266 126.002 44.3984C125.877 44.0703 125.697 43.7917 125.463 43.5625C125.228 43.3281 124.947 43.1484 124.619 43.0234C124.296 42.8932 123.937 42.8281 123.541 42.8281H119.064V49.9688H123.541C123.937 49.9688 124.296 49.9062 124.619 49.7812C124.947 49.651 125.228 49.4714 125.463 49.2422C125.697 49.0078 125.877 48.7292 126.002 48.4062C126.132 48.0781 126.197 47.7135 126.197 47.3125V45.4844ZM138.792 47.4219H132.378V45.375H138.792V47.4219ZM139.706 52H132.378C132.096 52 131.789 51.9505 131.456 51.8516C131.122 51.7526 130.812 51.5911 130.526 51.3672C130.245 51.138 130.008 50.8438 129.815 50.4844C129.628 50.1198 129.534 49.6745 129.534 49.1484V41.8203C129.534 41.6797 129.56 41.5469 129.612 41.4219C129.664 41.2969 129.734 41.1875 129.823 41.0938C129.917 41 130.026 40.9271 130.151 40.875C130.276 40.8229 130.411 40.7969 130.557 40.7969H139.706V42.8281H131.565V49.1484C131.565 49.4141 131.635 49.6172 131.776 49.7578C131.917 49.8984 132.122 49.9688 132.393 49.9688H139.706V52ZM152.23 51.1328C152.23 51.2786 152.201 51.4141 152.144 51.5391C152.092 51.6641 152.019 51.7734 151.925 51.8672C151.836 51.9557 151.73 52.026 151.605 52.0781C151.48 52.1302 151.347 52.1562 151.206 52.1562C151.081 52.1562 150.954 52.1328 150.823 52.0859C150.698 52.0391 150.586 51.9635 150.488 51.8594L143.066 44.1094V52H141.034V41.6641C141.034 41.4557 141.092 41.2682 141.206 41.1016C141.326 40.9297 141.477 40.8021 141.659 40.7188C141.852 40.6406 142.05 40.6224 142.253 40.6641C142.456 40.7005 142.631 40.7943 142.777 40.9453L150.198 48.6875V40.7969H152.23V51.1328ZM156.004 52H153.973V40.7969H156.004V52ZM170.778 52H168.731V45.3281L165.129 51.6641C165.041 51.8255 164.916 51.9479 164.754 52.0312C164.598 52.1146 164.429 52.1562 164.247 52.1562C164.069 52.1562 163.903 52.1146 163.747 52.0312C163.596 51.9479 163.476 51.8255 163.387 51.6641L159.77 45.3281V52H157.739V41.6641C157.739 41.4297 157.806 41.2214 157.942 41.0391C158.082 40.8568 158.265 40.7344 158.489 40.6719C158.598 40.6458 158.707 40.638 158.817 40.6484C158.926 40.6536 159.03 40.6771 159.129 40.7188C159.234 40.7552 159.327 40.8099 159.411 40.8828C159.494 40.9505 159.564 41.0339 159.622 41.1328L164.247 49.1719L168.872 41.1328C168.991 40.9349 169.155 40.7943 169.364 40.7109C169.577 40.6276 169.799 40.6146 170.028 40.6719C170.247 40.7344 170.426 40.8568 170.567 41.0391C170.707 41.2214 170.778 41.4297 170.778 41.6641V52Z" fill="url(#paint2_linear_276_90)"/>
<defs>
<linearGradient id="paint0_linear_276_90" x1="84.6545" y1="-9.63645e-07" x2="98.8266" y2="72.461" gradientUnits="userSpaceOnUse">
<stop stop-color="white"/>
<stop offset="0.176216" stop-color="#DBDBDB"/>
<stop offset="0.697288" stop-color="#9E9E9E"/>
<stop offset="1" stop-color="#535252"/>
</linearGradient>
<linearGradient id="paint1_linear_276_90" x1="96" y1="0" x2="96" y2="66" gradientUnits="userSpaceOnUse">
<stop stop-color="#2E13D0"/>
<stop offset="0.604167" stop-color="#784CD6"/>
<stop offset="1" stop-color="#D2C5F8"/>
</linearGradient>
<linearGradient id="paint2_linear_276_90" x1="53.0466" y1="22.5" x2="89.1543" y2="81.4838" gradientUnits="userSpaceOnUse">
<stop stop-color="#9E00FF"/>
<stop offset="1" stop-color="#0500FF"/>
</linearGradient>
</defs>
</svg>
