<svg width="192" height="66" viewBox="0 0 192 66" fill="none" xmlns="http://www.w3.org/2000/svg">
<rect width="192" height="66" rx="27.5" fill="url(#paint0_linear_276_90)" fill-opacity="0.9"/>
<rect x="1" y="1" width="190" height="64" rx="26.5" stroke="url(#paint1_linear_276_90)" stroke-opacity="0.7" stroke-width="2"/>
<path d="M52.3594 36.5391C52.3594 36.7891 52.3151 37.0573 52.2266 37.3438C52.1432 37.6302 52.0026 37.8958 51.8047 38.1406C51.612 38.3854 51.3594 38.5911 51.0469 38.7578C50.7344 38.9193 50.3516 39 49.8984 39H42.1875C42.0417 39 41.9062 38.974 41.7812 38.9219C41.6562 38.8698 41.5469 38.7995 41.4531 38.7109C41.3646 38.6172 41.2943 38.5078 41.2422 38.3828C41.1901 38.2578 41.1641 38.1224 41.1641 37.9766V28.8203C41.1641 28.6797 41.1901 28.5469 41.2422 28.4219C41.2943 28.2969 41.3646 28.1875 41.4531 28.0938C41.5469 28 41.6562 27.9271 41.7812 27.875C41.9062 27.8229 42.0417 27.7969 42.1875 27.7969H48.9844C49.2344 27.7969 49.5026 27.8411 49.7891 27.9297C50.0755 28.0182 50.3411 28.1615 50.5859 28.3594C50.8359 28.5521 51.0417 28.8047 51.2031 29.1172C51.3698 29.4297 51.4531 29.8125 51.4531 30.2656V30.6484C51.4531 31.0078 51.3932 31.3958 51.2734 31.8125C51.1536 32.224 50.9609 32.6146 50.6953 32.9844C50.9245 33.125 51.138 33.2943 51.3359 33.4922C51.5391 33.6901 51.7161 33.9193 51.8672 34.1797C52.0182 34.4401 52.138 34.7344 52.2266 35.0625C52.3151 35.3906 52.3594 35.7526 52.3594 36.1484V36.5391ZM50.3281 36.1484C50.3281 35.8828 50.2865 35.6458 50.2031 35.4375C50.1198 35.224 50.0026 35.0417 49.8516 34.8906C49.7005 34.7396 49.5182 34.625 49.3047 34.5469C49.0911 34.4635 48.8516 34.4219 48.5859 34.4219H44.0078V32.375H47.6719C47.9375 32.375 48.1771 32.3359 48.3906 32.2578C48.6042 32.1745 48.7865 32.0573 48.9375 31.9062C49.0885 31.7552 49.2031 31.5755 49.2812 31.3672C49.3646 31.1536 49.4062 30.9141 49.4062 30.6484V30.2656C49.4062 29.974 49.2656 29.8281 48.9844 29.8281H43.1953V36.9688H49.8984C49.9349 36.9688 49.9792 36.9661 50.0312 36.9609C50.0833 36.9557 50.1302 36.9401 50.1719 36.9141C50.2135 36.888 50.25 36.8438 50.2812 36.7812C50.3125 36.7188 50.3281 36.6328 50.3281 36.5234V36.1484ZM64.4069 37.9766C64.4069 38.1224 64.3808 38.2578 64.3287 38.3828C64.2767 38.5078 64.2037 38.6172 64.11 38.7109C64.0162 38.7995 63.9069 38.8698 63.7819 38.9219C63.6569 38.974 63.5241 39 63.3834 39H58.8053C58.373 39 57.9355 38.9531 57.4928 38.8594C57.0501 38.7656 56.6204 38.6224 56.2037 38.4297C55.7923 38.2318 55.4043 37.9818 55.0397 37.6797C54.6751 37.3776 54.3548 37.0208 54.0787 36.6094C53.8079 36.1927 53.5944 35.7188 53.4381 35.1875C53.2819 34.651 53.2037 34.0547 53.2037 33.3984V27.7969H55.235V33.3984C55.235 33.9714 55.3131 34.4557 55.4694 34.8516C55.6308 35.2474 55.834 35.5781 56.0787 35.8438C56.3235 36.1094 56.5918 36.3177 56.8834 36.4688C57.1751 36.6198 57.4511 36.7318 57.7116 36.8047C57.9772 36.8776 58.209 36.9245 58.4069 36.9453C58.61 36.9609 58.7428 36.9688 58.8053 36.9688H62.3756V27.7969H64.4069V37.9766ZM76.8059 31.5469C76.8059 32.0104 76.746 32.4245 76.6262 32.7891C76.5117 33.1536 76.358 33.4766 76.1653 33.7578C75.9726 34.0339 75.746 34.2708 75.4856 34.4688C75.2304 34.6667 74.9648 34.8307 74.6887 34.9609C74.4127 35.0859 74.1315 35.1771 73.845 35.2344C73.5637 35.2917 73.2981 35.3203 73.0481 35.3203H72.2278V39H70.1809V35.3203H69.3684C69.1184 35.3203 68.8502 35.2917 68.5637 35.2344C68.2825 35.1771 68.0012 35.0859 67.72 34.9609C67.444 34.8307 67.1783 34.6667 66.9231 34.4688C66.6679 34.2708 66.4414 34.0339 66.2434 33.7578C66.0507 33.4766 65.8945 33.1536 65.7747 32.7891C65.6601 32.4193 65.6028 32.0052 65.6028 31.5469V27.7969H67.6341V31.5469C67.6341 31.8125 67.6757 32.0521 67.7591 32.2656C67.8424 32.474 67.9596 32.6536 68.1106 32.8047C68.2617 32.9557 68.444 33.0729 68.6575 33.1562C68.8762 33.2344 69.1184 33.2734 69.3841 33.2734H73.0481C73.2408 33.2422 73.4387 33.2031 73.6419 33.1562C73.845 33.1042 74.0299 33.0182 74.1966 32.8984C74.3632 32.7786 74.5012 32.612 74.6106 32.3984C74.72 32.1849 74.7747 31.901 74.7747 31.5469V27.7969H76.8059V31.5469ZM95.4556 39H93.4087V32.3281L89.8072 38.6641C89.7186 38.8255 89.5936 38.9479 89.4322 39.0312C89.2759 39.1146 89.1067 39.1562 88.9244 39.1562C88.7473 39.1562 88.5806 39.1146 88.4244 39.0312C88.2733 38.9479 88.1535 38.8255 88.065 38.6641L84.4478 32.3281V39H82.4166V28.6641C82.4166 28.4297 82.4843 28.2214 82.6197 28.0391C82.7603 27.8568 82.9426 27.7344 83.1666 27.6719C83.2759 27.6458 83.3853 27.638 83.4947 27.6484C83.6041 27.6536 83.7082 27.6771 83.8072 27.7188C83.9114 27.7552 84.0051 27.8099 84.0884 27.8828C84.1718 27.9505 84.2421 28.0339 84.2994 28.1328L88.9244 36.1719L93.5494 28.1328C93.6692 27.9349 93.8332 27.7943 94.0416 27.7109C94.2551 27.6276 94.4765 27.6146 94.7056 27.6719C94.9244 27.7344 95.1041 27.8568 95.2447 28.0391C95.3853 28.2214 95.4556 28.4297 95.4556 28.6641V39ZM106.394 34.4219H99.9797V32.375H106.394V34.4219ZM107.308 39H99.9797C99.6984 39 99.3911 38.9505 99.0578 38.8516C98.7245 38.7526 98.4146 38.5911 98.1281 38.3672C97.8469 38.138 97.6099 37.8438 97.4172 37.4844C97.2297 37.1198 97.1359 36.6745 97.1359 36.1484V28.8203C97.1359 28.6797 97.162 28.5469 97.2141 28.4219C97.2661 28.2969 97.3365 28.1875 97.425 28.0938C97.5187 28 97.6281 27.9271 97.7531 27.875C97.8781 27.8229 98.0135 27.7969 98.1594 27.7969H107.308V29.8281H99.1672V36.1484C99.1672 36.4141 99.2375 36.6172 99.3781 36.7578C99.5187 36.8984 99.7245 36.9688 99.9953 36.9688H107.308V39ZM119.832 31.5625C119.832 32.026 119.775 32.4401 119.66 32.8047C119.545 33.1693 119.389 33.4922 119.191 33.7734C118.999 34.0495 118.775 34.2865 118.519 34.4844C118.264 34.6823 117.996 34.8464 117.715 34.9766C117.439 35.1016 117.157 35.1927 116.871 35.25C116.59 35.3073 116.324 35.3359 116.074 35.3359L120.316 39H117.176L112.941 35.3359H111.48V33.3047H116.074C116.329 33.2839 116.561 33.2318 116.769 33.1484C116.983 33.0599 117.165 32.9427 117.316 32.7969C117.473 32.651 117.592 32.4766 117.676 32.2734C117.759 32.0651 117.801 31.8281 117.801 31.5625V30.2812C117.801 30.1667 117.785 30.0807 117.754 30.0234C117.728 29.9609 117.691 29.9167 117.644 29.8906C117.603 29.8594 117.556 29.8411 117.504 29.8359C117.457 29.8307 117.413 29.8281 117.371 29.8281H110.668V39H108.637V28.8203C108.637 28.6797 108.663 28.5469 108.715 28.4219C108.767 28.2969 108.837 28.1875 108.926 28.0938C109.019 28 109.129 27.9271 109.254 27.875C109.379 27.8229 109.514 27.7969 109.66 27.7969H117.371C117.824 27.7969 118.207 27.8802 118.519 28.0469C118.832 28.2083 119.084 28.4141 119.277 28.6641C119.475 28.9089 119.616 29.1745 119.699 29.4609C119.788 29.7474 119.832 30.0156 119.832 30.2656V31.5625ZM131.262 39H123.934C123.747 39 123.543 38.9792 123.325 38.9375C123.111 38.8906 122.898 38.8203 122.684 38.7266C122.476 38.6328 122.275 38.513 122.082 38.3672C121.89 38.2161 121.718 38.0365 121.567 37.8281C121.421 37.6146 121.304 37.3698 121.215 37.0938C121.127 36.8125 121.082 36.4974 121.082 36.1484V30.6484C121.082 30.4609 121.103 30.2604 121.145 30.0469C121.192 29.8281 121.262 29.6146 121.356 29.4062C121.45 29.1927 121.572 28.9896 121.723 28.7969C121.874 28.6042 122.054 28.4349 122.262 28.2891C122.476 28.138 122.721 28.0182 122.997 27.9297C123.273 27.8411 123.585 27.7969 123.934 27.7969H131.262V29.8281H123.934C123.668 29.8281 123.465 29.8984 123.325 30.0391C123.184 30.1797 123.114 30.388 123.114 30.6641V36.1484C123.114 36.4089 123.184 36.612 123.325 36.7578C123.471 36.8984 123.674 36.9688 123.934 36.9688H131.262V39ZM134.591 32.375H141.724V27.7969H143.755V39H141.724V34.4219H134.591V39H132.56V27.7969H134.591V32.375Z" fill="url(#paint2_linear_276_90)"/>
<defs>
<linearGradient id="paint0_linear_276_90" x1="84.6545" y1="-9.63645e-07" x2="98.8266" y2="72.461" gradientUnits="userSpaceOnUse">
<stop stop-color="white"/>
<stop offset="0.176216" stop-color="#DBDBDB"/>
<stop offset="0.697288" stop-color="#9E9E9E"/>
<stop offset="1" stop-color="#535252"/>
</linearGradient>
<linearGradient id="paint1_linear_276_90" x1="96" y1="0" x2="96" y2="66" gradientUnits="userSpaceOnUse">
<stop stop-color="#2E13D0"/>
<stop offset="0.604167" stop-color="#784CD6"/>
<stop offset="1" stop-color="#D2C5F8"/>
</linearGradient>
<linearGradient id="paint2_linear_276_90" x1="66.4459" y1="29" x2="76.145" y2="56.4654" gradientUnits="userSpaceOnUse">
<stop stop-color="#9E00FF"/>
<stop offset="1" stop-color="#0500FF"/>
</linearGradient>
</defs>
</svg>
