<svg width="70" height="45" viewBox="0 0 70 45" fill="none" xmlns="http://www.w3.org/2000/svg">
<rect width="70" height="45" rx="22.5" fill="url(#paint0_linear_119_194)" fill-opacity="0.9"/>
<rect x="1" y="1" width="68" height="43" rx="21.5" stroke="url(#paint1_linear_119_194)" stroke-opacity="0.85" stroke-width="2"/>
<path d="M24.9688 21H22.9375V15.3984C22.9375 15.1328 22.8672 14.9323 22.7266 14.7969C22.5859 14.6562 22.3776 14.5859 22.1016 14.5859H19.4609V21H17.4297V13.5625C17.4297 13.4219 17.4557 13.2917 17.5078 13.1719C17.5599 13.0469 17.6328 12.9401 17.7266 12.8516C17.8203 12.7578 17.9297 12.6849 18.0547 12.6328C18.1797 12.5807 18.3125 12.5547 18.4531 12.5547H22.1172C22.3984 12.5547 22.7005 12.6042 23.0234 12.7031C23.3464 12.8021 23.6536 12.9609 23.9453 13.1797V12.5547H26.6953C26.888 12.5547 27.0911 12.5781 27.3047 12.625C27.5182 12.6667 27.7292 12.7344 27.9375 12.8281C28.151 12.9219 28.3542 13.0443 28.5469 13.1953C28.7396 13.3411 28.9089 13.5208 29.0547 13.7344C29.2005 13.9427 29.3177 14.1849 29.4062 14.4609C29.4948 14.737 29.5391 15.0495 29.5391 15.3984V21H27.5078V15.3984C27.5078 15.1328 27.4401 14.9323 27.3047 14.7969C27.1745 14.6562 26.9714 14.5859 26.6953 14.5859H24.8672C24.9349 14.8359 24.9688 15.1068 24.9688 15.3984V21ZM40.6016 18.1484C40.6016 18.4974 40.5573 18.8125 40.4688 19.0938C40.3802 19.3698 40.263 19.6146 40.1172 19.8281C39.9714 20.0365 39.8021 20.2161 39.6094 20.3672C39.4167 20.513 39.2135 20.6328 39 20.7266C38.7917 20.8203 38.5781 20.8906 38.3594 20.9375C38.1458 20.9792 37.9427 21 37.75 21H34.0859C33.8047 21 33.4974 20.9505 33.1641 20.8516C32.8307 20.7526 32.5208 20.5911 32.2344 20.3672C31.9531 20.138 31.7161 19.8438 31.5234 19.4844C31.3359 19.1198 31.2422 18.6745 31.2422 18.1484V15.3984C31.2422 14.8776 31.3359 14.4375 31.5234 14.0781C31.7161 13.7135 31.9531 13.4193 32.2344 13.1953C32.5208 12.9661 32.8307 12.8021 33.1641 12.7031C33.4974 12.6042 33.8047 12.5547 34.0859 12.5547H37.75C38.2708 12.5547 38.7135 12.6484 39.0781 12.8359C39.4427 13.0234 39.737 13.2604 39.9609 13.5469C40.1849 13.8281 40.3464 14.1354 40.4453 14.4688C40.5495 14.8021 40.6016 15.112 40.6016 15.3984V18.1484ZM38.5703 15.4141C38.5703 15.1328 38.5 14.9245 38.3594 14.7891C38.2188 14.6536 38.0156 14.5859 37.75 14.5859H34.1016C33.8307 14.5859 33.625 14.6562 33.4844 14.7969C33.3438 14.9323 33.2734 15.1328 33.2734 15.3984V18.1484C33.2734 18.4141 33.3438 18.6172 33.4844 18.7578C33.625 18.8984 33.8307 18.9688 34.1016 18.9688H37.75C38.026 18.9688 38.2318 18.8984 38.3672 18.7578C38.5026 18.6172 38.5703 18.4141 38.5703 18.1484V15.4141ZM51.6953 21H49.6641V16.3125C49.6641 16.0469 49.6172 15.8099 49.5234 15.6016C49.4349 15.388 49.3125 15.2057 49.1562 15.0547C49 14.9036 48.8151 14.7891 48.6016 14.7109C48.3932 14.6276 48.1667 14.5859 47.9219 14.5859H44.3672V21H42.3359V13.5625C42.3359 13.4219 42.362 13.2917 42.4141 13.1719C42.4661 13.0469 42.5391 12.9401 42.6328 12.8516C42.7266 12.7578 42.8359 12.6849 42.9609 12.6328C43.0859 12.5807 43.2188 12.5547 43.3594 12.5547H47.9375C48.1927 12.5547 48.4609 12.5833 48.7422 12.6406C49.0286 12.6979 49.3099 12.7917 49.5859 12.9219C49.8672 13.0469 50.1328 13.2083 50.3828 13.4062C50.638 13.599 50.862 13.8359 51.0547 14.1172C51.2526 14.3932 51.4089 14.7135 51.5234 15.0781C51.638 15.4427 51.6953 15.8542 51.6953 16.3125V21Z" fill="url(#paint2_linear_119_194)" fill-opacity="0.85"/>
<path d="M27.9326 30.2178C27.9326 30.5465 27.8724 30.8249 27.752 31.0527C27.6348 31.2773 27.4867 31.4613 27.3076 31.6045C27.1318 31.7445 26.9398 31.8454 26.7314 31.9072C26.5231 31.9691 26.3294 32 26.1504 32H22.0781V30.7305H26.1504C26.3229 30.7305 26.4499 30.6865 26.5312 30.5986C26.6159 30.5107 26.6582 30.3838 26.6582 30.2178V29.1387H22.0781V27.8594H26.6582V26.79C26.6582 26.4417 26.4889 26.2676 26.1504 26.2676H22.0781V24.998H26.1504C26.3685 24.998 26.5638 25.0257 26.7363 25.0811C26.9089 25.1364 27.0602 25.2113 27.1904 25.3057C27.3239 25.3968 27.4378 25.5026 27.5322 25.623C27.6266 25.7435 27.7031 25.8704 27.7617 26.0039C27.8203 26.1341 27.8626 26.2676 27.8887 26.4043C27.918 26.5378 27.9326 26.6631 27.9326 26.7803V30.2178ZM30.2764 31.3604C30.2764 31.4482 30.2585 31.5312 30.2227 31.6094C30.1901 31.6842 30.1445 31.751 30.0859 31.8096C30.0306 31.8649 29.9639 31.9089 29.8857 31.9414C29.8109 31.974 29.7311 31.9902 29.6465 31.9902C29.5586 31.9902 29.4756 31.974 29.3975 31.9414C29.3226 31.9089 29.2559 31.8649 29.1973 31.8096C29.1419 31.751 29.098 31.6842 29.0654 31.6094C29.0329 31.5312 29.0166 31.4482 29.0166 31.3604C29.0166 31.2757 29.0329 31.196 29.0654 31.1211C29.098 31.043 29.1419 30.9762 29.1973 30.9209C29.2559 30.8623 29.3226 30.8167 29.3975 30.7842C29.4756 30.7484 29.5586 30.7305 29.6465 30.7305C29.7311 30.7305 29.8109 30.7484 29.8857 30.7842C29.9639 30.8167 30.0306 30.8623 30.0859 30.9209C30.1445 30.9762 30.1901 31.043 30.2227 31.1211C30.2585 31.196 30.2764 31.2757 30.2764 31.3604ZM39.29 29.0703C39.29 29.3568 39.2526 29.6286 39.1777 29.8857C39.1061 30.1396 39.0036 30.3757 38.8701 30.5938C38.7367 30.8118 38.5788 31.0072 38.3965 31.1797C38.2142 31.3522 38.014 31.5003 37.7959 31.624C37.5811 31.7445 37.3516 31.8372 37.1074 31.9023C36.8633 31.9674 36.6143 32 36.3604 32H34.0703C33.8132 32 33.5625 31.9674 33.3184 31.9023C33.0742 31.8372 32.8431 31.7445 32.625 31.624C32.4102 31.5003 32.2116 31.3522 32.0293 31.1797C31.847 31.0072 31.6891 30.8118 31.5557 30.5938C31.4255 30.3757 31.3229 30.1396 31.248 29.8857C31.1764 29.6286 31.1406 29.3568 31.1406 29.0703V27.9277C31.1406 27.498 31.2204 27.1042 31.3799 26.7461C31.5426 26.388 31.7591 26.0804 32.0293 25.8232C32.2995 25.5628 32.6104 25.361 32.9619 25.2178C33.3167 25.0713 33.6862 24.998 34.0703 24.998H36.3604C36.6143 24.998 36.8633 25.0306 37.1074 25.0957C37.3516 25.1608 37.5811 25.2552 37.7959 25.3789C38.014 25.4993 38.2142 25.6458 38.3965 25.8184C38.5788 25.9909 38.7367 26.1862 38.8701 26.4043C39.0036 26.6224 39.1061 26.86 39.1777 27.1172C39.2526 27.3711 39.29 27.6413 39.29 27.9277V29.0703ZM38.0107 27.9277C38.0107 27.6771 37.9652 27.4492 37.874 27.2441C37.7829 27.0391 37.6608 26.8633 37.5078 26.7168C37.3581 26.5703 37.1839 26.458 36.9854 26.3799C36.7868 26.3018 36.5785 26.2643 36.3604 26.2676H34.0703C33.8587 26.2643 33.652 26.3018 33.4502 26.3799C33.2516 26.4548 33.0742 26.5654 32.918 26.7119C32.765 26.8551 32.6413 27.0309 32.5469 27.2393C32.4557 27.4443 32.4102 27.6738 32.4102 27.9277V29.0703C32.4102 29.3242 32.4557 29.5537 32.5469 29.7588C32.638 29.9639 32.7601 30.1396 32.9131 30.2861C33.0661 30.4294 33.2419 30.54 33.4404 30.6182C33.6423 30.6963 33.8522 30.7337 34.0703 30.7305H36.3604C36.611 30.7305 36.8372 30.6898 37.0391 30.6084C37.2441 30.5238 37.4183 30.4082 37.5615 30.2617C37.7048 30.1152 37.8154 29.9411 37.8936 29.7393C37.9717 29.5342 38.0107 29.3112 38.0107 29.0703V27.9277ZM37.459 27C37.5078 27.0716 37.5404 27.1497 37.5566 27.2344C37.5729 27.3158 37.5729 27.3971 37.5566 27.4785C37.5404 27.5566 37.5078 27.6315 37.459 27.7031C37.4134 27.7715 37.3532 27.8301 37.2783 27.8789L33.8506 30.1689C33.7952 30.2113 33.7383 30.2406 33.6797 30.2568C33.6211 30.2731 33.5609 30.2812 33.499 30.2812C33.3949 30.2812 33.2956 30.2568 33.2012 30.208C33.1068 30.1592 33.0303 30.0892 32.9717 29.998C32.9229 29.9264 32.8903 29.8499 32.874 29.7686C32.8577 29.6839 32.8561 29.6025 32.8691 29.5244C32.8854 29.443 32.9163 29.3682 32.9619 29.2998C33.0075 29.2282 33.0677 29.168 33.1426 29.1191L36.5801 26.8291C36.6517 26.7803 36.7282 26.7477 36.8096 26.7314C36.8942 26.7152 36.9756 26.7152 37.0537 26.7314C37.1351 26.7477 37.21 26.7786 37.2783 26.8242C37.3499 26.8698 37.4102 26.9284 37.459 27ZM46.7998 32H45.5205V29.1387H41.0088C40.9176 29.1387 40.833 29.1224 40.7549 29.0898C40.6768 29.054 40.6084 29.0085 40.5498 28.9531C40.4945 28.8945 40.4505 28.8262 40.418 28.748C40.3854 28.6699 40.3691 28.5869 40.3691 28.499V24.998H41.6387V27.8594H45.5205V24.998H46.7998V32Z" fill="white"/>
<path d="M27.9326 30.2178C27.9326 30.5465 27.8724 30.8249 27.752 31.0527C27.6348 31.2773 27.4867 31.4613 27.3076 31.6045C27.1318 31.7445 26.9398 31.8454 26.7314 31.9072C26.5231 31.9691 26.3294 32 26.1504 32H22.0781V30.7305H26.1504C26.3229 30.7305 26.4499 30.6865 26.5312 30.5986C26.6159 30.5107 26.6582 30.3838 26.6582 30.2178V29.1387H22.0781V27.8594H26.6582V26.79C26.6582 26.4417 26.4889 26.2676 26.1504 26.2676H22.0781V24.998H26.1504C26.3685 24.998 26.5638 25.0257 26.7363 25.0811C26.9089 25.1364 27.0602 25.2113 27.1904 25.3057C27.3239 25.3968 27.4378 25.5026 27.5322 25.623C27.6266 25.7435 27.7031 25.8704 27.7617 26.0039C27.8203 26.1341 27.8626 26.2676 27.8887 26.4043C27.918 26.5378 27.9326 26.6631 27.9326 26.7803V30.2178ZM30.2764 31.3604C30.2764 31.4482 30.2585 31.5312 30.2227 31.6094C30.1901 31.6842 30.1445 31.751 30.0859 31.8096C30.0306 31.8649 29.9639 31.9089 29.8857 31.9414C29.8109 31.974 29.7311 31.9902 29.6465 31.9902C29.5586 31.9902 29.4756 31.974 29.3975 31.9414C29.3226 31.9089 29.2559 31.8649 29.1973 31.8096C29.1419 31.751 29.098 31.6842 29.0654 31.6094C29.0329 31.5312 29.0166 31.4482 29.0166 31.3604C29.0166 31.2757 29.0329 31.196 29.0654 31.1211C29.098 31.043 29.1419 30.9762 29.1973 30.9209C29.2559 30.8623 29.3226 30.8167 29.3975 30.7842C29.4756 30.7484 29.5586 30.7305 29.6465 30.7305C29.7311 30.7305 29.8109 30.7484 29.8857 30.7842C29.9639 30.8167 30.0306 30.8623 30.0859 30.9209C30.1445 30.9762 30.1901 31.043 30.2227 31.1211C30.2585 31.196 30.2764 31.2757 30.2764 31.3604ZM39.29 29.0703C39.29 29.3568 39.2526 29.6286 39.1777 29.8857C39.1061 30.1396 39.0036 30.3757 38.8701 30.5938C38.7367 30.8118 38.5788 31.0072 38.3965 31.1797C38.2142 31.3522 38.014 31.5003 37.7959 31.624C37.5811 31.7445 37.3516 31.8372 37.1074 31.9023C36.8633 31.9674 36.6143 32 36.3604 32H34.0703C33.8132 32 33.5625 31.9674 33.3184 31.9023C33.0742 31.8372 32.8431 31.7445 32.625 31.624C32.4102 31.5003 32.2116 31.3522 32.0293 31.1797C31.847 31.0072 31.6891 30.8118 31.5557 30.5938C31.4255 30.3757 31.3229 30.1396 31.248 29.8857C31.1764 29.6286 31.1406 29.3568 31.1406 29.0703V27.9277C31.1406 27.498 31.2204 27.1042 31.3799 26.7461C31.5426 26.388 31.7591 26.0804 32.0293 25.8232C32.2995 25.5628 32.6104 25.361 32.9619 25.2178C33.3167 25.0713 33.6862 24.998 34.0703 24.998H36.3604C36.6143 24.998 36.8633 25.0306 37.1074 25.0957C37.3516 25.1608 37.5811 25.2552 37.7959 25.3789C38.014 25.4993 38.2142 25.6458 38.3965 25.8184C38.5788 25.9909 38.7367 26.1862 38.8701 26.4043C39.0036 26.6224 39.1061 26.86 39.1777 27.1172C39.2526 27.3711 39.29 27.6413 39.29 27.9277V29.0703ZM38.0107 27.9277C38.0107 27.6771 37.9652 27.4492 37.874 27.2441C37.7829 27.0391 37.6608 26.8633 37.5078 26.7168C37.3581 26.5703 37.1839 26.458 36.9854 26.3799C36.7868 26.3018 36.5785 26.2643 36.3604 26.2676H34.0703C33.8587 26.2643 33.652 26.3018 33.4502 26.3799C33.2516 26.4548 33.0742 26.5654 32.918 26.7119C32.765 26.8551 32.6413 27.0309 32.5469 27.2393C32.4557 27.4443 32.4102 27.6738 32.4102 27.9277V29.0703C32.4102 29.3242 32.4557 29.5537 32.5469 29.7588C32.638 29.9639 32.7601 30.1396 32.9131 30.2861C33.0661 30.4294 33.2419 30.54 33.4404 30.6182C33.6423 30.6963 33.8522 30.7337 34.0703 30.7305H36.3604C36.611 30.7305 36.8372 30.6898 37.0391 30.6084C37.2441 30.5238 37.4183 30.4082 37.5615 30.2617C37.7048 30.1152 37.8154 29.9411 37.8936 29.7393C37.9717 29.5342 38.0107 29.3112 38.0107 29.0703V27.9277ZM37.459 27C37.5078 27.0716 37.5404 27.1497 37.5566 27.2344C37.5729 27.3158 37.5729 27.3971 37.5566 27.4785C37.5404 27.5566 37.5078 27.6315 37.459 27.7031C37.4134 27.7715 37.3532 27.8301 37.2783 27.8789L33.8506 30.1689C33.7952 30.2113 33.7383 30.2406 33.6797 30.2568C33.6211 30.2731 33.5609 30.2812 33.499 30.2812C33.3949 30.2812 33.2956 30.2568 33.2012 30.208C33.1068 30.1592 33.0303 30.0892 32.9717 29.998C32.9229 29.9264 32.8903 29.8499 32.874 29.7686C32.8577 29.6839 32.8561 29.6025 32.8691 29.5244C32.8854 29.443 32.9163 29.3682 32.9619 29.2998C33.0075 29.2282 33.0677 29.168 33.1426 29.1191L36.5801 26.8291C36.6517 26.7803 36.7282 26.7477 36.8096 26.7314C36.8942 26.7152 36.9756 26.7152 37.0537 26.7314C37.1351 26.7477 37.21 26.7786 37.2783 26.8242C37.3499 26.8698 37.4102 26.9284 37.459 27ZM46.7998 32H45.5205V29.1387H41.0088C40.9176 29.1387 40.833 29.1224 40.7549 29.0898C40.6768 29.054 40.6084 29.0085 40.5498 28.9531C40.4945 28.8945 40.4505 28.8262 40.418 28.748C40.3854 28.6699 40.3691 28.5869 40.3691 28.499V24.998H41.6387V27.8594H45.5205V24.998H46.7998V32Z" fill="url(#paint3_linear_119_194)" fill-opacity="0.85"/>
<defs>
<linearGradient id="paint0_linear_119_194" x1="35" y1="0" x2="35" y2="45" gradientUnits="userSpaceOnUse">
<stop stop-color="#626161"/>
<stop offset="0.276042" stop-color="#ADADAD"/>
<stop offset="1" stop-color="white"/>
</linearGradient>
<linearGradient id="paint1_linear_119_194" x1="35" y1="0" x2="35" y2="45" gradientUnits="userSpaceOnUse">
<stop stop-color="#F9BE79"/>
<stop offset="0.427083" stop-color="#FE5B00"/>
<stop offset="0.890625" stop-color="#D04013"/>
</linearGradient>
<linearGradient id="paint2_linear_119_194" x1="34.5" y1="8" x2="34.5" y2="22" gradientUnits="userSpaceOnUse">
<stop offset="0.15625" stop-color="#FE5B00"/>
<stop offset="0.489583" stop-color="#F9BE79"/>
<stop offset="0.890625" stop-color="#E66000"/>
</linearGradient>
<linearGradient id="paint3_linear_119_194" x1="34.5" y1="24" x2="34.5" y2="33" gradientUnits="userSpaceOnUse">
<stop stop-color="#F9BE79"/>
<stop offset="0.427083" stop-color="#FE5B00"/>
<stop offset="0.890625" stop-color="#D04013"/>
</linearGradient>
</defs>
</svg>
