<svg width="70" height="45" viewBox="0 0 70 45" fill="none" xmlns="http://www.w3.org/2000/svg">
<rect width="70" height="45" rx="22.5" fill="url(#paint0_linear_119_197)" fill-opacity="0.9"/>
<rect x="1" y="1" width="68" height="43" rx="21.5" stroke="url(#paint1_linear_119_197)" stroke-opacity="0.7" stroke-width="2"/>
<path d="M25.6602 20H23.8828V15.0986C23.8828 14.8662 23.8213 14.6908 23.6982 14.5723C23.5752 14.4492 23.3929 14.3877 23.1514 14.3877H20.8408V20H19.0635V13.4922C19.0635 13.3691 19.0863 13.2552 19.1318 13.1504C19.1774 13.041 19.2412 12.9476 19.3232 12.8701C19.4053 12.7881 19.501 12.7243 19.6104 12.6787C19.7197 12.6331 19.8359 12.6104 19.959 12.6104H23.165C23.4111 12.6104 23.6755 12.6536 23.958 12.7402C24.2406 12.8268 24.5094 12.9658 24.7646 13.1572V12.6104H27.1709C27.3395 12.6104 27.5173 12.6309 27.7041 12.6719C27.891 12.7083 28.0755 12.7676 28.2578 12.8496C28.4447 12.9316 28.6224 13.0387 28.791 13.1709C28.9596 13.2985 29.1077 13.4557 29.2354 13.6426C29.363 13.8249 29.4655 14.0368 29.543 14.2783C29.6204 14.5199 29.6592 14.7933 29.6592 15.0986V20H27.8818V15.0986C27.8818 14.8662 27.8226 14.6908 27.7041 14.5723C27.5902 14.4492 27.4124 14.3877 27.1709 14.3877H25.5713C25.6305 14.6064 25.6602 14.8434 25.6602 15.0986V20ZM39.3389 17.5049C39.3389 17.8102 39.3001 18.0859 39.2227 18.332C39.1452 18.5736 39.0426 18.7878 38.915 18.9746C38.7874 19.1569 38.6393 19.3141 38.4707 19.4463C38.3021 19.5739 38.1243 19.6787 37.9375 19.7607C37.7552 19.8428 37.5684 19.9043 37.377 19.9453C37.1901 19.9818 37.0124 20 36.8438 20H33.6377C33.3916 20 33.1227 19.9567 32.8311 19.8701C32.5394 19.7835 32.2682 19.6423 32.0176 19.4463C31.7715 19.2458 31.5641 18.9883 31.3955 18.6738C31.2314 18.3548 31.1494 17.9652 31.1494 17.5049V15.0986C31.1494 14.6429 31.2314 14.2578 31.3955 13.9434C31.5641 13.6243 31.7715 13.3669 32.0176 13.1709C32.2682 12.9704 32.5394 12.8268 32.8311 12.7402C33.1227 12.6536 33.3916 12.6104 33.6377 12.6104H36.8438C37.2995 12.6104 37.6868 12.6924 38.0059 12.8564C38.3249 13.0205 38.5824 13.2279 38.7783 13.4785C38.9743 13.7246 39.1156 13.9935 39.2021 14.2852C39.2933 14.5768 39.3389 14.848 39.3389 15.0986V17.5049ZM37.5615 15.1123C37.5615 14.8662 37.5 14.6839 37.377 14.5654C37.2539 14.4469 37.0762 14.3877 36.8438 14.3877H33.6514C33.4144 14.3877 33.2344 14.4492 33.1113 14.5723C32.9883 14.6908 32.9268 14.8662 32.9268 15.0986V17.5049C32.9268 17.7373 32.9883 17.915 33.1113 18.0381C33.2344 18.1611 33.4144 18.2227 33.6514 18.2227H36.8438C37.0853 18.2227 37.2653 18.1611 37.3838 18.0381C37.5023 17.915 37.5615 17.7373 37.5615 17.5049V15.1123ZM49.0459 20H47.2686V15.8984C47.2686 15.666 47.2275 15.4587 47.1455 15.2764C47.068 15.0895 46.9609 14.93 46.8242 14.7979C46.6875 14.6657 46.5257 14.5654 46.3389 14.4971C46.1566 14.4242 45.9583 14.3877 45.7441 14.3877H42.6338V20H40.8564V13.4922C40.8564 13.3691 40.8792 13.2552 40.9248 13.1504C40.9704 13.041 41.0342 12.9476 41.1162 12.8701C41.1982 12.7881 41.2939 12.7243 41.4033 12.6787C41.5127 12.6331 41.6289 12.6104 41.752 12.6104H45.7578C45.9811 12.6104 46.2158 12.6354 46.4619 12.6855C46.7126 12.7357 46.9587 12.8177 47.2002 12.9316C47.4463 13.041 47.6787 13.1823 47.8975 13.3555C48.1208 13.5241 48.3167 13.7314 48.4854 13.9775C48.6585 14.2191 48.7952 14.4993 48.8955 14.8184C48.9958 15.1374 49.0459 15.4974 49.0459 15.8984V20Z" fill="url(#paint2_linear_119_197)"/>
<path d="M29.2461 29.5742C29.2461 29.8372 29.1979 30.0599 29.1016 30.2422C29.0078 30.4219 28.8893 30.569 28.7461 30.6836C28.6055 30.7956 28.4518 30.8763 28.2852 30.9258C28.1185 30.9753 27.9635 31 27.8203 31H24.5625V29.9844H27.8203C27.9583 29.9844 28.0599 29.9492 28.125 29.8789C28.1927 29.8086 28.2266 29.707 28.2266 29.5742V28.7109H24.5625V27.6875H28.2266V26.832C28.2266 26.5534 28.0911 26.4141 27.8203 26.4141H24.5625V25.3984H27.8203C27.9948 25.3984 28.151 25.4206 28.2891 25.4648C28.4271 25.5091 28.5482 25.569 28.6523 25.6445C28.7591 25.7174 28.8503 25.8021 28.9258 25.8984C29.0013 25.9948 29.0625 26.0964 29.1094 26.2031C29.1562 26.3073 29.1901 26.4141 29.2109 26.5234C29.2344 26.6302 29.2461 26.7305 29.2461 26.8242V29.5742ZM31.1211 30.4883C31.1211 30.5586 31.1068 30.625 31.0781 30.6875C31.0521 30.7474 31.0156 30.8008 30.9688 30.8477C30.9245 30.8919 30.8711 30.9271 30.8086 30.9531C30.7487 30.9792 30.6849 30.9922 30.6172 30.9922C30.5469 30.9922 30.4805 30.9792 30.418 30.9531C30.3581 30.9271 30.3047 30.8919 30.2578 30.8477C30.2135 30.8008 30.1784 30.7474 30.1523 30.6875C30.1263 30.625 30.1133 30.5586 30.1133 30.4883C30.1133 30.4206 30.1263 30.3568 30.1523 30.2969C30.1784 30.2344 30.2135 30.181 30.2578 30.1367C30.3047 30.0898 30.3581 30.0534 30.418 30.0273C30.4805 29.9987 30.5469 29.9844 30.6172 29.9844C30.6849 29.9844 30.7487 29.9987 30.8086 30.0273C30.8711 30.0534 30.9245 30.0898 30.9688 30.1367C31.0156 30.181 31.0521 30.2344 31.0781 30.2969C31.1068 30.3568 31.1211 30.4206 31.1211 30.4883ZM38.332 28.6562C38.332 28.8854 38.3021 29.1029 38.2422 29.3086C38.1849 29.5117 38.1029 29.7005 37.9961 29.875C37.8893 30.0495 37.763 30.2057 37.6172 30.3438C37.4714 30.4818 37.3112 30.6003 37.1367 30.6992C36.9648 30.7956 36.7812 30.8698 36.5859 30.9219C36.3906 30.974 36.1914 31 35.9883 31H34.1562C33.9505 31 33.75 30.974 33.5547 30.9219C33.3594 30.8698 33.1745 30.7956 33 30.6992C32.8281 30.6003 32.6693 30.4818 32.5234 30.3438C32.3776 30.2057 32.2513 30.0495 32.1445 29.875C32.0404 29.7005 31.9583 29.5117 31.8984 29.3086C31.8411 29.1029 31.8125 28.8854 31.8125 28.6562V27.7422C31.8125 27.3984 31.8763 27.0833 32.0039 26.7969C32.1341 26.5104 32.3073 26.2643 32.5234 26.0586C32.7396 25.8503 32.9883 25.6888 33.2695 25.5742C33.5534 25.457 33.849 25.3984 34.1562 25.3984H35.9883C36.1914 25.3984 36.3906 25.4245 36.5859 25.4766C36.7812 25.5286 36.9648 25.6042 37.1367 25.7031C37.3112 25.7995 37.4714 25.9167 37.6172 26.0547C37.763 26.1927 37.8893 26.349 37.9961 26.5234C38.1029 26.6979 38.1849 26.888 38.2422 27.0938C38.3021 27.2969 38.332 27.513 38.332 27.7422V28.6562ZM37.3086 27.7422C37.3086 27.5417 37.2721 27.3594 37.1992 27.1953C37.1263 27.0312 37.0286 26.8906 36.9062 26.7734C36.7865 26.6562 36.6471 26.5664 36.4883 26.5039C36.3294 26.4414 36.1628 26.4115 35.9883 26.4141H34.1562C33.987 26.4115 33.8216 26.4414 33.6602 26.5039C33.5013 26.5638 33.3594 26.6523 33.2344 26.7695C33.112 26.8841 33.013 27.0247 32.9375 27.1914C32.8646 27.3555 32.8281 27.5391 32.8281 27.7422V28.6562C32.8281 28.8594 32.8646 29.043 32.9375 29.207C33.0104 29.3711 33.1081 29.5117 33.2305 29.6289C33.3529 29.7435 33.4935 29.832 33.6523 29.8945C33.8138 29.957 33.9818 29.987 34.1562 29.9844H35.9883C36.1888 29.9844 36.3698 29.9518 36.5312 29.8867C36.6953 29.819 36.8346 29.7266 36.9492 29.6094C37.0638 29.4922 37.1523 29.3529 37.2148 29.1914C37.2773 29.0273 37.3086 28.849 37.3086 28.6562V27.7422ZM36.8672 27C36.9062 27.0573 36.9323 27.1198 36.9453 27.1875C36.9583 27.2526 36.9583 27.3177 36.9453 27.3828C36.9323 27.4453 36.9062 27.5052 36.8672 27.5625C36.8307 27.6172 36.7826 27.6641 36.7227 27.7031L33.9805 29.5352C33.9362 29.569 33.8906 29.5924 33.8438 29.6055C33.7969 29.6185 33.7487 29.625 33.6992 29.625C33.6159 29.625 33.5365 29.6055 33.4609 29.5664C33.3854 29.5273 33.3242 29.4714 33.2773 29.3984C33.2383 29.3411 33.2122 29.2799 33.1992 29.2148C33.1862 29.1471 33.1849 29.082 33.1953 29.0195C33.2083 28.9544 33.2331 28.8945 33.2695 28.8398C33.306 28.7826 33.3542 28.7344 33.4141 28.6953L36.1641 26.8633C36.2214 26.8242 36.2826 26.7982 36.3477 26.7852C36.4154 26.7721 36.4805 26.7721 36.543 26.7852C36.6081 26.7982 36.668 26.8229 36.7227 26.8594C36.7799 26.8958 36.8281 26.9427 36.8672 27ZM44.3398 31H43.3164V28.7109H39.707C39.6341 28.7109 39.5664 28.6979 39.5039 28.6719C39.4414 28.6432 39.3867 28.6068 39.3398 28.5625C39.2956 28.5156 39.2604 28.4609 39.2344 28.3984C39.2083 28.3359 39.1953 28.2695 39.1953 28.1992V25.3984H40.2109V27.6875H43.3164V25.3984H44.3398V31Z" fill="url(#paint3_linear_119_197)"/>
<defs>
<linearGradient id="paint0_linear_119_197" x1="35" y1="0" x2="35" y2="45" gradientUnits="userSpaceOnUse">
<stop stop-color="white"/>
<stop offset="0.739583" stop-color="#9E9E9E"/>
<stop offset="1" stop-color="#4F4F4F"/>
</linearGradient>
<linearGradient id="paint1_linear_119_197" x1="35" y1="0" x2="35" y2="45" gradientUnits="userSpaceOnUse">
<stop stop-color="#2E13D0"/>
<stop offset="0.604167" stop-color="#784CD6"/>
<stop offset="1" stop-color="#D2C5F8"/>
</linearGradient>
<linearGradient id="paint2_linear_119_197" x1="26.0597" y1="12" x2="37.5305" y2="25.1992" gradientUnits="userSpaceOnUse">
<stop stop-color="#9E00FF"/>
<stop offset="1" stop-color="#0500FF"/>
</linearGradient>
<linearGradient id="paint3_linear_119_197" x1="29.2892" y1="26.75" x2="35.8274" y2="35.2139" gradientUnits="userSpaceOnUse">
<stop stop-color="#9E00FF"/>
<stop offset="1" stop-color="#0500FF"/>
</linearGradient>
</defs>
</svg>
