<svg width="124" height="56" viewBox="0 0 124 56" fill="none" xmlns="http://www.w3.org/2000/svg">
<g filter="url(#filter0_b_382_99)">
<rect width="124" height="56" rx="28" fill="url(#paint0_linear_382_99)" fill-opacity="0.9"/>
<rect x="1" y="1" width="122" height="54" rx="27" stroke="url(#paint1_linear_382_99)" stroke-opacity="0.7" stroke-width="2"/>
</g>
<path d="M53.9522 34.1328C53.9522 34.2786 53.9235 34.4141 53.8662 34.5391C53.8142 34.6641 53.7412 34.7734 53.6475 34.8672C53.559 34.9557 53.4522 35.026 53.3272 35.0781C53.2022 35.1302 53.0694 35.1562 52.9287 35.1562C52.8037 35.1562 52.6761 35.1328 52.5459 35.0859C52.4209 35.0391 52.309 34.9635 52.21 34.8594L44.7881 27.1094V35H42.7569V24.6641C42.7569 24.4557 42.8142 24.2682 42.9287 24.1016C43.0485 23.9297 43.1996 23.8021 43.3819 23.7188C43.5746 23.6406 43.7725 23.6224 43.9756 23.6641C44.1787 23.7005 44.3532 23.7943 44.4991 23.9453L51.9209 31.6875V23.7969H53.9522V34.1328ZM64.4762 29.3516C64.4762 29.6328 64.4268 29.9375 64.3278 30.2656C64.2289 30.5885 64.0674 30.8906 63.8434 31.1719C63.6247 31.4479 63.3356 31.6797 62.9762 31.8672C62.6221 32.0547 62.1898 32.1484 61.6794 32.1484H58.0153V30.2188H61.6794C61.9554 30.2188 62.169 30.1354 62.32 29.9688C62.471 29.7969 62.5466 29.5859 62.5466 29.3359C62.5466 29.0703 62.4606 28.862 62.2887 28.7109C62.1221 28.5599 61.919 28.4844 61.6794 28.4844H58.0153C57.7393 28.4844 57.5257 28.5703 57.3747 28.7422C57.2236 28.9089 57.1481 29.1172 57.1481 29.3672V32.2031C57.1481 32.474 57.2315 32.6849 57.3981 32.8359C57.57 32.987 57.7809 33.0625 58.0309 33.0625H61.6794V35H58.0153C57.7341 35 57.4294 34.9505 57.1012 34.8516C56.7783 34.7526 56.4762 34.5938 56.195 34.375C55.919 34.151 55.6872 33.862 55.4997 33.5078C55.3122 33.1484 55.2184 32.7135 55.2184 32.2031V29.3516C55.2184 29.0703 55.2679 28.7682 55.3669 28.4453C55.4658 28.1172 55.6247 27.8151 55.8434 27.5391C56.0674 27.2578 56.3565 27.0234 56.7106 26.8359C57.07 26.6484 57.5049 26.5547 58.0153 26.5547H61.6794C61.9606 26.5547 62.2627 26.6042 62.5856 26.7031C62.9137 26.8021 63.2158 26.9635 63.4919 27.1875C63.7731 27.4062 64.0075 27.6953 64.195 28.0547C64.3825 28.4089 64.4762 28.8411 64.4762 29.3516ZM74.5238 26.5547L70.8753 30.5391L74.9847 35H72.1878L69.4847 32.0547L66.7816 35H63.9769L68.0784 30.5234L64.4456 26.5547H67.2269L69.4691 29L71.7269 26.5547H74.5238ZM83.04 28.5859H79.4931V35H77.4384V28.5859H74.7978V26.5547H77.4384V23.7969H79.4931V26.5547H83.04V28.5859Z" fill="#9E00FF"/>
<defs>
<filter id="filter0_b_382_99" x="-5" y="-5" width="134" height="66" filterUnits="userSpaceOnUse" color-interpolation-filters="sRGB">
<feFlood flood-opacity="0" result="BackgroundImageFix"/>
<feGaussianBlur in="BackgroundImageFix" stdDeviation="2.5"/>
<feComposite in2="SourceAlpha" operator="in" result="effect1_backgroundBlur_382_99"/>
<feBlend mode="normal" in="SourceGraphic" in2="effect1_backgroundBlur_382_99" result="shape"/>
</filter>
<linearGradient id="paint0_linear_382_99" x1="54.6727" y1="-8.17638e-07" x2="70.0591" y2="59.8803" gradientUnits="userSpaceOnUse">
<stop stop-color="white"/>
<stop offset="0.176216" stop-color="#DBDBDB"/>
<stop offset="0.697288" stop-color="#9E9E9E"/>
<stop offset="1" stop-color="#535252"/>
</linearGradient>
<linearGradient id="paint1_linear_382_99" x1="62" y1="0" x2="62" y2="56" gradientUnits="userSpaceOnUse">
<stop stop-color="#2E13D0"/>
<stop offset="0.604167" stop-color="#784CD6"/>
<stop offset="1" stop-color="#D2C5F8"/>
</linearGradient>
</defs>
</svg>
