<svg width="70" height="45" viewBox="0 0 70 45" fill="none" xmlns="http://www.w3.org/2000/svg">
<rect width="70" height="45" rx="22.5" fill="url(#paint0_linear_119_197)" fill-opacity="0.9"/>
<rect x="1" y="1" width="68" height="43" rx="21.5" stroke="url(#paint1_linear_119_197)" stroke-opacity="0.7" stroke-width="2"/>
<path d="M29.2764 17.5049C29.2764 17.8102 29.2376 18.0859 29.1602 18.332C29.0827 18.5736 28.9801 18.7878 28.8525 18.9746C28.7249 19.1569 28.5768 19.3141 28.4082 19.4463C28.2396 19.5739 28.0618 19.6787 27.875 19.7607C27.6927 19.8428 27.5059 19.9043 27.3145 19.9453C27.1276 19.9818 26.9499 20 26.7812 20H21.9688V18.2227H26.7676C27.0091 18.2227 27.1914 18.1611 27.3145 18.0381C27.4375 17.915 27.499 17.7373 27.499 17.5049C27.4762 17.0309 27.237 16.7939 26.7812 16.7939H24.0264C23.6344 16.7939 23.3018 16.7256 23.0283 16.5889C22.7549 16.4521 22.5316 16.2812 22.3584 16.0762C22.1898 15.8711 22.0667 15.6501 21.9893 15.4131C21.9163 15.1761 21.8799 14.9551 21.8799 14.75C21.8799 14.3535 21.9505 14.0208 22.0918 13.752C22.2331 13.4785 22.4108 13.2575 22.625 13.0889C22.8392 12.9202 23.0716 12.7995 23.3223 12.7266C23.5729 12.6491 23.8076 12.6104 24.0264 12.6104H28.3945V14.3877H24.04C23.9489 14.3877 23.876 14.3991 23.8213 14.4219C23.7712 14.4401 23.7324 14.4674 23.7051 14.5039C23.6823 14.5358 23.6686 14.5723 23.6641 14.6133C23.6595 14.6497 23.6572 14.6862 23.6572 14.7227C23.6618 14.7956 23.6755 14.8525 23.6982 14.8936C23.721 14.9346 23.7484 14.9642 23.7803 14.9824C23.8167 15.0007 23.8555 15.012 23.8965 15.0166C23.9421 15.0166 23.9854 15.0166 24.0264 15.0166H26.7812C27.237 15.0166 27.6243 15.0986 27.9434 15.2627C28.2624 15.4268 28.5199 15.6341 28.7158 15.8848C28.9118 16.1309 29.0531 16.3997 29.1396 16.6914C29.2308 16.9831 29.2764 17.2542 29.2764 17.5049ZM38.1562 17.5527C38.1562 17.7988 38.113 18.0654 38.0264 18.3525C37.9398 18.6351 37.7985 18.8994 37.6025 19.1455C37.4111 19.387 37.1582 19.5898 36.8438 19.7539C36.5339 19.918 36.1556 20 35.709 20H32.5029C32.2568 20 31.9902 19.9567 31.7031 19.8701C31.4206 19.7835 31.1562 19.6445 30.9102 19.4531C30.6686 19.2572 30.4658 19.0042 30.3018 18.6943C30.1377 18.3799 30.0557 17.9993 30.0557 17.5527C30.0557 17.3066 30.099 17.04 30.1855 16.7529C30.2721 16.4658 30.4111 16.2015 30.6025 15.96C30.7985 15.7139 31.0514 15.5088 31.3613 15.3447C31.6758 15.1807 32.0563 15.0986 32.5029 15.0986H35.709V16.7939H32.5029C32.2614 16.7939 32.0745 16.8691 31.9424 17.0195C31.8102 17.1654 31.7441 17.3477 31.7441 17.5664C31.7441 17.7988 31.8193 17.9811 31.9697 18.1133C32.1247 18.2409 32.307 18.3047 32.5166 18.3047H35.709C35.9505 18.3047 36.1374 18.2318 36.2695 18.0859C36.4017 17.9401 36.4678 17.7578 36.4678 17.5391V15.0576C36.4678 14.8252 36.3949 14.6406 36.249 14.5039C36.1077 14.3672 35.9277 14.2988 35.709 14.2988H31.8057V12.6104H35.709C35.9551 12.6104 36.2194 12.6536 36.502 12.7402C36.7891 12.8268 37.0534 12.9681 37.2949 13.1641C37.541 13.3555 37.7461 13.6084 37.9102 13.9229C38.0742 14.2327 38.1562 14.611 38.1562 15.0576V17.5527ZM46.3662 14.3877H43.2627V20H41.4648V14.3877H39.1543V12.6104H41.4648V10.1973H43.2627V12.6104H46.3662V14.3877Z" fill="url(#paint2_linear_119_197)"/>
<path d="M28.9922 29.5742C28.9922 29.6706 28.9805 29.7721 28.957 29.8789C28.9362 29.9857 28.901 30.0924 28.8516 30.1992C28.8047 30.3034 28.7435 30.4036 28.668 30.5C28.5924 30.5964 28.5013 30.6823 28.3945 30.7578C28.2904 30.8307 28.1693 30.8893 28.0312 30.9336C27.8932 30.9779 27.7383 31 27.5664 31H25.2695C25.1289 31 24.9753 30.9753 24.8086 30.9258C24.6419 30.8763 24.487 30.7956 24.3438 30.6836C24.2031 30.569 24.0846 30.4219 23.9883 30.2422C23.8945 30.0599 23.8477 29.8372 23.8477 29.5742V29.1211C23.8477 29.0221 23.8581 28.918 23.8789 28.8086C23.9023 28.6992 23.9375 28.5911 23.9844 28.4844C24.0339 28.3776 24.0964 28.276 24.1719 28.1797C24.2474 28.0833 24.3385 28 24.4453 27.9297C24.3984 27.8203 24.3633 27.7096 24.3398 27.5977C24.3164 27.4857 24.3047 27.3802 24.3047 27.2812V26.8242C24.3047 26.5638 24.3516 26.3424 24.4453 26.1602C24.5417 25.9779 24.6602 25.8307 24.8008 25.7188C24.944 25.6068 25.099 25.526 25.2656 25.4766C25.4323 25.4245 25.5859 25.3984 25.7266 25.3984H27.1016C27.276 25.3984 27.4323 25.4206 27.5703 25.4648C27.7109 25.5091 27.8333 25.569 27.9375 25.6445C28.0443 25.7174 28.1341 25.8021 28.207 25.8984C28.2826 25.9948 28.3438 26.0964 28.3906 26.2031C28.4375 26.3073 28.4714 26.4141 28.4922 26.5234C28.5156 26.6302 28.5273 26.7305 28.5273 26.8242V27.2812C28.5273 27.5365 28.4818 27.7578 28.3906 27.9453C28.474 28 28.5521 28.0651 28.625 28.1406C28.6979 28.2135 28.7617 28.2982 28.8164 28.3945C28.8711 28.4909 28.9141 28.6003 28.9453 28.7227C28.9766 28.8424 28.9922 28.9753 28.9922 29.1211V29.5742ZM27.5117 26.832C27.5117 26.694 27.4766 26.5898 27.4062 26.5195C27.3359 26.4492 27.2344 26.4141 27.1016 26.4141H25.7344C25.5964 26.4141 25.4935 26.4492 25.4258 26.5195C25.3607 26.5898 25.3281 26.6914 25.3281 26.8242V27.2812C25.3281 27.4167 25.362 27.5182 25.4297 27.5859C25.5 27.6536 25.599 27.6875 25.7266 27.6875H27.1016C27.2396 27.6875 27.3424 27.6536 27.4102 27.5859C27.4779 27.5156 27.5117 27.4141 27.5117 27.2812V26.832ZM27.9648 29.1211C27.9648 28.9909 27.9284 28.8906 27.8555 28.8203C27.7852 28.7474 27.6888 28.7109 27.5664 28.7109H25.2695C25.1445 28.7109 25.0456 28.75 24.9727 28.8281C24.8997 28.9062 24.8633 29.0039 24.8633 29.1211V29.5742C24.8633 29.6992 24.901 29.7995 24.9766 29.875C25.0547 29.9479 25.1523 29.9844 25.2695 29.9844H27.5664C27.6966 29.9844 27.7956 29.9453 27.8633 29.8672C27.931 29.7891 27.9648 29.6914 27.9648 29.5742V29.1211ZM30.7266 30.4883C30.7266 30.5586 30.7122 30.625 30.6836 30.6875C30.6576 30.7474 30.6211 30.8008 30.5742 30.8477C30.5299 30.8919 30.4766 30.9271 30.4141 30.9531C30.3542 30.9792 30.2904 30.9922 30.2227 30.9922C30.1523 30.9922 30.0859 30.9792 30.0234 30.9531C29.9635 30.9271 29.9102 30.8919 29.8633 30.8477C29.819 30.8008 29.7839 30.7474 29.7578 30.6875C29.7318 30.625 29.7188 30.5586 29.7188 30.4883C29.7188 30.4206 29.7318 30.3568 29.7578 30.2969C29.7839 30.2344 29.819 30.181 29.8633 30.1367C29.9102 30.0898 29.9635 30.0534 30.0234 30.0273C30.0859 29.9987 30.1523 29.9844 30.2227 29.9844C30.2904 29.9844 30.3542 29.9987 30.4141 30.0273C30.4766 30.0534 30.5299 30.0898 30.5742 30.1367C30.6211 30.181 30.6576 30.2344 30.6836 30.2969C30.7122 30.3568 30.7266 30.4206 30.7266 30.4883ZM37.9375 28.6562C37.9375 28.8854 37.9076 29.1029 37.8477 29.3086C37.7904 29.5117 37.7083 29.7005 37.6016 29.875C37.4948 30.0495 37.3685 30.2057 37.2227 30.3438C37.0768 30.4818 36.9167 30.6003 36.7422 30.6992C36.5703 30.7956 36.3867 30.8698 36.1914 30.9219C35.9961 30.974 35.7969 31 35.5938 31H33.7617C33.556 31 33.3555 30.974 33.1602 30.9219C32.9648 30.8698 32.7799 30.7956 32.6055 30.6992C32.4336 30.6003 32.2747 30.4818 32.1289 30.3438C31.9831 30.2057 31.8568 30.0495 31.75 29.875C31.6458 29.7005 31.5638 29.5117 31.5039 29.3086C31.4466 29.1029 31.418 28.8854 31.418 28.6562V27.7422C31.418 27.3984 31.4818 27.0833 31.6094 26.7969C31.7396 26.5104 31.9128 26.2643 32.1289 26.0586C32.3451 25.8503 32.5938 25.6888 32.875 25.5742C33.1589 25.457 33.4544 25.3984 33.7617 25.3984H35.5938C35.7969 25.3984 35.9961 25.4245 36.1914 25.4766C36.3867 25.5286 36.5703 25.6042 36.7422 25.7031C36.9167 25.7995 37.0768 25.9167 37.2227 26.0547C37.3685 26.1927 37.4948 26.349 37.6016 26.5234C37.7083 26.6979 37.7904 26.888 37.8477 27.0938C37.9076 27.2969 37.9375 27.513 37.9375 27.7422V28.6562ZM36.9141 27.7422C36.9141 27.5417 36.8776 27.3594 36.8047 27.1953C36.7318 27.0312 36.6341 26.8906 36.5117 26.7734C36.3919 26.6562 36.2526 26.5664 36.0938 26.5039C35.9349 26.4414 35.7682 26.4115 35.5938 26.4141H33.7617C33.5924 26.4115 33.4271 26.4414 33.2656 26.5039C33.1068 26.5638 32.9648 26.6523 32.8398 26.7695C32.7174 26.8841 32.6185 27.0247 32.543 27.1914C32.4701 27.3555 32.4336 27.5391 32.4336 27.7422V28.6562C32.4336 28.8594 32.4701 29.043 32.543 29.207C32.6159 29.3711 32.7135 29.5117 32.8359 29.6289C32.9583 29.7435 33.099 29.832 33.2578 29.8945C33.4193 29.957 33.5872 29.987 33.7617 29.9844H35.5938C35.7943 29.9844 35.9753 29.9518 36.1367 29.8867C36.3008 29.819 36.4401 29.7266 36.5547 29.6094C36.6693 29.4922 36.7578 29.3529 36.8203 29.1914C36.8828 29.0273 36.9141 28.849 36.9141 28.6562V27.7422ZM36.4727 27C36.5117 27.0573 36.5378 27.1198 36.5508 27.1875C36.5638 27.2526 36.5638 27.3177 36.5508 27.3828C36.5378 27.4453 36.5117 27.5052 36.4727 27.5625C36.4362 27.6172 36.388 27.6641 36.3281 27.7031L33.5859 29.5352C33.5417 29.569 33.4961 29.5924 33.4492 29.6055C33.4023 29.6185 33.3542 29.625 33.3047 29.625C33.2214 29.625 33.1419 29.6055 33.0664 29.5664C32.9909 29.5273 32.9297 29.4714 32.8828 29.3984C32.8438 29.3411 32.8177 29.2799 32.8047 29.2148C32.7917 29.1471 32.7904 29.082 32.8008 29.0195C32.8138 28.9544 32.8385 28.8945 32.875 28.8398C32.9115 28.7826 32.9596 28.7344 33.0195 28.6953L35.7695 26.8633C35.8268 26.8242 35.888 26.7982 35.9531 26.7852C36.0208 26.7721 36.0859 26.7721 36.1484 26.7852C36.2135 26.7982 36.2734 26.8229 36.3281 26.8594C36.3854 26.8958 36.4336 26.9427 36.4727 27ZM43.9453 31H42.9219V28.7109H39.3125C39.2396 28.7109 39.1719 28.6979 39.1094 28.6719C39.0469 28.6432 38.9922 28.6068 38.9453 28.5625C38.901 28.5156 38.8659 28.4609 38.8398 28.3984C38.8138 28.3359 38.8008 28.2695 38.8008 28.1992V25.3984H39.8164V27.6875H42.9219V25.3984H43.9453V31Z" fill="url(#paint3_linear_119_197)"/>
<defs>
<linearGradient id="paint0_linear_119_197" x1="35" y1="0" x2="35" y2="45" gradientUnits="userSpaceOnUse">
<stop stop-color="white"/>
<stop offset="0.739583" stop-color="#9E9E9E"/>
<stop offset="1" stop-color="#4F4F4F"/>
</linearGradient>
<linearGradient id="paint1_linear_119_197" x1="35" y1="0" x2="35" y2="45" gradientUnits="userSpaceOnUse">
<stop stop-color="#2E13D0"/>
<stop offset="0.604167" stop-color="#784CD6"/>
<stop offset="1" stop-color="#D2C5F8"/>
</linearGradient>
<linearGradient id="paint2_linear_119_197" x1="27.5485" y1="12" x2="39.1063" y2="22.8057" gradientUnits="userSpaceOnUse">
<stop stop-color="#9E00FF"/>
<stop offset="1" stop-color="#0500FF"/>
</linearGradient>
<linearGradient id="paint3_linear_119_197" x1="28.541" y1="26.75" x2="34.9964" y2="35.5045" gradientUnits="userSpaceOnUse">
<stop stop-color="#9E00FF"/>
<stop offset="1" stop-color="#0500FF"/>
</linearGradient>
</defs>
</svg>
