<svg width="70" height="45" viewBox="0 0 70 45" fill="none" xmlns="http://www.w3.org/2000/svg">
<rect width="70" height="45" rx="22.5" fill="url(#paint0_linear_119_194)" fill-opacity="0.9"/>
<rect x="1" y="1" width="68" height="43" rx="21.5" stroke="url(#paint1_linear_119_194)" stroke-opacity="0.85" stroke-width="2"/>
<path d="M28.6016 18.1484C28.6016 18.4974 28.5573 18.8125 28.4688 19.0938C28.3802 19.3698 28.263 19.6146 28.1172 19.8281C27.9714 20.0365 27.8021 20.2161 27.6094 20.3672C27.4167 20.513 27.2135 20.6328 27 20.7266C26.7917 20.8203 26.5781 20.8906 26.3594 20.9375C26.1458 20.9792 25.9427 21 25.75 21H20.25V18.9688H25.7344C26.0104 18.9688 26.2188 18.8984 26.3594 18.7578C26.5 18.6172 26.5703 18.4141 26.5703 18.1484C26.5443 17.6068 26.2708 17.3359 25.75 17.3359H22.6016C22.1536 17.3359 21.7734 17.2578 21.4609 17.1016C21.1484 16.9453 20.8932 16.75 20.6953 16.5156C20.5026 16.2812 20.362 16.0286 20.2734 15.7578C20.1901 15.487 20.1484 15.2344 20.1484 15C20.1484 14.5469 20.2292 14.1667 20.3906 13.8594C20.5521 13.5469 20.7552 13.2943 21 13.1016C21.2448 12.9089 21.5104 12.7708 21.7969 12.6875C22.0833 12.599 22.3516 12.5547 22.6016 12.5547H27.5938V14.5859H22.6172C22.513 14.5859 22.4297 14.599 22.3672 14.625C22.3099 14.6458 22.2656 14.6771 22.2344 14.7188C22.2083 14.7552 22.1927 14.7969 22.1875 14.8438C22.1823 14.8854 22.1797 14.9271 22.1797 14.9688C22.1849 15.0521 22.2005 15.1172 22.2266 15.1641C22.2526 15.2109 22.2839 15.2448 22.3203 15.2656C22.362 15.2865 22.4062 15.2995 22.4531 15.3047C22.5052 15.3047 22.5547 15.3047 22.6016 15.3047H25.75C26.2708 15.3047 26.7135 15.3984 27.0781 15.5859C27.4427 15.7734 27.737 16.0104 27.9609 16.2969C28.1849 16.5781 28.3464 16.8854 28.4453 17.2188C28.5495 17.5521 28.6016 17.862 28.6016 18.1484ZM38.75 18.2031C38.75 18.4844 38.7005 18.7891 38.6016 19.1172C38.5026 19.4401 38.3411 19.7422 38.1172 20.0234C37.8984 20.2995 37.6094 20.5312 37.25 20.7188C36.8958 20.9062 36.4635 21 35.9531 21H32.2891C32.0078 21 31.7031 20.9505 31.375 20.8516C31.0521 20.7526 30.75 20.5938 30.4688 20.375C30.1927 20.151 29.9609 19.862 29.7734 19.5078C29.5859 19.1484 29.4922 18.7135 29.4922 18.2031C29.4922 17.9219 29.5417 17.6172 29.6406 17.2891C29.7396 16.9609 29.8984 16.6589 30.1172 16.3828C30.3411 16.1016 30.6302 15.8672 30.9844 15.6797C31.3438 15.4922 31.7786 15.3984 32.2891 15.3984H35.9531V17.3359H32.2891C32.013 17.3359 31.7995 17.4219 31.6484 17.5938C31.4974 17.7604 31.4219 17.9688 31.4219 18.2188C31.4219 18.4844 31.5078 18.6927 31.6797 18.8438C31.8568 18.9896 32.0651 19.0625 32.3047 19.0625H35.9531C36.2292 19.0625 36.4427 18.9792 36.5938 18.8125C36.7448 18.6458 36.8203 18.4375 36.8203 18.1875V15.3516C36.8203 15.0859 36.737 14.875 36.5703 14.7188C36.4089 14.5625 36.2031 14.4844 35.9531 14.4844H31.4922V12.5547H35.9531C36.2344 12.5547 36.5365 12.6042 36.8594 12.7031C37.1875 12.8021 37.4896 12.9635 37.7656 13.1875C38.0469 13.4062 38.2812 13.6953 38.4688 14.0547C38.6562 14.4089 38.75 14.8411 38.75 15.3516V18.2031ZM48.1328 14.5859H44.5859V21H42.5312V14.5859H39.8906V12.5547H42.5312V9.79688H44.5859V12.5547H48.1328V14.5859Z" fill="url(#paint2_linear_119_194)" fill-opacity="0.85"/>
<path d="M28.2402 30.2178C28.2402 30.3382 28.2256 30.4652 28.1963 30.5986C28.1702 30.7321 28.1263 30.8656 28.0645 30.999C28.0059 31.1292 27.9294 31.2546 27.835 31.375C27.7406 31.4954 27.6266 31.6029 27.4932 31.6973C27.363 31.7884 27.2116 31.8617 27.0391 31.917C26.8665 31.9723 26.6729 32 26.458 32H23.5869C23.4111 32 23.2191 31.9691 23.0107 31.9072C22.8024 31.8454 22.6087 31.7445 22.4297 31.6045C22.2539 31.4613 22.1058 31.2773 21.9854 31.0527C21.8682 30.8249 21.8096 30.5465 21.8096 30.2178V29.6514C21.8096 29.5277 21.8226 29.3975 21.8486 29.2607C21.8779 29.124 21.9219 28.9889 21.9805 28.8555C22.0423 28.722 22.1204 28.5951 22.2148 28.4746C22.3092 28.3542 22.4232 28.25 22.5566 28.1621C22.498 28.0254 22.4541 27.887 22.4248 27.7471C22.3955 27.6071 22.3809 27.4753 22.3809 27.3516V26.7803C22.3809 26.4548 22.4395 26.1781 22.5566 25.9502C22.6771 25.7223 22.8252 25.5384 23.001 25.3984C23.18 25.2585 23.3737 25.1576 23.582 25.0957C23.7904 25.0306 23.9824 24.998 24.1582 24.998H25.877C26.0951 24.998 26.2904 25.0257 26.4629 25.0811C26.6387 25.1364 26.7917 25.2113 26.9219 25.3057C27.0553 25.3968 27.1676 25.5026 27.2588 25.623C27.3532 25.7435 27.4297 25.8704 27.4883 26.0039C27.5469 26.1341 27.5892 26.2676 27.6152 26.4043C27.6445 26.5378 27.6592 26.6631 27.6592 26.7803V27.3516C27.6592 27.6706 27.6022 27.9473 27.4883 28.1816C27.5924 28.25 27.6901 28.3314 27.7812 28.4258C27.8724 28.5169 27.9521 28.6227 28.0205 28.7432C28.0889 28.8636 28.1426 29.0003 28.1816 29.1533C28.2207 29.3031 28.2402 29.4691 28.2402 29.6514V30.2178ZM26.3896 26.79C26.3896 26.6175 26.3457 26.4873 26.2578 26.3994C26.1699 26.3115 26.043 26.2676 25.877 26.2676H24.168C23.9954 26.2676 23.8669 26.3115 23.7822 26.3994C23.7008 26.4873 23.6602 26.6143 23.6602 26.7803V27.3516C23.6602 27.5208 23.7025 27.6478 23.7871 27.7324C23.875 27.8171 23.9987 27.8594 24.1582 27.8594H25.877C26.0495 27.8594 26.1781 27.8171 26.2627 27.7324C26.3473 27.6445 26.3896 27.5176 26.3896 27.3516V26.79ZM26.9561 29.6514C26.9561 29.4886 26.9105 29.3633 26.8193 29.2754C26.7314 29.1842 26.611 29.1387 26.458 29.1387H23.5869C23.4307 29.1387 23.307 29.1875 23.2158 29.2852C23.1247 29.3828 23.0791 29.5049 23.0791 29.6514V30.2178C23.0791 30.374 23.1263 30.4993 23.2207 30.5938C23.3184 30.6849 23.4404 30.7305 23.5869 30.7305H26.458C26.6208 30.7305 26.7445 30.6816 26.8291 30.584C26.9137 30.4863 26.9561 30.3643 26.9561 30.2178V29.6514ZM30.4082 31.3604C30.4082 31.4482 30.3903 31.5312 30.3545 31.6094C30.3219 31.6842 30.2764 31.751 30.2178 31.8096C30.1624 31.8649 30.0957 31.9089 30.0176 31.9414C29.9427 31.974 29.863 31.9902 29.7783 31.9902C29.6904 31.9902 29.6074 31.974 29.5293 31.9414C29.4544 31.9089 29.3877 31.8649 29.3291 31.8096C29.2738 31.751 29.2298 31.6842 29.1973 31.6094C29.1647 31.5312 29.1484 31.4482 29.1484 31.3604C29.1484 31.2757 29.1647 31.196 29.1973 31.1211C29.2298 31.043 29.2738 30.9762 29.3291 30.9209C29.3877 30.8623 29.4544 30.8167 29.5293 30.7842C29.6074 30.7484 29.6904 30.7305 29.7783 30.7305C29.863 30.7305 29.9427 30.7484 30.0176 30.7842C30.0957 30.8167 30.1624 30.8623 30.2178 30.9209C30.2764 30.9762 30.3219 31.043 30.3545 31.1211C30.3903 31.196 30.4082 31.2757 30.4082 31.3604ZM39.4219 29.0703C39.4219 29.3568 39.3844 29.6286 39.3096 29.8857C39.238 30.1396 39.1354 30.3757 39.002 30.5938C38.8685 30.8118 38.7106 31.0072 38.5283 31.1797C38.346 31.3522 38.1458 31.5003 37.9277 31.624C37.7129 31.7445 37.4834 31.8372 37.2393 31.9023C36.9951 31.9674 36.7461 32 36.4922 32H34.2021C33.945 32 33.6943 31.9674 33.4502 31.9023C33.2061 31.8372 32.9749 31.7445 32.7568 31.624C32.542 31.5003 32.3434 31.3522 32.1611 31.1797C31.9788 31.0072 31.821 30.8118 31.6875 30.5938C31.5573 30.3757 31.4548 30.1396 31.3799 29.8857C31.3083 29.6286 31.2725 29.3568 31.2725 29.0703V27.9277C31.2725 27.498 31.3522 27.1042 31.5117 26.7461C31.6745 26.388 31.891 26.0804 32.1611 25.8232C32.4313 25.5628 32.7422 25.361 33.0938 25.2178C33.4486 25.0713 33.818 24.998 34.2021 24.998H36.4922C36.7461 24.998 36.9951 25.0306 37.2393 25.0957C37.4834 25.1608 37.7129 25.2552 37.9277 25.3789C38.1458 25.4993 38.346 25.6458 38.5283 25.8184C38.7106 25.9909 38.8685 26.1862 39.002 26.4043C39.1354 26.6224 39.238 26.86 39.3096 27.1172C39.3844 27.3711 39.4219 27.6413 39.4219 27.9277V29.0703ZM38.1426 27.9277C38.1426 27.6771 38.097 27.4492 38.0059 27.2441C37.9147 27.0391 37.7926 26.8633 37.6396 26.7168C37.4899 26.5703 37.3158 26.458 37.1172 26.3799C36.9186 26.3018 36.7103 26.2643 36.4922 26.2676H34.2021C33.9906 26.2643 33.7839 26.3018 33.582 26.3799C33.3835 26.4548 33.2061 26.5654 33.0498 26.7119C32.8968 26.8551 32.7731 27.0309 32.6787 27.2393C32.5876 27.4443 32.542 27.6738 32.542 27.9277V29.0703C32.542 29.3242 32.5876 29.5537 32.6787 29.7588C32.7699 29.9639 32.8919 30.1396 33.0449 30.2861C33.1979 30.4294 33.3737 30.54 33.5723 30.6182C33.7741 30.6963 33.984 30.7337 34.2021 30.7305H36.4922C36.7428 30.7305 36.9691 30.6898 37.1709 30.6084C37.376 30.5238 37.5501 30.4082 37.6934 30.2617C37.8366 30.1152 37.9473 29.9411 38.0254 29.7393C38.1035 29.5342 38.1426 29.3112 38.1426 29.0703V27.9277ZM37.5908 27C37.6396 27.0716 37.6722 27.1497 37.6885 27.2344C37.7048 27.3158 37.7048 27.3971 37.6885 27.4785C37.6722 27.5566 37.6396 27.6315 37.5908 27.7031C37.5452 27.7715 37.485 27.8301 37.4102 27.8789L33.9824 30.1689C33.9271 30.2113 33.8701 30.2406 33.8115 30.2568C33.7529 30.2731 33.6927 30.2812 33.6309 30.2812C33.5267 30.2812 33.4274 30.2568 33.333 30.208C33.2386 30.1592 33.1621 30.0892 33.1035 29.998C33.0547 29.9264 33.0221 29.8499 33.0059 29.7686C32.9896 29.6839 32.988 29.6025 33.001 29.5244C33.0173 29.443 33.0482 29.3682 33.0938 29.2998C33.1393 29.2282 33.1995 29.168 33.2744 29.1191L36.7119 26.8291C36.7835 26.7803 36.86 26.7477 36.9414 26.7314C37.026 26.7152 37.1074 26.7152 37.1855 26.7314C37.2669 26.7477 37.3418 26.7786 37.4102 26.8242C37.4818 26.8698 37.542 26.9284 37.5908 27ZM46.9316 32H45.6523V29.1387H41.1406C41.0495 29.1387 40.9648 29.1224 40.8867 29.0898C40.8086 29.054 40.7402 29.0085 40.6816 28.9531C40.6263 28.8945 40.5824 28.8262 40.5498 28.748C40.5173 28.6699 40.501 28.5869 40.501 28.499V24.998H41.7705V27.8594H45.6523V24.998H46.9316V32Z" fill="url(#paint3_linear_119_194)" fill-opacity="0.85"/>
<defs>
<linearGradient id="paint0_linear_119_194" x1="35" y1="0" x2="35" y2="45" gradientUnits="userSpaceOnUse">
<stop stop-color="#626161"/>
<stop offset="0.276042" stop-color="#ADADAD"/>
<stop offset="1" stop-color="white"/>
</linearGradient>
<linearGradient id="paint1_linear_119_194" x1="35" y1="0" x2="35" y2="45" gradientUnits="userSpaceOnUse">
<stop stop-color="#F9BE79"/>
<stop offset="0.427083" stop-color="#FE5B00"/>
<stop offset="0.890625" stop-color="#D04013"/>
</linearGradient>
<linearGradient id="paint2_linear_119_194" x1="34" y1="8" x2="34" y2="22" gradientUnits="userSpaceOnUse">
<stop offset="0.15625" stop-color="#FE5B00"/>
<stop offset="0.489583" stop-color="#F9BE79"/>
<stop offset="0.890625" stop-color="#E66000"/>
</linearGradient>
<linearGradient id="paint3_linear_119_194" x1="34.5" y1="24" x2="34.5" y2="33" gradientUnits="userSpaceOnUse">
<stop stop-color="#F9BE79"/>
<stop offset="0.427083" stop-color="#FE5B00"/>
<stop offset="0.890625" stop-color="#D04013"/>
</linearGradient>
</defs>
</svg>
