<svg width="70" height="45" viewBox="0 0 70 45" fill="none" xmlns="http://www.w3.org/2000/svg">
<rect width="70" height="45" rx="22.5" fill="url(#paint0_linear_119_197)" fill-opacity="0.9"/>
<rect x="1" y="1" width="68" height="43" rx="21.5" stroke="url(#paint1_linear_119_197)" stroke-opacity="0.7" stroke-width="2"/>
<path d="M29.2764 17.5049C29.2764 17.8102 29.2376 18.0859 29.1602 18.332C29.0827 18.5736 28.9801 18.7878 28.8525 18.9746C28.7249 19.1569 28.5768 19.3141 28.4082 19.4463C28.2396 19.5739 28.0618 19.6787 27.875 19.7607C27.6927 19.8428 27.5059 19.9043 27.3145 19.9453C27.1276 19.9818 26.9499 20 26.7812 20H21.9688V18.2227H26.7676C27.0091 18.2227 27.1914 18.1611 27.3145 18.0381C27.4375 17.915 27.499 17.7373 27.499 17.5049C27.4762 17.0309 27.237 16.7939 26.7812 16.7939H24.0264C23.6344 16.7939 23.3018 16.7256 23.0283 16.5889C22.7549 16.4521 22.5316 16.2812 22.3584 16.0762C22.1898 15.8711 22.0667 15.6501 21.9893 15.4131C21.9163 15.1761 21.8799 14.9551 21.8799 14.75C21.8799 14.3535 21.9505 14.0208 22.0918 13.752C22.2331 13.4785 22.4108 13.2575 22.625 13.0889C22.8392 12.9202 23.0716 12.7995 23.3223 12.7266C23.5729 12.6491 23.8076 12.6104 24.0264 12.6104H28.3945V14.3877H24.04C23.9489 14.3877 23.876 14.3991 23.8213 14.4219C23.7712 14.4401 23.7324 14.4674 23.7051 14.5039C23.6823 14.5358 23.6686 14.5723 23.6641 14.6133C23.6595 14.6497 23.6572 14.6862 23.6572 14.7227C23.6618 14.7956 23.6755 14.8525 23.6982 14.8936C23.721 14.9346 23.7484 14.9642 23.7803 14.9824C23.8167 15.0007 23.8555 15.012 23.8965 15.0166C23.9421 15.0166 23.9854 15.0166 24.0264 15.0166H26.7812C27.237 15.0166 27.6243 15.0986 27.9434 15.2627C28.2624 15.4268 28.5199 15.6341 28.7158 15.8848C28.9118 16.1309 29.0531 16.3997 29.1396 16.6914C29.2308 16.9831 29.2764 17.2542 29.2764 17.5049ZM38.1562 17.5527C38.1562 17.7988 38.113 18.0654 38.0264 18.3525C37.9398 18.6351 37.7985 18.8994 37.6025 19.1455C37.4111 19.387 37.1582 19.5898 36.8438 19.7539C36.5339 19.918 36.1556 20 35.709 20H32.5029C32.2568 20 31.9902 19.9567 31.7031 19.8701C31.4206 19.7835 31.1562 19.6445 30.9102 19.4531C30.6686 19.2572 30.4658 19.0042 30.3018 18.6943C30.1377 18.3799 30.0557 17.9993 30.0557 17.5527C30.0557 17.3066 30.099 17.04 30.1855 16.7529C30.2721 16.4658 30.4111 16.2015 30.6025 15.96C30.7985 15.7139 31.0514 15.5088 31.3613 15.3447C31.6758 15.1807 32.0563 15.0986 32.5029 15.0986H35.709V16.7939H32.5029C32.2614 16.7939 32.0745 16.8691 31.9424 17.0195C31.8102 17.1654 31.7441 17.3477 31.7441 17.5664C31.7441 17.7988 31.8193 17.9811 31.9697 18.1133C32.1247 18.2409 32.307 18.3047 32.5166 18.3047H35.709C35.9505 18.3047 36.1374 18.2318 36.2695 18.0859C36.4017 17.9401 36.4678 17.7578 36.4678 17.5391V15.0576C36.4678 14.8252 36.3949 14.6406 36.249 14.5039C36.1077 14.3672 35.9277 14.2988 35.709 14.2988H31.8057V12.6104H35.709C35.9551 12.6104 36.2194 12.6536 36.502 12.7402C36.7891 12.8268 37.0534 12.9681 37.2949 13.1641C37.541 13.3555 37.7461 13.6084 37.9102 13.9229C38.0742 14.2327 38.1562 14.611 38.1562 15.0576V17.5527ZM46.3662 14.3877H43.2627V20H41.4648V14.3877H39.1543V12.6104H41.4648V10.1973H43.2627V12.6104H46.3662V14.3877Z" fill="url(#paint2_linear_119_197)"/>
<path d="M28.8945 25.6562C28.9388 25.737 28.9609 25.8229 28.9609 25.9141C28.9609 26.0026 28.9388 26.0872 28.8945 26.168L26.0781 31H24.9023L27.5664 26.4141H24.2773V25.3984H28.4531C28.5443 25.3984 28.6289 25.4219 28.707 25.4688C28.7878 25.513 28.8503 25.5755 28.8945 25.6562ZM30.1445 30.4883C30.1445 30.5586 30.1302 30.625 30.1016 30.6875C30.0755 30.7474 30.0391 30.8008 29.9922 30.8477C29.9479 30.8919 29.8945 30.9271 29.832 30.9531C29.7721 30.9792 29.7083 30.9922 29.6406 30.9922C29.5703 30.9922 29.5039 30.9792 29.4414 30.9531C29.3815 30.9271 29.3281 30.8919 29.2812 30.8477C29.237 30.8008 29.2018 30.7474 29.1758 30.6875C29.1497 30.625 29.1367 30.5586 29.1367 30.4883C29.1367 30.4206 29.1497 30.3568 29.1758 30.2969C29.2018 30.2344 29.237 30.181 29.2812 30.1367C29.3281 30.0898 29.3815 30.0534 29.4414 30.0273C29.5039 29.9987 29.5703 29.9844 29.6406 29.9844C29.7083 29.9844 29.7721 29.9987 29.832 30.0273C29.8945 30.0534 29.9479 30.0898 29.9922 30.1367C30.0391 30.181 30.0755 30.2344 30.1016 30.2969C30.1302 30.3568 30.1445 30.4206 30.1445 30.4883ZM37.3555 28.6562C37.3555 28.8854 37.3255 29.1029 37.2656 29.3086C37.2083 29.5117 37.1263 29.7005 37.0195 29.875C36.9128 30.0495 36.7865 30.2057 36.6406 30.3438C36.4948 30.4818 36.3346 30.6003 36.1602 30.6992C35.9883 30.7956 35.8047 30.8698 35.6094 30.9219C35.4141 30.974 35.2148 31 35.0117 31H33.1797C32.974 31 32.7734 30.974 32.5781 30.9219C32.3828 30.8698 32.1979 30.7956 32.0234 30.6992C31.8516 30.6003 31.6927 30.4818 31.5469 30.3438C31.401 30.2057 31.2747 30.0495 31.168 29.875C31.0638 29.7005 30.9818 29.5117 30.9219 29.3086C30.8646 29.1029 30.8359 28.8854 30.8359 28.6562V27.7422C30.8359 27.3984 30.8997 27.0833 31.0273 26.7969C31.1576 26.5104 31.3307 26.2643 31.5469 26.0586C31.763 25.8503 32.0117 25.6888 32.293 25.5742C32.5768 25.457 32.8724 25.3984 33.1797 25.3984H35.0117C35.2148 25.3984 35.4141 25.4245 35.6094 25.4766C35.8047 25.5286 35.9883 25.6042 36.1602 25.7031C36.3346 25.7995 36.4948 25.9167 36.6406 26.0547C36.7865 26.1927 36.9128 26.349 37.0195 26.5234C37.1263 26.6979 37.2083 26.888 37.2656 27.0938C37.3255 27.2969 37.3555 27.513 37.3555 27.7422V28.6562ZM36.332 27.7422C36.332 27.5417 36.2956 27.3594 36.2227 27.1953C36.1497 27.0312 36.0521 26.8906 35.9297 26.7734C35.8099 26.6562 35.6706 26.5664 35.5117 26.5039C35.3529 26.4414 35.1862 26.4115 35.0117 26.4141H33.1797C33.0104 26.4115 32.8451 26.4414 32.6836 26.5039C32.5247 26.5638 32.3828 26.6523 32.2578 26.7695C32.1354 26.8841 32.0365 27.0247 31.9609 27.1914C31.888 27.3555 31.8516 27.5391 31.8516 27.7422V28.6562C31.8516 28.8594 31.888 29.043 31.9609 29.207C32.0339 29.3711 32.1315 29.5117 32.2539 29.6289C32.3763 29.7435 32.5169 29.832 32.6758 29.8945C32.8372 29.957 33.0052 29.987 33.1797 29.9844H35.0117C35.2122 29.9844 35.3932 29.9518 35.5547 29.8867C35.7188 29.819 35.8581 29.7266 35.9727 29.6094C36.0872 29.4922 36.1758 29.3529 36.2383 29.1914C36.3008 29.0273 36.332 28.849 36.332 28.6562V27.7422ZM35.8906 27C35.9297 27.0573 35.9557 27.1198 35.9688 27.1875C35.9818 27.2526 35.9818 27.3177 35.9688 27.3828C35.9557 27.4453 35.9297 27.5052 35.8906 27.5625C35.8542 27.6172 35.806 27.6641 35.7461 27.7031L33.0039 29.5352C32.9596 29.569 32.9141 29.5924 32.8672 29.6055C32.8203 29.6185 32.7721 29.625 32.7227 29.625C32.6393 29.625 32.5599 29.6055 32.4844 29.5664C32.4089 29.5273 32.3477 29.4714 32.3008 29.3984C32.2617 29.3411 32.2357 29.2799 32.2227 29.2148C32.2096 29.1471 32.2083 29.082 32.2188 29.0195C32.2318 28.9544 32.2565 28.8945 32.293 28.8398C32.3294 28.7826 32.3776 28.7344 32.4375 28.6953L35.1875 26.8633C35.2448 26.8242 35.306 26.7982 35.3711 26.7852C35.4388 26.7721 35.5039 26.7721 35.5664 26.7852C35.6315 26.7982 35.6914 26.8229 35.7461 26.8594C35.8034 26.8958 35.8516 26.9427 35.8906 27ZM43.3633 31H42.3398V28.7109H38.7305C38.6576 28.7109 38.5898 28.6979 38.5273 28.6719C38.4648 28.6432 38.4102 28.6068 38.3633 28.5625C38.319 28.5156 38.2839 28.4609 38.2578 28.3984C38.2318 28.3359 38.2188 28.2695 38.2188 28.1992V25.3984H39.2344V27.6875H42.3398V25.3984H43.3633V31Z" fill="url(#paint3_linear_119_197)"/>
<defs>
<linearGradient id="paint0_linear_119_197" x1="35" y1="0" x2="35" y2="45" gradientUnits="userSpaceOnUse">
<stop stop-color="white"/>
<stop offset="0.739583" stop-color="#9E9E9E"/>
<stop offset="1" stop-color="#4F4F4F"/>
</linearGradient>
<linearGradient id="paint1_linear_119_197" x1="35" y1="0" x2="35" y2="45" gradientUnits="userSpaceOnUse">
<stop stop-color="#2E13D0"/>
<stop offset="0.604167" stop-color="#784CD6"/>
<stop offset="1" stop-color="#D2C5F8"/>
</linearGradient>
<linearGradient id="paint2_linear_119_197" x1="27.5485" y1="12" x2="39.1063" y2="22.8057" gradientUnits="userSpaceOnUse">
<stop stop-color="#9E00FF"/>
<stop offset="1" stop-color="#0500FF"/>
</linearGradient>
<linearGradient id="paint3_linear_119_197" x1="29.0373" y1="26.75" x2="35.6492" y2="34.9016" gradientUnits="userSpaceOnUse">
<stop stop-color="#9E00FF"/>
<stop offset="1" stop-color="#0500FF"/>
</linearGradient>
</defs>
</svg>
