<svg width="99" height="55" viewBox="0 0 99 55" fill="none" xmlns="http://www.w3.org/2000/svg">
<rect width="99" height="55" rx="27.5" fill="url(#paint0_linear_339_250)" fill-opacity="0.7"/>
<rect width="99" height="55" rx="27.5" fill="url(#paint1_radial_339_250)" fill-opacity="0.7"/>
<rect x="2" y="2" width="95" height="51" rx="25.5" stroke="white" stroke-opacity="0.01" stroke-width="4"/>
<g style="mix-blend-mode:hard-light">
<rect x="36" y="23" width="26" height="18" fill="url(#paint2_linear_339_250)" fill-opacity="0.85"/>
<path fill-rule="evenodd" clip-rule="evenodd" d="M57.5 36.5C57.5 36.2239 57.7239 36 58 36H60C60.2761 36 60.5 36.2239 60.5 36.5V38.5C60.5 38.7761 60.2761 39 60 39H58C57.7239 39 57.5 38.7761 57.5 38.5V36.5Z" fill="url(#paint3_linear_339_250)" fill-opacity="0.9"/>
<path fill-rule="evenodd" clip-rule="evenodd" d="M52.5 36.5C52.5 36.2239 52.7239 36 53 36H55C55.2761 36 55.5 36.2239 55.5 36.5V38.5C55.5 38.7761 55.2761 39 55 39H53C52.7239 39 52.5 38.7761 52.5 38.5V36.5Z" fill="url(#paint4_linear_339_250)" fill-opacity="0.9"/>
<path fill-rule="evenodd" clip-rule="evenodd" d="M47.5 36.5C47.5 36.2239 47.7239 36 48 36H50C50.2761 36 50.5 36.2239 50.5 36.5V38.5C50.5 38.7761 50.2761 39 50 39H48C47.7239 39 47.5 38.7761 47.5 38.5V36.5Z" fill="url(#paint5_linear_339_250)" fill-opacity="0.9"/>
<path fill-rule="evenodd" clip-rule="evenodd" d="M42.5 36.5C42.5 36.2239 42.7239 36 43 36H45C45.2761 36 45.5 36.2239 45.5 36.5V38.5C45.5 38.7761 45.2761 39 45 39H43C42.7239 39 42.5 38.7761 42.5 38.5V36.5Z" fill="url(#paint6_linear_339_250)" fill-opacity="0.9"/>
<path fill-rule="evenodd" clip-rule="evenodd" d="M37.5 36.5C37.5 36.2239 37.7239 36 38 36H40C40.2761 36 40.5 36.2239 40.5 36.5V38.5C40.5 38.7761 40.2761 39 40 39H38C37.7239 39 37.5 38.7761 37.5 38.5V36.5Z" fill="url(#paint7_linear_339_250)" fill-opacity="0.9"/>
<path fill-rule="evenodd" clip-rule="evenodd" d="M57.5 31.5C57.5 31.2239 57.7239 31 58 31H60C60.2761 31 60.5 31.2239 60.5 31.5V33.5C60.5 33.7761 60.2761 34 60 34H58C57.7239 34 57.5 33.7761 57.5 33.5V31.5Z" fill="url(#paint8_linear_339_250)" fill-opacity="0.9"/>
<path fill-rule="evenodd" clip-rule="evenodd" d="M52.5 31.5C52.5 31.2239 52.7239 31 53 31H55C55.2761 31 55.5 31.2239 55.5 31.5V33.5C55.5 33.7761 55.2761 34 55 34H53C52.7239 34 52.5 33.7761 52.5 33.5V31.5Z" fill="url(#paint9_linear_339_250)" fill-opacity="0.9"/>
<path fill-rule="evenodd" clip-rule="evenodd" d="M47.5 31.5C47.5 31.2239 47.7239 31 48 31H50C50.2761 31 50.5 31.2239 50.5 31.5V33.5C50.5 33.7761 50.2761 34 50 34H48C47.7239 34 47.5 33.7761 47.5 33.5V31.5Z" fill="url(#paint10_linear_339_250)" fill-opacity="0.9"/>
<path fill-rule="evenodd" clip-rule="evenodd" d="M42.5 31.5C42.5 31.2239 42.7239 31 43 31H45C45.2761 31 45.5 31.2239 45.5 31.5V33.5C45.5 33.7761 45.2761 34 45 34H43C42.7239 34 42.5 33.7761 42.5 33.5V31.5Z" fill="url(#paint11_linear_339_250)" fill-opacity="0.9"/>
<path fill-rule="evenodd" clip-rule="evenodd" d="M37.5 31.5C37.5 31.2239 37.7239 31 38 31H40C40.2761 31 40.5 31.2239 40.5 31.5V33.5C40.5 33.7761 40.2761 34 40 34H38C37.7239 34 37.5 33.7761 37.5 33.5V31.5Z" fill="url(#paint12_linear_339_250)" fill-opacity="0.9"/>
<path fill-rule="evenodd" clip-rule="evenodd" d="M57.5 26.5C57.5 26.2239 57.7239 26 58 26H60C60.2761 26 60.5 26.2239 60.5 26.5V28.5C60.5 28.7761 60.2761 29 60 29H58C57.7239 29 57.5 28.7761 57.5 28.5V26.5Z" fill="url(#paint13_linear_339_250)" fill-opacity="0.9"/>
<path fill-rule="evenodd" clip-rule="evenodd" d="M52.5 26.5C52.5 26.2239 52.7239 26 53 26H55C55.2761 26 55.5 26.2239 55.5 26.5V28.5C55.5 28.7761 55.2761 29 55 29H53C52.7239 29 52.5 28.7761 52.5 28.5V26.5Z" fill="url(#paint14_linear_339_250)" fill-opacity="0.9"/>
<path fill-rule="evenodd" clip-rule="evenodd" d="M47.5 26.5C47.5 26.2239 47.7239 26 48 26H50C50.2761 26 50.5 26.2239 50.5 26.5V28.5C50.5 28.7761 50.2761 29 50 29H48C47.7239 29 47.5 28.7761 47.5 28.5V26.5Z" fill="url(#paint15_linear_339_250)" fill-opacity="0.9"/>
<path fill-rule="evenodd" clip-rule="evenodd" d="M42.5 26.5C42.5 26.2239 42.7239 26 43 26H45C45.2761 26 45.5 26.2239 45.5 26.5V28.5C45.5 28.7761 45.2761 29 45 29H43C42.7239 29 42.5 28.7761 42.5 28.5V26.5Z" fill="url(#paint16_linear_339_250)" fill-opacity="0.9"/>
<path fill-rule="evenodd" clip-rule="evenodd" d="M37.5 26.5C37.5 26.2239 37.7239 26 38 26H40C40.2761 26 40.5 26.2239 40.5 26.5V28.5C40.5 28.7761 40.2761 29 40 29H38C37.7239 29 37.5 28.7761 37.5 28.5V26.5Z" fill="url(#paint17_linear_339_250)" fill-opacity="0.9"/>
<path d="M55 13.4384C55 13.1963 55.4477 13 55.9998 13C56.5523 13 57 13.1963 57 13.4384V17.5615C57 17.8037 56.5523 18 55.9998 18C55.4477 18 55 17.8037 55 17.5615V13.4384Z" fill="url(#paint18_linear_339_250)" fill-opacity="0.85"/>
<path d="M41 13.4384C41 13.1963 41.4478 13 42.0001 13C42.5522 13 43 13.1963 43 13.4384V17.5615C43 17.8037 42.5522 18 42.0001 18C41.4478 18 41 17.8037 41 17.5615V13.4384Z" fill="url(#paint19_linear_339_250)" fill-opacity="0.85"/>
<path d="M35.4434 24C35.1985 24 35 23.5523 35 23C35 22.4477 35.1985 22 35.4434 22H62.5566C62.8015 22 63 22.4477 63 23C63 23.5523 62.8015 24 62.5566 24H35.4434Z" fill="url(#paint20_linear_339_250)" fill-opacity="0.85"/>
<path d="M36.6442 40.2929C37.1096 40.7653 37.7499 41.0588 38.4522 41.0602L59.6506 41.0956V41.0938C60.3579 41.0938 61.0258 40.7893 61.5157 40.3044C61.9956 39.8292 62.3019 39.1816 62.3019 38.4801V18.6342C62.3019 17.9205 62.0137 17.2712 61.5497 16.8003C61.0857 16.3293 60.446 16.037 59.7427 16.037H38.4522C37.7489 16.037 37.1092 16.3293 36.6451 16.8003C36.1811 17.2712 35.893 17.9205 35.893 18.6342V38.4613C35.893 39.1746 36.1807 39.8226 36.6442 40.2929ZM38.4522 41.963C37.5007 41.961 36.6371 41.5673 36.0129 40.9337C35.3879 40.2994 35 39.4248 35 38.4613V18.6342C35 17.6703 35.3883 16.7943 36.0137 16.1595C36.6392 15.5248 37.5024 15.1308 38.4522 15.1308H59.7427C60.6925 15.1308 61.5556 15.5248 62.1811 16.1595C62.8066 16.7943 63.1949 17.6703 63.1949 18.6342V38.4801C63.1949 39.4355 62.7826 40.3127 62.1365 40.9522C61.4864 41.596 60.5963 42 59.6506 42V41.9982L38.4522 41.963Z" stroke="url(#paint21_linear_339_250)" stroke-opacity="0.85"/>
</g>
<defs>
<linearGradient id="paint0_linear_339_250" x1="49.5" y1="0" x2="49.5" y2="55" gradientUnits="userSpaceOnUse">
<stop stop-color="#BFBCBC" stop-opacity="0.63"/>
<stop offset="0.354148" stop-color="#646363"/>
<stop offset="1" stop-color="#FDFDFD" stop-opacity="0.72"/>
</linearGradient>
<radialGradient id="paint1_radial_339_250" cx="0" cy="0" r="1" gradientUnits="userSpaceOnUse" gradientTransform="translate(50 28) rotate(90) scale(40.5 55.7629)">
<stop stop-color="#FFFDFD" stop-opacity="0.51"/>
<stop offset="0.860343" stop-opacity="0.73"/>
</radialGradient>
<linearGradient id="paint2_linear_339_250" x1="49" y1="23" x2="49" y2="41" gradientUnits="userSpaceOnUse">
<stop stop-color="#F9BE79"/>
<stop offset="0.546875" stop-color="#FE5B00"/>
<stop offset="1" stop-color="#D04013"/>
</linearGradient>
<linearGradient id="paint3_linear_339_250" x1="58.8227" y1="39" x2="60.2926" y2="36.4166" gradientUnits="userSpaceOnUse">
<stop offset="0.176216" stop-color="#A8ABAE"/>
</linearGradient>
<linearGradient id="paint4_linear_339_250" x1="53.8227" y1="39" x2="55.2926" y2="36.4166" gradientUnits="userSpaceOnUse">
<stop offset="0.176216" stop-color="#A8ABAE"/>
</linearGradient>
<linearGradient id="paint5_linear_339_250" x1="48.8227" y1="39" x2="50.2926" y2="36.4166" gradientUnits="userSpaceOnUse">
<stop offset="0.176216" stop-color="#A8ABAE"/>
</linearGradient>
<linearGradient id="paint6_linear_339_250" x1="43.8227" y1="39" x2="45.2926" y2="36.4166" gradientUnits="userSpaceOnUse">
<stop offset="0.176216" stop-color="#A8ABAE"/>
</linearGradient>
<linearGradient id="paint7_linear_339_250" x1="38.8227" y1="39" x2="40.2926" y2="36.4166" gradientUnits="userSpaceOnUse">
<stop offset="0.176216" stop-color="#A8ABAE"/>
</linearGradient>
<linearGradient id="paint8_linear_339_250" x1="58.8227" y1="34" x2="60.2926" y2="31.4166" gradientUnits="userSpaceOnUse">
<stop offset="0.176216" stop-color="#A8ABAE"/>
</linearGradient>
<linearGradient id="paint9_linear_339_250" x1="53.8227" y1="34" x2="55.2926" y2="31.4166" gradientUnits="userSpaceOnUse">
<stop offset="0.176216" stop-color="#A8ABAE"/>
</linearGradient>
<linearGradient id="paint10_linear_339_250" x1="48.8227" y1="34" x2="50.2926" y2="31.4166" gradientUnits="userSpaceOnUse">
<stop offset="0.176216" stop-color="#A8ABAE"/>
</linearGradient>
<linearGradient id="paint11_linear_339_250" x1="43.8227" y1="34" x2="45.2926" y2="31.4166" gradientUnits="userSpaceOnUse">
<stop offset="0.176216" stop-color="#A8ABAE"/>
</linearGradient>
<linearGradient id="paint12_linear_339_250" x1="38.8227" y1="34" x2="40.2926" y2="31.4166" gradientUnits="userSpaceOnUse">
<stop offset="0.176216" stop-color="#A8ABAE"/>
</linearGradient>
<linearGradient id="paint13_linear_339_250" x1="58.8227" y1="29" x2="60.2926" y2="26.4166" gradientUnits="userSpaceOnUse">
<stop offset="0.176216" stop-color="#A8ABAE"/>
</linearGradient>
<linearGradient id="paint14_linear_339_250" x1="53.8227" y1="29" x2="55.2926" y2="26.4166" gradientUnits="userSpaceOnUse">
<stop offset="0.176216" stop-color="#A8ABAE"/>
</linearGradient>
<linearGradient id="paint15_linear_339_250" x1="48.8227" y1="29" x2="50.2926" y2="26.4166" gradientUnits="userSpaceOnUse">
<stop offset="0.176216" stop-color="#A8ABAE"/>
</linearGradient>
<linearGradient id="paint16_linear_339_250" x1="43.8227" y1="29" x2="45.2926" y2="26.4166" gradientUnits="userSpaceOnUse">
<stop offset="0.176216" stop-color="#A8ABAE"/>
</linearGradient>
<linearGradient id="paint17_linear_339_250" x1="38.8227" y1="29" x2="40.2926" y2="26.4166" gradientUnits="userSpaceOnUse">
<stop offset="0.176216" stop-color="#A8ABAE"/>
</linearGradient>
<linearGradient id="paint18_linear_339_250" x1="56" y1="18" x2="56" y2="13" gradientUnits="userSpaceOnUse">
<stop stop-color="#F9BE79"/>
<stop offset="0.546875" stop-color="#FE5B00"/>
<stop offset="1" stop-color="#D04013"/>
</linearGradient>
<linearGradient id="paint19_linear_339_250" x1="42" y1="18" x2="42" y2="13" gradientUnits="userSpaceOnUse">
<stop stop-color="#F9BE79"/>
<stop offset="0.546875" stop-color="#FE5B00"/>
<stop offset="1" stop-color="#D04013"/>
</linearGradient>
<linearGradient id="paint20_linear_339_250" x1="49" y1="24" x2="49" y2="22" gradientUnits="userSpaceOnUse">
<stop stop-color="#F9BE79"/>
<stop offset="0.546875" stop-color="#FE5B00"/>
<stop offset="1" stop-color="#D04013"/>
</linearGradient>
<linearGradient id="paint21_linear_339_250" x1="49.0974" y1="42" x2="49.0974" y2="15.1308" gradientUnits="userSpaceOnUse">
<stop stop-color="#F9BE79"/>
<stop offset="0.546875" stop-color="#FE5B00"/>
<stop offset="1" stop-color="#D04013"/>
</linearGradient>
</defs>
</svg>
