<svg width="99" height="55" viewBox="0 0 99 55" fill="none" xmlns="http://www.w3.org/2000/svg">
<rect width="99" height="55" rx="27.5" fill="url(#paint0_linear_215_33)" fill-opacity="0.9"/>
<rect x="1" y="1" width="97" height="53" rx="26.5" stroke="url(#paint1_linear_215_33)" stroke-opacity="0.7" stroke-width="2"/>
<g style="mix-blend-mode:hard-light">
<rect x="37" y="23" width="26" height="18" fill="url(#paint2_radial_215_33)"/>
<path fill-rule="evenodd" clip-rule="evenodd" d="M58.5 36.5C58.5 36.2239 58.7239 36 59 36H61C61.2761 36 61.5 36.2239 61.5 36.5V38.5C61.5 38.7761 61.2761 39 61 39H59C58.7239 39 58.5 38.7761 58.5 38.5V36.5Z" fill="url(#paint3_linear_215_33)" fill-opacity="0.9"/>
<path fill-rule="evenodd" clip-rule="evenodd" d="M53.5 36.5C53.5 36.2239 53.7239 36 54 36H56C56.2761 36 56.5 36.2239 56.5 36.5V38.5C56.5 38.7761 56.2761 39 56 39H54C53.7239 39 53.5 38.7761 53.5 38.5V36.5Z" fill="url(#paint4_linear_215_33)" fill-opacity="0.9"/>
<path fill-rule="evenodd" clip-rule="evenodd" d="M48.5 36.5C48.5 36.2239 48.7239 36 49 36H51C51.2761 36 51.5 36.2239 51.5 36.5V38.5C51.5 38.7761 51.2761 39 51 39H49C48.7239 39 48.5 38.7761 48.5 38.5V36.5Z" fill="url(#paint5_linear_215_33)" fill-opacity="0.9"/>
<path fill-rule="evenodd" clip-rule="evenodd" d="M43.5 36.5C43.5 36.2239 43.7239 36 44 36H46C46.2761 36 46.5 36.2239 46.5 36.5V38.5C46.5 38.7761 46.2761 39 46 39H44C43.7239 39 43.5 38.7761 43.5 38.5V36.5Z" fill="url(#paint6_linear_215_33)" fill-opacity="0.9"/>
<path fill-rule="evenodd" clip-rule="evenodd" d="M38.5 36.5C38.5 36.2239 38.7239 36 39 36H41C41.2761 36 41.5 36.2239 41.5 36.5V38.5C41.5 38.7761 41.2761 39 41 39H39C38.7239 39 38.5 38.7761 38.5 38.5V36.5Z" fill="url(#paint7_linear_215_33)" fill-opacity="0.9"/>
<path fill-rule="evenodd" clip-rule="evenodd" d="M58.5 31.5C58.5 31.2239 58.7239 31 59 31H61C61.2761 31 61.5 31.2239 61.5 31.5V33.5C61.5 33.7761 61.2761 34 61 34H59C58.7239 34 58.5 33.7761 58.5 33.5V31.5Z" fill="url(#paint8_linear_215_33)" fill-opacity="0.9"/>
<path fill-rule="evenodd" clip-rule="evenodd" d="M53.5 31.5C53.5 31.2239 53.7239 31 54 31H56C56.2761 31 56.5 31.2239 56.5 31.5V33.5C56.5 33.7761 56.2761 34 56 34H54C53.7239 34 53.5 33.7761 53.5 33.5V31.5Z" fill="url(#paint9_linear_215_33)" fill-opacity="0.9"/>
<path fill-rule="evenodd" clip-rule="evenodd" d="M48.5 31.5C48.5 31.2239 48.7239 31 49 31H51C51.2761 31 51.5 31.2239 51.5 31.5V33.5C51.5 33.7761 51.2761 34 51 34H49C48.7239 34 48.5 33.7761 48.5 33.5V31.5Z" fill="url(#paint10_linear_215_33)" fill-opacity="0.9"/>
<path fill-rule="evenodd" clip-rule="evenodd" d="M43.5 31.5C43.5 31.2239 43.7239 31 44 31H46C46.2761 31 46.5 31.2239 46.5 31.5V33.5C46.5 33.7761 46.2761 34 46 34H44C43.7239 34 43.5 33.7761 43.5 33.5V31.5Z" fill="url(#paint11_linear_215_33)" fill-opacity="0.9"/>
<path fill-rule="evenodd" clip-rule="evenodd" d="M38.5 31.5C38.5 31.2239 38.7239 31 39 31H41C41.2761 31 41.5 31.2239 41.5 31.5V33.5C41.5 33.7761 41.2761 34 41 34H39C38.7239 34 38.5 33.7761 38.5 33.5V31.5Z" fill="url(#paint12_linear_215_33)" fill-opacity="0.9"/>
<path fill-rule="evenodd" clip-rule="evenodd" d="M58.5 26.5C58.5 26.2239 58.7239 26 59 26H61C61.2761 26 61.5 26.2239 61.5 26.5V28.5C61.5 28.7761 61.2761 29 61 29H59C58.7239 29 58.5 28.7761 58.5 28.5V26.5Z" fill="url(#paint13_linear_215_33)" fill-opacity="0.9"/>
<path fill-rule="evenodd" clip-rule="evenodd" d="M53.5 26.5C53.5 26.2239 53.7239 26 54 26H56C56.2761 26 56.5 26.2239 56.5 26.5V28.5C56.5 28.7761 56.2761 29 56 29H54C53.7239 29 53.5 28.7761 53.5 28.5V26.5Z" fill="url(#paint14_linear_215_33)" fill-opacity="0.9"/>
<path fill-rule="evenodd" clip-rule="evenodd" d="M48.5 26.5C48.5 26.2239 48.7239 26 49 26H51C51.2761 26 51.5 26.2239 51.5 26.5V28.5C51.5 28.7761 51.2761 29 51 29H49C48.7239 29 48.5 28.7761 48.5 28.5V26.5Z" fill="url(#paint15_linear_215_33)" fill-opacity="0.9"/>
<path fill-rule="evenodd" clip-rule="evenodd" d="M43.5 26.5C43.5 26.2239 43.7239 26 44 26H46C46.2761 26 46.5 26.2239 46.5 26.5V28.5C46.5 28.7761 46.2761 29 46 29H44C43.7239 29 43.5 28.7761 43.5 28.5V26.5Z" fill="url(#paint16_linear_215_33)" fill-opacity="0.9"/>
<path fill-rule="evenodd" clip-rule="evenodd" d="M38.5 26.5C38.5 26.2239 38.7239 26 39 26H41C41.2761 26 41.5 26.2239 41.5 26.5V28.5C41.5 28.7761 41.2761 29 41 29H39C38.7239 29 38.5 28.7761 38.5 28.5V26.5Z" fill="url(#paint17_linear_215_33)" fill-opacity="0.9"/>
<path d="M56 13.4384C56 13.1963 56.4477 13 56.9998 13C57.5523 13 58 13.1963 58 13.4384V17.5615C58 17.8037 57.5523 18 56.9998 18C56.4477 18 56 17.8037 56 17.5615V13.4384Z" fill="#5601FF"/>
<path d="M42 13.4384C42 13.1963 42.4478 13 43.0001 13C43.5522 13 44 13.1963 44 13.4384V17.5615C44 17.8037 43.5522 18 43.0001 18C42.4478 18 42 17.8037 42 17.5615V13.4384Z" fill="#6302FF"/>
<path d="M36.4434 24C36.1985 24 36 23.5523 36 23C36 22.4477 36.1985 22 36.4434 22H63.5566C63.8015 22 64 22.4477 64 23C64 23.5523 63.8015 24 63.5566 24H36.4434Z" fill="#4A01FF"/>
<path d="M37.6442 40.2929C38.1096 40.7653 38.7499 41.0588 39.4522 41.0602L60.6506 41.0956V41.0938C61.3579 41.0938 62.0258 40.7893 62.5157 40.3044C62.9956 39.8292 63.3019 39.1816 63.3019 38.4801V18.6342C63.3019 17.9205 63.0137 17.2712 62.5497 16.8003C62.0857 16.3293 61.446 16.037 60.7427 16.037H39.4522C38.7489 16.037 38.1092 16.3293 37.6451 16.8003C37.1811 17.2712 36.893 17.9205 36.893 18.6342V38.4613C36.893 39.1746 37.1807 39.8226 37.6442 40.2929ZM39.4522 41.963C38.5007 41.961 37.6371 41.5673 37.0129 40.9337C36.3879 40.2994 36 39.4248 36 38.4613V18.6342C36 17.6703 36.3883 16.7943 37.0137 16.1595C37.6392 15.5248 38.5024 15.1308 39.4522 15.1308H60.7427C61.6925 15.1308 62.5556 15.5248 63.1811 16.1595C63.8066 16.7943 64.1949 17.6703 64.1949 18.6342V38.4801C64.1949 39.4355 63.7826 40.3127 63.1365 40.9522C62.4864 41.596 61.5963 42 60.6506 42V41.9982L39.4522 41.963Z" stroke="url(#paint18_linear_215_33)"/>
</g>
<defs>
<linearGradient id="paint0_linear_215_33" x1="43.65" y1="-8.03037e-07" x2="61.6669" y2="56.999" gradientUnits="userSpaceOnUse">
<stop stop-color="white"/>
<stop offset="0.176216" stop-color="#DBDBDB"/>
<stop offset="0.697288" stop-color="#9E9E9E"/>
<stop offset="1" stop-color="#535252"/>
</linearGradient>
<linearGradient id="paint1_linear_215_33" x1="49.5" y1="0" x2="49.5" y2="55" gradientUnits="userSpaceOnUse">
<stop stop-color="#2E13D0"/>
<stop offset="0.604167" stop-color="#784CD6"/>
<stop offset="1" stop-color="#D2C5F8"/>
</linearGradient>
<radialGradient id="paint2_radial_215_33" cx="0" cy="0" r="1" gradientUnits="userSpaceOnUse" gradientTransform="translate(50 32) rotate(-37.9716) scale(52.0096 40.9066)">
<stop stop-color="#9E00FF"/>
<stop offset="0.0474515" stop-color="#5C00FF"/>
<stop offset="0.346863" stop-color="#3900FF"/>
<stop offset="1" stop-color="#0500FF"/>
</radialGradient>
<linearGradient id="paint3_linear_215_33" x1="59.8227" y1="39" x2="61.2926" y2="36.4166" gradientUnits="userSpaceOnUse">
<stop offset="0.176216" stop-color="#DBDBDB"/>
</linearGradient>
<linearGradient id="paint4_linear_215_33" x1="54.8227" y1="39" x2="56.2926" y2="36.4166" gradientUnits="userSpaceOnUse">
<stop offset="0.176216" stop-color="#DBDBDB"/>
</linearGradient>
<linearGradient id="paint5_linear_215_33" x1="49.8227" y1="39" x2="51.2926" y2="36.4166" gradientUnits="userSpaceOnUse">
<stop offset="0.176216" stop-color="#DBDBDB"/>
</linearGradient>
<linearGradient id="paint6_linear_215_33" x1="44.8227" y1="39" x2="46.2926" y2="36.4166" gradientUnits="userSpaceOnUse">
<stop offset="0.176216" stop-color="#DBDBDB"/>
</linearGradient>
<linearGradient id="paint7_linear_215_33" x1="39.8227" y1="39" x2="41.2926" y2="36.4166" gradientUnits="userSpaceOnUse">
<stop offset="0.176216" stop-color="#DBDBDB"/>
</linearGradient>
<linearGradient id="paint8_linear_215_33" x1="59.8227" y1="34" x2="61.2926" y2="31.4166" gradientUnits="userSpaceOnUse">
<stop offset="0.176216" stop-color="#DBDBDB"/>
</linearGradient>
<linearGradient id="paint9_linear_215_33" x1="54.8227" y1="34" x2="56.2926" y2="31.4166" gradientUnits="userSpaceOnUse">
<stop offset="0.176216" stop-color="#DBDBDB"/>
</linearGradient>
<linearGradient id="paint10_linear_215_33" x1="49.8227" y1="34" x2="51.2926" y2="31.4166" gradientUnits="userSpaceOnUse">
<stop offset="0.176216" stop-color="#DBDBDB"/>
</linearGradient>
<linearGradient id="paint11_linear_215_33" x1="44.8227" y1="34" x2="46.2926" y2="31.4166" gradientUnits="userSpaceOnUse">
<stop offset="0.176216" stop-color="#DBDBDB"/>
</linearGradient>
<linearGradient id="paint12_linear_215_33" x1="39.8227" y1="34" x2="41.2926" y2="31.4166" gradientUnits="userSpaceOnUse">
<stop offset="0.176216" stop-color="#DBDBDB"/>
</linearGradient>
<linearGradient id="paint13_linear_215_33" x1="59.8227" y1="29" x2="61.2926" y2="26.4166" gradientUnits="userSpaceOnUse">
<stop offset="0.176216" stop-color="#DBDBDB"/>
</linearGradient>
<linearGradient id="paint14_linear_215_33" x1="54.8227" y1="29" x2="56.2926" y2="26.4166" gradientUnits="userSpaceOnUse">
<stop offset="0.176216" stop-color="#DBDBDB"/>
</linearGradient>
<linearGradient id="paint15_linear_215_33" x1="49.8227" y1="29" x2="51.2926" y2="26.4166" gradientUnits="userSpaceOnUse">
<stop offset="0.176216" stop-color="#DBDBDB"/>
</linearGradient>
<linearGradient id="paint16_linear_215_33" x1="44.8227" y1="29" x2="46.2926" y2="26.4166" gradientUnits="userSpaceOnUse">
<stop offset="0.176216" stop-color="#DBDBDB"/>
</linearGradient>
<linearGradient id="paint17_linear_215_33" x1="39.8227" y1="29" x2="41.2926" y2="26.4166" gradientUnits="userSpaceOnUse">
<stop offset="0.176216" stop-color="#DBDBDB"/>
</linearGradient>
<linearGradient id="paint18_linear_215_33" x1="31" y1="8.5" x2="52.7319" y2="50.8259" gradientUnits="userSpaceOnUse">
<stop stop-color="#9E00FF"/>
<stop offset="0.264193" stop-color="#5C00FF"/>
<stop offset="0.863834" stop-color="#3900FF"/>
<stop offset="1" stop-color="#0500FF"/>
</linearGradient>
</defs>
</svg>
