<svg width="99" height="55" viewBox="0 0 99 55" fill="none" xmlns="http://www.w3.org/2000/svg">
<rect width="99" height="55" rx="27.5" fill="url(#paint0_linear_312_103)" fill-opacity="0.7"/>
<rect x="14" y="3" width="71" height="31" rx="15.5" fill="url(#paint1_linear_312_103)" fill-opacity="0.71"/>
<g style="mix-blend-mode:hard-light">
<rect x="37" y="22.0001" width="26" height="18" fill="url(#paint2_radial_312_103)"/>
<path fill-rule="evenodd" clip-rule="evenodd" d="M58.5 35.5001C58.5 35.2239 58.7239 35.0001 59 35.0001H61C61.2761 35.0001 61.5 35.2239 61.5 35.5001V37.5001C61.5 37.7762 61.2761 38.0001 61 38.0001H59C58.7239 38.0001 58.5 37.7762 58.5 37.5001V35.5001Z" fill="url(#paint3_linear_312_103)" fill-opacity="0.9"/>
<path fill-rule="evenodd" clip-rule="evenodd" d="M53.5 35.5001C53.5 35.2239 53.7239 35.0001 54 35.0001H56C56.2761 35.0001 56.5 35.2239 56.5 35.5001V37.5001C56.5 37.7762 56.2761 38.0001 56 38.0001H54C53.7239 38.0001 53.5 37.7762 53.5 37.5001V35.5001Z" fill="url(#paint4_linear_312_103)" fill-opacity="0.9"/>
<path fill-rule="evenodd" clip-rule="evenodd" d="M48.5 35.5001C48.5 35.2239 48.7239 35.0001 49 35.0001H51C51.2761 35.0001 51.5 35.2239 51.5 35.5001V37.5001C51.5 37.7762 51.2761 38.0001 51 38.0001H49C48.7239 38.0001 48.5 37.7762 48.5 37.5001V35.5001Z" fill="url(#paint5_linear_312_103)" fill-opacity="0.9"/>
<path fill-rule="evenodd" clip-rule="evenodd" d="M43.5 35.5001C43.5 35.2239 43.7239 35.0001 44 35.0001H46C46.2761 35.0001 46.5 35.2239 46.5 35.5001V37.5001C46.5 37.7762 46.2761 38.0001 46 38.0001H44C43.7239 38.0001 43.5 37.7762 43.5 37.5001V35.5001Z" fill="url(#paint6_linear_312_103)" fill-opacity="0.9"/>
<path fill-rule="evenodd" clip-rule="evenodd" d="M38.5 35.5001C38.5 35.2239 38.7239 35.0001 39 35.0001H41C41.2761 35.0001 41.5 35.2239 41.5 35.5001V37.5001C41.5 37.7762 41.2761 38.0001 41 38.0001H39C38.7239 38.0001 38.5 37.7762 38.5 37.5001V35.5001Z" fill="url(#paint7_linear_312_103)" fill-opacity="0.9"/>
<path fill-rule="evenodd" clip-rule="evenodd" d="M58.5 30.5001C58.5 30.2239 58.7239 30.0001 59 30.0001H61C61.2761 30.0001 61.5 30.2239 61.5 30.5001V32.5001C61.5 32.7762 61.2761 33.0001 61 33.0001H59C58.7239 33.0001 58.5 32.7762 58.5 32.5001V30.5001Z" fill="url(#paint8_linear_312_103)" fill-opacity="0.9"/>
<path fill-rule="evenodd" clip-rule="evenodd" d="M53.5 30.5001C53.5 30.2239 53.7239 30.0001 54 30.0001H56C56.2761 30.0001 56.5 30.2239 56.5 30.5001V32.5001C56.5 32.7762 56.2761 33.0001 56 33.0001H54C53.7239 33.0001 53.5 32.7762 53.5 32.5001V30.5001Z" fill="url(#paint9_linear_312_103)" fill-opacity="0.9"/>
<path fill-rule="evenodd" clip-rule="evenodd" d="M48.5 30.5001C48.5 30.2239 48.7239 30.0001 49 30.0001H51C51.2761 30.0001 51.5 30.2239 51.5 30.5001V32.5001C51.5 32.7762 51.2761 33.0001 51 33.0001H49C48.7239 33.0001 48.5 32.7762 48.5 32.5001V30.5001Z" fill="url(#paint10_linear_312_103)" fill-opacity="0.9"/>
<path fill-rule="evenodd" clip-rule="evenodd" d="M43.5 30.5001C43.5 30.2239 43.7239 30.0001 44 30.0001H46C46.2761 30.0001 46.5 30.2239 46.5 30.5001V32.5001C46.5 32.7762 46.2761 33.0001 46 33.0001H44C43.7239 33.0001 43.5 32.7762 43.5 32.5001V30.5001Z" fill="url(#paint11_linear_312_103)" fill-opacity="0.9"/>
<path fill-rule="evenodd" clip-rule="evenodd" d="M38.5 30.5001C38.5 30.2239 38.7239 30.0001 39 30.0001H41C41.2761 30.0001 41.5 30.2239 41.5 30.5001V32.5001C41.5 32.7762 41.2761 33.0001 41 33.0001H39C38.7239 33.0001 38.5 32.7762 38.5 32.5001V30.5001Z" fill="url(#paint12_linear_312_103)" fill-opacity="0.9"/>
<path fill-rule="evenodd" clip-rule="evenodd" d="M58.5 25.5001C58.5 25.2239 58.7239 25.0001 59 25.0001H61C61.2761 25.0001 61.5 25.2239 61.5 25.5001V27.5001C61.5 27.7762 61.2761 28.0001 61 28.0001H59C58.7239 28.0001 58.5 27.7762 58.5 27.5001V25.5001Z" fill="url(#paint13_linear_312_103)" fill-opacity="0.9"/>
<path fill-rule="evenodd" clip-rule="evenodd" d="M53.5 25.5001C53.5 25.2239 53.7239 25.0001 54 25.0001H56C56.2761 25.0001 56.5 25.2239 56.5 25.5001V27.5001C56.5 27.7762 56.2761 28.0001 56 28.0001H54C53.7239 28.0001 53.5 27.7762 53.5 27.5001V25.5001Z" fill="url(#paint14_linear_312_103)" fill-opacity="0.9"/>
<path fill-rule="evenodd" clip-rule="evenodd" d="M48.5 25.5001C48.5 25.2239 48.7239 25.0001 49 25.0001H51C51.2761 25.0001 51.5 25.2239 51.5 25.5001V27.5001C51.5 27.7762 51.2761 28.0001 51 28.0001H49C48.7239 28.0001 48.5 27.7762 48.5 27.5001V25.5001Z" fill="url(#paint15_linear_312_103)" fill-opacity="0.9"/>
<path fill-rule="evenodd" clip-rule="evenodd" d="M43.5 25.5001C43.5 25.2239 43.7239 25.0001 44 25.0001H46C46.2761 25.0001 46.5 25.2239 46.5 25.5001V27.5001C46.5 27.7762 46.2761 28.0001 46 28.0001H44C43.7239 28.0001 43.5 27.7762 43.5 27.5001V25.5001Z" fill="url(#paint16_linear_312_103)" fill-opacity="0.9"/>
<path fill-rule="evenodd" clip-rule="evenodd" d="M38.5 25.5001C38.5 25.2239 38.7239 25.0001 39 25.0001H41C41.2761 25.0001 41.5 25.2239 41.5 25.5001V27.5001C41.5 27.7762 41.2761 28.0001 41 28.0001H39C38.7239 28.0001 38.5 27.7762 38.5 27.5001V25.5001Z" fill="url(#paint17_linear_312_103)" fill-opacity="0.9"/>
<path d="M56 12.4385C56 12.1964 56.4477 12.0001 56.9998 12.0001C57.5523 12.0001 58 12.1964 58 12.4385V16.5616C58 16.8038 57.5523 17.0001 56.9998 17.0001C56.4477 17.0001 56 16.8038 56 16.5616V12.4385Z" fill="#5601FF"/>
<path d="M42 12.4385C42 12.1964 42.4478 12.0001 43.0001 12.0001C43.5522 12.0001 44 12.1964 44 12.4385V16.5616C44 16.8038 43.5522 17.0001 43.0001 17.0001C42.4478 17.0001 42 16.8038 42 16.5616V12.4385Z" fill="#6302FF"/>
<path d="M36.4434 23.0001C36.1985 23.0001 36 22.5523 36 22.0001C36 21.4478 36.1985 21.0001 36.4434 21.0001H63.5566C63.8015 21.0001 64 21.4478 64 22.0001C64 22.5523 63.8015 23.0001 63.5566 23.0001H36.4434Z" fill="#4A01FF"/>
<path d="M37.6442 39.293C38.1096 39.7654 38.7499 40.0588 39.4522 40.0603L60.6506 40.0956V40.0938C61.3579 40.0938 62.0258 39.7894 62.5157 39.3045C62.9956 38.8293 63.3019 38.1817 63.3019 37.4802V17.6343C63.3019 16.9205 63.0137 16.2713 62.5497 15.8004C62.0857 15.3294 61.446 15.0371 60.7427 15.0371H39.4522C38.7489 15.0371 38.1092 15.3294 37.6451 15.8004C37.1811 16.2713 36.893 16.9205 36.893 17.6343V37.4614C36.893 38.1746 37.1807 38.8226 37.6442 39.293ZM39.4522 40.9631C38.5007 40.961 37.6371 40.5674 37.0129 39.9338C36.3879 39.2995 36 38.4249 36 37.4614V17.6343C36 16.6704 36.3883 15.7943 37.0137 15.1596C37.6392 14.5249 38.5024 14.1308 39.4522 14.1308H60.7427C61.6925 14.1308 62.5556 14.5249 63.1811 15.1596C63.8066 15.7943 64.1949 16.6704 64.1949 17.6343V37.4802C64.1949 38.4356 63.7826 39.3127 63.1365 39.9523C62.4864 40.596 61.5963 41.0001 60.6506 41.0001V40.9983L39.4522 40.9631Z" stroke="url(#paint18_linear_312_103)"/>
</g>
<defs>
<linearGradient id="paint0_linear_312_103" x1="49.5" y1="0" x2="49.5" y2="55" gradientUnits="userSpaceOnUse">
<stop stop-color="#BBBBBB" stop-opacity="0.26"/>
<stop offset="0.432292" stop-color="#494949"/>
<stop offset="1" stop-color="#D8D8D8" stop-opacity="0.72"/>
</linearGradient>
<linearGradient id="paint1_linear_312_103" x1="49.5" y1="3" x2="49.5" y2="34" gradientUnits="userSpaceOnUse">
<stop offset="0.119792" stop-color="white"/>
<stop offset="0.53125" stop-color="#D1D1D1" stop-opacity="0.44"/>
<stop offset="1" stop-color="#8E8E8E" stop-opacity="0"/>
</linearGradient>
<radialGradient id="paint2_radial_312_103" cx="0" cy="0" r="1" gradientUnits="userSpaceOnUse" gradientTransform="translate(50 31.0001) rotate(-37.9716) scale(52.0096 40.9066)">
<stop stop-color="#9E00FF"/>
<stop offset="0.0474515" stop-color="#5C00FF"/>
<stop offset="0.346863" stop-color="#3900FF"/>
<stop offset="1" stop-color="#0500FF"/>
</radialGradient>
<linearGradient id="paint3_linear_312_103" x1="59.8227" y1="38.0001" x2="61.2926" y2="35.4167" gradientUnits="userSpaceOnUse">
<stop offset="0.176216" stop-color="#DBDBDB"/>
</linearGradient>
<linearGradient id="paint4_linear_312_103" x1="54.8227" y1="38.0001" x2="56.2926" y2="35.4167" gradientUnits="userSpaceOnUse">
<stop offset="0.176216" stop-color="#DBDBDB"/>
</linearGradient>
<linearGradient id="paint5_linear_312_103" x1="49.8227" y1="38.0001" x2="51.2926" y2="35.4167" gradientUnits="userSpaceOnUse">
<stop offset="0.176216" stop-color="#DBDBDB"/>
</linearGradient>
<linearGradient id="paint6_linear_312_103" x1="44.8227" y1="38.0001" x2="46.2926" y2="35.4167" gradientUnits="userSpaceOnUse">
<stop offset="0.176216" stop-color="#DBDBDB"/>
</linearGradient>
<linearGradient id="paint7_linear_312_103" x1="39.8227" y1="38.0001" x2="41.2926" y2="35.4167" gradientUnits="userSpaceOnUse">
<stop offset="0.176216" stop-color="#DBDBDB"/>
</linearGradient>
<linearGradient id="paint8_linear_312_103" x1="59.8227" y1="33.0001" x2="61.2926" y2="30.4167" gradientUnits="userSpaceOnUse">
<stop offset="0.176216" stop-color="#DBDBDB"/>
</linearGradient>
<linearGradient id="paint9_linear_312_103" x1="54.8227" y1="33.0001" x2="56.2926" y2="30.4167" gradientUnits="userSpaceOnUse">
<stop offset="0.176216" stop-color="#DBDBDB"/>
</linearGradient>
<linearGradient id="paint10_linear_312_103" x1="49.8227" y1="33.0001" x2="51.2926" y2="30.4167" gradientUnits="userSpaceOnUse">
<stop offset="0.176216" stop-color="#DBDBDB"/>
</linearGradient>
<linearGradient id="paint11_linear_312_103" x1="44.8227" y1="33.0001" x2="46.2926" y2="30.4167" gradientUnits="userSpaceOnUse">
<stop offset="0.176216" stop-color="#DBDBDB"/>
</linearGradient>
<linearGradient id="paint12_linear_312_103" x1="39.8227" y1="33.0001" x2="41.2926" y2="30.4167" gradientUnits="userSpaceOnUse">
<stop offset="0.176216" stop-color="#DBDBDB"/>
</linearGradient>
<linearGradient id="paint13_linear_312_103" x1="59.8227" y1="28.0001" x2="61.2926" y2="25.4167" gradientUnits="userSpaceOnUse">
<stop offset="0.176216" stop-color="#DBDBDB"/>
</linearGradient>
<linearGradient id="paint14_linear_312_103" x1="54.8227" y1="28.0001" x2="56.2926" y2="25.4167" gradientUnits="userSpaceOnUse">
<stop offset="0.176216" stop-color="#DBDBDB"/>
</linearGradient>
<linearGradient id="paint15_linear_312_103" x1="49.8227" y1="28.0001" x2="51.2926" y2="25.4167" gradientUnits="userSpaceOnUse">
<stop offset="0.176216" stop-color="#DBDBDB"/>
</linearGradient>
<linearGradient id="paint16_linear_312_103" x1="44.8227" y1="28.0001" x2="46.2926" y2="25.4167" gradientUnits="userSpaceOnUse">
<stop offset="0.176216" stop-color="#DBDBDB"/>
</linearGradient>
<linearGradient id="paint17_linear_312_103" x1="39.8227" y1="28.0001" x2="41.2926" y2="25.4167" gradientUnits="userSpaceOnUse">
<stop offset="0.176216" stop-color="#DBDBDB"/>
</linearGradient>
<linearGradient id="paint18_linear_312_103" x1="31" y1="7.50008" x2="52.7319" y2="49.8259" gradientUnits="userSpaceOnUse">
<stop stop-color="#9E00FF"/>
<stop offset="0.264193" stop-color="#5C00FF"/>
<stop offset="0.863834" stop-color="#3900FF"/>
<stop offset="1" stop-color="#0500FF"/>
</linearGradient>
</defs>
</svg>
