<svg width="99" height="55" viewBox="0 0 99 55" fill="none" xmlns="http://www.w3.org/2000/svg">
<rect width="99" height="55" rx="27.5" fill="url(#paint0_linear_192_8)" fill-opacity="0.9"/>
<rect x="1" y="1" width="97" height="53" rx="26.5" stroke="url(#paint1_linear_192_8)" stroke-opacity="0.85" stroke-width="2"/>
<g style="mix-blend-mode:hard-light">
<rect x="37" y="23" width="26" height="18" fill="url(#paint2_linear_192_8)" fill-opacity="0.85"/>
<path fill-rule="evenodd" clip-rule="evenodd" d="M58.5 36.5C58.5 36.2239 58.7239 36 59 36H61C61.2761 36 61.5 36.2239 61.5 36.5V38.5C61.5 38.7761 61.2761 39 61 39H59C58.7239 39 58.5 38.7761 58.5 38.5V36.5Z" fill="url(#paint3_linear_192_8)" fill-opacity="0.9"/>
<path fill-rule="evenodd" clip-rule="evenodd" d="M53.5 36.5C53.5 36.2239 53.7239 36 54 36H56C56.2761 36 56.5 36.2239 56.5 36.5V38.5C56.5 38.7761 56.2761 39 56 39H54C53.7239 39 53.5 38.7761 53.5 38.5V36.5Z" fill="url(#paint4_linear_192_8)" fill-opacity="0.9"/>
<path fill-rule="evenodd" clip-rule="evenodd" d="M48.5 36.5C48.5 36.2239 48.7239 36 49 36H51C51.2761 36 51.5 36.2239 51.5 36.5V38.5C51.5 38.7761 51.2761 39 51 39H49C48.7239 39 48.5 38.7761 48.5 38.5V36.5Z" fill="url(#paint5_linear_192_8)" fill-opacity="0.9"/>
<path fill-rule="evenodd" clip-rule="evenodd" d="M43.5 36.5C43.5 36.2239 43.7239 36 44 36H46C46.2761 36 46.5 36.2239 46.5 36.5V38.5C46.5 38.7761 46.2761 39 46 39H44C43.7239 39 43.5 38.7761 43.5 38.5V36.5Z" fill="url(#paint6_linear_192_8)" fill-opacity="0.9"/>
<path fill-rule="evenodd" clip-rule="evenodd" d="M38.5 36.5C38.5 36.2239 38.7239 36 39 36H41C41.2761 36 41.5 36.2239 41.5 36.5V38.5C41.5 38.7761 41.2761 39 41 39H39C38.7239 39 38.5 38.7761 38.5 38.5V36.5Z" fill="url(#paint7_linear_192_8)" fill-opacity="0.9"/>
<path fill-rule="evenodd" clip-rule="evenodd" d="M58.5 31.5C58.5 31.2239 58.7239 31 59 31H61C61.2761 31 61.5 31.2239 61.5 31.5V33.5C61.5 33.7761 61.2761 34 61 34H59C58.7239 34 58.5 33.7761 58.5 33.5V31.5Z" fill="url(#paint8_linear_192_8)" fill-opacity="0.9"/>
<path fill-rule="evenodd" clip-rule="evenodd" d="M53.5 31.5C53.5 31.2239 53.7239 31 54 31H56C56.2761 31 56.5 31.2239 56.5 31.5V33.5C56.5 33.7761 56.2761 34 56 34H54C53.7239 34 53.5 33.7761 53.5 33.5V31.5Z" fill="url(#paint9_linear_192_8)" fill-opacity="0.9"/>
<path fill-rule="evenodd" clip-rule="evenodd" d="M48.5 31.5C48.5 31.2239 48.7239 31 49 31H51C51.2761 31 51.5 31.2239 51.5 31.5V33.5C51.5 33.7761 51.2761 34 51 34H49C48.7239 34 48.5 33.7761 48.5 33.5V31.5Z" fill="url(#paint10_linear_192_8)" fill-opacity="0.9"/>
<path fill-rule="evenodd" clip-rule="evenodd" d="M43.5 31.5C43.5 31.2239 43.7239 31 44 31H46C46.2761 31 46.5 31.2239 46.5 31.5V33.5C46.5 33.7761 46.2761 34 46 34H44C43.7239 34 43.5 33.7761 43.5 33.5V31.5Z" fill="url(#paint11_linear_192_8)" fill-opacity="0.9"/>
<path fill-rule="evenodd" clip-rule="evenodd" d="M38.5 31.5C38.5 31.2239 38.7239 31 39 31H41C41.2761 31 41.5 31.2239 41.5 31.5V33.5C41.5 33.7761 41.2761 34 41 34H39C38.7239 34 38.5 33.7761 38.5 33.5V31.5Z" fill="url(#paint12_linear_192_8)" fill-opacity="0.9"/>
<path fill-rule="evenodd" clip-rule="evenodd" d="M58.5 26.5C58.5 26.2239 58.7239 26 59 26H61C61.2761 26 61.5 26.2239 61.5 26.5V28.5C61.5 28.7761 61.2761 29 61 29H59C58.7239 29 58.5 28.7761 58.5 28.5V26.5Z" fill="url(#paint13_linear_192_8)" fill-opacity="0.9"/>
<path fill-rule="evenodd" clip-rule="evenodd" d="M53.5 26.5C53.5 26.2239 53.7239 26 54 26H56C56.2761 26 56.5 26.2239 56.5 26.5V28.5C56.5 28.7761 56.2761 29 56 29H54C53.7239 29 53.5 28.7761 53.5 28.5V26.5Z" fill="url(#paint14_linear_192_8)" fill-opacity="0.9"/>
<path fill-rule="evenodd" clip-rule="evenodd" d="M48.5 26.5C48.5 26.2239 48.7239 26 49 26H51C51.2761 26 51.5 26.2239 51.5 26.5V28.5C51.5 28.7761 51.2761 29 51 29H49C48.7239 29 48.5 28.7761 48.5 28.5V26.5Z" fill="url(#paint15_linear_192_8)" fill-opacity="0.9"/>
<path fill-rule="evenodd" clip-rule="evenodd" d="M43.5 26.5C43.5 26.2239 43.7239 26 44 26H46C46.2761 26 46.5 26.2239 46.5 26.5V28.5C46.5 28.7761 46.2761 29 46 29H44C43.7239 29 43.5 28.7761 43.5 28.5V26.5Z" fill="url(#paint16_linear_192_8)" fill-opacity="0.9"/>
<path fill-rule="evenodd" clip-rule="evenodd" d="M38.5 26.5C38.5 26.2239 38.7239 26 39 26H41C41.2761 26 41.5 26.2239 41.5 26.5V28.5C41.5 28.7761 41.2761 29 41 29H39C38.7239 29 38.5 28.7761 38.5 28.5V26.5Z" fill="url(#paint17_linear_192_8)" fill-opacity="0.9"/>
<path d="M56 13.4384C56 13.1963 56.4477 13 56.9998 13C57.5523 13 58 13.1963 58 13.4384V17.5615C58 17.8037 57.5523 18 56.9998 18C56.4477 18 56 17.8037 56 17.5615V13.4384Z" fill="url(#paint18_linear_192_8)" fill-opacity="0.85"/>
<path d="M55.5 13.4384C55.5 13.2128 55.6064 13.0371 55.7188 12.9206C55.8288 12.8066 55.9639 12.7267 56.0921 12.6705C56.35 12.5574 56.6714 12.5 56.9998 12.5C57.3284 12.5 57.6498 12.5574 57.9078 12.6705C58.0361 12.7267 58.1712 12.8066 58.2812 12.9206C58.3936 13.037 58.5 13.2128 58.5 13.4384V17.5615C58.5 17.7871 58.3936 17.9629 58.2813 18.0793C58.1712 18.1934 58.0361 18.2733 57.9078 18.3295C57.6498 18.4426 57.3284 18.5 56.9998 18.5C56.6714 18.5 56.35 18.4426 56.0921 18.3295C55.9638 18.2733 55.8287 18.1934 55.7187 18.0793C55.6064 17.9628 55.5 17.7871 55.5 17.5615V13.4384Z" stroke="url(#paint19_linear_192_8)" stroke-opacity="0.85"/>
<path d="M42 13.4384C42 13.1963 42.4478 13 43.0001 13C43.5522 13 44 13.1963 44 13.4384V17.5615C44 17.8037 43.5522 18 43.0001 18C42.4478 18 42 17.8037 42 17.5615V13.4384Z" fill="url(#paint20_linear_192_8)" fill-opacity="0.85"/>
<path d="M41.5 13.4384C41.5 13.2128 41.6064 13.037 41.7188 12.9206C41.8288 12.8066 41.9639 12.7267 42.0922 12.6705C42.3501 12.5574 42.6715 12.5 43.0001 12.5C43.3286 12.5 43.6499 12.5574 43.9079 12.6705C44.0361 12.7267 44.1712 12.8066 44.2812 12.9206C44.3936 13.037 44.5 13.2128 44.5 13.4384V17.5615C44.5 17.7871 44.3936 17.9629 44.2813 18.0793C44.1713 18.1934 44.0361 18.2733 43.9079 18.3295C43.6499 18.4426 43.3286 18.5 43.0001 18.5C42.6715 18.5 42.3501 18.4426 42.0922 18.3295C41.9639 18.2733 41.8288 18.1934 41.7187 18.0793C41.6064 17.9629 41.5 17.7871 41.5 17.5615V13.4384Z" stroke="url(#paint21_linear_192_8)" stroke-opacity="0.85"/>
<path d="M36.4434 24C36.1985 24 36 23.5523 36 23C36 22.4477 36.1985 22 36.4434 22H63.5566C63.8015 22 64 22.4477 64 23C64 23.5523 63.8015 24 63.5566 24H36.4434Z" fill="url(#paint22_linear_192_8)" fill-opacity="0.85"/>
<path d="M36.4434 24.5C36.2191 24.5 36.0433 24.3954 35.9257 24.2832C35.8107 24.1735 35.7298 24.0384 35.6728 23.9098C35.5582 23.6513 35.5 23.3292 35.5 23C35.5 22.6708 35.5582 22.3487 35.6728 22.0902C35.7298 21.9616 35.8107 21.8265 35.9257 21.7168C36.0433 21.6046 36.2191 21.5 36.4434 21.5H63.5566C63.7809 21.5 63.9567 21.6046 64.0743 21.7168C64.1893 21.8265 64.2702 21.9616 64.3272 22.0902C64.4418 22.3487 64.5 22.6708 64.5 23C64.5 23.3292 64.4418 23.6513 64.3272 23.9098C64.2702 24.0384 64.1893 24.1735 64.0743 24.2832C63.9567 24.3954 63.7809 24.5 63.5566 24.5H36.4434Z" stroke="url(#paint23_linear_192_8)" stroke-opacity="0.85"/>
<path d="M37.6442 40.2929C38.1096 40.7653 38.7499 41.0588 39.4522 41.0602L60.6506 41.0956V41.0938C61.3579 41.0938 62.0258 40.7893 62.5157 40.3044C62.9956 39.8292 63.3019 39.1816 63.3019 38.4801V18.6342C63.3019 17.9205 63.0137 17.2712 62.5497 16.8003C62.0857 16.3293 61.446 16.037 60.7427 16.037H39.4522C38.7489 16.037 38.1092 16.3293 37.6451 16.8003C37.1811 17.2712 36.893 17.9205 36.893 18.6342V38.4613C36.893 39.1746 37.1807 39.8226 37.6442 40.2929ZM39.4522 41.963C38.5007 41.961 37.6371 41.5673 37.0129 40.9337C36.3879 40.2994 36 39.4248 36 38.4613V18.6342C36 17.6703 36.3883 16.7943 37.0137 16.1595C37.6392 15.5248 38.5024 15.1308 39.4522 15.1308H60.7427C61.6925 15.1308 62.5556 15.5248 63.1811 16.1595C63.8066 16.7943 64.1949 17.6703 64.1949 18.6342V38.4801C64.1949 39.4355 63.7826 40.3127 63.1365 40.9522C62.4864 41.596 61.5963 42 60.6506 42V41.9982L39.4522 41.963Z" stroke="url(#paint24_linear_192_8)" stroke-opacity="0.85"/>
</g>
<defs>
<linearGradient id="paint0_linear_192_8" x1="46.75" y1="-5" x2="71.0629" y2="56.203" gradientUnits="userSpaceOnUse">
<stop offset="0.0104696" stop-color="#5F5E5E"/>
<stop offset="0.267233" stop-color="#959595"/>
<stop offset="0.624561" stop-color="#D7D7D7"/>
<stop offset="0.959766" stop-color="white"/>
</linearGradient>
<linearGradient id="paint1_linear_192_8" x1="49.5" y1="0" x2="49.5" y2="55" gradientUnits="userSpaceOnUse">
<stop stop-color="#F9BE79"/>
<stop offset="0.427083" stop-color="#FE5B00"/>
<stop offset="0.890625" stop-color="#D04013"/>
</linearGradient>
<linearGradient id="paint2_linear_192_8" x1="50" y1="23" x2="50" y2="41" gradientUnits="userSpaceOnUse">
<stop offset="0.427083" stop-color="#FE5B00"/>
<stop offset="0.890625" stop-color="#D04013"/>
</linearGradient>
<linearGradient id="paint3_linear_192_8" x1="59.8227" y1="39" x2="61.2926" y2="36.4166" gradientUnits="userSpaceOnUse">
<stop offset="0.176216" stop-color="#DBDBDB"/>
</linearGradient>
<linearGradient id="paint4_linear_192_8" x1="54.8227" y1="39" x2="56.2926" y2="36.4166" gradientUnits="userSpaceOnUse">
<stop offset="0.176216" stop-color="#DBDBDB"/>
</linearGradient>
<linearGradient id="paint5_linear_192_8" x1="49.8227" y1="39" x2="51.2926" y2="36.4166" gradientUnits="userSpaceOnUse">
<stop offset="0.176216" stop-color="#DBDBDB"/>
</linearGradient>
<linearGradient id="paint6_linear_192_8" x1="44.8227" y1="39" x2="46.2926" y2="36.4166" gradientUnits="userSpaceOnUse">
<stop offset="0.176216" stop-color="#DBDBDB"/>
</linearGradient>
<linearGradient id="paint7_linear_192_8" x1="39.8227" y1="39" x2="41.2926" y2="36.4166" gradientUnits="userSpaceOnUse">
<stop offset="0.176216" stop-color="#DBDBDB"/>
</linearGradient>
<linearGradient id="paint8_linear_192_8" x1="59.8227" y1="34" x2="61.2926" y2="31.4166" gradientUnits="userSpaceOnUse">
<stop offset="0.176216" stop-color="#DBDBDB"/>
</linearGradient>
<linearGradient id="paint9_linear_192_8" x1="54.8227" y1="34" x2="56.2926" y2="31.4166" gradientUnits="userSpaceOnUse">
<stop offset="0.176216" stop-color="#DBDBDB"/>
</linearGradient>
<linearGradient id="paint10_linear_192_8" x1="49.8227" y1="34" x2="51.2926" y2="31.4166" gradientUnits="userSpaceOnUse">
<stop offset="0.176216" stop-color="#DBDBDB"/>
</linearGradient>
<linearGradient id="paint11_linear_192_8" x1="44.8227" y1="34" x2="46.2926" y2="31.4166" gradientUnits="userSpaceOnUse">
<stop offset="0.176216" stop-color="#DBDBDB"/>
</linearGradient>
<linearGradient id="paint12_linear_192_8" x1="39.8227" y1="34" x2="41.2926" y2="31.4166" gradientUnits="userSpaceOnUse">
<stop offset="0.176216" stop-color="#DBDBDB"/>
</linearGradient>
<linearGradient id="paint13_linear_192_8" x1="59.8227" y1="29" x2="61.2926" y2="26.4166" gradientUnits="userSpaceOnUse">
<stop offset="0.176216" stop-color="#DBDBDB"/>
</linearGradient>
<linearGradient id="paint14_linear_192_8" x1="54.8227" y1="29" x2="56.2926" y2="26.4166" gradientUnits="userSpaceOnUse">
<stop offset="0.176216" stop-color="#DBDBDB"/>
</linearGradient>
<linearGradient id="paint15_linear_192_8" x1="49.8227" y1="29" x2="51.2926" y2="26.4166" gradientUnits="userSpaceOnUse">
<stop offset="0.176216" stop-color="#DBDBDB"/>
</linearGradient>
<linearGradient id="paint16_linear_192_8" x1="44.8227" y1="29" x2="46.2926" y2="26.4166" gradientUnits="userSpaceOnUse">
<stop offset="0.176216" stop-color="#DBDBDB"/>
</linearGradient>
<linearGradient id="paint17_linear_192_8" x1="39.8227" y1="29" x2="41.2926" y2="26.4166" gradientUnits="userSpaceOnUse">
<stop offset="0.176216" stop-color="#DBDBDB"/>
</linearGradient>
<linearGradient id="paint18_linear_192_8" x1="57" y1="18" x2="57" y2="13" gradientUnits="userSpaceOnUse">
<stop offset="0.427083" stop-color="#FE5B00"/>
<stop offset="0.890625" stop-color="#D04013"/>
</linearGradient>
<linearGradient id="paint19_linear_192_8" x1="57" y1="18" x2="57" y2="13" gradientUnits="userSpaceOnUse">
<stop offset="0.427083" stop-color="#FE5B00"/>
<stop offset="0.890625" stop-color="#D04013"/>
</linearGradient>
<linearGradient id="paint20_linear_192_8" x1="43" y1="18" x2="43" y2="13" gradientUnits="userSpaceOnUse">
<stop offset="0.427083" stop-color="#FE5B00"/>
<stop offset="0.890625" stop-color="#D04013"/>
</linearGradient>
<linearGradient id="paint21_linear_192_8" x1="43" y1="18" x2="43" y2="13" gradientUnits="userSpaceOnUse">
<stop offset="0.427083" stop-color="#FE5B00"/>
<stop offset="0.890625" stop-color="#D04013"/>
</linearGradient>
<linearGradient id="paint22_linear_192_8" x1="50" y1="24" x2="50" y2="22" gradientUnits="userSpaceOnUse">
<stop stop-color="#F9BE79"/>
<stop offset="0.427083" stop-color="#FE5B00"/>
<stop offset="0.890625" stop-color="#D04013"/>
</linearGradient>
<linearGradient id="paint23_linear_192_8" x1="50" y1="24" x2="50" y2="22" gradientUnits="userSpaceOnUse">
<stop offset="0.427083" stop-color="#FE5B00"/>
<stop offset="0.890625" stop-color="#D04013"/>
</linearGradient>
<linearGradient id="paint24_linear_192_8" x1="50.0974" y1="42" x2="50.0974" y2="15.1308" gradientUnits="userSpaceOnUse">
<stop stop-color="#7A4200"/>
<stop offset="0.416667" stop-color="#F45800"/>
<stop offset="0.760417" stop-color="#C64700"/>
</linearGradient>
</defs>
</svg>
