<svg width="70" height="45" viewBox="0 0 70 45" fill="none" xmlns="http://www.w3.org/2000/svg">
<rect width="70" height="45" rx="22.5" fill="url(#paint0_linear_126_134)" fill-opacity="0.9"/>
<rect x="1" y="1" width="68" height="43" rx="21.5" stroke="url(#paint1_linear_126_134)" stroke-opacity="0.7" stroke-width="2"/>
<path d="M28.0322 17.5049C28.0322 17.8102 27.9935 18.0859 27.916 18.332C27.8385 18.5736 27.736 18.7878 27.6084 18.9746C27.4808 19.1569 27.3327 19.3141 27.1641 19.4463C26.9954 19.5739 26.8177 19.6787 26.6309 19.7607C26.4486 19.8428 26.2617 19.9043 26.0703 19.9453C25.8835 19.9818 25.7057 20 25.5371 20H20.7246V18.2227H25.5234C25.765 18.2227 25.9473 18.1611 26.0703 18.0381C26.1934 17.915 26.2549 17.7373 26.2549 17.5049C26.2321 17.0309 25.9928 16.7939 25.5371 16.7939H22.7822C22.3903 16.7939 22.0576 16.7256 21.7842 16.5889C21.5107 16.4521 21.2874 16.2812 21.1143 16.0762C20.9456 15.8711 20.8226 15.6501 20.7451 15.4131C20.6722 15.1761 20.6357 14.9551 20.6357 14.75C20.6357 14.3535 20.7064 14.0208 20.8477 13.752C20.9889 13.4785 21.1667 13.2575 21.3809 13.0889C21.5951 12.9202 21.8275 12.7995 22.0781 12.7266C22.3288 12.6491 22.5635 12.6104 22.7822 12.6104H27.1504V14.3877H22.7959C22.7048 14.3877 22.6318 14.3991 22.5771 14.4219C22.527 14.4401 22.4883 14.4674 22.4609 14.5039C22.4382 14.5358 22.4245 14.5723 22.4199 14.6133C22.4154 14.6497 22.4131 14.6862 22.4131 14.7227C22.4176 14.7956 22.4313 14.8525 22.4541 14.8936C22.4769 14.9346 22.5042 14.9642 22.5361 14.9824C22.5726 15.0007 22.6113 15.012 22.6523 15.0166C22.6979 15.0166 22.7412 15.0166 22.7822 15.0166H25.5371C25.9928 15.0166 26.3802 15.0986 26.6992 15.2627C27.0182 15.4268 27.2757 15.6341 27.4717 15.8848C27.6676 16.1309 27.8089 16.3997 27.8955 16.6914C27.9867 16.9831 28.0322 17.2542 28.0322 17.5049ZM37.3633 19.1045C37.3633 19.2321 37.3405 19.3506 37.2949 19.46C37.2493 19.5693 37.1855 19.665 37.1035 19.7471C37.026 19.8245 36.9326 19.8861 36.8232 19.9316C36.7184 19.9772 36.6045 20 36.4814 20H32.4619C32.2432 20 32.0085 19.9749 31.7578 19.9248C31.5117 19.8747 31.2679 19.7949 31.0264 19.6855C30.7848 19.5716 30.5501 19.4303 30.3223 19.2617C30.099 19.0885 29.903 18.8812 29.7344 18.6396C29.5658 18.3936 29.429 18.111 29.3242 17.792C29.224 17.473 29.1738 17.113 29.1738 16.7119V12.6104H30.9512V16.7119C30.9512 16.9443 30.9899 17.154 31.0674 17.3408C31.1494 17.5231 31.2588 17.6803 31.3955 17.8125C31.5322 17.9447 31.6917 18.0472 31.874 18.1201C32.0609 18.1885 32.2614 18.2227 32.4756 18.2227H35.5859V12.6104H37.3633V19.1045ZM47.2207 20H45.4434V15.8984C45.4434 15.666 45.4023 15.4587 45.3203 15.2764C45.2428 15.0895 45.1357 14.93 44.999 14.7979C44.8623 14.6657 44.7005 14.5654 44.5137 14.4971C44.3314 14.4242 44.1331 14.3877 43.9189 14.3877H40.8086V20H39.0312V13.4922C39.0312 13.3691 39.054 13.2552 39.0996 13.1504C39.1452 13.041 39.209 12.9476 39.291 12.8701C39.373 12.7881 39.4688 12.7243 39.5781 12.6787C39.6875 12.6331 39.8037 12.6104 39.9268 12.6104H43.9326C44.1559 12.6104 44.3906 12.6354 44.6367 12.6855C44.8874 12.7357 45.1335 12.8177 45.375 12.9316C45.6211 13.041 45.8535 13.1823 46.0723 13.3555C46.2956 13.5241 46.4915 13.7314 46.6602 13.9775C46.8333 14.2191 46.9701 14.4993 47.0703 14.8184C47.1706 15.1374 47.2207 15.4974 47.2207 15.8984V20Z" fill="url(#paint2_linear_126_134)"/>
<path d="M23.793 27.2812V26.8242C23.793 26.7305 23.8034 26.6302 23.8242 26.5234C23.8477 26.4141 23.8828 26.3073 23.9297 26.2031C23.9766 26.0964 24.0378 25.9948 24.1133 25.8984C24.1888 25.8021 24.2786 25.7174 24.3828 25.6445C24.4896 25.569 24.612 25.5091 24.75 25.4648C24.888 25.4206 25.0443 25.3984 25.2188 25.3984H27.0508C27.1758 25.3984 27.3099 25.4128 27.4531 25.4414C27.5964 25.4701 27.737 25.5169 27.875 25.582C28.0156 25.6445 28.1497 25.7253 28.2773 25.8242C28.4049 25.9232 28.5169 26.043 28.6133 26.1836C28.7122 26.3216 28.7904 26.4818 28.8477 26.6641C28.9076 26.8464 28.9375 27.0521 28.9375 27.2812V29.1211C28.9375 29.3503 28.9076 29.556 28.8477 29.7383C28.7904 29.9206 28.7122 30.082 28.6133 30.2227C28.5169 30.3607 28.4049 30.4792 28.2773 30.5781C28.1497 30.6745 28.0156 30.7552 27.875 30.8203C27.737 30.8828 27.5964 30.9284 27.4531 30.957C27.3099 30.9857 27.1758 31 27.0508 31H24.5156V29.9844H27.0508C27.1784 29.974 27.2943 29.9479 27.3984 29.9062C27.5052 29.8646 27.5964 29.8086 27.6719 29.7383C27.75 29.6654 27.8099 29.5781 27.8516 29.4766C27.8932 29.3724 27.9141 29.2539 27.9141 29.1211V28.7109H25.2188C25.1224 28.7109 25.0208 28.7005 24.9141 28.6797C24.8073 28.6562 24.7005 28.6211 24.5938 28.5742C24.4896 28.5247 24.3893 28.4635 24.293 28.3906C24.1966 28.3151 24.1107 28.224 24.0352 28.1172C23.9622 28.0104 23.9036 27.888 23.8594 27.75C23.8151 27.612 23.793 27.4557 23.793 27.2812ZM27.9141 27.2812C27.9141 27.1484 27.8919 27.0286 27.8477 26.9219C27.8034 26.8151 27.7422 26.724 27.6641 26.6484C27.5885 26.5729 27.4974 26.5156 27.3906 26.4766C27.2865 26.4349 27.1732 26.4141 27.0508 26.4141H25.2188C25.0938 26.4141 24.9935 26.4531 24.918 26.5312C24.8451 26.6094 24.8086 26.707 24.8086 26.8242V27.2812C24.8086 27.4141 24.8438 27.5156 24.9141 27.5859C24.9844 27.6536 25.0885 27.6875 25.2266 27.6875H27.9141V27.2812ZM30.6992 30.4883C30.6992 30.5586 30.6849 30.625 30.6562 30.6875C30.6302 30.7474 30.5938 30.8008 30.5469 30.8477C30.5026 30.8919 30.4492 30.9271 30.3867 30.9531C30.3268 30.9792 30.263 30.9922 30.1953 30.9922C30.125 30.9922 30.0586 30.9792 29.9961 30.9531C29.9362 30.9271 29.8828 30.8919 29.8359 30.8477C29.7917 30.8008 29.7565 30.7474 29.7305 30.6875C29.7044 30.625 29.6914 30.5586 29.6914 30.4883C29.6914 30.4206 29.7044 30.3568 29.7305 30.2969C29.7565 30.2344 29.7917 30.181 29.8359 30.1367C29.8828 30.0898 29.9362 30.0534 29.9961 30.0273C30.0586 29.9987 30.125 29.9844 30.1953 29.9844C30.263 29.9844 30.3268 29.9987 30.3867 30.0273C30.4492 30.0534 30.5026 30.0898 30.5469 30.1367C30.5938 30.181 30.6302 30.2344 30.6562 30.2969C30.6849 30.3568 30.6992 30.4206 30.6992 30.4883ZM37.9102 28.6562C37.9102 28.8854 37.8802 29.1029 37.8203 29.3086C37.763 29.5117 37.681 29.7005 37.5742 29.875C37.4674 30.0495 37.3411 30.2057 37.1953 30.3438C37.0495 30.4818 36.8893 30.6003 36.7148 30.6992C36.543 30.7956 36.3594 30.8698 36.1641 30.9219C35.9688 30.974 35.7695 31 35.5664 31H33.7344C33.5286 31 33.3281 30.974 33.1328 30.9219C32.9375 30.8698 32.7526 30.7956 32.5781 30.6992C32.4062 30.6003 32.2474 30.4818 32.1016 30.3438C31.9557 30.2057 31.8294 30.0495 31.7227 29.875C31.6185 29.7005 31.5365 29.5117 31.4766 29.3086C31.4193 29.1029 31.3906 28.8854 31.3906 28.6562V27.7422C31.3906 27.3984 31.4544 27.0833 31.582 26.7969C31.7122 26.5104 31.8854 26.2643 32.1016 26.0586C32.3177 25.8503 32.5664 25.6888 32.8477 25.5742C33.1315 25.457 33.4271 25.3984 33.7344 25.3984H35.5664C35.7695 25.3984 35.9688 25.4245 36.1641 25.4766C36.3594 25.5286 36.543 25.6042 36.7148 25.7031C36.8893 25.7995 37.0495 25.9167 37.1953 26.0547C37.3411 26.1927 37.4674 26.349 37.5742 26.5234C37.681 26.6979 37.763 26.888 37.8203 27.0938C37.8802 27.2969 37.9102 27.513 37.9102 27.7422V28.6562ZM36.8867 27.7422C36.8867 27.5417 36.8503 27.3594 36.7773 27.1953C36.7044 27.0312 36.6068 26.8906 36.4844 26.7734C36.3646 26.6562 36.2253 26.5664 36.0664 26.5039C35.9076 26.4414 35.7409 26.4115 35.5664 26.4141H33.7344C33.5651 26.4115 33.3997 26.4414 33.2383 26.5039C33.0794 26.5638 32.9375 26.6523 32.8125 26.7695C32.6901 26.8841 32.5911 27.0247 32.5156 27.1914C32.4427 27.3555 32.4062 27.5391 32.4062 27.7422V28.6562C32.4062 28.8594 32.4427 29.043 32.5156 29.207C32.5885 29.3711 32.6862 29.5117 32.8086 29.6289C32.931 29.7435 33.0716 29.832 33.2305 29.8945C33.3919 29.957 33.5599 29.987 33.7344 29.9844H35.5664C35.7669 29.9844 35.9479 29.9518 36.1094 29.8867C36.2734 29.819 36.4128 29.7266 36.5273 29.6094C36.6419 29.4922 36.7305 29.3529 36.793 29.1914C36.8555 29.0273 36.8867 28.849 36.8867 28.6562V27.7422ZM36.4453 27C36.4844 27.0573 36.5104 27.1198 36.5234 27.1875C36.5365 27.2526 36.5365 27.3177 36.5234 27.3828C36.5104 27.4453 36.4844 27.5052 36.4453 27.5625C36.4089 27.6172 36.3607 27.6641 36.3008 27.7031L33.5586 29.5352C33.5143 29.569 33.4688 29.5924 33.4219 29.6055C33.375 29.6185 33.3268 29.625 33.2773 29.625C33.194 29.625 33.1146 29.6055 33.0391 29.5664C32.9635 29.5273 32.9023 29.4714 32.8555 29.3984C32.8164 29.3411 32.7904 29.2799 32.7773 29.2148C32.7643 29.1471 32.763 29.082 32.7734 29.0195C32.7865 28.9544 32.8112 28.8945 32.8477 28.8398C32.8841 28.7826 32.9323 28.7344 32.9922 28.6953L35.7422 26.8633C35.7995 26.8242 35.8607 26.7982 35.9258 26.7852C35.9935 26.7721 36.0586 26.7721 36.1211 26.7852C36.1862 26.7982 36.2461 26.8229 36.3008 26.8594C36.3581 26.8958 36.4062 26.9427 36.4453 27ZM43.918 31H42.8945V28.7109H39.2852C39.2122 28.7109 39.1445 28.6979 39.082 28.6719C39.0195 28.6432 38.9648 28.6068 38.918 28.5625C38.8737 28.5156 38.8385 28.4609 38.8125 28.3984C38.7865 28.3359 38.7734 28.2695 38.7734 28.1992V25.3984H39.7891V27.6875H42.8945V25.3984H43.918V31Z" fill="url(#paint3_linear_126_134)"/>
<defs>
<linearGradient id="paint0_linear_126_134" x1="35" y1="0" x2="35" y2="45" gradientUnits="userSpaceOnUse">
<stop stop-color="white"/>
<stop offset="0.739583" stop-color="#9E9E9E"/>
<stop offset="1" stop-color="#4F4F4F"/>
</linearGradient>
<linearGradient id="paint1_linear_126_134" x1="35" y1="0" x2="35" y2="45" gradientUnits="userSpaceOnUse">
<stop stop-color="#2E13D0"/>
<stop offset="0.604167" stop-color="#784CD6"/>
<stop offset="1" stop-color="#D2C5F8"/>
</linearGradient>
<linearGradient id="paint2_linear_126_134" x1="27.0522" y1="12" x2="38.6359" y2="23.663" gradientUnits="userSpaceOnUse">
<stop stop-color="#9E00FF"/>
<stop offset="1" stop-color="#0500FF"/>
</linearGradient>
<linearGradient id="paint3_linear_126_134" x1="28.541" y1="26.75" x2="34.9964" y2="35.5045" gradientUnits="userSpaceOnUse">
<stop stop-color="#9E00FF"/>
<stop offset="1" stop-color="#0500FF"/>
</linearGradient>
</defs>
</svg>
