<svg width="70" height="45" viewBox="0 0 70 45" fill="none" xmlns="http://www.w3.org/2000/svg">
<rect width="70" height="45" rx="22.5" fill="url(#paint0_linear_119_194)" fill-opacity="0.9"/>
<rect x="1" y="1" width="68" height="43" rx="21.5" stroke="url(#paint1_linear_119_194)" stroke-opacity="0.85" stroke-width="2"/>
<path d="M27.1797 18.1484C27.1797 18.4974 27.1354 18.8125 27.0469 19.0938C26.9583 19.3698 26.8411 19.6146 26.6953 19.8281C26.5495 20.0365 26.3802 20.2161 26.1875 20.3672C25.9948 20.513 25.7917 20.6328 25.5781 20.7266C25.3698 20.8203 25.1562 20.8906 24.9375 20.9375C24.724 20.9792 24.5208 21 24.3281 21H18.8281V18.9688H24.3125C24.5885 18.9688 24.7969 18.8984 24.9375 18.7578C25.0781 18.6172 25.1484 18.4141 25.1484 18.1484C25.1224 17.6068 24.849 17.3359 24.3281 17.3359H21.1797C20.7318 17.3359 20.3516 17.2578 20.0391 17.1016C19.7266 16.9453 19.4714 16.75 19.2734 16.5156C19.0807 16.2812 18.9401 16.0286 18.8516 15.7578C18.7682 15.487 18.7266 15.2344 18.7266 15C18.7266 14.5469 18.8073 14.1667 18.9688 13.8594C19.1302 13.5469 19.3333 13.2943 19.5781 13.1016C19.8229 12.9089 20.0885 12.7708 20.375 12.6875C20.6615 12.599 20.9297 12.5547 21.1797 12.5547H26.1719V14.5859H21.1953C21.0911 14.5859 21.0078 14.599 20.9453 14.625C20.888 14.6458 20.8438 14.6771 20.8125 14.7188C20.7865 14.7552 20.7708 14.7969 20.7656 14.8438C20.7604 14.8854 20.7578 14.9271 20.7578 14.9688C20.763 15.0521 20.7786 15.1172 20.8047 15.1641C20.8307 15.2109 20.862 15.2448 20.8984 15.2656C20.9401 15.2865 20.9844 15.2995 21.0312 15.3047C21.0833 15.3047 21.1328 15.3047 21.1797 15.3047H24.3281C24.849 15.3047 25.2917 15.3984 25.6562 15.5859C26.0208 15.7734 26.3151 16.0104 26.5391 16.2969C26.763 16.5781 26.9245 16.8854 27.0234 17.2188C27.1276 17.5521 27.1797 17.862 27.1797 18.1484ZM37.8438 19.9766C37.8438 20.1224 37.8177 20.2578 37.7656 20.3828C37.7135 20.5078 37.6406 20.6172 37.5469 20.7109C37.4583 20.7995 37.3516 20.8698 37.2266 20.9219C37.1068 20.974 36.9766 21 36.8359 21H32.2422C31.9922 21 31.724 20.9714 31.4375 20.9141C31.1562 20.8568 30.8776 20.7656 30.6016 20.6406C30.3255 20.5104 30.0573 20.349 29.7969 20.1562C29.5417 19.9583 29.3177 19.7214 29.125 19.4453C28.9323 19.1641 28.776 18.8411 28.6562 18.4766C28.5417 18.112 28.4844 17.7005 28.4844 17.2422V12.5547H30.5156V17.2422C30.5156 17.5078 30.5599 17.7474 30.6484 17.9609C30.7422 18.1693 30.8672 18.349 31.0234 18.5C31.1797 18.651 31.362 18.7682 31.5703 18.8516C31.7839 18.9297 32.013 18.9688 32.2578 18.9688H35.8125V12.5547H37.8438V19.9766ZM49.1094 21H47.0781V16.3125C47.0781 16.0469 47.0312 15.8099 46.9375 15.6016C46.849 15.388 46.7266 15.2057 46.5703 15.0547C46.4141 14.9036 46.2292 14.7891 46.0156 14.7109C45.8073 14.6276 45.5807 14.5859 45.3359 14.5859H41.7812V21H39.75V13.5625C39.75 13.4219 39.776 13.2917 39.8281 13.1719C39.8802 13.0469 39.9531 12.9401 40.0469 12.8516C40.1406 12.7578 40.25 12.6849 40.375 12.6328C40.5 12.5807 40.6328 12.5547 40.7734 12.5547H45.3516C45.6068 12.5547 45.875 12.5833 46.1562 12.6406C46.4427 12.6979 46.724 12.7917 47 12.9219C47.2812 13.0469 47.5469 13.2083 47.7969 13.4062C48.0521 13.599 48.276 13.8359 48.4688 14.1172C48.6667 14.3932 48.8229 14.7135 48.9375 15.0781C49.0521 15.4427 49.1094 15.8542 49.1094 16.3125V21Z" fill="url(#paint2_linear_119_194)" fill-opacity="0.85"/>
<path d="M21.7412 27.3516V26.7803C21.7412 26.6631 21.7542 26.5378 21.7803 26.4043C21.8096 26.2676 21.8535 26.1341 21.9121 26.0039C21.9707 25.8704 22.0472 25.7435 22.1416 25.623C22.236 25.5026 22.3483 25.3968 22.4785 25.3057C22.612 25.2113 22.765 25.1364 22.9375 25.0811C23.11 25.0257 23.3053 24.998 23.5234 24.998H25.8135C25.9697 24.998 26.1374 25.016 26.3164 25.0518C26.4954 25.0876 26.6712 25.1462 26.8438 25.2275C27.0195 25.3057 27.1872 25.4066 27.3467 25.5303C27.5062 25.654 27.6462 25.8037 27.7666 25.9795C27.8903 26.152 27.988 26.3522 28.0596 26.5801C28.1344 26.8079 28.1719 27.0651 28.1719 27.3516V29.6514C28.1719 29.9378 28.1344 30.195 28.0596 30.4229C27.988 30.6507 27.8903 30.8525 27.7666 31.0283C27.6462 31.2008 27.5062 31.349 27.3467 31.4727C27.1872 31.5931 27.0195 31.694 26.8438 31.7754C26.6712 31.8535 26.4954 31.9105 26.3164 31.9463C26.1374 31.9821 25.9697 32 25.8135 32H22.6445V30.7305H25.8135C25.973 30.7174 26.1178 30.6849 26.248 30.6328C26.3815 30.5807 26.4954 30.5107 26.5898 30.4229C26.6875 30.3317 26.7624 30.2227 26.8145 30.0957C26.8665 29.9655 26.8926 29.8174 26.8926 29.6514V29.1387H23.5234C23.403 29.1387 23.276 29.1257 23.1426 29.0996C23.0091 29.0703 22.8757 29.0264 22.7422 28.9678C22.612 28.9059 22.4867 28.8294 22.3662 28.7383C22.2458 28.6439 22.1383 28.5299 22.0439 28.3965C21.9528 28.263 21.8796 28.11 21.8242 27.9375C21.7689 27.765 21.7412 27.5697 21.7412 27.3516ZM26.8926 27.3516C26.8926 27.1855 26.8649 27.0358 26.8096 26.9023C26.7542 26.7689 26.6777 26.6549 26.5801 26.5605C26.4857 26.4661 26.3717 26.3945 26.2383 26.3457C26.1081 26.2936 25.9665 26.2676 25.8135 26.2676H23.5234C23.3672 26.2676 23.2419 26.3164 23.1475 26.4141C23.0563 26.5117 23.0107 26.6338 23.0107 26.7803V27.3516C23.0107 27.5176 23.0547 27.6445 23.1426 27.7324C23.2305 27.8171 23.3607 27.8594 23.5332 27.8594H26.8926V27.3516ZM30.374 31.3604C30.374 31.4482 30.3561 31.5312 30.3203 31.6094C30.2878 31.6842 30.2422 31.751 30.1836 31.8096C30.1283 31.8649 30.0615 31.9089 29.9834 31.9414C29.9085 31.974 29.8288 31.9902 29.7441 31.9902C29.6562 31.9902 29.5732 31.974 29.4951 31.9414C29.4202 31.9089 29.3535 31.8649 29.2949 31.8096C29.2396 31.751 29.1956 31.6842 29.1631 31.6094C29.1305 31.5312 29.1143 31.4482 29.1143 31.3604C29.1143 31.2757 29.1305 31.196 29.1631 31.1211C29.1956 31.043 29.2396 30.9762 29.2949 30.9209C29.3535 30.8623 29.4202 30.8167 29.4951 30.7842C29.5732 30.7484 29.6562 30.7305 29.7441 30.7305C29.8288 30.7305 29.9085 30.7484 29.9834 30.7842C30.0615 30.8167 30.1283 30.8623 30.1836 30.9209C30.2422 30.9762 30.2878 31.043 30.3203 31.1211C30.3561 31.196 30.374 31.2757 30.374 31.3604ZM39.3877 29.0703C39.3877 29.3568 39.3503 29.6286 39.2754 29.8857C39.2038 30.1396 39.1012 30.3757 38.9678 30.5938C38.8343 30.8118 38.6764 31.0072 38.4941 31.1797C38.3118 31.3522 38.1117 31.5003 37.8936 31.624C37.6787 31.7445 37.4492 31.8372 37.2051 31.9023C36.9609 31.9674 36.7119 32 36.458 32H34.168C33.9108 32 33.6602 31.9674 33.416 31.9023C33.1719 31.8372 32.9408 31.7445 32.7227 31.624C32.5078 31.5003 32.3092 31.3522 32.127 31.1797C31.9447 31.0072 31.7868 30.8118 31.6533 30.5938C31.5231 30.3757 31.4206 30.1396 31.3457 29.8857C31.2741 29.6286 31.2383 29.3568 31.2383 29.0703V27.9277C31.2383 27.498 31.318 27.1042 31.4775 26.7461C31.6403 26.388 31.8568 26.0804 32.127 25.8232C32.3971 25.5628 32.708 25.361 33.0596 25.2178C33.4144 25.0713 33.7839 24.998 34.168 24.998H36.458C36.7119 24.998 36.9609 25.0306 37.2051 25.0957C37.4492 25.1608 37.6787 25.2552 37.8936 25.3789C38.1117 25.4993 38.3118 25.6458 38.4941 25.8184C38.6764 25.9909 38.8343 26.1862 38.9678 26.4043C39.1012 26.6224 39.2038 26.86 39.2754 27.1172C39.3503 27.3711 39.3877 27.6413 39.3877 27.9277V29.0703ZM38.1084 27.9277C38.1084 27.6771 38.0628 27.4492 37.9717 27.2441C37.8805 27.0391 37.7585 26.8633 37.6055 26.7168C37.4557 26.5703 37.2816 26.458 37.083 26.3799C36.8844 26.3018 36.6761 26.2643 36.458 26.2676H34.168C33.9564 26.2643 33.7497 26.3018 33.5479 26.3799C33.3493 26.4548 33.1719 26.5654 33.0156 26.7119C32.8626 26.8551 32.7389 27.0309 32.6445 27.2393C32.5534 27.4443 32.5078 27.6738 32.5078 27.9277V29.0703C32.5078 29.3242 32.5534 29.5537 32.6445 29.7588C32.7357 29.9639 32.8577 30.1396 33.0107 30.2861C33.1637 30.4294 33.3395 30.54 33.5381 30.6182C33.7399 30.6963 33.9499 30.7337 34.168 30.7305H36.458C36.7087 30.7305 36.9349 30.6898 37.1367 30.6084C37.3418 30.5238 37.516 30.4082 37.6592 30.2617C37.8024 30.1152 37.9131 29.9411 37.9912 29.7393C38.0693 29.5342 38.1084 29.3112 38.1084 29.0703V27.9277ZM37.5566 27C37.6055 27.0716 37.638 27.1497 37.6543 27.2344C37.6706 27.3158 37.6706 27.3971 37.6543 27.4785C37.638 27.5566 37.6055 27.6315 37.5566 27.7031C37.5111 27.7715 37.4508 27.8301 37.376 27.8789L33.9482 30.1689C33.8929 30.2113 33.8359 30.2406 33.7773 30.2568C33.7188 30.2731 33.6585 30.2812 33.5967 30.2812C33.4925 30.2812 33.3932 30.2568 33.2988 30.208C33.2044 30.1592 33.1279 30.0892 33.0693 29.998C33.0205 29.9264 32.988 29.8499 32.9717 29.7686C32.9554 29.6839 32.9538 29.6025 32.9668 29.5244C32.9831 29.443 33.014 29.3682 33.0596 29.2998C33.1051 29.2282 33.1654 29.168 33.2402 29.1191L36.6777 26.8291C36.7493 26.7803 36.8258 26.7477 36.9072 26.7314C36.9919 26.7152 37.0732 26.7152 37.1514 26.7314C37.2327 26.7477 37.3076 26.7786 37.376 26.8242C37.4476 26.8698 37.5078 26.9284 37.5566 27ZM46.8975 32H45.6182V29.1387H41.1064C41.0153 29.1387 40.9307 29.1224 40.8525 29.0898C40.7744 29.054 40.7061 29.0085 40.6475 28.9531C40.5921 28.8945 40.5482 28.8262 40.5156 28.748C40.4831 28.6699 40.4668 28.5869 40.4668 28.499V24.998H41.7363V27.8594H45.6182V24.998H46.8975V32Z" fill="url(#paint3_linear_119_194)" fill-opacity="0.85"/>
<defs>
<linearGradient id="paint0_linear_119_194" x1="35" y1="0" x2="35" y2="45" gradientUnits="userSpaceOnUse">
<stop stop-color="#626161"/>
<stop offset="0.276042" stop-color="#ADADAD"/>
<stop offset="1" stop-color="white"/>
</linearGradient>
<linearGradient id="paint1_linear_119_194" x1="35" y1="0" x2="35" y2="45" gradientUnits="userSpaceOnUse">
<stop stop-color="#F9BE79"/>
<stop offset="0.427083" stop-color="#FE5B00"/>
<stop offset="0.890625" stop-color="#D04013"/>
</linearGradient>
<linearGradient id="paint2_linear_119_194" x1="34" y1="8" x2="34" y2="22" gradientUnits="userSpaceOnUse">
<stop offset="0.15625" stop-color="#FE5B00"/>
<stop offset="0.489583" stop-color="#F9BE79"/>
<stop offset="0.890625" stop-color="#E66000"/>
</linearGradient>
<linearGradient id="paint3_linear_119_194" x1="34.5" y1="24" x2="34.5" y2="33" gradientUnits="userSpaceOnUse">
<stop stop-color="#F9BE79"/>
<stop offset="0.427083" stop-color="#FE5B00"/>
<stop offset="0.890625" stop-color="#D04013"/>
</linearGradient>
</defs>
</svg>
