<svg width="70" height="45" viewBox="0 0 70 45" fill="none" xmlns="http://www.w3.org/2000/svg">
<rect width="70" height="45" rx="22.5" fill="url(#paint0_linear_119_197)" fill-opacity="0.9"/>
<rect x="1" y="1" width="68" height="43" rx="21.5" stroke="url(#paint1_linear_119_197)" stroke-opacity="0.7" stroke-width="2"/>
<path d="M28.0322 17.5049C28.0322 17.8102 27.9935 18.0859 27.916 18.332C27.8385 18.5736 27.736 18.7878 27.6084 18.9746C27.4808 19.1569 27.3327 19.3141 27.1641 19.4463C26.9954 19.5739 26.8177 19.6787 26.6309 19.7607C26.4486 19.8428 26.2617 19.9043 26.0703 19.9453C25.8835 19.9818 25.7057 20 25.5371 20H20.7246V18.2227H25.5234C25.765 18.2227 25.9473 18.1611 26.0703 18.0381C26.1934 17.915 26.2549 17.7373 26.2549 17.5049C26.2321 17.0309 25.9928 16.7939 25.5371 16.7939H22.7822C22.3903 16.7939 22.0576 16.7256 21.7842 16.5889C21.5107 16.4521 21.2874 16.2812 21.1143 16.0762C20.9456 15.8711 20.8226 15.6501 20.7451 15.4131C20.6722 15.1761 20.6357 14.9551 20.6357 14.75C20.6357 14.3535 20.7064 14.0208 20.8477 13.752C20.9889 13.4785 21.1667 13.2575 21.3809 13.0889C21.5951 12.9202 21.8275 12.7995 22.0781 12.7266C22.3288 12.6491 22.5635 12.6104 22.7822 12.6104H27.1504V14.3877H22.7959C22.7048 14.3877 22.6318 14.3991 22.5771 14.4219C22.527 14.4401 22.4883 14.4674 22.4609 14.5039C22.4382 14.5358 22.4245 14.5723 22.4199 14.6133C22.4154 14.6497 22.4131 14.6862 22.4131 14.7227C22.4176 14.7956 22.4313 14.8525 22.4541 14.8936C22.4769 14.9346 22.5042 14.9642 22.5361 14.9824C22.5726 15.0007 22.6113 15.012 22.6523 15.0166C22.6979 15.0166 22.7412 15.0166 22.7822 15.0166H25.5371C25.9928 15.0166 26.3802 15.0986 26.6992 15.2627C27.0182 15.4268 27.2757 15.6341 27.4717 15.8848C27.6676 16.1309 27.8089 16.3997 27.8955 16.6914C27.9867 16.9831 28.0322 17.2542 28.0322 17.5049ZM37.3633 19.1045C37.3633 19.2321 37.3405 19.3506 37.2949 19.46C37.2493 19.5693 37.1855 19.665 37.1035 19.7471C37.026 19.8245 36.9326 19.8861 36.8232 19.9316C36.7184 19.9772 36.6045 20 36.4814 20H32.4619C32.2432 20 32.0085 19.9749 31.7578 19.9248C31.5117 19.8747 31.2679 19.7949 31.0264 19.6855C30.7848 19.5716 30.5501 19.4303 30.3223 19.2617C30.099 19.0885 29.903 18.8812 29.7344 18.6396C29.5658 18.3936 29.429 18.111 29.3242 17.792C29.224 17.473 29.1738 17.113 29.1738 16.7119V12.6104H30.9512V16.7119C30.9512 16.9443 30.9899 17.154 31.0674 17.3408C31.1494 17.5231 31.2588 17.6803 31.3955 17.8125C31.5322 17.9447 31.6917 18.0472 31.874 18.1201C32.0609 18.1885 32.2614 18.2227 32.4756 18.2227H35.5859V12.6104H37.3633V19.1045ZM47.2207 20H45.4434V15.8984C45.4434 15.666 45.4023 15.4587 45.3203 15.2764C45.2428 15.0895 45.1357 14.93 44.999 14.7979C44.8623 14.6657 44.7005 14.5654 44.5137 14.4971C44.3314 14.4242 44.1331 14.3877 43.9189 14.3877H40.8086V20H39.0312V13.4922C39.0312 13.3691 39.054 13.2552 39.0996 13.1504C39.1452 13.041 39.209 12.9476 39.291 12.8701C39.373 12.7881 39.4688 12.7243 39.5781 12.6787C39.6875 12.6331 39.8037 12.6104 39.9268 12.6104H43.9326C44.1559 12.6104 44.3906 12.6354 44.6367 12.6855C44.8874 12.7357 45.1335 12.8177 45.375 12.9316C45.6211 13.041 45.8535 13.1823 46.0723 13.3555C46.2956 13.5241 46.4915 13.7314 46.6602 13.9775C46.8333 14.2191 46.9701 14.4993 47.0703 14.8184C47.1706 15.1374 47.2207 15.4974 47.2207 15.8984V20Z" fill="url(#paint2_linear_119_197)"/>
<path d="M28.9922 29.5742C28.9922 29.6706 28.9805 29.7721 28.957 29.8789C28.9362 29.9857 28.901 30.0924 28.8516 30.1992C28.8047 30.3034 28.7435 30.4036 28.668 30.5C28.5924 30.5964 28.5013 30.6823 28.3945 30.7578C28.2904 30.8307 28.1693 30.8893 28.0312 30.9336C27.8932 30.9779 27.7383 31 27.5664 31H25.2695C25.1289 31 24.9753 30.9753 24.8086 30.9258C24.6419 30.8763 24.487 30.7956 24.3438 30.6836C24.2031 30.569 24.0846 30.4219 23.9883 30.2422C23.8945 30.0599 23.8477 29.8372 23.8477 29.5742V29.1211C23.8477 29.0221 23.8581 28.918 23.8789 28.8086C23.9023 28.6992 23.9375 28.5911 23.9844 28.4844C24.0339 28.3776 24.0964 28.276 24.1719 28.1797C24.2474 28.0833 24.3385 28 24.4453 27.9297C24.3984 27.8203 24.3633 27.7096 24.3398 27.5977C24.3164 27.4857 24.3047 27.3802 24.3047 27.2812V26.8242C24.3047 26.5638 24.3516 26.3424 24.4453 26.1602C24.5417 25.9779 24.6602 25.8307 24.8008 25.7188C24.944 25.6068 25.099 25.526 25.2656 25.4766C25.4323 25.4245 25.5859 25.3984 25.7266 25.3984H27.1016C27.276 25.3984 27.4323 25.4206 27.5703 25.4648C27.7109 25.5091 27.8333 25.569 27.9375 25.6445C28.0443 25.7174 28.1341 25.8021 28.207 25.8984C28.2826 25.9948 28.3438 26.0964 28.3906 26.2031C28.4375 26.3073 28.4714 26.4141 28.4922 26.5234C28.5156 26.6302 28.5273 26.7305 28.5273 26.8242V27.2812C28.5273 27.5365 28.4818 27.7578 28.3906 27.9453C28.474 28 28.5521 28.0651 28.625 28.1406C28.6979 28.2135 28.7617 28.2982 28.8164 28.3945C28.8711 28.4909 28.9141 28.6003 28.9453 28.7227C28.9766 28.8424 28.9922 28.9753 28.9922 29.1211V29.5742ZM27.5117 26.832C27.5117 26.694 27.4766 26.5898 27.4062 26.5195C27.3359 26.4492 27.2344 26.4141 27.1016 26.4141H25.7344C25.5964 26.4141 25.4935 26.4492 25.4258 26.5195C25.3607 26.5898 25.3281 26.6914 25.3281 26.8242V27.2812C25.3281 27.4167 25.362 27.5182 25.4297 27.5859C25.5 27.6536 25.599 27.6875 25.7266 27.6875H27.1016C27.2396 27.6875 27.3424 27.6536 27.4102 27.5859C27.4779 27.5156 27.5117 27.4141 27.5117 27.2812V26.832ZM27.9648 29.1211C27.9648 28.9909 27.9284 28.8906 27.8555 28.8203C27.7852 28.7474 27.6888 28.7109 27.5664 28.7109H25.2695C25.1445 28.7109 25.0456 28.75 24.9727 28.8281C24.8997 28.9062 24.8633 29.0039 24.8633 29.1211V29.5742C24.8633 29.6992 24.901 29.7995 24.9766 29.875C25.0547 29.9479 25.1523 29.9844 25.2695 29.9844H27.5664C27.6966 29.9844 27.7956 29.9453 27.8633 29.8672C27.931 29.7891 27.9648 29.6914 27.9648 29.5742V29.1211ZM30.7266 30.4883C30.7266 30.5586 30.7122 30.625 30.6836 30.6875C30.6576 30.7474 30.6211 30.8008 30.5742 30.8477C30.5299 30.8919 30.4766 30.9271 30.4141 30.9531C30.3542 30.9792 30.2904 30.9922 30.2227 30.9922C30.1523 30.9922 30.0859 30.9792 30.0234 30.9531C29.9635 30.9271 29.9102 30.8919 29.8633 30.8477C29.819 30.8008 29.7839 30.7474 29.7578 30.6875C29.7318 30.625 29.7188 30.5586 29.7188 30.4883C29.7188 30.4206 29.7318 30.3568 29.7578 30.2969C29.7839 30.2344 29.819 30.181 29.8633 30.1367C29.9102 30.0898 29.9635 30.0534 30.0234 30.0273C30.0859 29.9987 30.1523 29.9844 30.2227 29.9844C30.2904 29.9844 30.3542 29.9987 30.4141 30.0273C30.4766 30.0534 30.5299 30.0898 30.5742 30.1367C30.6211 30.181 30.6576 30.2344 30.6836 30.2969C30.7122 30.3568 30.7266 30.4206 30.7266 30.4883ZM37.9375 28.6562C37.9375 28.8854 37.9076 29.1029 37.8477 29.3086C37.7904 29.5117 37.7083 29.7005 37.6016 29.875C37.4948 30.0495 37.3685 30.2057 37.2227 30.3438C37.0768 30.4818 36.9167 30.6003 36.7422 30.6992C36.5703 30.7956 36.3867 30.8698 36.1914 30.9219C35.9961 30.974 35.7969 31 35.5938 31H33.7617C33.556 31 33.3555 30.974 33.1602 30.9219C32.9648 30.8698 32.7799 30.7956 32.6055 30.6992C32.4336 30.6003 32.2747 30.4818 32.1289 30.3438C31.9831 30.2057 31.8568 30.0495 31.75 29.875C31.6458 29.7005 31.5638 29.5117 31.5039 29.3086C31.4466 29.1029 31.418 28.8854 31.418 28.6562V27.7422C31.418 27.3984 31.4818 27.0833 31.6094 26.7969C31.7396 26.5104 31.9128 26.2643 32.1289 26.0586C32.3451 25.8503 32.5938 25.6888 32.875 25.5742C33.1589 25.457 33.4544 25.3984 33.7617 25.3984H35.5938C35.7969 25.3984 35.9961 25.4245 36.1914 25.4766C36.3867 25.5286 36.5703 25.6042 36.7422 25.7031C36.9167 25.7995 37.0768 25.9167 37.2227 26.0547C37.3685 26.1927 37.4948 26.349 37.6016 26.5234C37.7083 26.6979 37.7904 26.888 37.8477 27.0938C37.9076 27.2969 37.9375 27.513 37.9375 27.7422V28.6562ZM36.9141 27.7422C36.9141 27.5417 36.8776 27.3594 36.8047 27.1953C36.7318 27.0312 36.6341 26.8906 36.5117 26.7734C36.3919 26.6562 36.2526 26.5664 36.0938 26.5039C35.9349 26.4414 35.7682 26.4115 35.5938 26.4141H33.7617C33.5924 26.4115 33.4271 26.4414 33.2656 26.5039C33.1068 26.5638 32.9648 26.6523 32.8398 26.7695C32.7174 26.8841 32.6185 27.0247 32.543 27.1914C32.4701 27.3555 32.4336 27.5391 32.4336 27.7422V28.6562C32.4336 28.8594 32.4701 29.043 32.543 29.207C32.6159 29.3711 32.7135 29.5117 32.8359 29.6289C32.9583 29.7435 33.099 29.832 33.2578 29.8945C33.4193 29.957 33.5872 29.987 33.7617 29.9844H35.5938C35.7943 29.9844 35.9753 29.9518 36.1367 29.8867C36.3008 29.819 36.4401 29.7266 36.5547 29.6094C36.6693 29.4922 36.7578 29.3529 36.8203 29.1914C36.8828 29.0273 36.9141 28.849 36.9141 28.6562V27.7422ZM36.4727 27C36.5117 27.0573 36.5378 27.1198 36.5508 27.1875C36.5638 27.2526 36.5638 27.3177 36.5508 27.3828C36.5378 27.4453 36.5117 27.5052 36.4727 27.5625C36.4362 27.6172 36.388 27.6641 36.3281 27.7031L33.5859 29.5352C33.5417 29.569 33.4961 29.5924 33.4492 29.6055C33.4023 29.6185 33.3542 29.625 33.3047 29.625C33.2214 29.625 33.1419 29.6055 33.0664 29.5664C32.9909 29.5273 32.9297 29.4714 32.8828 29.3984C32.8438 29.3411 32.8177 29.2799 32.8047 29.2148C32.7917 29.1471 32.7904 29.082 32.8008 29.0195C32.8138 28.9544 32.8385 28.8945 32.875 28.8398C32.9115 28.7826 32.9596 28.7344 33.0195 28.6953L35.7695 26.8633C35.8268 26.8242 35.888 26.7982 35.9531 26.7852C36.0208 26.7721 36.0859 26.7721 36.1484 26.7852C36.2135 26.7982 36.2734 26.8229 36.3281 26.8594C36.3854 26.8958 36.4336 26.9427 36.4727 27ZM43.9453 31H42.9219V28.7109H39.3125C39.2396 28.7109 39.1719 28.6979 39.1094 28.6719C39.0469 28.6432 38.9922 28.6068 38.9453 28.5625C38.901 28.5156 38.8659 28.4609 38.8398 28.3984C38.8138 28.3359 38.8008 28.2695 38.8008 28.1992V25.3984H39.8164V27.6875H42.9219V25.3984H43.9453V31Z" fill="url(#paint3_linear_119_197)"/>
<defs>
<linearGradient id="paint0_linear_119_197" x1="35" y1="0" x2="35" y2="45" gradientUnits="userSpaceOnUse">
<stop stop-color="white"/>
<stop offset="0.739583" stop-color="#9E9E9E"/>
<stop offset="1" stop-color="#4F4F4F"/>
</linearGradient>
<linearGradient id="paint1_linear_119_197" x1="35" y1="0" x2="35" y2="45" gradientUnits="userSpaceOnUse">
<stop stop-color="#2E13D0"/>
<stop offset="0.604167" stop-color="#784CD6"/>
<stop offset="1" stop-color="#D2C5F8"/>
</linearGradient>
<linearGradient id="paint2_linear_119_197" x1="27.0522" y1="12" x2="38.6359" y2="23.663" gradientUnits="userSpaceOnUse">
<stop stop-color="#9E00FF"/>
<stop offset="1" stop-color="#0500FF"/>
</linearGradient>
<linearGradient id="paint3_linear_119_197" x1="28.541" y1="26.75" x2="34.9964" y2="35.5045" gradientUnits="userSpaceOnUse">
<stop stop-color="#9E00FF"/>
<stop offset="1" stop-color="#0500FF"/>
</linearGradient>
</defs>
</svg>
