<svg width="65" height="36" viewBox="0 0 65 36" fill="none" xmlns="http://www.w3.org/2000/svg">
<g filter="url(#filter0_b_358_167)">
<mask id="path-1-inside-1_358_167" fill="white">
<path d="M0.995605 15.8886C0.995605 7.60434 7.71134 0.888611 15.9956 0.888611H49.987C58.2713 0.888611 64.987 7.60434 64.987 15.8886V20.3271C64.987 28.6114 58.2713 35.3271 49.987 35.3271H15.9956C7.71132 35.3271 0.995605 28.6114 0.995605 20.3271V15.8886Z"/>
</mask>
<path d="M0.995605 15.8886C0.995605 7.60434 7.71134 0.888611 15.9956 0.888611H49.987C58.2713 0.888611 64.987 7.60434 64.987 15.8886V20.3271C64.987 28.6114 58.2713 35.3271 49.987 35.3271H15.9956C7.71132 35.3271 0.995605 28.6114 0.995605 20.3271V15.8886Z" fill="url(#paint0_linear_358_167)" fill-opacity="0.7"/>
<path d="M-1.00439 14.8886C-1.00439 5.49977 6.60676 -2.11139 15.9956 -2.11139H49.987C59.3758 -2.11139 66.987 5.49977 66.987 14.8886L62.987 15.8886C62.987 9.26119 57.1667 3.88861 49.987 3.88861H15.9956C8.8159 3.88861 2.99561 9.26119 2.99561 15.8886L-1.00439 14.8886ZM66.987 21.8271C66.987 31.2159 59.3758 38.8271 49.987 38.8271H15.9956C6.60676 38.8271 -1.00439 31.2159 -1.00439 21.8271L2.99561 20.3271C2.99561 26.6784 8.8159 31.8271 15.9956 31.8271H49.987C57.1667 31.8271 62.987 26.6784 62.987 20.3271L66.987 21.8271ZM15.9956 38.8271C6.60676 38.8271 -1.00439 31.2159 -1.00439 21.8271V14.8886C-1.00439 5.49977 6.60676 -2.11139 15.9956 -2.11139V3.88861C8.8159 3.88861 2.99561 9.26119 2.99561 15.8886V20.3271C2.99561 26.6784 8.8159 31.8271 15.9956 31.8271V38.8271ZM49.987 -2.11139C59.3758 -2.11139 66.987 5.49977 66.987 14.8886V21.8271C66.987 31.2159 59.3758 38.8271 49.987 38.8271V31.8271C57.1667 31.8271 62.987 26.6784 62.987 20.3271V15.8886C62.987 9.26119 57.1667 3.88861 49.987 3.88861V-2.11139Z" fill="url(#paint1_linear_358_167)" mask="url(#path-1-inside-1_358_167)"/>
</g>
<path d="M26.8316 22.602H25.0542V20.1958H18.8062V22.602H17.0288V17.7007C17.0288 16.9852 17.1519 16.3266 17.398 15.7251C17.6441 15.1235 17.9859 14.6063 18.4234 14.1733C18.8609 13.7404 19.3781 13.4031 19.9751 13.1616C20.5721 12.9201 21.2238 12.7993 21.9302 12.7993H25.9361C26.0591 12.7993 26.1753 12.8221 26.2847 12.8676C26.3941 12.9132 26.4898 12.977 26.5718 13.0591C26.6538 13.1411 26.7176 13.2368 26.7632 13.3462C26.8088 13.4555 26.8316 13.5717 26.8316 13.6948V22.602ZM18.8062 18.4184H25.0542V14.5766H21.9302C21.8755 14.5766 21.7593 14.5857 21.5816 14.604C21.4084 14.6176 21.2056 14.6564 20.9732 14.7202C20.7453 14.784 20.5038 14.882 20.2486 15.0141C19.9934 15.1463 19.7587 15.3286 19.5445 15.561C19.3303 15.7934 19.1525 16.0851 19.0113 16.436C18.8745 16.7824 18.8062 17.2039 18.8062 17.7007V18.4184ZM38.1251 18.5005C38.1251 19.0975 38.0203 19.6466 37.8106 20.1479C37.6056 20.6492 37.3207 21.0822 36.9562 21.4467C36.5916 21.8068 36.1586 22.0893 35.6573 22.2944C35.156 22.4995 34.6114 22.602 34.0235 22.602H29.2247C29.0971 22.602 28.9786 22.5792 28.8692 22.5337C28.7599 22.4881 28.6642 22.4266 28.5821 22.3491C28.5047 22.2671 28.4431 22.1714 28.3976 22.062C28.352 21.9526 28.3292 21.8341 28.3292 21.7065V13.6948C28.3292 13.5717 28.352 13.4555 28.3976 13.3462C28.4431 13.2368 28.5047 13.1411 28.5821 13.0591C28.6642 12.977 28.7599 12.9132 28.8692 12.8676C28.9786 12.8221 29.0971 12.7993 29.2247 12.7993H34.0235C34.6114 12.7993 35.156 12.9018 35.6573 13.1069C36.1586 13.312 36.5916 13.5968 36.9562 13.9614C37.3207 14.3214 37.6056 14.7544 37.8106 15.2602C38.0203 15.7615 38.1251 16.3084 38.1251 16.9008V18.5005ZM36.3478 16.9008C36.3478 16.5545 36.2908 16.2378 36.1769 15.9507C36.0675 15.6635 35.9103 15.4197 35.7052 15.2192C35.5001 15.0141 35.254 14.8569 34.9669 14.7475C34.6843 14.6336 34.3699 14.5766 34.0235 14.5766H30.1065V20.8247H34.0235C34.3699 20.8247 34.6843 20.77 34.9669 20.6606C35.254 20.5467 35.5001 20.3895 35.7052 20.1889C35.9103 19.9839 36.0675 19.74 36.1769 19.4575C36.2908 19.1704 36.3478 18.8514 36.3478 18.5005V16.9008ZM49.0905 18.5005C49.0905 19.0975 48.9857 19.6466 48.776 20.1479C48.571 20.6492 48.2861 21.0822 47.9215 21.4467C47.557 21.8068 47.124 22.0893 46.6227 22.2944C46.1214 22.4995 45.5768 22.602 44.9889 22.602H40.1901C40.0625 22.602 39.944 22.5792 39.8346 22.5337C39.7253 22.4881 39.6295 22.4266 39.5475 22.3491C39.47 22.2671 39.4085 22.1714 39.3629 22.062C39.3174 21.9526 39.2946 21.8341 39.2946 21.7065V13.6948C39.2946 13.5717 39.3174 13.4555 39.3629 13.3462C39.4085 13.2368 39.47 13.1411 39.5475 13.0591C39.6295 12.977 39.7253 12.9132 39.8346 12.8676C39.944 12.8221 40.0625 12.7993 40.1901 12.7993H44.9889C45.5768 12.7993 46.1214 12.9018 46.6227 13.1069C47.124 13.312 47.557 13.5968 47.9215 13.9614C48.2861 14.3214 48.571 14.7544 48.776 15.2602C48.9857 15.7615 49.0905 16.3084 49.0905 16.9008V18.5005ZM47.3131 16.9008C47.3131 16.5545 47.2562 16.2378 47.1422 15.9507C47.0329 15.6635 46.8756 15.4197 46.6706 15.2192C46.4655 15.0141 46.2194 14.8569 45.9323 14.7475C45.6497 14.6336 45.3353 14.5766 44.9889 14.5766H41.0719V20.8247H44.9889C45.3353 20.8247 45.6497 20.77 45.9323 20.6606C46.2194 20.5467 46.4655 20.3895 46.6706 20.1889C46.8756 19.9839 47.0329 19.74 47.1422 19.4575C47.2562 19.1704 47.3131 18.8514 47.3131 18.5005V16.9008Z" fill="url(#paint2_linear_358_167)"/>
<defs>
<filter id="filter0_b_358_167" x="-4.00439" y="-4.11139" width="73.9915" height="44.4385" filterUnits="userSpaceOnUse" color-interpolation-filters="sRGB">
<feFlood flood-opacity="0" result="BackgroundImageFix"/>
<feGaussianBlur in="BackgroundImageFix" stdDeviation="2.5"/>
<feComposite in2="SourceAlpha" operator="in" result="effect1_backgroundBlur_358_167"/>
<feBlend mode="normal" in="SourceGraphic" in2="effect1_backgroundBlur_358_167" result="shape"/>
</filter>
<linearGradient id="paint0_linear_358_167" x1="32.9913" y1="0.888611" x2="32.9913" y2="35.3271" gradientUnits="userSpaceOnUse">
<stop stop-color="#F0F0F0"/>
<stop offset="0.25" stop-color="#C9C7CC"/>
<stop offset="0.5" stop-color="#938F9B"/>
<stop offset="0.697917" stop-color="#D0CED4"/>
<stop offset="1" stop-color="#FEFEFF"/>
</linearGradient>
<linearGradient id="paint1_linear_358_167" x1="32.9913" y1="0.888611" x2="32.9913" y2="5.92193" gradientUnits="userSpaceOnUse">
<stop stop-color="white"/>
<stop offset="0.515625" stop-color="#C5C5C5" stop-opacity="0.39"/>
<stop offset="1" stop-color="#787878" stop-opacity="0.52"/>
</linearGradient>
<linearGradient id="paint2_linear_358_167" x1="-71.9917" y1="-0.644569" x2="-68.0845" y2="44.1866" gradientUnits="userSpaceOnUse">
<stop offset="0.518108" stop-color="#616060"/>
<stop offset="0.599218" stop-color="#8D8C8C"/>
<stop offset="0.683082"/>
</linearGradient>
</defs>
</svg>
