<svg width="70" height="45" viewBox="0 0 70 45" fill="none" xmlns="http://www.w3.org/2000/svg">
<rect width="70" height="45" rx="22.5" fill="url(#paint0_linear_119_194)" fill-opacity="0.9"/>
<rect x="1" y="1" width="68" height="43" rx="21.5" stroke="url(#paint1_linear_119_194)" stroke-opacity="0.85" stroke-width="2"/>
<path d="M23.0625 14.5859H19.5156V21H17.4609V14.5859H14.8203V12.5547H17.4609V9.79688H19.5156V12.5547H23.0625V14.5859ZM33.7891 21H31.7578V15.3984C31.7578 15.1328 31.6901 14.9323 31.5547 14.7969C31.4193 14.6562 31.2161 14.5859 30.9453 14.5859H27.2812V12.5547H30.9453C31.138 12.5547 31.3411 12.5781 31.5547 12.625C31.7682 12.6667 31.9792 12.7344 32.1875 12.8281C32.401 12.9219 32.6042 13.0443 32.7969 13.1953C32.9896 13.3411 33.1589 13.5208 33.3047 13.7344C33.4505 13.9427 33.5677 14.1849 33.6562 14.4609C33.7448 14.737 33.7891 15.0495 33.7891 15.3984V21ZM26.4609 21H24.4297V8.98438H26.4609V21ZM44.8828 19.9766C44.8828 20.1224 44.8568 20.2578 44.8047 20.3828C44.7526 20.5078 44.6797 20.6172 44.5859 20.7109C44.4974 20.7995 44.3906 20.8698 44.2656 20.9219C44.1458 20.974 44.0156 21 43.875 21H39.2812C39.0312 21 38.763 20.9714 38.4766 20.9141C38.1953 20.8568 37.9167 20.7656 37.6406 20.6406C37.3646 20.5104 37.0964 20.349 36.8359 20.1562C36.5807 19.9583 36.3568 19.7214 36.1641 19.4453C35.9714 19.1641 35.8151 18.8411 35.6953 18.4766C35.5807 18.112 35.5234 17.7005 35.5234 17.2422V12.5547H37.5547V17.2422C37.5547 17.5078 37.599 17.7474 37.6875 17.9609C37.7812 18.1693 37.9062 18.349 38.0625 18.5C38.2188 18.651 38.401 18.7682 38.6094 18.8516C38.8229 18.9297 39.0521 18.9688 39.2969 18.9688H42.8516V12.5547H44.8828V19.9766ZM54.1797 14.5859H49.6094C49.3333 14.5859 49.125 14.6562 48.9844 14.7969C48.8438 14.9323 48.7734 15.1328 48.7734 15.3984V21H46.7422V15.3984C46.7422 15.0495 46.7865 14.737 46.875 14.4609C46.9635 14.1849 47.0807 13.9427 47.2266 13.7344C47.3776 13.5208 47.5495 13.3411 47.7422 13.1953C47.9349 13.0443 48.1354 12.9219 48.3438 12.8281C48.5573 12.7344 48.7708 12.6667 48.9844 12.625C49.2031 12.5781 49.4062 12.5547 49.5938 12.5547H54.1797V14.5859Z" fill="url(#paint2_linear_119_194)" fill-opacity="0.85"/>
<path d="M23.167 27.8594H26.5459C26.7249 27.8594 26.917 27.8919 27.1221 27.957C27.3304 28.0189 27.5241 28.1214 27.7031 28.2646C27.8822 28.4046 28.0303 28.5885 28.1475 28.8164C28.2679 29.0443 28.3281 29.3226 28.3281 29.6514V30.2178C28.3281 30.3382 28.3135 30.4652 28.2842 30.5986C28.2581 30.7321 28.2142 30.8656 28.1523 30.999C28.0938 31.1292 28.0173 31.2546 27.9229 31.375C27.8317 31.4954 27.7194 31.6029 27.5859 31.6973C27.4557 31.7884 27.3044 31.8617 27.1318 31.917C26.9593 31.9723 26.764 32 26.5459 32H24.2461C24.0898 32 23.9222 31.9821 23.7432 31.9463C23.5674 31.9105 23.3932 31.8535 23.2207 31.7754C23.0482 31.694 22.8805 31.5931 22.7178 31.4727C22.5583 31.349 22.4183 31.2008 22.2979 31.0283C22.1774 30.8525 22.0798 30.6507 22.0049 30.4229C21.9333 30.195 21.8975 29.9378 21.8975 29.6514V27.3516C21.8975 27.0651 21.9333 26.8079 22.0049 26.5801C22.0798 26.3522 22.1774 26.152 22.2979 25.9795C22.4183 25.8037 22.5583 25.654 22.7178 25.5303C22.8805 25.4066 23.0482 25.3057 23.2207 25.2275C23.3932 25.1462 23.5674 25.0876 23.7432 25.0518C23.9222 25.016 24.0898 24.998 24.2461 24.998H27.4297V26.2676H24.2461C24.0833 26.2806 23.9352 26.3148 23.8018 26.3701C23.6715 26.4255 23.5592 26.4987 23.4648 26.5898C23.3704 26.681 23.2972 26.7917 23.2451 26.9219C23.193 27.0488 23.167 27.1921 23.167 27.3516V27.8594ZM23.167 29.1387V29.6514C23.167 29.8174 23.1947 29.9671 23.25 30.1006C23.3086 30.2308 23.3867 30.3431 23.4844 30.4375C23.582 30.5319 23.696 30.6051 23.8262 30.6572C23.9596 30.7061 24.1029 30.7305 24.2559 30.7305H26.5459C26.7087 30.7305 26.8324 30.6816 26.917 30.584C27.0049 30.4863 27.0488 30.3643 27.0488 30.2178V29.6514C27.0488 29.4854 27.0065 29.3584 26.9219 29.2705C26.8372 29.1826 26.7087 29.1387 26.5361 29.1387H23.167ZM30.3984 31.3604C30.3984 31.4482 30.3805 31.5312 30.3447 31.6094C30.3122 31.6842 30.2666 31.751 30.208 31.8096C30.1527 31.8649 30.0859 31.9089 30.0078 31.9414C29.9329 31.974 29.8532 31.9902 29.7686 31.9902C29.6807 31.9902 29.5977 31.974 29.5195 31.9414C29.4447 31.9089 29.3779 31.8649 29.3193 31.8096C29.264 31.751 29.2201 31.6842 29.1875 31.6094C29.1549 31.5312 29.1387 31.4482 29.1387 31.3604C29.1387 31.2757 29.1549 31.196 29.1875 31.1211C29.2201 31.043 29.264 30.9762 29.3193 30.9209C29.3779 30.8623 29.4447 30.8167 29.5195 30.7842C29.5977 30.7484 29.6807 30.7305 29.7686 30.7305C29.8532 30.7305 29.9329 30.7484 30.0078 30.7842C30.0859 30.8167 30.1527 30.8623 30.208 30.9209C30.2666 30.9762 30.3122 31.043 30.3447 31.1211C30.3805 31.196 30.3984 31.2757 30.3984 31.3604ZM39.4121 29.0703C39.4121 29.3568 39.3747 29.6286 39.2998 29.8857C39.2282 30.1396 39.1257 30.3757 38.9922 30.5938C38.8587 30.8118 38.7008 31.0072 38.5186 31.1797C38.3363 31.3522 38.1361 31.5003 37.918 31.624C37.7031 31.7445 37.4736 31.8372 37.2295 31.9023C36.9854 31.9674 36.7363 32 36.4824 32H34.1924C33.9352 32 33.6846 31.9674 33.4404 31.9023C33.1963 31.8372 32.9652 31.7445 32.7471 31.624C32.5322 31.5003 32.3337 31.3522 32.1514 31.1797C31.9691 31.0072 31.8112 30.8118 31.6777 30.5938C31.5475 30.3757 31.445 30.1396 31.3701 29.8857C31.2985 29.6286 31.2627 29.3568 31.2627 29.0703V27.9277C31.2627 27.498 31.3424 27.1042 31.502 26.7461C31.6647 26.388 31.8812 26.0804 32.1514 25.8232C32.4215 25.5628 32.7324 25.361 33.084 25.2178C33.4388 25.0713 33.8083 24.998 34.1924 24.998H36.4824C36.7363 24.998 36.9854 25.0306 37.2295 25.0957C37.4736 25.1608 37.7031 25.2552 37.918 25.3789C38.1361 25.4993 38.3363 25.6458 38.5186 25.8184C38.7008 25.9909 38.8587 26.1862 38.9922 26.4043C39.1257 26.6224 39.2282 26.86 39.2998 27.1172C39.3747 27.3711 39.4121 27.6413 39.4121 27.9277V29.0703ZM38.1328 27.9277C38.1328 27.6771 38.0872 27.4492 37.9961 27.2441C37.9049 27.0391 37.7829 26.8633 37.6299 26.7168C37.4801 26.5703 37.306 26.458 37.1074 26.3799C36.9089 26.3018 36.7005 26.2643 36.4824 26.2676H34.1924C33.9808 26.2643 33.7741 26.3018 33.5723 26.3799C33.3737 26.4548 33.1963 26.5654 33.04 26.7119C32.887 26.8551 32.7633 27.0309 32.6689 27.2393C32.5778 27.4443 32.5322 27.6738 32.5322 27.9277V29.0703C32.5322 29.3242 32.5778 29.5537 32.6689 29.7588C32.7601 29.9639 32.8822 30.1396 33.0352 30.2861C33.1882 30.4294 33.3639 30.54 33.5625 30.6182C33.7643 30.6963 33.9743 30.7337 34.1924 30.7305H36.4824C36.7331 30.7305 36.9593 30.6898 37.1611 30.6084C37.3662 30.5238 37.5404 30.4082 37.6836 30.2617C37.8268 30.1152 37.9375 29.9411 38.0156 29.7393C38.0938 29.5342 38.1328 29.3112 38.1328 29.0703V27.9277ZM37.5811 27C37.6299 27.0716 37.6624 27.1497 37.6787 27.2344C37.695 27.3158 37.695 27.3971 37.6787 27.4785C37.6624 27.5566 37.6299 27.6315 37.5811 27.7031C37.5355 27.7715 37.4753 27.8301 37.4004 27.8789L33.9727 30.1689C33.9173 30.2113 33.8604 30.2406 33.8018 30.2568C33.7432 30.2731 33.6829 30.2812 33.6211 30.2812C33.5169 30.2812 33.4176 30.2568 33.3232 30.208C33.2288 30.1592 33.1523 30.0892 33.0938 29.998C33.0449 29.9264 33.0124 29.8499 32.9961 29.7686C32.9798 29.6839 32.9782 29.6025 32.9912 29.5244C33.0075 29.443 33.0384 29.3682 33.084 29.2998C33.1296 29.2282 33.1898 29.168 33.2646 29.1191L36.7021 26.8291C36.7738 26.7803 36.8503 26.7477 36.9316 26.7314C37.0163 26.7152 37.0977 26.7152 37.1758 26.7314C37.2572 26.7477 37.332 26.7786 37.4004 26.8242C37.472 26.8698 37.5322 26.9284 37.5811 27ZM46.9219 32H45.6426V29.1387H41.1309C41.0397 29.1387 40.9551 29.1224 40.877 29.0898C40.7988 29.054 40.7305 29.0085 40.6719 28.9531C40.6165 28.8945 40.5726 28.8262 40.54 28.748C40.5075 28.6699 40.4912 28.5869 40.4912 28.499V24.998H41.7607V27.8594H45.6426V24.998H46.9219V32Z" fill="url(#paint3_linear_119_194)" fill-opacity="0.85"/>
<defs>
<linearGradient id="paint0_linear_119_194" x1="35" y1="0" x2="35" y2="45" gradientUnits="userSpaceOnUse">
<stop stop-color="#626161"/>
<stop offset="0.276042" stop-color="#ADADAD"/>
<stop offset="1" stop-color="white"/>
</linearGradient>
<linearGradient id="paint1_linear_119_194" x1="35" y1="0" x2="35" y2="45" gradientUnits="userSpaceOnUse">
<stop stop-color="#F9BE79"/>
<stop offset="0.427083" stop-color="#FE5B00"/>
<stop offset="0.890625" stop-color="#D04013"/>
</linearGradient>
<linearGradient id="paint2_linear_119_194" x1="34.5" y1="8" x2="34.5" y2="22" gradientUnits="userSpaceOnUse">
<stop offset="0.15625" stop-color="#FE5B00"/>
<stop offset="0.489583" stop-color="#F9BE79"/>
<stop offset="0.890625" stop-color="#E66000"/>
</linearGradient>
<linearGradient id="paint3_linear_119_194" x1="34.5" y1="24" x2="34.5" y2="33" gradientUnits="userSpaceOnUse">
<stop stop-color="#F9BE79"/>
<stop offset="0.427083" stop-color="#FE5B00"/>
<stop offset="0.890625" stop-color="#D04013"/>
</linearGradient>
</defs>
</svg>
