<svg width="70" height="45" viewBox="0 0 70 45" fill="none" xmlns="http://www.w3.org/2000/svg">
<rect width="70" height="45" rx="22.5" fill="url(#paint0_linear_126_138)" fill-opacity="0.9"/>
<rect x="1" y="1" width="68" height="43" rx="21.5" stroke="url(#paint1_linear_126_138)" stroke-opacity="0.7" stroke-width="2"/>
<path d="M23.9922 14.3877H20.8887V20H19.0908V14.3877H16.7803V12.6104H19.0908V10.1973H20.8887V12.6104H23.9922V14.3877ZM33.3779 20H31.6006V15.0986C31.6006 14.8662 31.5413 14.6908 31.4229 14.5723C31.3044 14.4492 31.1266 14.3877 30.8896 14.3877H27.6836V12.6104H30.8896C31.0583 12.6104 31.236 12.6309 31.4229 12.6719C31.6097 12.7083 31.7943 12.7676 31.9766 12.8496C32.1634 12.9316 32.3411 13.0387 32.5098 13.1709C32.6784 13.2985 32.8265 13.4557 32.9541 13.6426C33.0817 13.8249 33.1842 14.0368 33.2617 14.2783C33.3392 14.5199 33.3779 14.7933 33.3779 15.0986V20ZM26.9658 20H25.1885V9.48633H26.9658V20ZM43.085 19.1045C43.085 19.2321 43.0622 19.3506 43.0166 19.46C42.971 19.5693 42.9072 19.665 42.8252 19.7471C42.7477 19.8245 42.6543 19.8861 42.5449 19.9316C42.4401 19.9772 42.3262 20 42.2031 20H38.1836C37.9648 20 37.7301 19.9749 37.4795 19.9248C37.2334 19.8747 36.9896 19.7949 36.748 19.6855C36.5065 19.5716 36.2718 19.4303 36.0439 19.2617C35.8206 19.0885 35.6247 18.8812 35.4561 18.6396C35.2874 18.3936 35.1507 18.111 35.0459 17.792C34.9456 17.473 34.8955 17.113 34.8955 16.7119V12.6104H36.6729V16.7119C36.6729 16.9443 36.7116 17.154 36.7891 17.3408C36.8711 17.5231 36.9805 17.6803 37.1172 17.8125C37.2539 17.9447 37.4134 18.0472 37.5957 18.1201C37.7826 18.1885 37.9831 18.2227 38.1973 18.2227H41.3076V12.6104H43.085V19.1045ZM51.2197 14.3877H47.2207C46.9792 14.3877 46.7969 14.4492 46.6738 14.5723C46.5508 14.6908 46.4893 14.8662 46.4893 15.0986V20H44.7119V15.0986C44.7119 14.7933 44.7507 14.5199 44.8281 14.2783C44.9056 14.0368 45.0081 13.8249 45.1357 13.6426C45.2679 13.4557 45.4183 13.2985 45.5869 13.1709C45.7555 13.0387 45.931 12.9316 46.1133 12.8496C46.3001 12.7676 46.487 12.7083 46.6738 12.6719C46.8652 12.6309 47.043 12.6104 47.207 12.6104H51.2197V14.3877Z" fill="url(#paint2_linear_126_138)"/>
<path d="M24.9336 27.6875H27.6367C27.7799 27.6875 27.9336 27.7135 28.0977 27.7656C28.2643 27.8151 28.4193 27.8971 28.5625 28.0117C28.7057 28.1237 28.8242 28.2708 28.918 28.4531C29.0143 28.6354 29.0625 28.8581 29.0625 29.1211V29.5742C29.0625 29.6706 29.0508 29.7721 29.0273 29.8789C29.0065 29.9857 28.9714 30.0924 28.9219 30.1992C28.875 30.3034 28.8138 30.4036 28.7383 30.5C28.6654 30.5964 28.5755 30.6823 28.4688 30.7578C28.3646 30.8307 28.2435 30.8893 28.1055 30.9336C27.9674 30.9779 27.8112 31 27.6367 31H25.7969C25.6719 31 25.5378 30.9857 25.3945 30.957C25.2539 30.9284 25.1146 30.8828 24.9766 30.8203C24.8385 30.7552 24.7044 30.6745 24.5742 30.5781C24.4466 30.4792 24.3346 30.3607 24.2383 30.2227C24.1419 30.082 24.0638 29.9206 24.0039 29.7383C23.9466 29.556 23.918 29.3503 23.918 29.1211V27.2812C23.918 27.0521 23.9466 26.8464 24.0039 26.6641C24.0638 26.4818 24.1419 26.3216 24.2383 26.1836C24.3346 26.043 24.4466 25.9232 24.5742 25.8242C24.7044 25.7253 24.8385 25.6445 24.9766 25.582C25.1146 25.5169 25.2539 25.4701 25.3945 25.4414C25.5378 25.4128 25.6719 25.3984 25.7969 25.3984H28.3438V26.4141H25.7969C25.6667 26.4245 25.5482 26.4518 25.4414 26.4961C25.3372 26.5404 25.2474 26.599 25.1719 26.6719C25.0964 26.7448 25.0378 26.8333 24.9961 26.9375C24.9544 27.0391 24.9336 27.1536 24.9336 27.2812V27.6875ZM24.9336 28.7109V29.1211C24.9336 29.2539 24.9557 29.3737 25 29.4805C25.0469 29.5846 25.1094 29.6745 25.1875 29.75C25.2656 29.8255 25.3568 29.8841 25.4609 29.9258C25.5677 29.9648 25.6823 29.9844 25.8047 29.9844H27.6367C27.7669 29.9844 27.8659 29.9453 27.9336 29.8672C28.0039 29.7891 28.0391 29.6914 28.0391 29.5742V29.1211C28.0391 28.9883 28.0052 28.8867 27.9375 28.8164C27.8698 28.7461 27.7669 28.7109 27.6289 28.7109H24.9336ZM30.7188 30.4883C30.7188 30.5586 30.7044 30.625 30.6758 30.6875C30.6497 30.7474 30.6133 30.8008 30.5664 30.8477C30.5221 30.8919 30.4688 30.9271 30.4062 30.9531C30.3464 30.9792 30.2826 30.9922 30.2148 30.9922C30.1445 30.9922 30.0781 30.9792 30.0156 30.9531C29.9557 30.9271 29.9023 30.8919 29.8555 30.8477C29.8112 30.8008 29.776 30.7474 29.75 30.6875C29.724 30.625 29.7109 30.5586 29.7109 30.4883C29.7109 30.4206 29.724 30.3568 29.75 30.2969C29.776 30.2344 29.8112 30.181 29.8555 30.1367C29.9023 30.0898 29.9557 30.0534 30.0156 30.0273C30.0781 29.9987 30.1445 29.9844 30.2148 29.9844C30.2826 29.9844 30.3464 29.9987 30.4062 30.0273C30.4688 30.0534 30.5221 30.0898 30.5664 30.1367C30.6133 30.181 30.6497 30.2344 30.6758 30.2969C30.7044 30.3568 30.7188 30.4206 30.7188 30.4883ZM37.9297 28.6562C37.9297 28.8854 37.8997 29.1029 37.8398 29.3086C37.7826 29.5117 37.7005 29.7005 37.5938 29.875C37.487 30.0495 37.3607 30.2057 37.2148 30.3438C37.069 30.4818 36.9089 30.6003 36.7344 30.6992C36.5625 30.7956 36.3789 30.8698 36.1836 30.9219C35.9883 30.974 35.7891 31 35.5859 31H33.7539C33.5482 31 33.3477 30.974 33.1523 30.9219C32.957 30.8698 32.7721 30.7956 32.5977 30.6992C32.4258 30.6003 32.2669 30.4818 32.1211 30.3438C31.9753 30.2057 31.849 30.0495 31.7422 29.875C31.638 29.7005 31.556 29.5117 31.4961 29.3086C31.4388 29.1029 31.4102 28.8854 31.4102 28.6562V27.7422C31.4102 27.3984 31.474 27.0833 31.6016 26.7969C31.7318 26.5104 31.9049 26.2643 32.1211 26.0586C32.3372 25.8503 32.5859 25.6888 32.8672 25.5742C33.151 25.457 33.4466 25.3984 33.7539 25.3984H35.5859C35.7891 25.3984 35.9883 25.4245 36.1836 25.4766C36.3789 25.5286 36.5625 25.6042 36.7344 25.7031C36.9089 25.7995 37.069 25.9167 37.2148 26.0547C37.3607 26.1927 37.487 26.349 37.5938 26.5234C37.7005 26.6979 37.7826 26.888 37.8398 27.0938C37.8997 27.2969 37.9297 27.513 37.9297 27.7422V28.6562ZM36.9062 27.7422C36.9062 27.5417 36.8698 27.3594 36.7969 27.1953C36.724 27.0312 36.6263 26.8906 36.5039 26.7734C36.3841 26.6562 36.2448 26.5664 36.0859 26.5039C35.9271 26.4414 35.7604 26.4115 35.5859 26.4141H33.7539C33.5846 26.4115 33.4193 26.4414 33.2578 26.5039C33.099 26.5638 32.957 26.6523 32.832 26.7695C32.7096 26.8841 32.6107 27.0247 32.5352 27.1914C32.4622 27.3555 32.4258 27.5391 32.4258 27.7422V28.6562C32.4258 28.8594 32.4622 29.043 32.5352 29.207C32.6081 29.3711 32.7057 29.5117 32.8281 29.6289C32.9505 29.7435 33.0911 29.832 33.25 29.8945C33.4115 29.957 33.5794 29.987 33.7539 29.9844H35.5859C35.7865 29.9844 35.9674 29.9518 36.1289 29.8867C36.293 29.819 36.4323 29.7266 36.5469 29.6094C36.6615 29.4922 36.75 29.3529 36.8125 29.1914C36.875 29.0273 36.9062 28.849 36.9062 28.6562V27.7422ZM36.4648 27C36.5039 27.0573 36.5299 27.1198 36.543 27.1875C36.556 27.2526 36.556 27.3177 36.543 27.3828C36.5299 27.4453 36.5039 27.5052 36.4648 27.5625C36.4284 27.6172 36.3802 27.6641 36.3203 27.7031L33.5781 29.5352C33.5339 29.569 33.4883 29.5924 33.4414 29.6055C33.3945 29.6185 33.3464 29.625 33.2969 29.625C33.2135 29.625 33.1341 29.6055 33.0586 29.5664C32.9831 29.5273 32.9219 29.4714 32.875 29.3984C32.8359 29.3411 32.8099 29.2799 32.7969 29.2148C32.7839 29.1471 32.7826 29.082 32.793 29.0195C32.806 28.9544 32.8307 28.8945 32.8672 28.8398C32.9036 28.7826 32.9518 28.7344 33.0117 28.6953L35.7617 26.8633C35.819 26.8242 35.8802 26.7982 35.9453 26.7852C36.013 26.7721 36.0781 26.7721 36.1406 26.7852C36.2057 26.7982 36.2656 26.8229 36.3203 26.8594C36.3776 26.8958 36.4258 26.9427 36.4648 27ZM43.9375 31H42.9141V28.7109H39.3047C39.2318 28.7109 39.1641 28.6979 39.1016 28.6719C39.0391 28.6432 38.9844 28.6068 38.9375 28.5625C38.8932 28.5156 38.8581 28.4609 38.832 28.3984C38.806 28.3359 38.793 28.2695 38.793 28.1992V25.3984H39.8086V27.6875H42.9141V25.3984H43.9375V31Z" fill="url(#paint3_linear_126_138)"/>
<defs>
<linearGradient id="paint0_linear_126_138" x1="35" y1="0" x2="35" y2="45" gradientUnits="userSpaceOnUse">
<stop stop-color="white"/>
<stop offset="0.739583" stop-color="#9E9E9E"/>
<stop offset="1" stop-color="#4F4F4F"/>
</linearGradient>
<linearGradient id="paint1_linear_126_138" x1="35" y1="0" x2="35" y2="45" gradientUnits="userSpaceOnUse">
<stop stop-color="#2E13D0"/>
<stop offset="0.604167" stop-color="#784CD6"/>
<stop offset="1" stop-color="#D2C5F8"/>
</linearGradient>
<linearGradient id="paint2_linear_126_138" x1="25.0672" y1="12" x2="36.2756" y2="26.5095" gradientUnits="userSpaceOnUse">
<stop stop-color="#9E00FF"/>
<stop offset="1" stop-color="#0500FF"/>
</linearGradient>
<linearGradient id="paint3_linear_126_138" x1="28.541" y1="26.75" x2="34.9964" y2="35.5045" gradientUnits="userSpaceOnUse">
<stop stop-color="#9E00FF"/>
<stop offset="1" stop-color="#0500FF"/>
</linearGradient>
</defs>
</svg>
