<svg width="70" height="45" viewBox="0 0 70 45" fill="none" xmlns="http://www.w3.org/2000/svg">
<rect width="70" height="45" rx="22.5" fill="url(#paint0_linear_119_194)" fill-opacity="0.9"/>
<rect x="1" y="1" width="68" height="43" rx="21.5" stroke="url(#paint1_linear_119_194)" stroke-opacity="0.85" stroke-width="2"/>
<path d="M23.0312 14.5859H19.4844V21H17.4297V14.5859H14.7891V12.5547H17.4297V9.79688H19.4844V12.5547H23.0312V14.5859ZM33.6016 19.9766C33.6016 20.1224 33.5755 20.2578 33.5234 20.3828C33.4714 20.5078 33.3984 20.6172 33.3047 20.7109C33.2161 20.7995 33.1094 20.8698 32.9844 20.9219C32.8646 20.974 32.7344 21 32.5938 21H28C27.75 21 27.4818 20.9714 27.1953 20.9141C26.9141 20.8568 26.6354 20.7656 26.3594 20.6406C26.0833 20.5104 25.8151 20.349 25.5547 20.1562C25.2995 19.9583 25.0755 19.7214 24.8828 19.4453C24.6901 19.1641 24.5339 18.8411 24.4141 18.4766C24.2995 18.112 24.2422 17.7005 24.2422 17.2422V12.5547H26.2734V17.2422C26.2734 17.5078 26.3177 17.7474 26.4062 17.9609C26.5 18.1693 26.625 18.349 26.7812 18.5C26.9375 18.651 27.1198 18.7682 27.3281 18.8516C27.5417 18.9297 27.7708 18.9688 28.0156 18.9688H31.5703V12.5547H33.6016V19.9766ZM44.5938 15.3516C44.5938 15.6328 44.5443 15.9375 44.4453 16.2656C44.3464 16.5885 44.1849 16.8906 43.9609 17.1719C43.7422 17.4479 43.4531 17.6797 43.0938 17.8672C42.7396 18.0547 42.3073 18.1484 41.7969 18.1484H38.1328V16.2188H41.7969C42.0729 16.2188 42.2865 16.1354 42.4375 15.9688C42.5885 15.7969 42.6641 15.5859 42.6641 15.3359C42.6641 15.0703 42.5781 14.862 42.4062 14.7109C42.2396 14.5599 42.0365 14.4844 41.7969 14.4844H38.1328C37.8568 14.4844 37.6432 14.5703 37.4922 14.7422C37.3411 14.9089 37.2656 15.1172 37.2656 15.3672V18.2031C37.2656 18.474 37.349 18.6849 37.5156 18.8359C37.6875 18.987 37.8984 19.0625 38.1484 19.0625H41.7969V21H38.1328C37.8516 21 37.5469 20.9505 37.2188 20.8516C36.8958 20.7526 36.5938 20.5938 36.3125 20.375C36.0365 20.151 35.8047 19.862 35.6172 19.5078C35.4297 19.1484 35.3359 18.7135 35.3359 18.2031V15.3516C35.3359 15.0703 35.3854 14.7682 35.4844 14.4453C35.5833 14.1172 35.7422 13.8151 35.9609 13.5391C36.1849 13.2578 36.474 13.0234 36.8281 12.8359C37.1875 12.6484 37.6224 12.5547 38.1328 12.5547H41.7969C42.0781 12.5547 42.3802 12.6042 42.7031 12.7031C43.0312 12.8021 43.3333 12.9635 43.6094 13.1875C43.8906 13.4062 44.125 13.6953 44.3125 14.0547C44.5 14.4089 44.5938 14.8411 44.5938 15.3516ZM54.125 18.1484C54.125 18.4974 54.0807 18.8125 53.9922 19.0938C53.9036 19.3698 53.7865 19.6146 53.6406 19.8281C53.4948 20.0365 53.3255 20.2161 53.1328 20.3672C52.9401 20.513 52.737 20.6328 52.5234 20.7266C52.3151 20.8203 52.1016 20.8906 51.8828 20.9375C51.6693 20.9792 51.4661 21 51.2734 21H45.7734V18.9688H51.2578C51.5339 18.9688 51.7422 18.8984 51.8828 18.7578C52.0234 18.6172 52.0938 18.4141 52.0938 18.1484C52.0677 17.6068 51.7943 17.3359 51.2734 17.3359H48.125C47.6771 17.3359 47.2969 17.2578 46.9844 17.1016C46.6719 16.9453 46.4167 16.75 46.2188 16.5156C46.026 16.2812 45.8854 16.0286 45.7969 15.7578C45.7135 15.487 45.6719 15.2344 45.6719 15C45.6719 14.5469 45.7526 14.1667 45.9141 13.8594C46.0755 13.5469 46.2786 13.2943 46.5234 13.1016C46.7682 12.9089 47.0339 12.7708 47.3203 12.6875C47.6068 12.599 47.875 12.5547 48.125 12.5547H53.1172V14.5859H48.1406C48.0365 14.5859 47.9531 14.599 47.8906 14.625C47.8333 14.6458 47.7891 14.6771 47.7578 14.7188C47.7318 14.7552 47.7161 14.7969 47.7109 14.8438C47.7057 14.8854 47.7031 14.9271 47.7031 14.9688C47.7083 15.0521 47.724 15.1172 47.75 15.1641C47.776 15.2109 47.8073 15.2448 47.8438 15.2656C47.8854 15.2865 47.9297 15.2995 47.9766 15.3047C48.0286 15.3047 48.0781 15.3047 48.125 15.3047H51.2734C51.7943 15.3047 52.237 15.3984 52.6016 15.5859C52.9661 15.7734 53.2604 16.0104 53.4844 16.2969C53.7083 16.5781 53.8698 16.8854 53.9688 17.2188C54.0729 17.5521 54.125 17.862 54.125 18.1484Z" fill="url(#paint2_linear_119_194)" fill-opacity="0.85"/>
<path d="M28.1133 32H26.834V29.1387H22.3223C22.2311 29.1387 22.1465 29.1224 22.0684 29.0898C21.9902 29.054 21.9219 29.0085 21.8633 28.9531C21.8079 28.8945 21.764 28.8262 21.7314 28.748C21.6989 28.6699 21.6826 28.5869 21.6826 28.499V24.998H22.9521V27.8594H26.834V24.998H28.1133V32ZM30.5449 31.3604C30.5449 31.4482 30.527 31.5312 30.4912 31.6094C30.4587 31.6842 30.4131 31.751 30.3545 31.8096C30.2992 31.8649 30.2324 31.9089 30.1543 31.9414C30.0794 31.974 29.9997 31.9902 29.915 31.9902C29.8271 31.9902 29.7441 31.974 29.666 31.9414C29.5911 31.9089 29.5244 31.8649 29.4658 31.8096C29.4105 31.751 29.3665 31.6842 29.334 31.6094C29.3014 31.5312 29.2852 31.4482 29.2852 31.3604C29.2852 31.2757 29.3014 31.196 29.334 31.1211C29.3665 31.043 29.4105 30.9762 29.4658 30.9209C29.5244 30.8623 29.5911 30.8167 29.666 30.7842C29.7441 30.7484 29.8271 30.7305 29.915 30.7305C29.9997 30.7305 30.0794 30.7484 30.1543 30.7842C30.2324 30.8167 30.2992 30.8623 30.3545 30.9209C30.4131 30.9762 30.4587 31.043 30.4912 31.1211C30.527 31.196 30.5449 31.2757 30.5449 31.3604ZM39.5586 29.0703C39.5586 29.3568 39.5212 29.6286 39.4463 29.8857C39.3747 30.1396 39.2721 30.3757 39.1387 30.5938C39.0052 30.8118 38.8473 31.0072 38.665 31.1797C38.4827 31.3522 38.2826 31.5003 38.0645 31.624C37.8496 31.7445 37.6201 31.8372 37.376 31.9023C37.1318 31.9674 36.8828 32 36.6289 32H34.3389C34.0817 32 33.8311 31.9674 33.5869 31.9023C33.3428 31.8372 33.1117 31.7445 32.8936 31.624C32.6787 31.5003 32.4801 31.3522 32.2979 31.1797C32.1156 31.0072 31.9577 30.8118 31.8242 30.5938C31.694 30.3757 31.5915 30.1396 31.5166 29.8857C31.445 29.6286 31.4092 29.3568 31.4092 29.0703V27.9277C31.4092 27.498 31.4889 27.1042 31.6484 26.7461C31.8112 26.388 32.0277 26.0804 32.2979 25.8232C32.568 25.5628 32.8789 25.361 33.2305 25.2178C33.5853 25.0713 33.9548 24.998 34.3389 24.998H36.6289C36.8828 24.998 37.1318 25.0306 37.376 25.0957C37.6201 25.1608 37.8496 25.2552 38.0645 25.3789C38.2826 25.4993 38.4827 25.6458 38.665 25.8184C38.8473 25.9909 39.0052 26.1862 39.1387 26.4043C39.2721 26.6224 39.3747 26.86 39.4463 27.1172C39.5212 27.3711 39.5586 27.6413 39.5586 27.9277V29.0703ZM38.2793 27.9277C38.2793 27.6771 38.2337 27.4492 38.1426 27.2441C38.0514 27.0391 37.9294 26.8633 37.7764 26.7168C37.6266 26.5703 37.4525 26.458 37.2539 26.3799C37.0553 26.3018 36.847 26.2643 36.6289 26.2676H34.3389C34.1273 26.2643 33.9206 26.3018 33.7188 26.3799C33.5202 26.4548 33.3428 26.5654 33.1865 26.7119C33.0335 26.8551 32.9098 27.0309 32.8154 27.2393C32.7243 27.4443 32.6787 27.6738 32.6787 27.9277V29.0703C32.6787 29.3242 32.7243 29.5537 32.8154 29.7588C32.9066 29.9639 33.0286 30.1396 33.1816 30.2861C33.3346 30.4294 33.5104 30.54 33.709 30.6182C33.9108 30.6963 34.1208 30.7337 34.3389 30.7305H36.6289C36.8796 30.7305 37.1058 30.6898 37.3076 30.6084C37.5127 30.5238 37.6868 30.4082 37.8301 30.2617C37.9733 30.1152 38.084 29.9411 38.1621 29.7393C38.2402 29.5342 38.2793 29.3112 38.2793 29.0703V27.9277ZM37.7275 27C37.7764 27.0716 37.8089 27.1497 37.8252 27.2344C37.8415 27.3158 37.8415 27.3971 37.8252 27.4785C37.8089 27.5566 37.7764 27.6315 37.7275 27.7031C37.682 27.7715 37.6217 27.8301 37.5469 27.8789L34.1191 30.1689C34.0638 30.2113 34.0068 30.2406 33.9482 30.2568C33.8896 30.2731 33.8294 30.2812 33.7676 30.2812C33.6634 30.2812 33.5641 30.2568 33.4697 30.208C33.3753 30.1592 33.2988 30.0892 33.2402 29.998C33.1914 29.9264 33.1589 29.8499 33.1426 29.7686C33.1263 29.6839 33.1247 29.6025 33.1377 29.5244C33.154 29.443 33.1849 29.3682 33.2305 29.2998C33.276 29.2282 33.3363 29.168 33.4111 29.1191L36.8486 26.8291C36.9202 26.7803 36.9967 26.7477 37.0781 26.7314C37.1628 26.7152 37.2441 26.7152 37.3223 26.7314C37.4036 26.7477 37.4785 26.7786 37.5469 26.8242C37.6185 26.8698 37.6787 26.9284 37.7275 27ZM47.0684 32H45.7891V29.1387H41.2773C41.1862 29.1387 41.1016 29.1224 41.0234 29.0898C40.9453 29.054 40.877 29.0085 40.8184 28.9531C40.763 28.8945 40.7191 28.8262 40.6865 28.748C40.654 28.6699 40.6377 28.5869 40.6377 28.499V24.998H41.9072V27.8594H45.7891V24.998H47.0684V32Z" fill="url(#paint3_linear_119_194)" fill-opacity="0.85"/>
<defs>
<linearGradient id="paint0_linear_119_194" x1="35" y1="0" x2="35" y2="45" gradientUnits="userSpaceOnUse">
<stop stop-color="#626161"/>
<stop offset="0.276042" stop-color="#ADADAD"/>
<stop offset="1" stop-color="white"/>
</linearGradient>
<linearGradient id="paint1_linear_119_194" x1="35" y1="0" x2="35" y2="45" gradientUnits="userSpaceOnUse">
<stop stop-color="#F9BE79"/>
<stop offset="0.427083" stop-color="#FE5B00"/>
<stop offset="0.890625" stop-color="#D04013"/>
</linearGradient>
<linearGradient id="paint2_linear_119_194" x1="34.5" y1="8" x2="34.5" y2="22" gradientUnits="userSpaceOnUse">
<stop offset="0.15625" stop-color="#FE5B00"/>
<stop offset="0.489583" stop-color="#F9BE79"/>
<stop offset="0.890625" stop-color="#E66000"/>
</linearGradient>
<linearGradient id="paint3_linear_119_194" x1="34.5" y1="24" x2="34.5" y2="33" gradientUnits="userSpaceOnUse">
<stop stop-color="#F9BE79"/>
<stop offset="0.427083" stop-color="#FE5B00"/>
<stop offset="0.890625" stop-color="#D04013"/>
</linearGradient>
</defs>
</svg>
