<svg width="70" height="45" viewBox="0 0 70 45" fill="none" xmlns="http://www.w3.org/2000/svg">
<rect width="70" height="45" rx="22.5" fill="url(#paint0_linear_119_197)" fill-opacity="0.9"/>
<rect x="1" y="1" width="68" height="43" rx="21.5" stroke="url(#paint1_linear_119_197)" stroke-opacity="0.7" stroke-width="2"/>
<path d="M23.9648 14.3877H20.8613V20H19.0635V14.3877H16.7529V12.6104H19.0635V10.1973H20.8613V12.6104H23.9648V14.3877ZM33.2139 19.1045C33.2139 19.2321 33.1911 19.3506 33.1455 19.46C33.0999 19.5693 33.0361 19.665 32.9541 19.7471C32.8766 19.8245 32.7832 19.8861 32.6738 19.9316C32.569 19.9772 32.4551 20 32.332 20H28.3125C28.0938 20 27.859 19.9749 27.6084 19.9248C27.3623 19.8747 27.1185 19.7949 26.877 19.6855C26.6354 19.5716 26.4007 19.4303 26.1729 19.2617C25.9495 19.0885 25.7536 18.8812 25.585 18.6396C25.4163 18.3936 25.2796 18.111 25.1748 17.792C25.0745 17.473 25.0244 17.113 25.0244 16.7119V12.6104H26.8018V16.7119C26.8018 16.9443 26.8405 17.154 26.918 17.3408C27 17.5231 27.1094 17.6803 27.2461 17.8125C27.3828 17.9447 27.5423 18.0472 27.7246 18.1201C27.9115 18.1885 28.112 18.2227 28.3262 18.2227H31.4365V12.6104H33.2139V19.1045ZM42.832 15.0576C42.832 15.3037 42.7887 15.5703 42.7021 15.8574C42.6156 16.14 42.4743 16.4043 42.2783 16.6504C42.0869 16.8919 41.834 17.0947 41.5195 17.2588C41.2096 17.4229 40.8314 17.5049 40.3848 17.5049H37.1787V15.8164H40.3848C40.6263 15.8164 40.8132 15.7435 40.9453 15.5977C41.0775 15.4473 41.1436 15.2627 41.1436 15.0439C41.1436 14.8115 41.0684 14.6292 40.918 14.4971C40.7721 14.3649 40.5944 14.2988 40.3848 14.2988H37.1787C36.9372 14.2988 36.7503 14.374 36.6182 14.5244C36.486 14.6702 36.4199 14.8525 36.4199 15.0713V17.5527C36.4199 17.7897 36.4928 17.9743 36.6387 18.1064C36.7891 18.2386 36.9736 18.3047 37.1924 18.3047H40.3848V20H37.1787C36.9326 20 36.666 19.9567 36.3789 19.8701C36.0964 19.7835 35.832 19.6445 35.5859 19.4531C35.3444 19.2572 35.1416 19.0042 34.9775 18.6943C34.8135 18.3799 34.7314 17.9993 34.7314 17.5527V15.0576C34.7314 14.8115 34.7747 14.5472 34.8613 14.2646C34.9479 13.9775 35.0869 13.7132 35.2783 13.4717C35.4743 13.2256 35.7272 13.0205 36.0371 12.8564C36.3516 12.6924 36.7321 12.6104 37.1787 12.6104H40.3848C40.6309 12.6104 40.8952 12.6536 41.1777 12.7402C41.4648 12.8268 41.7292 12.9681 41.9707 13.1641C42.2168 13.3555 42.4219 13.6084 42.5859 13.9229C42.75 14.2327 42.832 14.611 42.832 15.0576ZM51.1719 17.5049C51.1719 17.8102 51.1331 18.0859 51.0557 18.332C50.9782 18.5736 50.8757 18.7878 50.748 18.9746C50.6204 19.1569 50.4723 19.3141 50.3037 19.4463C50.1351 19.5739 49.9574 19.6787 49.7705 19.7607C49.5882 19.8428 49.4014 19.9043 49.21 19.9453C49.0231 19.9818 48.8454 20 48.6768 20H43.8643V18.2227H48.6631C48.9046 18.2227 49.0869 18.1611 49.21 18.0381C49.333 17.915 49.3945 17.7373 49.3945 17.5049C49.3717 17.0309 49.1325 16.7939 48.6768 16.7939H45.9219C45.5299 16.7939 45.1973 16.7256 44.9238 16.5889C44.6504 16.4521 44.4271 16.2812 44.2539 16.0762C44.0853 15.8711 43.9622 15.6501 43.8848 15.4131C43.8118 15.1761 43.7754 14.9551 43.7754 14.75C43.7754 14.3535 43.846 14.0208 43.9873 13.752C44.1286 13.4785 44.3063 13.2575 44.5205 13.0889C44.7347 12.9202 44.9671 12.7995 45.2178 12.7266C45.4684 12.6491 45.7031 12.6104 45.9219 12.6104H50.29V14.3877H45.9355C45.8444 14.3877 45.7715 14.3991 45.7168 14.4219C45.6667 14.4401 45.6279 14.4674 45.6006 14.5039C45.5778 14.5358 45.5641 14.5723 45.5596 14.6133C45.555 14.6497 45.5527 14.6862 45.5527 14.7227C45.5573 14.7956 45.571 14.8525 45.5938 14.8936C45.6165 14.9346 45.6439 14.9642 45.6758 14.9824C45.7122 15.0007 45.751 15.012 45.792 15.0166C45.8376 15.0166 45.8809 15.0166 45.9219 15.0166H48.6768C49.1325 15.0166 49.5199 15.0986 49.8389 15.2627C50.1579 15.4268 50.4154 15.6341 50.6113 15.8848C50.8073 16.1309 50.9486 16.3997 51.0352 16.6914C51.1263 16.9831 51.1719 17.2542 51.1719 17.5049Z" fill="url(#paint2_linear_119_197)"/>
<path d="M28.8906 31H27.8672V28.7109H24.2578C24.1849 28.7109 24.1172 28.6979 24.0547 28.6719C23.9922 28.6432 23.9375 28.6068 23.8906 28.5625C23.8464 28.5156 23.8112 28.4609 23.7852 28.3984C23.7591 28.3359 23.7461 28.2695 23.7461 28.1992V25.3984H24.7617V27.6875H27.8672V25.3984H28.8906V31ZM30.8359 30.4883C30.8359 30.5586 30.8216 30.625 30.793 30.6875C30.7669 30.7474 30.7305 30.8008 30.6836 30.8477C30.6393 30.8919 30.5859 30.9271 30.5234 30.9531C30.4635 30.9792 30.3997 30.9922 30.332 30.9922C30.2617 30.9922 30.1953 30.9792 30.1328 30.9531C30.0729 30.9271 30.0195 30.8919 29.9727 30.8477C29.9284 30.8008 29.8932 30.7474 29.8672 30.6875C29.8411 30.625 29.8281 30.5586 29.8281 30.4883C29.8281 30.4206 29.8411 30.3568 29.8672 30.2969C29.8932 30.2344 29.9284 30.181 29.9727 30.1367C30.0195 30.0898 30.0729 30.0534 30.1328 30.0273C30.1953 29.9987 30.2617 29.9844 30.332 29.9844C30.3997 29.9844 30.4635 29.9987 30.5234 30.0273C30.5859 30.0534 30.6393 30.0898 30.6836 30.1367C30.7305 30.181 30.7669 30.2344 30.793 30.2969C30.8216 30.3568 30.8359 30.4206 30.8359 30.4883ZM38.0469 28.6562C38.0469 28.8854 38.0169 29.1029 37.957 29.3086C37.8997 29.5117 37.8177 29.7005 37.7109 29.875C37.6042 30.0495 37.4779 30.2057 37.332 30.3438C37.1862 30.4818 37.026 30.6003 36.8516 30.6992C36.6797 30.7956 36.4961 30.8698 36.3008 30.9219C36.1055 30.974 35.9062 31 35.7031 31H33.8711C33.6654 31 33.4648 30.974 33.2695 30.9219C33.0742 30.8698 32.8893 30.7956 32.7148 30.6992C32.543 30.6003 32.3841 30.4818 32.2383 30.3438C32.0924 30.2057 31.9661 30.0495 31.8594 29.875C31.7552 29.7005 31.6732 29.5117 31.6133 29.3086C31.556 29.1029 31.5273 28.8854 31.5273 28.6562V27.7422C31.5273 27.3984 31.5911 27.0833 31.7188 26.7969C31.849 26.5104 32.0221 26.2643 32.2383 26.0586C32.4544 25.8503 32.7031 25.6888 32.9844 25.5742C33.2682 25.457 33.5638 25.3984 33.8711 25.3984H35.7031C35.9062 25.3984 36.1055 25.4245 36.3008 25.4766C36.4961 25.5286 36.6797 25.6042 36.8516 25.7031C37.026 25.7995 37.1862 25.9167 37.332 26.0547C37.4779 26.1927 37.6042 26.349 37.7109 26.5234C37.8177 26.6979 37.8997 26.888 37.957 27.0938C38.0169 27.2969 38.0469 27.513 38.0469 27.7422V28.6562ZM37.0234 27.7422C37.0234 27.5417 36.987 27.3594 36.9141 27.1953C36.8411 27.0312 36.7435 26.8906 36.6211 26.7734C36.5013 26.6562 36.362 26.5664 36.2031 26.5039C36.0443 26.4414 35.8776 26.4115 35.7031 26.4141H33.8711C33.7018 26.4115 33.5365 26.4414 33.375 26.5039C33.2161 26.5638 33.0742 26.6523 32.9492 26.7695C32.8268 26.8841 32.7279 27.0247 32.6523 27.1914C32.5794 27.3555 32.543 27.5391 32.543 27.7422V28.6562C32.543 28.8594 32.5794 29.043 32.6523 29.207C32.7253 29.3711 32.8229 29.5117 32.9453 29.6289C33.0677 29.7435 33.2083 29.832 33.3672 29.8945C33.5286 29.957 33.6966 29.987 33.8711 29.9844H35.7031C35.9036 29.9844 36.0846 29.9518 36.2461 29.8867C36.4102 29.819 36.5495 29.7266 36.6641 29.6094C36.7786 29.4922 36.8672 29.3529 36.9297 29.1914C36.9922 29.0273 37.0234 28.849 37.0234 28.6562V27.7422ZM36.582 27C36.6211 27.0573 36.6471 27.1198 36.6602 27.1875C36.6732 27.2526 36.6732 27.3177 36.6602 27.3828C36.6471 27.4453 36.6211 27.5052 36.582 27.5625C36.5456 27.6172 36.4974 27.6641 36.4375 27.7031L33.6953 29.5352C33.651 29.569 33.6055 29.5924 33.5586 29.6055C33.5117 29.6185 33.4635 29.625 33.4141 29.625C33.3307 29.625 33.2513 29.6055 33.1758 29.5664C33.1003 29.5273 33.0391 29.4714 32.9922 29.3984C32.9531 29.3411 32.9271 29.2799 32.9141 29.2148C32.901 29.1471 32.8997 29.082 32.9102 29.0195C32.9232 28.9544 32.9479 28.8945 32.9844 28.8398C33.0208 28.7826 33.069 28.7344 33.1289 28.6953L35.8789 26.8633C35.9362 26.8242 35.9974 26.7982 36.0625 26.7852C36.1302 26.7721 36.1953 26.7721 36.2578 26.7852C36.3229 26.7982 36.3828 26.8229 36.4375 26.8594C36.4948 26.8958 36.543 26.9427 36.582 27ZM44.0547 31H43.0312V28.7109H39.4219C39.349 28.7109 39.2812 28.6979 39.2188 28.6719C39.1562 28.6432 39.1016 28.6068 39.0547 28.5625C39.0104 28.5156 38.9753 28.4609 38.9492 28.3984C38.9232 28.3359 38.9102 28.2695 38.9102 28.1992V25.3984H39.9258V27.6875H43.0312V25.3984H44.0547V31Z" fill="url(#paint3_linear_119_197)"/>
<defs>
<linearGradient id="paint0_linear_119_197" x1="35" y1="0" x2="35" y2="45" gradientUnits="userSpaceOnUse">
<stop stop-color="white"/>
<stop offset="0.739583" stop-color="#9E9E9E"/>
<stop offset="1" stop-color="#4F4F4F"/>
</linearGradient>
<linearGradient id="paint1_linear_119_197" x1="35" y1="0" x2="35" y2="45" gradientUnits="userSpaceOnUse">
<stop stop-color="#2E13D0"/>
<stop offset="0.604167" stop-color="#784CD6"/>
<stop offset="1" stop-color="#D2C5F8"/>
</linearGradient>
<linearGradient id="paint2_linear_119_197" x1="25.0672" y1="12" x2="36.2756" y2="26.5095" gradientUnits="userSpaceOnUse">
<stop stop-color="#9E00FF"/>
<stop offset="1" stop-color="#0500FF"/>
</linearGradient>
<linearGradient id="paint3_linear_119_197" x1="28.541" y1="26.75" x2="34.9964" y2="35.5045" gradientUnits="userSpaceOnUse">
<stop stop-color="#9E00FF"/>
<stop offset="1" stop-color="#0500FF"/>
</linearGradient>
</defs>
</svg>
