<svg width="70" height="45" viewBox="0 0 70 45" fill="none" xmlns="http://www.w3.org/2000/svg">
<rect width="70" height="45" rx="22.5" fill="url(#paint0_linear_119_194)" fill-opacity="0.9"/>
<rect x="1" y="1" width="68" height="43" rx="21.5" stroke="url(#paint1_linear_119_194)" stroke-opacity="0.85" stroke-width="2"/>
<path d="M31.2266 12.5547C30.9036 13.2786 30.5547 13.9922 30.1797 14.6953C29.8047 15.3932 29.4115 16.0547 29 16.6797C28.5938 17.3047 28.1771 17.8828 27.75 18.4141C27.3229 18.9401 26.8984 19.3958 26.4766 19.7812C26.0599 20.1615 25.651 20.4609 25.25 20.6797C24.8542 20.8932 24.4792 21 24.125 21C23.9792 21 23.8438 20.974 23.7188 20.9219C23.5938 20.8698 23.4844 20.7995 23.3906 20.7109C23.2969 20.6172 23.224 20.5078 23.1719 20.3828C23.1198 20.2578 23.0938 20.1224 23.0938 19.9766V16.1875L19.0625 20.6953C18.9583 20.7995 18.8438 20.8776 18.7188 20.9297C18.599 20.9766 18.474 21 18.3438 21C18.2031 21 18.0703 20.974 17.9453 20.9219C17.8255 20.8698 17.7188 20.7995 17.625 20.7109C17.5312 20.6172 17.4557 20.5078 17.3984 20.3828C17.3464 20.2578 17.3203 20.1224 17.3203 19.9766V12.5547H19.3516V17.3672L23.3984 12.8438C23.5443 12.6979 23.7161 12.6068 23.9141 12.5703C24.1172 12.5286 24.3151 12.5495 24.5078 12.6328C24.7005 12.7109 24.8516 12.8359 24.9609 13.0078C25.0755 13.1745 25.1328 13.3594 25.1328 13.5625V18.3906C25.5703 17.9688 25.9661 17.5234 26.3203 17.0547C26.6745 16.5859 27.0026 16.1042 27.3047 15.6094C27.612 15.1094 27.8984 14.6042 28.1641 14.0938C28.4349 13.5781 28.6979 13.0651 28.9531 12.5547H31.2266ZM41.0156 15.3516C41.0156 15.6328 40.9661 15.9375 40.8672 16.2656C40.7682 16.5885 40.6068 16.8906 40.3828 17.1719C40.1641 17.4479 39.875 17.6797 39.5156 17.8672C39.1615 18.0547 38.7292 18.1484 38.2188 18.1484H34.5547V16.2188H38.2188C38.4948 16.2188 38.7083 16.1354 38.8594 15.9688C39.0104 15.7969 39.0859 15.5859 39.0859 15.3359C39.0859 15.0703 39 14.862 38.8281 14.7109C38.6615 14.5599 38.4583 14.4844 38.2188 14.4844H34.5547C34.2786 14.4844 34.0651 14.5703 33.9141 14.7422C33.763 14.9089 33.6875 15.1172 33.6875 15.3672V18.2031C33.6875 18.474 33.7708 18.6849 33.9375 18.8359C34.1094 18.987 34.3203 19.0625 34.5703 19.0625H38.2188V21H34.5547C34.2734 21 33.9688 20.9505 33.6406 20.8516C33.3177 20.7526 33.0156 20.5938 32.7344 20.375C32.4583 20.151 32.2266 19.862 32.0391 19.5078C31.8516 19.1484 31.7578 18.7135 31.7578 18.2031V15.3516C31.7578 15.0703 31.8073 14.7682 31.9062 14.4453C32.0052 14.1172 32.1641 13.8151 32.3828 13.5391C32.6068 13.2578 32.8958 13.0234 33.25 12.8359C33.6094 12.6484 34.0443 12.5547 34.5547 12.5547H38.2188C38.5 12.5547 38.8021 12.6042 39.125 12.7031C39.4531 12.8021 39.7552 12.9635 40.0312 13.1875C40.3125 13.4062 40.5469 13.6953 40.7344 14.0547C40.9219 14.4089 41.0156 14.8411 41.0156 15.3516ZM51.6484 18.1484C51.6484 18.4974 51.6042 18.8125 51.5156 19.0938C51.4271 19.3698 51.3099 19.6146 51.1641 19.8281C51.0182 20.0365 50.849 20.2161 50.6562 20.3672C50.4635 20.513 50.2604 20.6328 50.0469 20.7266C49.8385 20.8203 49.625 20.8906 49.4062 20.9375C49.1927 20.9792 48.9896 21 48.7969 21H45.1328C44.7839 21 44.4714 20.9557 44.1953 20.8672C43.9193 20.7786 43.6745 20.6615 43.4609 20.5156C43.2526 20.3646 43.0729 20.1927 42.9219 20C42.776 19.8073 42.6562 19.6068 42.5625 19.3984C42.4688 19.1849 42.3984 18.9714 42.3516 18.7578C42.3099 18.5391 42.2891 18.3359 42.2891 18.1484V15.3984C42.2891 14.8776 42.3828 14.4375 42.5703 14.0781C42.763 13.7135 43 13.4193 43.2812 13.1953C43.5677 12.9661 43.8776 12.8021 44.2109 12.7031C44.5443 12.6042 44.8516 12.5547 45.1328 12.5547H48.7969V14.5859H45.1484C44.8776 14.5859 44.6719 14.6562 44.5312 14.7969C44.3906 14.9323 44.3203 15.1328 44.3203 15.3984V18.1328C44.3203 18.4089 44.388 18.6172 44.5234 18.7578C44.6641 18.8984 44.8672 18.9688 45.1328 18.9688H48.7969C49.0729 18.9688 49.2786 18.8984 49.4141 18.7578C49.5495 18.6172 49.6172 18.4141 49.6172 18.1484V8.98438H51.6484V18.1484Z" fill="url(#paint2_linear_119_194)" fill-opacity="0.85"/>
<path d="M28.3232 30.2178C28.3232 30.3382 28.3086 30.4652 28.2793 30.5986C28.2533 30.7321 28.2093 30.8656 28.1475 30.999C28.0889 31.1292 28.0124 31.2546 27.918 31.375C27.8268 31.4954 27.7145 31.6029 27.5811 31.6973C27.4508 31.7884 27.2995 31.8617 27.127 31.917C26.9544 31.9723 26.7607 32 26.5459 32H21.8926V30.7305H26.5459C26.7054 30.7305 26.8275 30.6816 26.9121 30.584C27 30.4863 27.0439 30.3643 27.0439 30.2178V29.6514C27.0439 29.4854 27.0016 29.3584 26.917 29.2705C26.8324 29.1826 26.7054 29.1387 26.5361 29.1387H23.6748C23.346 29.1387 23.0677 29.0801 22.8398 28.9629C22.6152 28.8424 22.4329 28.6927 22.293 28.5137C22.153 28.3346 22.0505 28.141 21.9854 27.9326C21.9235 27.7243 21.8926 27.5306 21.8926 27.3516V24.998H27.7422V26.2676H23.1621V27.3516C23.1621 27.5208 23.2061 27.6478 23.2939 27.7324C23.3818 27.8171 23.5088 27.8594 23.6748 27.8594H26.5459C26.7217 27.8594 26.9137 27.8919 27.1221 27.957C27.3304 28.0189 27.5225 28.1214 27.6982 28.2646C27.8773 28.4046 28.0254 28.5885 28.1426 28.8164C28.263 29.0443 28.3232 29.3226 28.3232 29.6514V30.2178ZM30.4326 31.3604C30.4326 31.4482 30.4147 31.5312 30.3789 31.6094C30.3464 31.6842 30.3008 31.751 30.2422 31.8096C30.1868 31.8649 30.1201 31.9089 30.042 31.9414C29.9671 31.974 29.8874 31.9902 29.8027 31.9902C29.7148 31.9902 29.6318 31.974 29.5537 31.9414C29.4788 31.9089 29.4121 31.8649 29.3535 31.8096C29.2982 31.751 29.2542 31.6842 29.2217 31.6094C29.1891 31.5312 29.1729 31.4482 29.1729 31.3604C29.1729 31.2757 29.1891 31.196 29.2217 31.1211C29.2542 31.043 29.2982 30.9762 29.3535 30.9209C29.4121 30.8623 29.4788 30.8167 29.5537 30.7842C29.6318 30.7484 29.7148 30.7305 29.8027 30.7305C29.8874 30.7305 29.9671 30.7484 30.042 30.7842C30.1201 30.8167 30.1868 30.8623 30.2422 30.9209C30.3008 30.9762 30.3464 31.043 30.3789 31.1211C30.4147 31.196 30.4326 31.2757 30.4326 31.3604ZM39.4463 29.0703C39.4463 29.3568 39.4089 29.6286 39.334 29.8857C39.2624 30.1396 39.1598 30.3757 39.0264 30.5938C38.8929 30.8118 38.735 31.0072 38.5527 31.1797C38.3704 31.3522 38.1702 31.5003 37.9521 31.624C37.7373 31.7445 37.5078 31.8372 37.2637 31.9023C37.0195 31.9674 36.7705 32 36.5166 32H34.2266C33.9694 32 33.7188 31.9674 33.4746 31.9023C33.2305 31.8372 32.9993 31.7445 32.7812 31.624C32.5664 31.5003 32.3678 31.3522 32.1855 31.1797C32.0033 31.0072 31.8454 30.8118 31.7119 30.5938C31.5817 30.3757 31.4792 30.1396 31.4043 29.8857C31.3327 29.6286 31.2969 29.3568 31.2969 29.0703V27.9277C31.2969 27.498 31.3766 27.1042 31.5361 26.7461C31.6989 26.388 31.9154 26.0804 32.1855 25.8232C32.4557 25.5628 32.7666 25.361 33.1182 25.2178C33.473 25.0713 33.8424 24.998 34.2266 24.998H36.5166C36.7705 24.998 37.0195 25.0306 37.2637 25.0957C37.5078 25.1608 37.7373 25.2552 37.9521 25.3789C38.1702 25.4993 38.3704 25.6458 38.5527 25.8184C38.735 25.9909 38.8929 26.1862 39.0264 26.4043C39.1598 26.6224 39.2624 26.86 39.334 27.1172C39.4089 27.3711 39.4463 27.6413 39.4463 27.9277V29.0703ZM38.167 27.9277C38.167 27.6771 38.1214 27.4492 38.0303 27.2441C37.9391 27.0391 37.8171 26.8633 37.6641 26.7168C37.5143 26.5703 37.3402 26.458 37.1416 26.3799C36.943 26.3018 36.7347 26.2643 36.5166 26.2676H34.2266C34.015 26.2643 33.8083 26.3018 33.6064 26.3799C33.4079 26.4548 33.2305 26.5654 33.0742 26.7119C32.9212 26.8551 32.7975 27.0309 32.7031 27.2393C32.612 27.4443 32.5664 27.6738 32.5664 27.9277V29.0703C32.5664 29.3242 32.612 29.5537 32.7031 29.7588C32.7943 29.9639 32.9163 30.1396 33.0693 30.2861C33.2223 30.4294 33.3981 30.54 33.5967 30.6182C33.7985 30.6963 34.0085 30.7337 34.2266 30.7305H36.5166C36.7673 30.7305 36.9935 30.6898 37.1953 30.6084C37.4004 30.5238 37.5745 30.4082 37.7178 30.2617C37.861 30.1152 37.9717 29.9411 38.0498 29.7393C38.1279 29.5342 38.167 29.3112 38.167 29.0703V27.9277ZM37.6152 27C37.6641 27.0716 37.6966 27.1497 37.7129 27.2344C37.7292 27.3158 37.7292 27.3971 37.7129 27.4785C37.6966 27.5566 37.6641 27.6315 37.6152 27.7031C37.5697 27.7715 37.5094 27.8301 37.4346 27.8789L34.0068 30.1689C33.9515 30.2113 33.8945 30.2406 33.8359 30.2568C33.7773 30.2731 33.7171 30.2812 33.6553 30.2812C33.5511 30.2812 33.4518 30.2568 33.3574 30.208C33.263 30.1592 33.1865 30.0892 33.1279 29.998C33.0791 29.9264 33.0465 29.8499 33.0303 29.7686C33.014 29.6839 33.0124 29.6025 33.0254 29.5244C33.0417 29.443 33.0726 29.3682 33.1182 29.2998C33.1637 29.2282 33.224 29.168 33.2988 29.1191L36.7363 26.8291C36.8079 26.7803 36.8844 26.7477 36.9658 26.7314C37.0505 26.7152 37.1318 26.7152 37.21 26.7314C37.2913 26.7477 37.3662 26.7786 37.4346 26.8242C37.5062 26.8698 37.5664 26.9284 37.6152 27ZM46.9561 32H45.6768V29.1387H41.165C41.0739 29.1387 40.9893 29.1224 40.9111 29.0898C40.833 29.054 40.7646 29.0085 40.7061 28.9531C40.6507 28.8945 40.6068 28.8262 40.5742 28.748C40.5417 28.6699 40.5254 28.5869 40.5254 28.499V24.998H41.7949V27.8594H45.6768V24.998H46.9561V32Z" fill="url(#paint3_linear_119_194)" fill-opacity="0.85"/>
<defs>
<linearGradient id="paint0_linear_119_194" x1="35" y1="0" x2="35" y2="45" gradientUnits="userSpaceOnUse">
<stop stop-color="#626161"/>
<stop offset="0.276042" stop-color="#ADADAD"/>
<stop offset="1" stop-color="white"/>
</linearGradient>
<linearGradient id="paint1_linear_119_194" x1="35" y1="0" x2="35" y2="45" gradientUnits="userSpaceOnUse">
<stop stop-color="#F9BE79"/>
<stop offset="0.427083" stop-color="#FE5B00"/>
<stop offset="0.890625" stop-color="#D04013"/>
</linearGradient>
<linearGradient id="paint2_linear_119_194" x1="34.5" y1="8" x2="34.5" y2="22" gradientUnits="userSpaceOnUse">
<stop offset="0.15625" stop-color="#FE5B00"/>
<stop offset="0.489583" stop-color="#F9BE79"/>
<stop offset="0.890625" stop-color="#E66000"/>
</linearGradient>
<linearGradient id="paint3_linear_119_194" x1="34.5" y1="24" x2="34.5" y2="33" gradientUnits="userSpaceOnUse">
<stop stop-color="#F9BE79"/>
<stop offset="0.427083" stop-color="#FE5B00"/>
<stop offset="0.890625" stop-color="#D04013"/>
</linearGradient>
</defs>
</svg>
