<svg width="70" height="45" viewBox="0 0 70 45" fill="none" xmlns="http://www.w3.org/2000/svg">
<rect width="70" height="45" rx="22.5" fill="url(#paint0_linear_126_134)" fill-opacity="0.9"/>
<rect x="1" y="1" width="68" height="43" rx="21.5" stroke="url(#paint1_linear_126_134)" stroke-opacity="0.7" stroke-width="2"/>
<path d="M31.1357 12.6104C30.8532 13.2438 30.5479 13.8682 30.2197 14.4834C29.8916 15.0941 29.5475 15.6729 29.1875 16.2197C28.832 16.7666 28.4674 17.2725 28.0938 17.7373C27.7201 18.1976 27.3486 18.5964 26.9795 18.9336C26.6149 19.2663 26.2572 19.5283 25.9062 19.7197C25.5599 19.9066 25.2318 20 24.9219 20C24.7943 20 24.6758 19.9772 24.5664 19.9316C24.457 19.8861 24.3613 19.8245 24.2793 19.7471C24.1973 19.665 24.1335 19.5693 24.0879 19.46C24.0423 19.3506 24.0195 19.2321 24.0195 19.1045V15.7891L20.4922 19.7334C20.401 19.8245 20.3008 19.8929 20.1914 19.9385C20.0866 19.9795 19.9772 20 19.8633 20C19.7402 20 19.624 19.9772 19.5146 19.9316C19.4098 19.8861 19.3164 19.8245 19.2344 19.7471C19.1523 19.665 19.0863 19.5693 19.0361 19.46C18.9906 19.3506 18.9678 19.2321 18.9678 19.1045V12.6104H20.7451V16.8213L24.2861 12.8633C24.4137 12.7357 24.5641 12.6559 24.7373 12.624C24.915 12.5876 25.0882 12.6058 25.2568 12.6787C25.4255 12.7471 25.5576 12.8564 25.6533 13.0068C25.7536 13.1527 25.8037 13.3145 25.8037 13.4922V17.7168C26.1865 17.3477 26.5329 16.958 26.8428 16.5479C27.1527 16.1377 27.4398 15.7161 27.7041 15.2832C27.973 14.8457 28.2236 14.4036 28.4561 13.957C28.693 13.5059 28.9232 13.057 29.1465 12.6104H31.1357ZM39.7012 15.0576C39.7012 15.3037 39.6579 15.5703 39.5713 15.8574C39.4847 16.14 39.3434 16.4043 39.1475 16.6504C38.9561 16.8919 38.7031 17.0947 38.3887 17.2588C38.0788 17.4229 37.7005 17.5049 37.2539 17.5049H34.0479V15.8164H37.2539C37.4954 15.8164 37.6823 15.7435 37.8145 15.5977C37.9466 15.4473 38.0127 15.2627 38.0127 15.0439C38.0127 14.8115 37.9375 14.6292 37.7871 14.4971C37.6413 14.3649 37.4635 14.2988 37.2539 14.2988H34.0479C33.8063 14.2988 33.6195 14.374 33.4873 14.5244C33.3551 14.6702 33.2891 14.8525 33.2891 15.0713V17.5527C33.2891 17.7897 33.362 17.9743 33.5078 18.1064C33.6582 18.2386 33.8428 18.3047 34.0615 18.3047H37.2539V20H34.0479C33.8018 20 33.5352 19.9567 33.248 19.8701C32.9655 19.7835 32.7012 19.6445 32.4551 19.4531C32.2135 19.2572 32.0107 19.0042 31.8467 18.6943C31.6826 18.3799 31.6006 17.9993 31.6006 17.5527V15.0576C31.6006 14.8115 31.6439 14.5472 31.7305 14.2646C31.8171 13.9775 31.9561 13.7132 32.1475 13.4717C32.3434 13.2256 32.5964 13.0205 32.9062 12.8564C33.2207 12.6924 33.6012 12.6104 34.0479 12.6104H37.2539C37.5 12.6104 37.7643 12.6536 38.0469 12.7402C38.334 12.8268 38.5983 12.9681 38.8398 13.1641C39.0859 13.3555 39.291 13.6084 39.4551 13.9229C39.6191 14.2327 39.7012 14.611 39.7012 15.0576ZM49.0049 17.5049C49.0049 17.8102 48.9661 18.0859 48.8887 18.332C48.8112 18.5736 48.7087 18.7878 48.5811 18.9746C48.4535 19.1569 48.3053 19.3141 48.1367 19.4463C47.9681 19.5739 47.7904 19.6787 47.6035 19.7607C47.4212 19.8428 47.2344 19.9043 47.043 19.9453C46.8561 19.9818 46.6784 20 46.5098 20H43.3037C42.9984 20 42.7249 19.9613 42.4834 19.8838C42.2419 19.8063 42.0277 19.7038 41.8408 19.5762C41.6585 19.444 41.5013 19.2936 41.3691 19.125C41.2415 18.9564 41.1367 18.7809 41.0547 18.5986C40.9727 18.4118 40.9111 18.2249 40.8701 18.0381C40.8337 17.8467 40.8154 17.6689 40.8154 17.5049V15.0986C40.8154 14.6429 40.8975 14.2578 41.0615 13.9434C41.2301 13.6243 41.4375 13.3669 41.6836 13.1709C41.9342 12.9704 42.2054 12.8268 42.4971 12.7402C42.7887 12.6536 43.0576 12.6104 43.3037 12.6104H46.5098V14.3877H43.3174C43.0804 14.3877 42.9004 14.4492 42.7773 14.5723C42.6543 14.6908 42.5928 14.8662 42.5928 15.0986V17.4912C42.5928 17.7327 42.652 17.915 42.7705 18.0381C42.8936 18.1611 43.0713 18.2227 43.3037 18.2227H46.5098C46.7513 18.2227 46.9313 18.1611 47.0498 18.0381C47.1683 17.915 47.2275 17.7373 47.2275 17.5049V9.48633H49.0049V17.5049Z" fill="url(#paint2_linear_126_134)"/>
<path d="M29.0586 29.5742C29.0586 29.6706 29.0469 29.7721 29.0234 29.8789C29.0026 29.9857 28.9674 30.0924 28.918 30.1992C28.8711 30.3034 28.8099 30.4036 28.7344 30.5C28.6615 30.5964 28.5716 30.6823 28.4648 30.7578C28.3607 30.8307 28.2396 30.8893 28.1016 30.9336C27.9635 30.9779 27.8086 31 27.6367 31H23.9141V29.9844H27.6367C27.7643 29.9844 27.862 29.9453 27.9297 29.8672C28 29.7891 28.0352 29.6914 28.0352 29.5742V29.1211C28.0352 28.9883 28.0013 28.8867 27.9336 28.8164C27.8659 28.7461 27.7643 28.7109 27.6289 28.7109H25.3398C25.0768 28.7109 24.8542 28.6641 24.6719 28.5703C24.4922 28.474 24.3464 28.3542 24.2344 28.2109C24.1224 28.0677 24.0404 27.9128 23.9883 27.7461C23.9388 27.5794 23.9141 27.4245 23.9141 27.2812V25.3984H28.5938V26.4141H24.9297V27.2812C24.9297 27.4167 24.9648 27.5182 25.0352 27.5859C25.1055 27.6536 25.207 27.6875 25.3398 27.6875H27.6367C27.7773 27.6875 27.931 27.7135 28.0977 27.7656C28.2643 27.8151 28.418 27.8971 28.5586 28.0117C28.7018 28.1237 28.8203 28.2708 28.9141 28.4531C29.0104 28.6354 29.0586 28.8581 29.0586 29.1211V29.5742ZM30.7461 30.4883C30.7461 30.5586 30.7318 30.625 30.7031 30.6875C30.6771 30.7474 30.6406 30.8008 30.5938 30.8477C30.5495 30.8919 30.4961 30.9271 30.4336 30.9531C30.3737 30.9792 30.3099 30.9922 30.2422 30.9922C30.1719 30.9922 30.1055 30.9792 30.043 30.9531C29.9831 30.9271 29.9297 30.8919 29.8828 30.8477C29.8385 30.8008 29.8034 30.7474 29.7773 30.6875C29.7513 30.625 29.7383 30.5586 29.7383 30.4883C29.7383 30.4206 29.7513 30.3568 29.7773 30.2969C29.8034 30.2344 29.8385 30.181 29.8828 30.1367C29.9297 30.0898 29.9831 30.0534 30.043 30.0273C30.1055 29.9987 30.1719 29.9844 30.2422 29.9844C30.3099 29.9844 30.3737 29.9987 30.4336 30.0273C30.4961 30.0534 30.5495 30.0898 30.5938 30.1367C30.6406 30.181 30.6771 30.2344 30.7031 30.2969C30.7318 30.3568 30.7461 30.4206 30.7461 30.4883ZM37.957 28.6562C37.957 28.8854 37.9271 29.1029 37.8672 29.3086C37.8099 29.5117 37.7279 29.7005 37.6211 29.875C37.5143 30.0495 37.388 30.2057 37.2422 30.3438C37.0964 30.4818 36.9362 30.6003 36.7617 30.6992C36.5898 30.7956 36.4062 30.8698 36.2109 30.9219C36.0156 30.974 35.8164 31 35.6133 31H33.7812C33.5755 31 33.375 30.974 33.1797 30.9219C32.9844 30.8698 32.7995 30.7956 32.625 30.6992C32.4531 30.6003 32.2943 30.4818 32.1484 30.3438C32.0026 30.2057 31.8763 30.0495 31.7695 29.875C31.6654 29.7005 31.5833 29.5117 31.5234 29.3086C31.4661 29.1029 31.4375 28.8854 31.4375 28.6562V27.7422C31.4375 27.3984 31.5013 27.0833 31.6289 26.7969C31.7591 26.5104 31.9323 26.2643 32.1484 26.0586C32.3646 25.8503 32.6133 25.6888 32.8945 25.5742C33.1784 25.457 33.474 25.3984 33.7812 25.3984H35.6133C35.8164 25.3984 36.0156 25.4245 36.2109 25.4766C36.4062 25.5286 36.5898 25.6042 36.7617 25.7031C36.9362 25.7995 37.0964 25.9167 37.2422 26.0547C37.388 26.1927 37.5143 26.349 37.6211 26.5234C37.7279 26.6979 37.8099 26.888 37.8672 27.0938C37.9271 27.2969 37.957 27.513 37.957 27.7422V28.6562ZM36.9336 27.7422C36.9336 27.5417 36.8971 27.3594 36.8242 27.1953C36.7513 27.0312 36.6536 26.8906 36.5312 26.7734C36.4115 26.6562 36.2721 26.5664 36.1133 26.5039C35.9544 26.4414 35.7878 26.4115 35.6133 26.4141H33.7812C33.612 26.4115 33.4466 26.4414 33.2852 26.5039C33.1263 26.5638 32.9844 26.6523 32.8594 26.7695C32.737 26.8841 32.638 27.0247 32.5625 27.1914C32.4896 27.3555 32.4531 27.5391 32.4531 27.7422V28.6562C32.4531 28.8594 32.4896 29.043 32.5625 29.207C32.6354 29.3711 32.7331 29.5117 32.8555 29.6289C32.9779 29.7435 33.1185 29.832 33.2773 29.8945C33.4388 29.957 33.6068 29.987 33.7812 29.9844H35.6133C35.8138 29.9844 35.9948 29.9518 36.1562 29.8867C36.3203 29.819 36.4596 29.7266 36.5742 29.6094C36.6888 29.4922 36.7773 29.3529 36.8398 29.1914C36.9023 29.0273 36.9336 28.849 36.9336 28.6562V27.7422ZM36.4922 27C36.5312 27.0573 36.5573 27.1198 36.5703 27.1875C36.5833 27.2526 36.5833 27.3177 36.5703 27.3828C36.5573 27.4453 36.5312 27.5052 36.4922 27.5625C36.4557 27.6172 36.4076 27.6641 36.3477 27.7031L33.6055 29.5352C33.5612 29.569 33.5156 29.5924 33.4688 29.6055C33.4219 29.6185 33.3737 29.625 33.3242 29.625C33.2409 29.625 33.1615 29.6055 33.0859 29.5664C33.0104 29.5273 32.9492 29.4714 32.9023 29.3984C32.8633 29.3411 32.8372 29.2799 32.8242 29.2148C32.8112 29.1471 32.8099 29.082 32.8203 29.0195C32.8333 28.9544 32.8581 28.8945 32.8945 28.8398C32.931 28.7826 32.9792 28.7344 33.0391 28.6953L35.7891 26.8633C35.8464 26.8242 35.9076 26.7982 35.9727 26.7852C36.0404 26.7721 36.1055 26.7721 36.168 26.7852C36.2331 26.7982 36.293 26.8229 36.3477 26.8594C36.4049 26.8958 36.4531 26.9427 36.4922 27ZM43.9648 31H42.9414V28.7109H39.332C39.2591 28.7109 39.1914 28.6979 39.1289 28.6719C39.0664 28.6432 39.0117 28.6068 38.9648 28.5625C38.9206 28.5156 38.8854 28.4609 38.8594 28.3984C38.8333 28.3359 38.8203 28.2695 38.8203 28.1992V25.3984H39.8359V27.6875H42.9414V25.3984H43.9648V31Z" fill="url(#paint3_linear_126_134)"/>
<defs>
<linearGradient id="paint0_linear_126_134" x1="35" y1="0" x2="35" y2="45" gradientUnits="userSpaceOnUse">
<stop stop-color="white"/>
<stop offset="0.739583" stop-color="#9E9E9E"/>
<stop offset="1" stop-color="#4F4F4F"/>
</linearGradient>
<linearGradient id="paint1_linear_126_134" x1="35" y1="0" x2="35" y2="45" gradientUnits="userSpaceOnUse">
<stop stop-color="#2E13D0"/>
<stop offset="0.604167" stop-color="#784CD6"/>
<stop offset="1" stop-color="#D2C5F8"/>
</linearGradient>
<linearGradient id="paint2_linear_126_134" x1="26.0597" y1="12" x2="37.5305" y2="25.1992" gradientUnits="userSpaceOnUse">
<stop stop-color="#9E00FF"/>
<stop offset="1" stop-color="#0500FF"/>
</linearGradient>
<linearGradient id="paint3_linear_126_134" x1="28.541" y1="26.75" x2="34.9964" y2="35.5045" gradientUnits="userSpaceOnUse">
<stop stop-color="#9E00FF"/>
<stop offset="1" stop-color="#0500FF"/>
</linearGradient>
</defs>
</svg>
