<svg width="395" height="31" viewBox="0 0 395 31" fill="none" xmlns="http://www.w3.org/2000/svg">
<path d="M8.07031 31H0.257812V8.53906L8.07031 0.726562V31ZM17.8359 23.1875V31H10.0234V23.1875H17.8359ZM33.4609 31C29.6849 31 26.4622 29.6654 23.793 26.9961C21.1237 24.3268 19.7891 21.1042 19.7891 17.3281C19.7891 13.5521 21.1237 10.3294 23.793 7.66016C26.4622 4.99089 29.6849 3.65625 33.4609 3.65625H37.3672C41.1432 3.65625 44.3659 4.99089 47.0352 7.66016C49.7044 10.3294 51.0391 13.5521 51.0391 17.3281C51.0391 21.1042 49.7044 24.3268 47.0352 26.9961C44.3659 29.6654 41.1432 31 37.3672 31H33.4609ZM33.4609 11.4688C31.8464 11.4688 30.4661 12.0417 29.3203 13.1875C28.1745 14.3333 27.6016 15.7135 27.6016 17.3281C27.6016 18.9427 28.1745 20.3229 29.3203 21.4688C30.4661 22.6146 31.8464 23.1875 33.4609 23.1875H37.3672C38.9818 23.1875 40.362 22.6146 41.5078 21.4688C42.6536 20.3229 43.2266 18.9427 43.2266 17.3281C43.2266 15.7135 42.6536 14.3333 41.5078 13.1875C40.362 12.0417 38.9818 11.4688 37.3672 11.4688H33.4609ZM60.8047 21.2344V22.2109C60.8047 22.4844 60.8958 22.7188 61.0781 22.9141C61.2734 23.0964 61.5078 23.1875 61.7812 23.1875H75.4531C75.7266 23.1875 75.9544 23.0964 76.1367 22.9141C76.332 22.7188 76.4297 22.4844 76.4297 22.2109C76.4297 21.9375 76.332 21.7096 76.1367 21.5273C75.9544 21.332 75.7266 21.2344 75.4531 21.2344H60.8047ZM75.4531 13.4219C77.875 13.4219 79.9453 14.2812 81.6641 16C83.3828 17.7188 84.2422 19.7891 84.2422 22.2109C84.2422 24.6328 83.3828 26.7031 81.6641 28.4219C79.9453 30.1406 77.875 31 75.4531 31H61.7812C59.3594 31 57.2891 30.1406 55.5703 28.4219C53.8516 26.7031 52.9922 24.6328 52.9922 22.2109V12.4453C52.9922 10.0234 53.8516 7.95312 55.5703 6.23438C57.2891 4.51562 59.3594 3.65625 61.7812 3.65625H88.1484L80.3359 11.4688H61.7812C61.5078 11.4688 61.2734 11.5664 61.0781 11.7617C60.8958 11.944 60.8047 12.1719 60.8047 12.4453V13.4219H75.4531ZM117.445 21.2344H94.0078V13.4219H117.445V21.2344ZM162.367 3.65625L134.691 31H123.305L143.168 11.4688H127.211V3.65625H162.367ZM168.227 23.1875V31H160.414V23.1875H168.227ZM183.852 31C180.076 31 176.853 29.6654 174.184 26.9961C171.514 24.3268 170.18 21.1042 170.18 17.3281C170.18 13.5521 171.514 10.3294 174.184 7.66016C176.853 4.99089 180.076 3.65625 183.852 3.65625H187.758C191.534 3.65625 194.757 4.99089 197.426 7.66016C200.095 10.3294 201.43 13.5521 201.43 17.3281C201.43 21.1042 200.095 24.3268 197.426 26.9961C194.757 29.6654 191.534 31 187.758 31H183.852ZM183.852 11.4688C182.237 11.4688 180.857 12.0417 179.711 13.1875C178.565 14.3333 177.992 15.7135 177.992 17.3281C177.992 18.9427 178.565 20.3229 179.711 21.4688C180.857 22.6146 182.237 23.1875 183.852 23.1875H187.758C189.372 23.1875 190.753 22.6146 191.898 21.4688C193.044 20.3229 193.617 18.9427 193.617 17.3281C193.617 15.7135 193.044 14.3333 191.898 13.1875C190.753 12.0417 189.372 11.4688 187.758 11.4688H183.852ZM211.195 21.2344V22.2109C211.195 22.4844 211.286 22.7188 211.469 22.9141C211.664 23.0964 211.898 23.1875 212.172 23.1875H225.844C226.117 23.1875 226.345 23.0964 226.527 22.9141C226.723 22.7188 226.82 22.4844 226.82 22.2109C226.82 21.9375 226.723 21.7096 226.527 21.5273C226.345 21.332 226.117 21.2344 225.844 21.2344H211.195ZM225.844 13.4219C228.266 13.4219 230.336 14.2812 232.055 16C233.773 17.7188 234.633 19.7891 234.633 22.2109C234.633 24.6328 233.773 26.7031 232.055 28.4219C230.336 30.1406 228.266 31 225.844 31H212.172C209.75 31 207.68 30.1406 205.961 28.4219C204.242 26.7031 203.383 24.6328 203.383 22.2109V12.4453C203.383 10.0234 204.242 7.95312 205.961 6.23438C207.68 4.51562 209.75 3.65625 212.172 3.65625H238.539L230.727 11.4688H212.172C211.898 11.4688 211.664 11.5664 211.469 11.7617C211.286 11.944 211.195 12.1719 211.195 12.4453V13.4219H225.844ZM244.398 23.1875V31H236.586V23.1875H244.398ZM258.07 11.4688L250.258 3.65625H276.625C279.047 3.65625 281.117 4.51562 282.836 6.23438C284.555 7.95312 285.414 10.0234 285.414 12.4453C285.414 14.8672 284.555 16.9375 282.836 18.6562C281.117 20.375 279.047 21.2344 276.625 21.2344H262.953C262.68 21.2344 262.445 21.332 262.25 21.5273C262.068 21.7096 261.977 21.9375 261.977 22.2109V23.1875H281.508L289.32 31H254.164V22.2109C254.164 19.7891 255.023 17.7188 256.742 16C258.461 14.2812 260.531 13.4219 262.953 13.4219H276.625C276.898 13.4219 277.126 13.3307 277.309 13.1484C277.504 12.9531 277.602 12.7188 277.602 12.4453C277.602 12.1719 277.504 11.944 277.309 11.7617C277.126 11.5664 276.898 11.4688 276.625 11.4688H258.07ZM301.039 31C297.263 31 294.04 29.6654 291.371 26.9961C288.702 24.3268 287.367 21.1042 287.367 17.3281C287.367 13.5521 288.702 10.3294 291.371 7.66016C294.04 4.99089 297.263 3.65625 301.039 3.65625H304.945C308.721 3.65625 311.944 4.99089 314.613 7.66016C317.283 10.3294 318.617 13.5521 318.617 17.3281C318.617 21.1042 317.283 24.3268 314.613 26.9961C311.944 29.6654 308.721 31 304.945 31H301.039ZM301.039 11.4688C299.424 11.4688 298.044 12.0417 296.898 13.1875C295.753 14.3333 295.18 15.7135 295.18 17.3281C295.18 18.9427 295.753 20.3229 296.898 21.4688C298.044 22.6146 299.424 23.1875 301.039 23.1875H304.945C306.56 23.1875 307.94 22.6146 309.086 21.4688C310.232 20.3229 310.805 18.9427 310.805 17.3281C310.805 15.7135 310.232 14.3333 309.086 13.1875C307.94 12.0417 306.56 11.4688 304.945 11.4688H301.039ZM324.477 11.4688L316.664 3.65625H343.031C345.453 3.65625 347.523 4.51562 349.242 6.23438C350.961 7.95312 351.82 10.0234 351.82 12.4453C351.82 14.8672 350.961 16.9375 349.242 18.6562C347.523 20.375 345.453 21.2344 343.031 21.2344H329.359C329.086 21.2344 328.852 21.332 328.656 21.5273C328.474 21.7096 328.383 21.9375 328.383 22.2109V23.1875H347.914L355.727 31H320.57V22.2109C320.57 19.7891 321.43 17.7188 323.148 16C324.867 14.2812 326.938 13.4219 329.359 13.4219H343.031C343.305 13.4219 343.533 13.3307 343.715 13.1484C343.91 12.9531 344.008 12.7188 344.008 12.4453C344.008 12.1719 343.91 11.944 343.715 11.7617C343.533 11.5664 343.305 11.4688 343.031 11.4688H324.477ZM376.234 13.4219C376.508 13.4219 376.736 13.3307 376.918 13.1484C377.113 12.9531 377.211 12.7188 377.211 12.4453C377.211 12.1719 377.113 11.944 376.918 11.7617C376.736 11.5664 376.508 11.4688 376.234 11.4688H357.68L349.867 3.65625H376.234C378.656 3.65625 380.727 4.51562 382.445 6.23438C384.164 7.95312 385.023 10.0234 385.023 12.4453C385.023 14.2682 384.535 15.8958 383.559 17.3281C384.535 18.7604 385.023 20.388 385.023 22.2109C385.023 24.6328 384.164 26.7031 382.445 28.4219C380.727 30.1406 378.656 31 376.234 31H349.867L357.68 23.1875H376.234C376.508 23.1875 376.736 23.0964 376.918 22.9141C377.113 22.7188 377.211 22.4844 377.211 22.2109C377.211 21.9375 377.113 21.7096 376.918 21.5273C376.736 21.332 376.508 21.2344 376.234 21.2344H359.633V13.4219H376.234ZM394.789 23.1875V31H386.977V23.1875H394.789Z" fill="url(#paint0_linear_198_140)" fill-opacity="0.85"/>
<path d="M8.07031 31V33C9.17488 33 10.0703 32.1046 10.0703 31H8.07031ZM0.257812 31H-1.74219C-1.74219 32.1046 -0.846756 33 0.257812 33V31ZM0.257812 8.53906L-1.1564 7.12485C-1.53147 7.49992 -1.74219 8.00863 -1.74219 8.53906H0.257812ZM8.07031 0.726562H10.0703C10.0703 -0.0823619 9.58303 -0.811635 8.83568 -1.1212C8.08833 -1.43076 7.2281 -1.25965 6.6561 -0.687651L8.07031 0.726562ZM8.07031 29H0.257812V33H8.07031V29ZM2.25781 31V8.53906H-1.74219V31H2.25781ZM1.67203 9.95328L9.48453 2.14078L6.6561 -0.687651L-1.1564 7.12485L1.67203 9.95328ZM6.07031 0.726562V31H10.0703V0.726562H6.07031ZM17.8359 23.1875H19.8359C19.8359 22.0829 18.9405 21.1875 17.8359 21.1875V23.1875ZM17.8359 31V33C18.9405 33 19.8359 32.1046 19.8359 31H17.8359ZM10.0234 31H8.02344C8.02344 32.1046 8.91887 33 10.0234 33V31ZM10.0234 23.1875V21.1875C8.91887 21.1875 8.02344 22.0829 8.02344 23.1875H10.0234ZM15.8359 23.1875V31H19.8359V23.1875H15.8359ZM17.8359 29H10.0234V33H17.8359V29ZM12.0234 31V23.1875H8.02344V31H12.0234ZM10.0234 25.1875H17.8359V21.1875H10.0234V25.1875ZM29.3203 13.1875L30.7345 14.6017L29.3203 13.1875ZM29.3203 21.4688L30.7345 20.0545L29.3203 21.4688ZM41.5078 21.4688L40.0936 20.0545L41.5078 21.4688ZM33.4609 29C30.2152 29 27.5013 27.876 25.2072 25.5819L22.3788 28.4103C25.4232 31.4548 29.1546 33 33.4609 33V29ZM25.2072 25.5819C22.9131 23.2878 21.7891 20.5739 21.7891 17.3281H17.7891C17.7891 21.6344 19.3343 25.3658 22.3788 28.4103L25.2072 25.5819ZM21.7891 17.3281C21.7891 14.0823 22.9131 11.3684 25.2072 9.07437L22.3788 6.24594C19.3343 9.29041 17.7891 13.0218 17.7891 17.3281H21.7891ZM25.2072 9.07437C27.5013 6.7803 30.2152 5.65625 33.4609 5.65625V1.65625C29.1546 1.65625 25.4232 3.20147 22.3788 6.24594L25.2072 9.07437ZM33.4609 5.65625H37.3672V1.65625H33.4609V5.65625ZM37.3672 5.65625C40.613 5.65625 43.3269 6.7803 45.6209 9.07437L48.4494 6.24594C45.4049 3.20147 41.6735 1.65625 37.3672 1.65625V5.65625ZM45.6209 9.07437C47.915 11.3684 49.0391 14.0823 49.0391 17.3281H53.0391C53.0391 13.0218 51.4938 9.29041 48.4494 6.24594L45.6209 9.07437ZM49.0391 17.3281C49.0391 20.5739 47.915 23.2878 45.6209 25.5819L48.4494 28.4103C51.4938 25.3658 53.0391 21.6344 53.0391 17.3281H49.0391ZM45.6209 25.5819C43.3269 27.876 40.613 29 37.3672 29V33C41.6735 33 45.4049 31.4548 48.4494 28.4103L45.6209 25.5819ZM37.3672 29H33.4609V33H37.3672V29ZM33.4609 9.46875C31.3138 9.46875 29.4255 10.2539 27.9061 11.7733L30.7345 14.6017C31.5068 13.8294 32.379 13.4688 33.4609 13.4688V9.46875ZM27.9061 11.7733C26.3867 13.2927 25.6016 15.1809 25.6016 17.3281H29.6016C29.6016 16.2461 29.9622 15.374 30.7345 14.6017L27.9061 11.7733ZM25.6016 17.3281C25.6016 19.4753 26.3867 21.3636 27.9061 22.883L30.7345 20.0545C29.9622 19.2822 29.6016 18.4101 29.6016 17.3281H25.6016ZM27.9061 22.883C29.4255 24.4023 31.3138 25.1875 33.4609 25.1875V21.1875C32.379 21.1875 31.5068 20.8268 30.7345 20.0545L27.9061 22.883ZM33.4609 25.1875H37.3672V21.1875H33.4609V25.1875ZM37.3672 25.1875C39.5144 25.1875 41.4027 24.4023 42.922 22.883L40.0936 20.0545C39.3213 20.8268 38.4492 21.1875 37.3672 21.1875V25.1875ZM42.922 22.883C44.4414 21.3636 45.2266 19.4753 45.2266 17.3281H41.2266C41.2266 18.4101 40.8659 19.2822 40.0936 20.0545L42.922 22.883ZM45.2266 17.3281C45.2266 15.1809 44.4414 13.2927 42.922 11.7733L40.0936 14.6017C40.8659 15.374 41.2266 16.2461 41.2266 17.3281H45.2266ZM42.922 11.7733C41.4027 10.2539 39.5144 9.46875 37.3672 9.46875V13.4688C38.4492 13.4688 39.3213 13.8294 40.0936 14.6017L42.922 11.7733ZM37.3672 9.46875H33.4609V13.4688H37.3672V9.46875ZM60.8047 21.2344V19.2344C59.7001 19.2344 58.8047 20.1298 58.8047 21.2344H60.8047ZM61.0781 22.9141L59.616 24.2787C59.6474 24.3123 59.6799 24.3448 59.7135 24.3762L61.0781 22.9141ZM76.1367 22.9141L74.7225 21.4998L76.1367 22.9141ZM76.1367 21.5273L74.6746 22.892C74.706 22.9256 74.7385 22.9581 74.7721 22.9895L76.1367 21.5273ZM88.1484 3.65625L89.5627 5.07046C90.1346 4.49847 90.3058 3.63823 89.9962 2.89088C89.6866 2.14353 88.9574 1.65625 88.1484 1.65625V3.65625ZM80.3359 11.4688V13.4688C80.8664 13.4688 81.3751 13.258 81.7502 12.883L80.3359 11.4688ZM61.0781 11.7617L59.6639 10.3475L61.0781 11.7617ZM60.8047 13.4219H58.8047C58.8047 14.5264 59.7001 15.4219 60.8047 15.4219V13.4219ZM58.8047 21.2344V22.2109H62.8047V21.2344H58.8047ZM58.8047 22.2109C58.8047 22.9778 59.0792 23.7035 59.616 24.2787L62.5402 21.5494C62.6115 21.6258 62.6849 21.7327 62.7371 21.8669C62.7889 22.0003 62.8047 22.1214 62.8047 22.2109H58.8047ZM59.7135 24.3762C60.2887 24.913 61.0144 25.1875 61.7812 25.1875V21.1875C61.8708 21.1875 61.9919 21.2033 62.1253 21.2551C62.2594 21.3073 62.3664 21.3806 62.4428 21.452L59.7135 24.3762ZM61.7812 25.1875H75.4531V21.1875H61.7812V25.1875ZM75.4531 25.1875C76.2213 25.1875 76.969 24.9102 77.5509 24.3283L74.7225 21.4998C74.813 21.4093 74.9362 21.3223 75.0863 21.2622C75.2341 21.2031 75.3644 21.1875 75.4531 21.1875V25.1875ZM77.5509 24.3283C78.117 23.7622 78.4297 23.0208 78.4297 22.2109H74.4297C74.4297 22.1041 74.45 21.9674 74.5103 21.8226C74.5705 21.6782 74.6518 21.5706 74.7225 21.4998L77.5509 24.3283ZM78.4297 22.2109C78.4297 21.3979 78.1126 20.6357 77.5014 20.0652L74.7721 22.9895C74.6827 22.9061 74.587 22.7834 74.5182 22.6228C74.4498 22.4632 74.4297 22.317 74.4297 22.2109H78.4297ZM77.5988 20.1627C77.0283 19.5515 76.2662 19.2344 75.4531 19.2344V23.2344C75.347 23.2344 75.2008 23.2143 75.0413 23.1459C74.8807 23.0771 74.758 22.9813 74.6746 22.892L77.5988 20.1627ZM75.4531 19.2344H60.8047V23.2344H75.4531V19.2344ZM75.4531 15.4219C77.3424 15.4219 78.9046 16.069 80.2498 17.4142L83.0783 14.5858C80.986 12.4935 78.4076 11.4219 75.4531 11.4219V15.4219ZM80.2498 17.4142C81.5951 18.7594 82.2422 20.3217 82.2422 22.2109H86.2422C86.2422 19.2565 85.1706 16.6781 83.0783 14.5858L80.2498 17.4142ZM82.2422 22.2109C82.2422 24.1002 81.5951 25.6624 80.2498 27.0077L83.0783 29.8361C85.1706 27.7438 86.2422 25.1654 86.2422 22.2109H82.2422ZM80.2498 27.0077C78.9046 28.3529 77.3424 29 75.4531 29V33C78.4076 33 80.986 31.9284 83.0783 29.8361L80.2498 27.0077ZM75.4531 29H61.7812V33H75.4531V29ZM61.7812 29C59.892 29 58.3297 28.3529 56.9845 27.0077L54.1561 29.8361C56.2484 31.9284 58.8268 33 61.7812 33V29ZM56.9845 27.0077C55.6393 25.6624 54.9922 24.1002 54.9922 22.2109H50.9922C50.9922 25.1654 52.0638 27.7438 54.1561 29.8361L56.9845 27.0077ZM54.9922 22.2109V12.4453H50.9922V22.2109H54.9922ZM54.9922 12.4453C54.9922 10.556 55.6393 8.9938 56.9845 7.64859L54.1561 4.82016C52.0638 6.91245 50.9922 9.49084 50.9922 12.4453H54.9922ZM56.9845 7.64859C58.3297 6.30338 59.892 5.65625 61.7812 5.65625V1.65625C58.8268 1.65625 56.2484 2.72787 54.1561 4.82016L56.9845 7.64859ZM61.7812 5.65625H88.1484V1.65625H61.7812V5.65625ZM86.7342 2.24204L78.9217 10.0545L81.7502 12.883L89.5627 5.07046L86.7342 2.24204ZM80.3359 9.46875H61.7812V13.4688H80.3359V9.46875ZM61.7812 9.46875C60.9714 9.46875 60.23 9.7814 59.6639 10.3475L62.4923 13.1759C62.4216 13.2467 62.314 13.328 62.1696 13.3881C62.0248 13.4485 61.8881 13.4688 61.7812 13.4688V9.46875ZM59.6639 10.3475C59.082 10.9294 58.8047 11.6772 58.8047 12.4453H62.8047C62.8047 12.534 62.7891 12.6643 62.73 12.8121C62.6699 12.9623 62.5829 13.0854 62.4923 13.1759L59.6639 10.3475ZM58.8047 12.4453V13.4219H62.8047V12.4453H58.8047ZM60.8047 15.4219H75.4531V11.4219H60.8047V15.4219ZM117.445 21.2344V23.2344C118.55 23.2344 119.445 22.3389 119.445 21.2344H117.445ZM94.0078 21.2344H92.0078C92.0078 22.3389 92.9032 23.2344 94.0078 23.2344V21.2344ZM94.0078 13.4219V11.4219C92.9032 11.4219 92.0078 12.3173 92.0078 13.4219H94.0078ZM117.445 13.4219H119.445C119.445 12.3173 118.55 11.4219 117.445 11.4219V13.4219ZM117.445 19.2344H94.0078V23.2344H117.445V19.2344ZM96.0078 21.2344V13.4219H92.0078V21.2344H96.0078ZM94.0078 15.4219H117.445V11.4219H94.0078V15.4219ZM115.445 13.4219V21.2344H119.445V13.4219H115.445ZM162.367 3.65625L163.773 5.07897C164.35 4.50889 164.525 3.64677 164.217 2.89646C163.909 2.14615 163.178 1.65625 162.367 1.65625V3.65625ZM134.691 31V33C135.218 33 135.723 32.7926 136.097 32.4227L134.691 31ZM123.305 31L121.902 29.5739C121.323 30.1432 121.146 31.0061 121.454 31.7576C121.761 32.5091 122.493 33 123.305 33V31ZM143.168 11.4688L144.57 12.8948C145.149 12.3255 145.327 11.4627 145.019 10.7112C144.711 9.95969 143.98 9.46875 143.168 9.46875V11.4688ZM127.211 11.4688H125.211C125.211 12.5733 126.106 13.4688 127.211 13.4688V11.4688ZM127.211 3.65625V1.65625C126.106 1.65625 125.211 2.55168 125.211 3.65625H127.211ZM160.962 2.23353L133.286 29.5773L136.097 32.4227L163.773 5.07897L160.962 2.23353ZM134.691 29H123.305V33H134.691V29ZM124.707 32.4261L144.57 12.8948L141.766 10.0427L121.902 29.5739L124.707 32.4261ZM143.168 9.46875H127.211V13.4688H143.168V9.46875ZM129.211 11.4688V3.65625H125.211V11.4688H129.211ZM127.211 5.65625H162.367V1.65625H127.211V5.65625ZM168.227 23.1875H170.227C170.227 22.0829 169.331 21.1875 168.227 21.1875V23.1875ZM168.227 31V33C169.331 33 170.227 32.1046 170.227 31H168.227ZM160.414 31H158.414C158.414 32.1046 159.309 33 160.414 33V31ZM160.414 23.1875V21.1875C159.309 21.1875 158.414 22.0829 158.414 23.1875H160.414ZM166.227 23.1875V31H170.227V23.1875H166.227ZM168.227 29H160.414V33H168.227V29ZM162.414 31V23.1875H158.414V31H162.414ZM160.414 25.1875H168.227V21.1875H160.414V25.1875ZM179.711 13.1875L181.125 14.6017L179.711 13.1875ZM179.711 21.4688L181.125 20.0545L179.711 21.4688ZM191.898 21.4688L190.484 20.0545L191.898 21.4688ZM183.852 29C180.606 29 177.892 27.876 175.598 25.5819L172.769 28.4103C175.814 31.4548 179.545 33 183.852 33V29ZM175.598 25.5819C173.304 23.2878 172.18 20.5739 172.18 17.3281H168.18C168.18 21.6344 169.725 25.3658 172.769 28.4103L175.598 25.5819ZM172.18 17.3281C172.18 14.0823 173.304 11.3684 175.598 9.07437L172.769 6.24594C169.725 9.29041 168.18 13.0218 168.18 17.3281H172.18ZM175.598 9.07437C177.892 6.7803 180.606 5.65625 183.852 5.65625V1.65625C179.545 1.65625 175.814 3.20147 172.769 6.24594L175.598 9.07437ZM183.852 5.65625H187.758V1.65625H183.852V5.65625ZM187.758 5.65625C191.004 5.65625 193.717 6.7803 196.012 9.07437L198.84 6.24594C195.796 3.20147 192.064 1.65625 187.758 1.65625V5.65625ZM196.012 9.07437C198.306 11.3684 199.43 14.0823 199.43 17.3281H203.43C203.43 13.0218 201.884 9.29041 198.84 6.24594L196.012 9.07437ZM199.43 17.3281C199.43 20.5739 198.306 23.2878 196.012 25.5819L198.84 28.4103C201.884 25.3658 203.43 21.6344 203.43 17.3281H199.43ZM196.012 25.5819C193.717 27.876 191.004 29 187.758 29V33C192.064 33 195.796 31.4548 198.84 28.4103L196.012 25.5819ZM187.758 29H183.852V33H187.758V29ZM183.852 9.46875C181.704 9.46875 179.816 10.2539 178.297 11.7733L181.125 14.6017C181.897 13.8294 182.77 13.4688 183.852 13.4688V9.46875ZM178.297 11.7733C176.777 13.2927 175.992 15.1809 175.992 17.3281H179.992C179.992 16.2461 180.353 15.374 181.125 14.6017L178.297 11.7733ZM175.992 17.3281C175.992 19.4753 176.777 21.3636 178.297 22.883L181.125 20.0545C180.353 19.2822 179.992 18.4101 179.992 17.3281H175.992ZM178.297 22.883C179.816 24.4023 181.704 25.1875 183.852 25.1875V21.1875C182.77 21.1875 181.897 20.8268 181.125 20.0545L178.297 22.883ZM183.852 25.1875H187.758V21.1875H183.852V25.1875ZM187.758 25.1875C189.905 25.1875 191.793 24.4023 193.313 22.883L190.484 20.0545C189.712 20.8268 188.84 21.1875 187.758 21.1875V25.1875ZM193.313 22.883C194.832 21.3636 195.617 19.4753 195.617 17.3281H191.617C191.617 18.4101 191.257 19.2822 190.484 20.0545L193.313 22.883ZM195.617 17.3281C195.617 15.1809 194.832 13.2927 193.313 11.7733L190.484 14.6017C191.257 15.374 191.617 16.2461 191.617 17.3281H195.617ZM193.313 11.7733C191.793 10.2539 189.905 9.46875 187.758 9.46875V13.4688C188.84 13.4688 189.712 13.8294 190.484 14.6017L193.313 11.7733ZM187.758 9.46875H183.852V13.4688H187.758V9.46875ZM211.195 21.2344V19.2344C210.091 19.2344 209.195 20.1298 209.195 21.2344H211.195ZM211.469 22.9141L210.007 24.2787C210.038 24.3123 210.071 24.3448 210.104 24.3762L211.469 22.9141ZM226.527 22.9141L225.113 21.4998L226.527 22.9141ZM226.527 21.5273L225.065 22.892C225.097 22.9256 225.129 22.9581 225.163 22.9895L226.527 21.5273ZM238.539 3.65625L239.953 5.07046C240.525 4.49847 240.696 3.63823 240.387 2.89088C240.077 2.14353 239.348 1.65625 238.539 1.65625V3.65625ZM230.727 11.4688V13.4688C231.257 13.4688 231.766 13.258 232.141 12.883L230.727 11.4688ZM211.469 11.7617L210.055 10.3475L211.469 11.7617ZM211.195 13.4219H209.195C209.195 14.5264 210.091 15.4219 211.195 15.4219V13.4219ZM209.195 21.2344V22.2109H213.195V21.2344H209.195ZM209.195 22.2109C209.195 22.9778 209.47 23.7035 210.007 24.2787L212.931 21.5494C213.002 21.6258 213.076 21.7327 213.128 21.8669C213.18 22.0003 213.195 22.1214 213.195 22.2109H209.195ZM210.104 24.3762C210.679 24.913 211.405 25.1875 212.172 25.1875V21.1875C212.261 21.1875 212.383 21.2033 212.516 21.2551C212.65 21.3073 212.757 21.3806 212.833 21.452L210.104 24.3762ZM212.172 25.1875H225.844V21.1875H212.172V25.1875ZM225.844 25.1875C226.612 25.1875 227.36 24.9102 227.942 24.3283L225.113 21.4998C225.204 21.4093 225.327 21.3223 225.477 21.2622C225.625 21.2031 225.755 21.1875 225.844 21.1875V25.1875ZM227.942 24.3283C228.508 23.7622 228.82 23.0208 228.82 22.2109H224.82C224.82 22.1041 224.841 21.9674 224.901 21.8226C224.961 21.6782 225.042 21.5706 225.113 21.4998L227.942 24.3283ZM228.82 22.2109C228.82 21.3979 228.503 20.6357 227.892 20.0652L225.163 22.9895C225.073 22.9061 224.978 22.7834 224.909 22.6228C224.84 22.4632 224.82 22.317 224.82 22.2109H228.82ZM227.989 20.1627C227.419 19.5515 226.657 19.2344 225.844 19.2344V23.2344C225.738 23.2344 225.591 23.2143 225.432 23.1459C225.271 23.0771 225.149 22.9813 225.065 22.892L227.989 20.1627ZM225.844 19.2344H211.195V23.2344H225.844V19.2344ZM225.844 15.4219C227.733 15.4219 229.295 16.069 230.64 17.4142L233.469 14.5858C231.377 12.4935 228.798 11.4219 225.844 11.4219V15.4219ZM230.64 17.4142C231.986 18.7594 232.633 20.3217 232.633 22.2109H236.633C236.633 19.2565 235.561 16.6781 233.469 14.5858L230.64 17.4142ZM232.633 22.2109C232.633 24.1002 231.986 25.6624 230.64 27.0077L233.469 29.8361C235.561 27.7438 236.633 25.1654 236.633 22.2109H232.633ZM230.64 27.0077C229.295 28.3529 227.733 29 225.844 29V33C228.798 33 231.377 31.9284 233.469 29.8361L230.64 27.0077ZM225.844 29H212.172V33H225.844V29ZM212.172 29C210.283 29 208.72 28.3529 207.375 27.0077L204.547 29.8361C206.639 31.9284 209.217 33 212.172 33V29ZM207.375 27.0077C206.03 25.6624 205.383 24.1002 205.383 22.2109H201.383C201.383 25.1654 202.454 27.7438 204.547 29.8361L207.375 27.0077ZM205.383 22.2109V12.4453H201.383V22.2109H205.383ZM205.383 12.4453C205.383 10.556 206.03 8.9938 207.375 7.64859L204.547 4.82016C202.454 6.91245 201.383 9.49084 201.383 12.4453H205.383ZM207.375 7.64859C208.72 6.30338 210.283 5.65625 212.172 5.65625V1.65625C209.217 1.65625 206.639 2.72787 204.547 4.82016L207.375 7.64859ZM212.172 5.65625H238.539V1.65625H212.172V5.65625ZM237.125 2.24204L229.312 10.0545L232.141 12.883L239.953 5.07046L237.125 2.24204ZM230.727 9.46875H212.172V13.4688H230.727V9.46875ZM212.172 9.46875C211.362 9.46875 210.621 9.7814 210.055 10.3475L212.883 13.1759C212.812 13.2467 212.705 13.328 212.56 13.3881C212.415 13.4485 212.279 13.4688 212.172 13.4688V9.46875ZM210.055 10.3475C209.473 10.9294 209.195 11.6772 209.195 12.4453H213.195C213.195 12.534 213.18 12.6643 213.121 12.8121C213.061 12.9623 212.973 13.0854 212.883 13.1759L210.055 10.3475ZM209.195 12.4453V13.4219H213.195V12.4453H209.195ZM211.195 15.4219H225.844V11.4219H211.195V15.4219ZM244.398 23.1875H246.398C246.398 22.0829 245.503 21.1875 244.398 21.1875V23.1875ZM244.398 31V33C245.503 33 246.398 32.1046 246.398 31H244.398ZM236.586 31H234.586C234.586 32.1046 235.481 33 236.586 33V31ZM236.586 23.1875V21.1875C235.481 21.1875 234.586 22.0829 234.586 23.1875H236.586ZM242.398 23.1875V31H246.398V23.1875H242.398ZM244.398 29H236.586V33H244.398V29ZM238.586 31V23.1875H234.586V31H238.586ZM236.586 25.1875H244.398V21.1875H236.586V25.1875ZM258.07 11.4688L256.656 12.883C257.031 13.258 257.54 13.4688 258.07 13.4688V11.4688ZM250.258 3.65625V1.65625C249.449 1.65625 248.72 2.14353 248.41 2.89088C248.1 3.63823 248.272 4.49847 248.844 5.07046L250.258 3.65625ZM261.977 23.1875H259.977C259.977 24.2921 260.872 25.1875 261.977 25.1875V23.1875ZM281.508 23.1875L282.922 21.7733C282.547 21.3982 282.038 21.1875 281.508 21.1875V23.1875ZM289.32 31V33C290.129 33 290.859 32.5127 291.168 31.7654C291.478 31.018 291.307 30.1578 290.735 29.5858L289.32 31ZM254.164 31H252.164C252.164 32.1046 253.059 33 254.164 33V31ZM277.309 13.1484L275.894 11.7342L277.309 13.1484ZM277.309 11.7617L275.846 13.1264C275.878 13.16 275.91 13.1925 275.944 13.2238L277.309 11.7617ZM259.485 10.0545L251.672 2.24204L248.844 5.07046L256.656 12.883L259.485 10.0545ZM250.258 5.65625H276.625V1.65625H250.258V5.65625ZM276.625 5.65625C278.514 5.65625 280.077 6.30338 281.422 7.64859L284.25 4.82016C282.158 2.72787 279.579 1.65625 276.625 1.65625V5.65625ZM281.422 7.64859C282.767 8.9938 283.414 10.556 283.414 12.4453H287.414C287.414 9.49084 286.342 6.91245 284.25 4.82016L281.422 7.64859ZM283.414 12.4453C283.414 14.3346 282.767 15.8968 281.422 17.242L284.25 20.0705C286.342 17.9782 287.414 15.3998 287.414 12.4453H283.414ZM281.422 17.242C280.077 18.5872 278.514 19.2344 276.625 19.2344V23.2344C279.579 23.2344 282.158 22.1628 284.25 20.0705L281.422 17.242ZM276.625 19.2344H262.953V23.2344H276.625V19.2344ZM262.953 19.2344C262.143 19.2344 261.402 19.547 260.836 20.1131L263.664 22.9416C263.593 23.0123 263.486 23.0936 263.341 23.1538C263.197 23.2141 263.06 23.2344 262.953 23.2344V19.2344ZM260.836 20.1131C260.254 20.695 259.977 21.4428 259.977 22.2109H263.977C263.977 22.2997 263.961 22.4299 263.902 22.5777C263.842 22.7279 263.755 22.851 263.664 22.9416L260.836 20.1131ZM259.977 22.2109V23.1875H263.977V22.2109H259.977ZM261.977 25.1875H281.508V21.1875H261.977V25.1875ZM280.094 24.6017L287.906 32.4142L290.735 29.5858L282.922 21.7733L280.094 24.6017ZM289.32 29H254.164V33H289.32V29ZM256.164 31V22.2109H252.164V31H256.164ZM256.164 22.2109C256.164 20.3217 256.811 18.7594 258.156 17.4142L255.328 14.5858C253.236 16.6781 252.164 19.2565 252.164 22.2109H256.164ZM258.156 17.4142C259.502 16.069 261.064 15.4219 262.953 15.4219V11.4219C259.999 11.4219 257.42 12.4935 255.328 14.5858L258.156 17.4142ZM262.953 15.4219H276.625V11.4219H262.953V15.4219ZM276.625 15.4219C277.393 15.4219 278.141 15.1445 278.723 14.5627L275.894 11.7342C275.985 11.6437 276.108 11.5566 276.258 11.4966C276.406 11.4374 276.536 11.4219 276.625 11.4219V15.4219ZM278.723 14.5627C279.289 13.9965 279.602 13.2552 279.602 12.4453H275.602C275.602 12.3385 275.622 12.2017 275.682 12.0569C275.742 11.9125 275.824 11.805 275.894 11.7342L278.723 14.5627ZM279.602 12.4453C279.602 11.6323 279.284 10.8701 278.673 10.2996L275.944 13.2238C275.855 13.1404 275.759 13.0178 275.69 12.8572C275.622 12.6976 275.602 12.5514 275.602 12.4453H279.602ZM278.771 10.3971C278.2 9.78584 277.438 9.46875 276.625 9.46875V13.4688C276.519 13.4688 276.373 13.4487 276.213 13.3803C276.053 13.3115 275.93 13.2157 275.846 13.1264L278.771 10.3971ZM276.625 9.46875H258.07V13.4688H276.625V9.46875ZM296.898 13.1875L298.313 14.6017L296.898 13.1875ZM296.898 21.4688L298.313 20.0545L296.898 21.4688ZM309.086 21.4688L307.672 20.0545L309.086 21.4688ZM301.039 29C297.793 29 295.079 27.876 292.785 25.5819L289.957 28.4103C293.001 31.4548 296.733 33 301.039 33V29ZM292.785 25.5819C290.491 23.2878 289.367 20.5739 289.367 17.3281H285.367C285.367 21.6344 286.912 25.3658 289.957 28.4103L292.785 25.5819ZM289.367 17.3281C289.367 14.0823 290.491 11.3684 292.785 9.07437L289.957 6.24594C286.912 9.29041 285.367 13.0218 285.367 17.3281H289.367ZM292.785 9.07437C295.079 6.7803 297.793 5.65625 301.039 5.65625V1.65625C296.733 1.65625 293.001 3.20147 289.957 6.24594L292.785 9.07437ZM301.039 5.65625H304.945V1.65625H301.039V5.65625ZM304.945 5.65625C308.191 5.65625 310.905 6.7803 313.199 9.07437L316.027 6.24594C312.983 3.20147 309.252 1.65625 304.945 1.65625V5.65625ZM313.199 9.07437C315.493 11.3684 316.617 14.0823 316.617 17.3281H320.617C320.617 13.0218 319.072 9.29041 316.027 6.24594L313.199 9.07437ZM316.617 17.3281C316.617 20.5739 315.493 23.2878 313.199 25.5819L316.027 28.4103C319.072 25.3658 320.617 21.6344 320.617 17.3281H316.617ZM313.199 25.5819C310.905 27.876 308.191 29 304.945 29V33C309.252 33 312.983 31.4548 316.027 28.4103L313.199 25.5819ZM304.945 29H301.039V33H304.945V29ZM301.039 9.46875C298.892 9.46875 297.004 10.2539 295.484 11.7733L298.313 14.6017C299.085 13.8294 299.957 13.4688 301.039 13.4688V9.46875ZM295.484 11.7733C293.965 13.2927 293.18 15.1809 293.18 17.3281H297.18C297.18 16.2461 297.54 15.374 298.313 14.6017L295.484 11.7733ZM293.18 17.3281C293.18 19.4753 293.965 21.3636 295.484 22.883L298.313 20.0545C297.54 19.2822 297.18 18.4101 297.18 17.3281H293.18ZM295.484 22.883C297.004 24.4023 298.892 25.1875 301.039 25.1875V21.1875C299.957 21.1875 299.085 20.8268 298.313 20.0545L295.484 22.883ZM301.039 25.1875H304.945V21.1875H301.039V25.1875ZM304.945 25.1875C307.092 25.1875 308.981 24.4023 310.5 22.883L307.672 20.0545C306.899 20.8268 306.027 21.1875 304.945 21.1875V25.1875ZM310.5 22.883C312.02 21.3636 312.805 19.4753 312.805 17.3281H308.805C308.805 18.4101 308.444 19.2822 307.672 20.0545L310.5 22.883ZM312.805 17.3281C312.805 15.1809 312.02 13.2927 310.5 11.7733L307.672 14.6017C308.444 15.374 308.805 16.2461 308.805 17.3281H312.805ZM310.5 11.7733C308.981 10.2539 307.092 9.46875 304.945 9.46875V13.4688C306.027 13.4688 306.899 13.8294 307.672 14.6017L310.5 11.7733ZM304.945 9.46875H301.039V13.4688H304.945V9.46875ZM324.477 11.4688L323.062 12.883C323.437 13.258 323.946 13.4688 324.477 13.4688V11.4688ZM316.664 3.65625V1.65625C315.855 1.65625 315.126 2.14353 314.816 2.89088C314.507 3.63823 314.678 4.49847 315.25 5.07046L316.664 3.65625ZM328.383 23.1875H326.383C326.383 24.2921 327.278 25.1875 328.383 25.1875V23.1875ZM347.914 23.1875L349.328 21.7733C348.953 21.3982 348.444 21.1875 347.914 21.1875V23.1875ZM355.727 31V33C356.535 33 357.265 32.5127 357.574 31.7654C357.884 31.018 357.713 30.1578 357.141 29.5858L355.727 31ZM320.57 31H318.57C318.57 32.1046 319.466 33 320.57 33V31ZM343.715 13.1484L342.301 11.7342L343.715 13.1484ZM343.715 11.7617L342.253 13.1264C342.284 13.16 342.317 13.1925 342.35 13.2238L343.715 11.7617ZM325.891 10.0545L318.078 2.24204L315.25 5.07046L323.062 12.883L325.891 10.0545ZM316.664 5.65625H343.031V1.65625H316.664V5.65625ZM343.031 5.65625C344.921 5.65625 346.483 6.30338 347.828 7.64859L350.656 4.82016C348.564 2.72787 345.986 1.65625 343.031 1.65625V5.65625ZM347.828 7.64859C349.173 8.9938 349.82 10.556 349.82 12.4453H353.82C353.82 9.49084 352.749 6.91245 350.656 4.82016L347.828 7.64859ZM349.82 12.4453C349.82 14.3346 349.173 15.8968 347.828 17.242L350.656 20.0705C352.749 17.9782 353.82 15.3998 353.82 12.4453H349.82ZM347.828 17.242C346.483 18.5872 344.921 19.2344 343.031 19.2344V23.2344C345.986 23.2344 348.564 22.1628 350.656 20.0705L347.828 17.242ZM343.031 19.2344H329.359V23.2344H343.031V19.2344ZM329.359 19.2344C328.549 19.2344 327.808 19.547 327.242 20.1131L330.07 22.9416C330 23.0123 329.892 23.0936 329.748 23.1538C329.603 23.2141 329.466 23.2344 329.359 23.2344V19.2344ZM327.242 20.1131C326.66 20.695 326.383 21.4428 326.383 22.2109H330.383C330.383 22.2997 330.367 22.4299 330.308 22.5777C330.248 22.7279 330.161 22.851 330.07 22.9416L327.242 20.1131ZM326.383 22.2109V23.1875H330.383V22.2109H326.383ZM328.383 25.1875H347.914V21.1875H328.383V25.1875ZM346.5 24.6017L354.312 32.4142L357.141 29.5858L349.328 21.7733L346.5 24.6017ZM355.727 29H320.57V33H355.727V29ZM322.57 31V22.2109H318.57V31H322.57ZM322.57 22.2109C322.57 20.3217 323.217 18.7594 324.563 17.4142L321.734 14.5858C319.642 16.6781 318.57 19.2565 318.57 22.2109H322.57ZM324.563 17.4142C325.908 16.069 327.47 15.4219 329.359 15.4219V11.4219C326.405 11.4219 323.827 12.4935 321.734 14.5858L324.563 17.4142ZM329.359 15.4219H343.031V11.4219H329.359V15.4219ZM343.031 15.4219C343.799 15.4219 344.547 15.1445 345.129 14.5627L342.301 11.7342C342.391 11.6437 342.514 11.5566 342.664 11.4966C342.812 11.4374 342.943 11.4219 343.031 11.4219V15.4219ZM345.129 14.5627C345.695 13.9965 346.008 13.2552 346.008 12.4453H342.008C342.008 12.3385 342.028 12.2017 342.088 12.0569C342.149 11.9125 342.23 11.805 342.301 11.7342L345.129 14.5627ZM346.008 12.4453C346.008 11.6323 345.691 10.8701 345.079 10.2996L342.35 13.2238C342.261 13.1404 342.165 13.0178 342.096 12.8572C342.028 12.6976 342.008 12.5514 342.008 12.4453H346.008ZM345.177 10.3971C344.606 9.78584 343.844 9.46875 343.031 9.46875V13.4688C342.925 13.4688 342.779 13.4487 342.619 13.3803C342.459 13.3115 342.336 13.2157 342.253 13.1264L345.177 10.3971ZM343.031 9.46875H324.477V13.4688H343.031V9.46875ZM376.918 13.1484L375.504 11.7342L376.918 13.1484ZM376.918 11.7617L375.456 13.1264C375.487 13.16 375.52 13.1925 375.553 13.2238L376.918 11.7617ZM357.68 11.4688L356.265 12.883C356.641 13.258 357.149 13.4688 357.68 13.4688V11.4688ZM349.867 3.65625V1.65625C349.058 1.65625 348.329 2.14353 348.019 2.89088C347.71 3.63823 347.881 4.49847 348.453 5.07046L349.867 3.65625ZM383.559 17.3281L381.906 16.2015C381.443 16.8811 381.443 17.7752 381.906 18.4548L383.559 17.3281ZM349.867 31L348.453 29.5858C347.881 30.1578 347.71 31.018 348.019 31.7654C348.329 32.5127 349.058 33 349.867 33V31ZM357.68 23.1875V21.1875C357.149 21.1875 356.641 21.3982 356.265 21.7733L357.68 23.1875ZM376.918 22.9141L375.504 21.4998L376.918 22.9141ZM376.918 21.5273L375.456 22.892C375.487 22.9256 375.52 22.9581 375.553 22.9895L376.918 21.5273ZM359.633 21.2344H357.633C357.633 22.3389 358.528 23.2344 359.633 23.2344V21.2344ZM359.633 13.4219V11.4219C358.528 11.4219 357.633 12.3173 357.633 13.4219H359.633ZM376.234 15.4219C377.003 15.4219 377.75 15.1445 378.332 14.5627L375.504 11.7342C375.594 11.6437 375.717 11.5566 375.868 11.4966C376.015 11.4374 376.146 11.4219 376.234 11.4219V15.4219ZM378.332 14.5627C378.898 13.9965 379.211 13.2552 379.211 12.4453H375.211C375.211 12.3385 375.231 12.2017 375.292 12.0569C375.352 11.9125 375.433 11.805 375.504 11.7342L378.332 14.5627ZM379.211 12.4453C379.211 11.6323 378.894 10.8701 378.283 10.2996L375.553 13.2238C375.464 13.1404 375.368 13.0178 375.299 12.8572C375.231 12.6976 375.211 12.5514 375.211 12.4453H379.211ZM378.38 10.3971C377.81 9.78584 377.047 9.46875 376.234 9.46875V13.4688C376.128 13.4688 375.982 13.4487 375.823 13.3803C375.662 13.3115 375.539 13.2157 375.456 13.1264L378.38 10.3971ZM376.234 9.46875H357.68V13.4688H376.234V9.46875ZM359.094 10.0545L351.281 2.24204L348.453 5.07046L356.265 12.883L359.094 10.0545ZM349.867 5.65625H376.234V1.65625H349.867V5.65625ZM376.234 5.65625C378.124 5.65625 379.686 6.30338 381.031 7.64859L383.86 4.82016C381.767 2.72787 379.189 1.65625 376.234 1.65625V5.65625ZM381.031 7.64859C382.376 8.9938 383.023 10.556 383.023 12.4453H387.023C387.023 9.49084 385.952 6.91245 383.86 4.82016L381.031 7.64859ZM383.023 12.4453C383.023 13.8882 382.644 15.1189 381.906 16.2015L385.211 18.4548C386.426 16.6728 387.023 14.6483 387.023 12.4453H383.023ZM381.906 18.4548C382.644 19.5373 383.023 20.7681 383.023 22.2109H387.023C387.023 20.008 386.426 17.9835 385.211 16.2015L381.906 18.4548ZM383.023 22.2109C383.023 24.1002 382.376 25.6624 381.031 27.0077L383.86 29.8361C385.952 27.7438 387.023 25.1654 387.023 22.2109H383.023ZM381.031 27.0077C379.686 28.3529 378.124 29 376.234 29V33C379.189 33 381.767 31.9284 383.86 29.8361L381.031 27.0077ZM376.234 29H349.867V33H376.234V29ZM351.281 32.4142L359.094 24.6017L356.265 21.7733L348.453 29.5858L351.281 32.4142ZM357.68 25.1875H376.234V21.1875H357.68V25.1875ZM376.234 25.1875C377.003 25.1875 377.75 24.9102 378.332 24.3283L375.504 21.4998C375.594 21.4093 375.717 21.3223 375.868 21.2622C376.015 21.2031 376.146 21.1875 376.234 21.1875V25.1875ZM378.332 24.3283C378.898 23.7622 379.211 23.0208 379.211 22.2109H375.211C375.211 22.1041 375.231 21.9674 375.292 21.8226C375.352 21.6782 375.433 21.5706 375.504 21.4998L378.332 24.3283ZM379.211 22.2109C379.211 21.3979 378.894 20.6357 378.283 20.0652L375.553 22.9895C375.464 22.9061 375.368 22.7834 375.299 22.6228C375.231 22.4632 375.211 22.317 375.211 22.2109H379.211ZM378.38 20.1627C377.81 19.5515 377.047 19.2344 376.234 19.2344V23.2344C376.128 23.2344 375.982 23.2143 375.823 23.1459C375.662 23.0771 375.539 22.9813 375.456 22.892L378.38 20.1627ZM376.234 19.2344H359.633V23.2344H376.234V19.2344ZM361.633 21.2344V13.4219H357.633V21.2344H361.633ZM359.633 15.4219H376.234V11.4219H359.633V15.4219ZM394.789 23.1875H396.789C396.789 22.0829 395.894 21.1875 394.789 21.1875V23.1875ZM394.789 31V33C395.894 33 396.789 32.1046 396.789 31H394.789ZM386.977 31H384.977C384.977 32.1046 385.872 33 386.977 33V31ZM386.977 23.1875V21.1875C385.872 21.1875 384.977 22.0829 384.977 23.1875H386.977ZM392.789 23.1875V31H396.789V23.1875H392.789ZM394.789 29H386.977V33H394.789V29ZM388.977 31V23.1875H384.977V31H388.977ZM386.977 25.1875H394.789V21.1875H386.977V25.1875Z" fill="url(#paint1_linear_198_140)" fill-opacity="0.9"/>
<defs>
<linearGradient id="paint0_linear_198_140" x1="198.5" y1="-2" x2="198.5" y2="35" gradientUnits="userSpaceOnUse">
<stop stop-color="#F9BE79"/>
<stop offset="0.427083" stop-color="#FE5B00"/>
<stop offset="0.890625" stop-color="#D04013"/>
</linearGradient>
<linearGradient id="paint1_linear_198_140" x1="198.5" y1="-2" x2="198.5" y2="35" gradientUnits="userSpaceOnUse">
<stop stop-color="#9E9E9E"/>
<stop offset="0.317708" stop-color="#F4F4F4"/>
<stop offset="0.546875" stop-color="#919191"/>
<stop offset="0.817708" stop-color="#A5A5A5"/>
</linearGradient>
</defs>
</svg>
