<svg width="493" height="44" viewBox="0 0 493 44" fill="none" xmlns="http://www.w3.org/2000/svg">
<g filter="url(#filter0_d_198_140)">
<path d="M31.7266 18.4219C32 18.4219 32.2279 18.3307 32.4102 18.1484C32.6055 17.9531 32.7031 17.7188 32.7031 17.4453C32.7031 17.1719 32.6055 16.944 32.4102 16.7617C32.2279 16.5664 32 16.4688 31.7266 16.4688H13.1719L5.35938 8.65625H31.7266C34.1484 8.65625 36.2188 9.51562 37.9375 11.2344C39.6562 12.9531 40.5156 15.0234 40.5156 17.4453C40.5156 19.2682 40.0273 20.8958 39.0508 22.3281C40.0273 23.7604 40.5156 25.388 40.5156 27.2109C40.5156 29.6328 39.6562 31.7031 37.9375 33.4219C36.2188 35.1406 34.1484 36 31.7266 36H5.35938L13.1719 28.1875H31.7266C32 28.1875 32.2279 28.0964 32.4102 27.9141C32.6055 27.7188 32.7031 27.4844 32.7031 27.2109C32.7031 26.9375 32.6055 26.7096 32.4102 26.5273C32.2279 26.332 32 26.2344 31.7266 26.2344H15.125V18.4219H31.7266ZM77.625 8.65625L49.9492 36H38.5625L66.2383 8.65625H77.625ZM89.3438 36C85.5677 36 82.3451 34.6654 79.6758 31.9961C77.0065 29.3268 75.6719 26.1042 75.6719 22.3281C75.6719 18.5521 77.0065 15.3294 79.6758 12.6602C82.3451 9.99089 85.5677 8.65625 89.3438 8.65625H93.25C97.026 8.65625 100.249 9.99089 102.918 12.6602C105.587 15.3294 106.922 18.5521 106.922 22.3281C106.922 26.1042 105.587 29.3268 102.918 31.9961C100.249 34.6654 97.026 36 93.25 36H89.3438ZM89.3438 16.4688C87.7292 16.4688 86.349 17.0417 85.2031 18.1875C84.0573 19.3333 83.4844 20.7135 83.4844 22.3281C83.4844 23.9427 84.0573 25.3229 85.2031 26.4688C86.349 27.6146 87.7292 28.1875 89.3438 28.1875H93.25C94.8646 28.1875 96.2448 27.6146 97.3906 26.4688C98.5365 25.3229 99.1094 23.9427 99.1094 22.3281C99.1094 20.7135 98.5365 19.3333 97.3906 18.1875C96.2448 17.0417 94.8646 16.4688 93.25 16.4688H89.3438ZM108.875 26.2344V13.5391L116.688 5.72656V18.4219H132.312V8.65625H140.125V31.1172L132.312 38.9297V26.2344H108.875ZM173.328 26.2344H149.891V18.4219H173.328V26.2344ZM206.531 18.4219V17.4453C206.531 17.1719 206.434 16.944 206.238 16.7617C206.056 16.5664 205.828 16.4688 205.555 16.4688H191.883C191.609 16.4688 191.375 16.5664 191.18 16.7617C190.997 16.944 190.906 17.1719 190.906 17.4453C190.906 17.7188 190.997 17.9531 191.18 18.1484C191.375 18.3307 191.609 18.4219 191.883 18.4219H206.531ZM191.883 26.2344C189.461 26.2344 187.391 25.375 185.672 23.6562C183.953 21.9375 183.094 19.8672 183.094 17.4453C183.094 15.0234 183.953 12.9531 185.672 11.2344C187.391 9.51562 189.461 8.65625 191.883 8.65625H205.555C207.977 8.65625 210.047 9.51562 211.766 11.2344C213.484 12.9531 214.344 15.0234 214.344 17.4453V27.2109C214.344 29.6328 213.484 31.7031 211.766 33.4219C210.047 35.1406 207.977 36 205.555 36H179.188L187 28.1875H205.555C205.828 28.1875 206.056 28.0964 206.238 27.9141C206.434 27.7188 206.531 27.4844 206.531 27.2109V26.2344H191.883ZM251.453 8.65625L223.777 36H212.391L240.066 8.65625H251.453ZM263.172 36C259.396 36 256.173 34.6654 253.504 31.9961C250.835 29.3268 249.5 26.1042 249.5 22.3281C249.5 18.5521 250.835 15.3294 253.504 12.6602C256.173 9.99089 259.396 8.65625 263.172 8.65625H267.078C270.854 8.65625 274.077 9.99089 276.746 12.6602C279.415 15.3294 280.75 18.5521 280.75 22.3281C280.75 26.1042 279.415 29.3268 276.746 31.9961C274.077 34.6654 270.854 36 267.078 36H263.172ZM263.172 16.4688C261.557 16.4688 260.177 17.0417 259.031 18.1875C257.885 19.3333 257.312 20.7135 257.312 22.3281C257.312 23.9427 257.885 25.3229 259.031 26.4688C260.177 27.6146 261.557 28.1875 263.172 28.1875H267.078C268.693 28.1875 270.073 27.6146 271.219 26.4688C272.365 25.3229 272.938 23.9427 272.938 22.3281C272.938 20.7135 272.365 19.3333 271.219 18.1875C270.073 17.0417 268.693 16.4688 267.078 16.4688H263.172ZM282.703 26.2344V13.5391L290.516 5.72656V18.4219H306.141V8.65625H313.953V31.1172L306.141 38.9297V26.2344H282.703ZM351.062 8.65625L323.387 36H312L339.676 8.65625H351.062ZM360.828 16.4688L353.016 8.65625H379.383C381.805 8.65625 383.875 9.51562 385.594 11.2344C387.312 12.9531 388.172 15.0234 388.172 17.4453C388.172 19.8672 387.312 21.9375 385.594 23.6562C383.875 25.375 381.805 26.2344 379.383 26.2344H365.711C365.438 26.2344 365.203 26.332 365.008 26.5273C364.826 26.7096 364.734 26.9375 364.734 27.2109V28.1875H384.266L392.078 36H356.922V27.2109C356.922 24.7891 357.781 22.7188 359.5 21C361.219 19.2812 363.289 18.4219 365.711 18.4219H379.383C379.656 18.4219 379.884 18.3307 380.066 18.1484C380.262 17.9531 380.359 17.7188 380.359 17.4453C380.359 17.1719 380.262 16.944 380.066 16.7617C379.884 16.5664 379.656 16.4688 379.383 16.4688H360.828ZM403.797 36C400.021 36 396.798 34.6654 394.129 31.9961C391.46 29.3268 390.125 26.1042 390.125 22.3281C390.125 18.5521 391.46 15.3294 394.129 12.6602C396.798 9.99089 400.021 8.65625 403.797 8.65625H407.703C411.479 8.65625 414.702 9.99089 417.371 12.6602C420.04 15.3294 421.375 18.5521 421.375 22.3281C421.375 26.1042 420.04 29.3268 417.371 31.9961C414.702 34.6654 411.479 36 407.703 36H403.797ZM403.797 16.4688C402.182 16.4688 400.802 17.0417 399.656 18.1875C398.51 19.3333 397.938 20.7135 397.938 22.3281C397.938 23.9427 398.51 25.3229 399.656 26.4688C400.802 27.6146 402.182 28.1875 403.797 28.1875H407.703C409.318 28.1875 410.698 27.6146 411.844 26.4688C412.99 25.3229 413.562 23.9427 413.562 22.3281C413.562 20.7135 412.99 19.3333 411.844 18.1875C410.698 17.0417 409.318 16.4688 407.703 16.4688H403.797ZM427.234 16.4688L419.422 8.65625H445.789C448.211 8.65625 450.281 9.51562 452 11.2344C453.719 12.9531 454.578 15.0234 454.578 17.4453C454.578 19.8672 453.719 21.9375 452 23.6562C450.281 25.375 448.211 26.2344 445.789 26.2344H432.117C431.844 26.2344 431.609 26.332 431.414 26.5273C431.232 26.7096 431.141 26.9375 431.141 27.2109V28.1875H450.672L458.484 36H423.328V27.2109C423.328 24.7891 424.188 22.7188 425.906 21C427.625 19.2812 429.695 18.4219 432.117 18.4219H445.789C446.062 18.4219 446.29 18.3307 446.473 18.1484C446.668 17.9531 446.766 17.7188 446.766 17.4453C446.766 17.1719 446.668 16.944 446.473 16.7617C446.29 16.5664 446.062 16.4688 445.789 16.4688H427.234ZM478.992 18.4219C479.266 18.4219 479.493 18.3307 479.676 18.1484C479.871 17.9531 479.969 17.7188 479.969 17.4453C479.969 17.1719 479.871 16.944 479.676 16.7617C479.493 16.5664 479.266 16.4688 478.992 16.4688H460.438L452.625 8.65625H478.992C481.414 8.65625 483.484 9.51562 485.203 11.2344C486.922 12.9531 487.781 15.0234 487.781 17.4453C487.781 19.2682 487.293 20.8958 486.316 22.3281C487.293 23.7604 487.781 25.388 487.781 27.2109C487.781 29.6328 486.922 31.7031 485.203 33.4219C483.484 35.1406 481.414 36 478.992 36H452.625L460.438 28.1875H478.992C479.266 28.1875 479.493 28.0964 479.676 27.9141C479.871 27.7188 479.969 27.4844 479.969 27.2109C479.969 26.9375 479.871 26.7096 479.676 26.5273C479.493 26.332 479.266 26.2344 478.992 26.2344H462.391V18.4219H478.992Z" fill="url(#paint0_linear_198_140)" fill-opacity="0.9" shape-rendering="crispEdges"/>
</g>
<defs>
<filter id="filter0_d_198_140" x="0.359375" y="0.726562" width="492.422" height="43.2031" filterUnits="userSpaceOnUse" color-interpolation-filters="sRGB">
<feFlood flood-opacity="0" result="BackgroundImageFix"/>
<feColorMatrix in="SourceAlpha" type="matrix" values="0 0 0 0 0 0 0 0 0 0 0 0 0 0 0 0 0 0 127 0" result="hardAlpha"/>
<feOffset/>
<feGaussianBlur stdDeviation="2.5"/>
<feComposite in2="hardAlpha" operator="out"/>
<feColorMatrix type="matrix" values="0 0 0 0 0 0 0 0 0 0 0 0 0 0 0 0 0 0 1 0"/>
<feBlend mode="normal" in2="BackgroundImageFix" result="effect1_dropShadow_198_140"/>
<feBlend mode="normal" in="SourceGraphic" in2="effect1_dropShadow_198_140" result="shape"/>
</filter>
<linearGradient id="paint0_linear_198_140" x1="249.5" y1="3" x2="249.5" y2="40" gradientUnits="userSpaceOnUse">
<stop stop-color="#9E9E9E"/>
<stop offset="0.317708" stop-color="#F4F4F4"/>
<stop offset="0.546875" stop-color="#919191"/>
<stop offset="0.817708" stop-color="#A5A5A5"/>
</linearGradient>
</defs>
</svg>
