<svg width="483" height="34" viewBox="0 0 483 34" fill="none" xmlns="http://www.w3.org/2000/svg">
<path d="M26.7266 13.4219C27 13.4219 27.2279 13.3307 27.4102 13.1484C27.6055 12.9531 27.7031 12.7188 27.7031 12.4453C27.7031 12.1719 27.6055 11.944 27.4102 11.7617C27.2279 11.5664 27 11.4688 26.7266 11.4688H8.17188L0.359375 3.65625H26.7266C29.1484 3.65625 31.2188 4.51562 32.9375 6.23438C34.6562 7.95312 35.5156 10.0234 35.5156 12.4453C35.5156 14.2682 35.0273 15.8958 34.0508 17.3281C35.0273 18.7604 35.5156 20.388 35.5156 22.2109C35.5156 24.6328 34.6562 26.7031 32.9375 28.4219C31.2188 30.1406 29.1484 31 26.7266 31H0.359375L8.17188 23.1875H26.7266C27 23.1875 27.2279 23.0964 27.4102 22.9141C27.6055 22.7188 27.7031 22.4844 27.7031 22.2109C27.7031 21.9375 27.6055 21.7096 27.4102 21.5273C27.2279 21.332 27 21.2344 26.7266 21.2344H10.125V13.4219H26.7266ZM72.625 3.65625L44.9492 31H33.5625L61.2383 3.65625H72.625ZM84.3438 31C80.5677 31 77.3451 29.6654 74.6758 26.9961C72.0065 24.3268 70.6719 21.1042 70.6719 17.3281C70.6719 13.5521 72.0065 10.3294 74.6758 7.66016C77.3451 4.99089 80.5677 3.65625 84.3438 3.65625H88.25C92.026 3.65625 95.2487 4.99089 97.918 7.66016C100.587 10.3294 101.922 13.5521 101.922 17.3281C101.922 21.1042 100.587 24.3268 97.918 26.9961C95.2487 29.6654 92.026 31 88.25 31H84.3438ZM84.3438 11.4688C82.7292 11.4688 81.349 12.0417 80.2031 13.1875C79.0573 14.3333 78.4844 15.7135 78.4844 17.3281C78.4844 18.9427 79.0573 20.3229 80.2031 21.4688C81.349 22.6146 82.7292 23.1875 84.3438 23.1875H88.25C89.8646 23.1875 91.2448 22.6146 92.3906 21.4688C93.5365 20.3229 94.1094 18.9427 94.1094 17.3281C94.1094 15.7135 93.5365 14.3333 92.3906 13.1875C91.2448 12.0417 89.8646 11.4688 88.25 11.4688H84.3438ZM103.875 21.2344V8.53906L111.688 0.726562V13.4219H127.312V3.65625H135.125V26.1172L127.312 33.9297V21.2344H103.875ZM168.328 21.2344H144.891V13.4219H168.328V21.2344ZM201.531 13.4219V12.4453C201.531 12.1719 201.434 11.944 201.238 11.7617C201.056 11.5664 200.828 11.4688 200.555 11.4688H186.883C186.609 11.4688 186.375 11.5664 186.18 11.7617C185.997 11.944 185.906 12.1719 185.906 12.4453C185.906 12.7188 185.997 12.9531 186.18 13.1484C186.375 13.3307 186.609 13.4219 186.883 13.4219H201.531ZM186.883 21.2344C184.461 21.2344 182.391 20.375 180.672 18.6562C178.953 16.9375 178.094 14.8672 178.094 12.4453C178.094 10.0234 178.953 7.95312 180.672 6.23438C182.391 4.51562 184.461 3.65625 186.883 3.65625H200.555C202.977 3.65625 205.047 4.51562 206.766 6.23438C208.484 7.95312 209.344 10.0234 209.344 12.4453V22.2109C209.344 24.6328 208.484 26.7031 206.766 28.4219C205.047 30.1406 202.977 31 200.555 31H174.188L182 23.1875H200.555C200.828 23.1875 201.056 23.0964 201.238 22.9141C201.434 22.7188 201.531 22.4844 201.531 22.2109V21.2344H186.883ZM246.453 3.65625L218.777 31H207.391L235.066 3.65625H246.453ZM258.172 31C254.396 31 251.173 29.6654 248.504 26.9961C245.835 24.3268 244.5 21.1042 244.5 17.3281C244.5 13.5521 245.835 10.3294 248.504 7.66016C251.173 4.99089 254.396 3.65625 258.172 3.65625H262.078C265.854 3.65625 269.077 4.99089 271.746 7.66016C274.415 10.3294 275.75 13.5521 275.75 17.3281C275.75 21.1042 274.415 24.3268 271.746 26.9961C269.077 29.6654 265.854 31 262.078 31H258.172ZM258.172 11.4688C256.557 11.4688 255.177 12.0417 254.031 13.1875C252.885 14.3333 252.312 15.7135 252.312 17.3281C252.312 18.9427 252.885 20.3229 254.031 21.4688C255.177 22.6146 256.557 23.1875 258.172 23.1875H262.078C263.693 23.1875 265.073 22.6146 266.219 21.4688C267.365 20.3229 267.938 18.9427 267.938 17.3281C267.938 15.7135 267.365 14.3333 266.219 13.1875C265.073 12.0417 263.693 11.4688 262.078 11.4688H258.172ZM277.703 21.2344V8.53906L285.516 0.726562V13.4219H301.141V3.65625H308.953V26.1172L301.141 33.9297V21.2344H277.703ZM346.062 3.65625L318.387 31H307L334.676 3.65625H346.062ZM355.828 11.4688L348.016 3.65625H374.383C376.805 3.65625 378.875 4.51562 380.594 6.23438C382.312 7.95312 383.172 10.0234 383.172 12.4453C383.172 14.8672 382.312 16.9375 380.594 18.6562C378.875 20.375 376.805 21.2344 374.383 21.2344H360.711C360.438 21.2344 360.203 21.332 360.008 21.5273C359.826 21.7096 359.734 21.9375 359.734 22.2109V23.1875H379.266L387.078 31H351.922V22.2109C351.922 19.7891 352.781 17.7188 354.5 16C356.219 14.2812 358.289 13.4219 360.711 13.4219H374.383C374.656 13.4219 374.884 13.3307 375.066 13.1484C375.262 12.9531 375.359 12.7188 375.359 12.4453C375.359 12.1719 375.262 11.944 375.066 11.7617C374.884 11.5664 374.656 11.4688 374.383 11.4688H355.828ZM398.797 31C395.021 31 391.798 29.6654 389.129 26.9961C386.46 24.3268 385.125 21.1042 385.125 17.3281C385.125 13.5521 386.46 10.3294 389.129 7.66016C391.798 4.99089 395.021 3.65625 398.797 3.65625H402.703C406.479 3.65625 409.702 4.99089 412.371 7.66016C415.04 10.3294 416.375 13.5521 416.375 17.3281C416.375 21.1042 415.04 24.3268 412.371 26.9961C409.702 29.6654 406.479 31 402.703 31H398.797ZM398.797 11.4688C397.182 11.4688 395.802 12.0417 394.656 13.1875C393.51 14.3333 392.938 15.7135 392.938 17.3281C392.938 18.9427 393.51 20.3229 394.656 21.4688C395.802 22.6146 397.182 23.1875 398.797 23.1875H402.703C404.318 23.1875 405.698 22.6146 406.844 21.4688C407.99 20.3229 408.562 18.9427 408.562 17.3281C408.562 15.7135 407.99 14.3333 406.844 13.1875C405.698 12.0417 404.318 11.4688 402.703 11.4688H398.797ZM422.234 11.4688L414.422 3.65625H440.789C443.211 3.65625 445.281 4.51562 447 6.23438C448.719 7.95312 449.578 10.0234 449.578 12.4453C449.578 14.8672 448.719 16.9375 447 18.6562C445.281 20.375 443.211 21.2344 440.789 21.2344H427.117C426.844 21.2344 426.609 21.332 426.414 21.5273C426.232 21.7096 426.141 21.9375 426.141 22.2109V23.1875H445.672L453.484 31H418.328V22.2109C418.328 19.7891 419.188 17.7188 420.906 16C422.625 14.2812 424.695 13.4219 427.117 13.4219H440.789C441.062 13.4219 441.29 13.3307 441.473 13.1484C441.668 12.9531 441.766 12.7188 441.766 12.4453C441.766 12.1719 441.668 11.944 441.473 11.7617C441.29 11.5664 441.062 11.4688 440.789 11.4688H422.234ZM473.992 13.4219C474.266 13.4219 474.493 13.3307 474.676 13.1484C474.871 12.9531 474.969 12.7188 474.969 12.4453C474.969 12.1719 474.871 11.944 474.676 11.7617C474.493 11.5664 474.266 11.4688 473.992 11.4688H455.438L447.625 3.65625H473.992C476.414 3.65625 478.484 4.51562 480.203 6.23438C481.922 7.95312 482.781 10.0234 482.781 12.4453C482.781 14.2682 482.293 15.8958 481.316 17.3281C482.293 18.7604 482.781 20.388 482.781 22.2109C482.781 24.6328 481.922 26.7031 480.203 28.4219C478.484 30.1406 476.414 31 473.992 31H447.625L455.438 23.1875H473.992C474.266 23.1875 474.493 23.0964 474.676 22.9141C474.871 22.7188 474.969 22.4844 474.969 22.2109C474.969 21.9375 474.871 21.7096 474.676 21.5273C474.493 21.332 474.266 21.2344 473.992 21.2344H457.391V13.4219H473.992Z" fill="url(#paint0_linear_198_140)" fill-opacity="0.9"/>
<defs>
<linearGradient id="paint0_linear_198_140" x1="244.5" y1="-2" x2="244.5" y2="35" gradientUnits="userSpaceOnUse">
<stop stop-color="#9E9E9E"/>
<stop offset="0.317708" stop-color="#F4F4F4"/>
<stop offset="0.546875" stop-color="#919191"/>
<stop offset="0.817708" stop-color="#A5A5A5"/>
</linearGradient>
</defs>
</svg>
