<svg width="405" height="41" viewBox="0 0 405 41" fill="none" xmlns="http://www.w3.org/2000/svg">
<g filter="url(#filter0_d_198_140)">
<path d="M13.0703 36H5.25781V13.5391L13.0703 5.72656V36ZM22.8359 28.1875V36H15.0234V28.1875H22.8359ZM38.4609 36C34.6849 36 31.4622 34.6654 28.793 31.9961C26.1237 29.3268 24.7891 26.1042 24.7891 22.3281C24.7891 18.5521 26.1237 15.3294 28.793 12.6602C31.4622 9.99089 34.6849 8.65625 38.4609 8.65625H42.3672C46.1432 8.65625 49.3659 9.99089 52.0352 12.6602C54.7044 15.3294 56.0391 18.5521 56.0391 22.3281C56.0391 26.1042 54.7044 29.3268 52.0352 31.9961C49.3659 34.6654 46.1432 36 42.3672 36H38.4609ZM38.4609 16.4688C36.8464 16.4688 35.4661 17.0417 34.3203 18.1875C33.1745 19.3333 32.6016 20.7135 32.6016 22.3281C32.6016 23.9427 33.1745 25.3229 34.3203 26.4688C35.4661 27.6146 36.8464 28.1875 38.4609 28.1875H42.3672C43.9818 28.1875 45.362 27.6146 46.5078 26.4688C47.6536 25.3229 48.2266 23.9427 48.2266 22.3281C48.2266 20.7135 47.6536 19.3333 46.5078 18.1875C45.362 17.0417 43.9818 16.4688 42.3672 16.4688H38.4609ZM65.8047 26.2344V27.2109C65.8047 27.4844 65.8958 27.7188 66.0781 27.9141C66.2734 28.0964 66.5078 28.1875 66.7812 28.1875H80.4531C80.7266 28.1875 80.9544 28.0964 81.1367 27.9141C81.332 27.7188 81.4297 27.4844 81.4297 27.2109C81.4297 26.9375 81.332 26.7096 81.1367 26.5273C80.9544 26.332 80.7266 26.2344 80.4531 26.2344H65.8047ZM80.4531 18.4219C82.875 18.4219 84.9453 19.2812 86.6641 21C88.3828 22.7188 89.2422 24.7891 89.2422 27.2109C89.2422 29.6328 88.3828 31.7031 86.6641 33.4219C84.9453 35.1406 82.875 36 80.4531 36H66.7812C64.3594 36 62.2891 35.1406 60.5703 33.4219C58.8516 31.7031 57.9922 29.6328 57.9922 27.2109V17.4453C57.9922 15.0234 58.8516 12.9531 60.5703 11.2344C62.2891 9.51562 64.3594 8.65625 66.7812 8.65625H93.1484L85.3359 16.4688H66.7812C66.5078 16.4688 66.2734 16.5664 66.0781 16.7617C65.8958 16.944 65.8047 17.1719 65.8047 17.4453V18.4219H80.4531ZM122.445 26.2344H99.0078V18.4219H122.445V26.2344ZM167.367 8.65625L139.691 36H128.305L148.168 16.4688H132.211V8.65625H167.367ZM173.227 28.1875V36H165.414V28.1875H173.227ZM188.852 36C185.076 36 181.853 34.6654 179.184 31.9961C176.514 29.3268 175.18 26.1042 175.18 22.3281C175.18 18.5521 176.514 15.3294 179.184 12.6602C181.853 9.99089 185.076 8.65625 188.852 8.65625H192.758C196.534 8.65625 199.757 9.99089 202.426 12.6602C205.095 15.3294 206.43 18.5521 206.43 22.3281C206.43 26.1042 205.095 29.3268 202.426 31.9961C199.757 34.6654 196.534 36 192.758 36H188.852ZM188.852 16.4688C187.237 16.4688 185.857 17.0417 184.711 18.1875C183.565 19.3333 182.992 20.7135 182.992 22.3281C182.992 23.9427 183.565 25.3229 184.711 26.4688C185.857 27.6146 187.237 28.1875 188.852 28.1875H192.758C194.372 28.1875 195.753 27.6146 196.898 26.4688C198.044 25.3229 198.617 23.9427 198.617 22.3281C198.617 20.7135 198.044 19.3333 196.898 18.1875C195.753 17.0417 194.372 16.4688 192.758 16.4688H188.852ZM216.195 26.2344V27.2109C216.195 27.4844 216.286 27.7188 216.469 27.9141C216.664 28.0964 216.898 28.1875 217.172 28.1875H230.844C231.117 28.1875 231.345 28.0964 231.527 27.9141C231.723 27.7188 231.82 27.4844 231.82 27.2109C231.82 26.9375 231.723 26.7096 231.527 26.5273C231.345 26.332 231.117 26.2344 230.844 26.2344H216.195ZM230.844 18.4219C233.266 18.4219 235.336 19.2812 237.055 21C238.773 22.7188 239.633 24.7891 239.633 27.2109C239.633 29.6328 238.773 31.7031 237.055 33.4219C235.336 35.1406 233.266 36 230.844 36H217.172C214.75 36 212.68 35.1406 210.961 33.4219C209.242 31.7031 208.383 29.6328 208.383 27.2109V17.4453C208.383 15.0234 209.242 12.9531 210.961 11.2344C212.68 9.51562 214.75 8.65625 217.172 8.65625H243.539L235.727 16.4688H217.172C216.898 16.4688 216.664 16.5664 216.469 16.7617C216.286 16.944 216.195 17.1719 216.195 17.4453V18.4219H230.844ZM249.398 28.1875V36H241.586V28.1875H249.398ZM263.07 16.4688L255.258 8.65625H281.625C284.047 8.65625 286.117 9.51562 287.836 11.2344C289.555 12.9531 290.414 15.0234 290.414 17.4453C290.414 19.8672 289.555 21.9375 287.836 23.6562C286.117 25.375 284.047 26.2344 281.625 26.2344H267.953C267.68 26.2344 267.445 26.332 267.25 26.5273C267.068 26.7096 266.977 26.9375 266.977 27.2109V28.1875H286.508L294.32 36H259.164V27.2109C259.164 24.7891 260.023 22.7188 261.742 21C263.461 19.2812 265.531 18.4219 267.953 18.4219H281.625C281.898 18.4219 282.126 18.3307 282.309 18.1484C282.504 17.9531 282.602 17.7188 282.602 17.4453C282.602 17.1719 282.504 16.944 282.309 16.7617C282.126 16.5664 281.898 16.4688 281.625 16.4688H263.07ZM306.039 36C302.263 36 299.04 34.6654 296.371 31.9961C293.702 29.3268 292.367 26.1042 292.367 22.3281C292.367 18.5521 293.702 15.3294 296.371 12.6602C299.04 9.99089 302.263 8.65625 306.039 8.65625H309.945C313.721 8.65625 316.944 9.99089 319.613 12.6602C322.283 15.3294 323.617 18.5521 323.617 22.3281C323.617 26.1042 322.283 29.3268 319.613 31.9961C316.944 34.6654 313.721 36 309.945 36H306.039ZM306.039 16.4688C304.424 16.4688 303.044 17.0417 301.898 18.1875C300.753 19.3333 300.18 20.7135 300.18 22.3281C300.18 23.9427 300.753 25.3229 301.898 26.4688C303.044 27.6146 304.424 28.1875 306.039 28.1875H309.945C311.56 28.1875 312.94 27.6146 314.086 26.4688C315.232 25.3229 315.805 23.9427 315.805 22.3281C315.805 20.7135 315.232 19.3333 314.086 18.1875C312.94 17.0417 311.56 16.4688 309.945 16.4688H306.039ZM329.477 16.4688L321.664 8.65625H348.031C350.453 8.65625 352.523 9.51562 354.242 11.2344C355.961 12.9531 356.82 15.0234 356.82 17.4453C356.82 19.8672 355.961 21.9375 354.242 23.6562C352.523 25.375 350.453 26.2344 348.031 26.2344H334.359C334.086 26.2344 333.852 26.332 333.656 26.5273C333.474 26.7096 333.383 26.9375 333.383 27.2109V28.1875H352.914L360.727 36H325.57V27.2109C325.57 24.7891 326.43 22.7188 328.148 21C329.867 19.2812 331.938 18.4219 334.359 18.4219H348.031C348.305 18.4219 348.533 18.3307 348.715 18.1484C348.91 17.9531 349.008 17.7188 349.008 17.4453C349.008 17.1719 348.91 16.944 348.715 16.7617C348.533 16.5664 348.305 16.4688 348.031 16.4688H329.477ZM381.234 18.4219C381.508 18.4219 381.736 18.3307 381.918 18.1484C382.113 17.9531 382.211 17.7188 382.211 17.4453C382.211 17.1719 382.113 16.944 381.918 16.7617C381.736 16.5664 381.508 16.4688 381.234 16.4688H362.68L354.867 8.65625H381.234C383.656 8.65625 385.727 9.51562 387.445 11.2344C389.164 12.9531 390.023 15.0234 390.023 17.4453C390.023 19.2682 389.535 20.8958 388.559 22.3281C389.535 23.7604 390.023 25.388 390.023 27.2109C390.023 29.6328 389.164 31.7031 387.445 33.4219C385.727 35.1406 383.656 36 381.234 36H354.867L362.68 28.1875H381.234C381.508 28.1875 381.736 28.0964 381.918 27.9141C382.113 27.7188 382.211 27.4844 382.211 27.2109C382.211 26.9375 382.113 26.7096 381.918 26.5273C381.736 26.332 381.508 26.2344 381.234 26.2344H364.633V18.4219H381.234ZM399.789 28.1875V36H391.977V28.1875H399.789Z" fill="url(#paint0_linear_198_140)" fill-opacity="0.9" shape-rendering="crispEdges"/>
</g>
<defs>
<filter id="filter0_d_198_140" x="0.257812" y="0.726562" width="404.531" height="40.2734" filterUnits="userSpaceOnUse" color-interpolation-filters="sRGB">
<feFlood flood-opacity="0" result="BackgroundImageFix"/>
<feColorMatrix in="SourceAlpha" type="matrix" values="0 0 0 0 0 0 0 0 0 0 0 0 0 0 0 0 0 0 127 0" result="hardAlpha"/>
<feOffset/>
<feGaussianBlur stdDeviation="2.5"/>
<feComposite in2="hardAlpha" operator="out"/>
<feColorMatrix type="matrix" values="0 0 0 0 0 0 0 0 0 0 0 0 0 0 0 0 0 0 1 0"/>
<feBlend mode="normal" in2="BackgroundImageFix" result="effect1_dropShadow_198_140"/>
<feBlend mode="normal" in="SourceGraphic" in2="effect1_dropShadow_198_140" result="shape"/>
</filter>
<linearGradient id="paint0_linear_198_140" x1="203.5" y1="3" x2="203.5" y2="40" gradientUnits="userSpaceOnUse">
<stop stop-color="#9E9E9E"/>
<stop offset="0.317708" stop-color="#F4F4F4"/>
<stop offset="0.546875" stop-color="#919191"/>
<stop offset="0.817708" stop-color="#A5A5A5"/>
</linearGradient>
</defs>
</svg>
