<svg width="303" height="104" viewBox="0 0 303 104" fill="none" xmlns="http://www.w3.org/2000/svg">
<path d="M33.7773 4.98438C37.4102 4.98438 40.5156 6.27344 43.0938 8.85156C45.6719 11.4297 46.9609 14.5352 46.9609 18.168C46.9609 21.8008 45.6719 24.9062 43.0938 27.4844C41.6289 28.9492 39.9883 29.9941 38.1719 30.6191L53.5527 46H36.9707L11.8047 20.834V50.3945L0.0859375 38.6758V4.98438H33.7773ZM11.8047 16.7031V19.6328H33.7773C34.1875 19.6328 34.5293 19.4961 34.8027 19.2227C35.0957 18.9297 35.2422 18.5781 35.2422 18.168C35.2422 17.7578 35.0957 17.416 34.8027 17.1426C34.5293 16.8496 34.1875 16.7031 33.7773 16.7031H11.8047ZM76.2578 4.98438C81.9219 4.98438 86.7559 6.98633 90.7598 10.9902C94.7637 14.9941 96.7656 19.8281 96.7656 25.4922V38.6758L85.0469 50.3945V37.2109H61.6094V46H49.8906V25.4922C49.8906 19.8281 51.8926 14.9941 55.8965 10.9902C59.9004 6.98633 64.7344 4.98438 70.3984 4.98438H76.2578ZM85.0469 25.4922C85.0469 23.0703 84.1875 21 82.4688 19.2812C80.75 17.5625 78.6797 16.7031 76.2578 16.7031H70.3984C67.9766 16.7031 65.9062 17.5625 64.1875 19.2812C62.4688 21 61.6094 23.0703 61.6094 25.4922H85.0469ZM134.852 28.9199V0.589844L146.57 12.3086V46H135.35L111.414 22.0645V50.3945L99.6953 38.6758V4.98438H110.916L134.852 28.9199ZM170.008 4.98438H202.234L190.516 16.7031H170.008C167.586 16.7031 165.516 17.5625 163.797 19.2812C162.078 21 161.219 23.0703 161.219 25.4922C161.219 27.9141 162.078 29.9844 163.797 31.7031C165.516 33.4219 167.586 34.2812 170.008 34.2812H184.656V31.3516H170.008V19.6328H196.375V46H170.008C164.344 46 159.51 43.998 155.506 39.9941C151.502 35.9902 149.5 31.1562 149.5 25.4922C149.5 19.8281 151.502 14.9941 155.506 10.9902C159.51 6.98633 164.344 4.98438 170.008 4.98438ZM211.023 34.2812H246.18V46H199.305V4.98438H252.039L240.32 16.7031H211.023V19.6328H240.32V31.3516H211.023V34.2812ZM282.801 4.98438C286.434 4.98438 289.539 6.27344 292.117 8.85156C294.695 11.4297 295.984 14.5352 295.984 18.168C295.984 21.8008 294.695 24.9062 292.117 27.4844C290.652 28.9492 289.012 29.9941 287.195 30.6191L302.576 46H285.994L260.828 20.834V50.3945L249.109 38.6758V4.98438H282.801ZM260.828 16.7031V19.6328H282.801C283.211 19.6328 283.553 19.4961 283.826 19.2227C284.119 18.9297 284.266 18.5781 284.266 18.168C284.266 17.7578 284.119 17.416 283.826 17.1426C283.553 16.8496 283.211 16.7031 282.801 16.7031H260.828ZM104.09 57.9844L92.3711 69.7031H63.0742V72.6328H98.2305V84.3516H63.0742V103.395L51.3555 91.6758V57.9844H104.09ZM112.879 87.2812H148.035V99H101.16V57.9844H153.895L142.176 69.7031H112.879V72.6328H142.176V84.3516H112.879V87.2812ZM203.699 57.9844L191.98 69.7031H164.148C163.738 69.7031 163.387 69.8496 163.094 70.1426C162.82 70.416 162.684 70.7578 162.684 71.168C162.684 71.5781 162.82 71.9297 163.094 72.2227C163.387 72.4961 163.738 72.6328 164.148 72.6328H184.656C188.289 72.6328 191.395 73.9219 193.973 76.5C196.551 79.0781 197.84 82.1836 197.84 85.8164C197.84 89.4492 196.551 92.5547 193.973 95.1328C191.395 97.7109 188.289 99 184.656 99H145.105L156.824 87.2812H184.656C185.066 87.2812 185.408 87.1445 185.682 86.8711C185.975 86.5781 186.121 86.2266 186.121 85.8164C186.121 85.4062 185.975 85.0645 185.682 84.791C185.408 84.498 185.066 84.3516 184.656 84.3516H164.148C160.516 84.3516 157.41 83.0625 154.832 80.4844C152.254 77.9062 150.965 74.8008 150.965 71.168C150.965 67.5352 152.254 64.4297 154.832 61.8516C157.41 59.2734 160.516 57.9844 164.148 57.9844H203.699ZM250.574 57.9844L238.855 69.7031H227.137V91.6758L215.418 103.395V69.7031H197.84V57.9844H250.574Z" fill="url(#paint0_linear_189_33)" fill-opacity="0.9"/>
<defs>
<linearGradient id="paint0_linear_189_33" x1="149.5" y1="0" x2="149.5" y2="106" gradientUnits="userSpaceOnUse">
<stop stop-color="#3B21D9"/>
<stop offset="0.354167" stop-color="#BC9FFA"/>
<stop offset="0.453125" stop-color="#6746C2"/>
<stop offset="1" stop-color="#C676EC"/>
</linearGradient>
</defs>
</svg>
