<svg width="303" height="104" viewBox="0 0 303 104" fill="none" xmlns="http://www.w3.org/2000/svg">
<path d="M33.7773 4.98438C37.4102 4.98438 40.5156 6.27344 43.0938 8.85156C45.6719 11.4297 46.9609 14.5352 46.9609 18.168C46.9609 21.8008 45.6719 24.9062 43.0938 27.4844C41.6289 28.9492 39.9883 29.9941 38.1719 30.6191L53.5527 46H36.9707L11.8047 20.834V50.3945L0.0859375 38.6758V4.98438H33.7773ZM11.8047 16.7031V19.6328H33.7773C34.1875 19.6328 34.5293 19.4961 34.8027 19.2227C35.0957 18.9297 35.2422 18.5781 35.2422 18.168C35.2422 17.7578 35.0957 17.416 34.8027 17.1426C34.5293 16.8496 34.1875 16.7031 33.7773 16.7031H11.8047ZM76.2578 4.98438C81.9219 4.98438 86.7559 6.98633 90.7598 10.9902C94.7637 14.9941 96.7656 19.8281 96.7656 25.4922V38.6758L85.0469 50.3945V37.2109H61.6094V46H49.8906V25.4922C49.8906 19.8281 51.8926 14.9941 55.8965 10.9902C59.9004 6.98633 64.7344 4.98438 70.3984 4.98438H76.2578ZM85.0469 25.4922C85.0469 23.0703 84.1875 21 82.4688 19.2812C80.75 17.5625 78.6797 16.7031 76.2578 16.7031H70.3984C67.9766 16.7031 65.9062 17.5625 64.1875 19.2812C62.4688 21 61.6094 23.0703 61.6094 25.4922H85.0469ZM134.852 28.9199V0.589844L146.57 12.3086V46H135.35L111.414 22.0645V50.3945L99.6953 38.6758V4.98438H110.916L134.852 28.9199ZM170.008 4.98438H202.234L190.516 16.7031H170.008C167.586 16.7031 165.516 17.5625 163.797 19.2812C162.078 21 161.219 23.0703 161.219 25.4922C161.219 27.9141 162.078 29.9844 163.797 31.7031C165.516 33.4219 167.586 34.2812 170.008 34.2812H184.656V31.3516H170.008V19.6328H196.375V46H170.008C164.344 46 159.51 43.998 155.506 39.9941C151.502 35.9902 149.5 31.1562 149.5 25.4922C149.5 19.8281 151.502 14.9941 155.506 10.9902C159.51 6.98633 164.344 4.98438 170.008 4.98438ZM211.023 34.2812H246.18V46H199.305V4.98438H252.039L240.32 16.7031H211.023V19.6328H240.32V31.3516H211.023V34.2812ZM282.801 4.98438C286.434 4.98438 289.539 6.27344 292.117 8.85156C294.695 11.4297 295.984 14.5352 295.984 18.168C295.984 21.8008 294.695 24.9062 292.117 27.4844C290.652 28.9492 289.012 29.9941 287.195 30.6191L302.576 46H285.994L260.828 20.834V50.3945L249.109 38.6758V4.98438H282.801ZM260.828 16.7031V19.6328H282.801C283.211 19.6328 283.553 19.4961 283.826 19.2227C284.119 18.9297 284.266 18.5781 284.266 18.168C284.266 17.7578 284.119 17.416 283.826 17.1426C283.553 16.8496 283.211 16.7031 282.801 16.7031H260.828ZM104.09 57.9844L92.3711 69.7031H63.0742V72.6328H98.2305V84.3516H63.0742V103.395L51.3555 91.6758V57.9844H104.09ZM112.879 87.2812H148.035V99H101.16V57.9844H153.895L142.176 69.7031H112.879V72.6328H142.176V84.3516H112.879V87.2812ZM203.699 57.9844L191.98 69.7031H164.148C163.738 69.7031 163.387 69.8496 163.094 70.1426C162.82 70.416 162.684 70.7578 162.684 71.168C162.684 71.5781 162.82 71.9297 163.094 72.2227C163.387 72.4961 163.738 72.6328 164.148 72.6328H184.656C188.289 72.6328 191.395 73.9219 193.973 76.5C196.551 79.0781 197.84 82.1836 197.84 85.8164C197.84 89.4492 196.551 92.5547 193.973 95.1328C191.395 97.7109 188.289 99 184.656 99H145.105L156.824 87.2812H184.656C185.066 87.2812 185.408 87.1445 185.682 86.8711C185.975 86.5781 186.121 86.2266 186.121 85.8164C186.121 85.4062 185.975 85.0645 185.682 84.791C185.408 84.498 185.066 84.3516 184.656 84.3516H164.148C160.516 84.3516 157.41 83.0625 154.832 80.4844C152.254 77.9062 150.965 74.8008 150.965 71.168C150.965 67.5352 152.254 64.4297 154.832 61.8516C157.41 59.2734 160.516 57.9844 164.148 57.9844H203.699ZM250.574 57.9844L238.855 69.7031H227.137V91.6758L215.418 103.395V69.7031H197.84V57.9844H250.574Z" fill="url(#paint0_linear_126_197)" fill-opacity="0.85"/>
<path d="M38.1719 30.6191L37.1958 27.7824L32.6549 29.3448L36.0506 32.7405L38.1719 30.6191ZM53.5527 46V49H60.7954L55.6741 43.8787L53.5527 46ZM36.9707 46L34.8494 48.1213L35.7281 49H36.9707V46ZM11.8047 20.834L13.926 18.7127L8.80469 13.5913V20.834H11.8047ZM11.8047 50.3945L9.68337 52.5159L14.8047 57.6372V50.3945H11.8047ZM0.0859375 38.6758H-2.91406V39.9184L-2.03538 40.7971L0.0859375 38.6758ZM0.0859375 4.98438V1.98438H-2.91406V4.98438H0.0859375ZM11.8047 16.7031V13.7031H8.80469V16.7031H11.8047ZM11.8047 19.6328H8.80469V22.6328H11.8047V19.6328ZM34.8027 17.1426L32.6096 19.1895L32.6802 19.2652L32.7558 19.3357L34.8027 17.1426ZM33.7773 7.98438C36.6113 7.98438 38.9546 8.95506 40.9724 10.9729L45.2151 6.73024C42.0766 3.59181 38.2091 1.98438 33.7773 1.98438V7.98438ZM40.9724 10.9729C42.9902 12.9907 43.9609 15.3341 43.9609 18.168H49.9609C49.9609 13.7363 48.3535 9.86867 45.2151 6.73024L40.9724 10.9729ZM43.9609 18.168C43.9609 21.0019 42.9902 23.3452 40.9724 25.3631L45.2151 29.6057C48.3535 26.4673 49.9609 22.5997 49.9609 18.168H43.9609ZM40.9724 25.3631C39.8042 26.5313 38.5478 27.3172 37.1958 27.7824L39.148 33.4559C41.4287 32.6711 43.4536 31.3672 45.2151 29.6057L40.9724 25.3631ZM36.0506 32.7405L51.4314 48.1213L55.6741 43.8787L40.2932 28.4978L36.0506 32.7405ZM53.5527 43H36.9707V49H53.5527V43ZM39.092 43.8787L13.926 18.7127L9.68337 22.9553L34.8494 48.1213L39.092 43.8787ZM8.80469 20.834V50.3945H14.8047V20.834H8.80469ZM13.926 48.2732L2.20726 36.5545L-2.03538 40.7971L9.68337 52.5159L13.926 48.2732ZM3.08594 38.6758V4.98438H-2.91406V38.6758H3.08594ZM0.0859375 7.98438H33.7773V1.98438H0.0859375V7.98438ZM8.80469 16.7031V19.6328H14.8047V16.7031H8.80469ZM11.8047 22.6328H33.7773V16.6328H11.8047V22.6328ZM33.7773 22.6328C34.9296 22.6328 36.0512 22.2168 36.9241 21.344L32.6814 17.1013C32.8172 16.9655 33.0019 16.8349 33.2271 16.7448C33.4489 16.6562 33.6443 16.6328 33.7773 16.6328V22.6328ZM36.9241 21.344C37.7732 20.4948 38.2422 19.3828 38.2422 18.168H32.2422C32.2422 18.0077 32.2726 17.8026 32.3631 17.5854C32.4533 17.3688 32.5753 17.2074 32.6814 17.1013L36.9241 21.344ZM38.2422 18.168C38.2422 16.9484 37.7665 15.8051 36.8497 14.9494L32.7558 19.3357C32.6218 19.2107 32.4781 19.0267 32.3749 18.7858C32.2723 18.5464 32.2422 18.3271 32.2422 18.168H38.2422ZM36.9959 15.0956C36.1402 14.1788 34.9969 13.7031 33.7773 13.7031V19.7031C33.6182 19.7031 33.3989 19.673 33.1595 19.5704C32.9186 19.4672 32.7347 19.3236 32.6096 19.1895L36.9959 15.0956ZM33.7773 13.7031H11.8047V19.7031H33.7773V13.7031ZM96.7656 38.6758L98.8869 40.7971L99.7656 39.9184V38.6758H96.7656ZM85.0469 50.3945H82.0469V57.6372L87.1682 52.5159L85.0469 50.3945ZM85.0469 37.2109H88.0469V34.2109H85.0469V37.2109ZM61.6094 37.2109V34.2109H58.6094V37.2109H61.6094ZM61.6094 46V49H64.6094V46H61.6094ZM49.8906 46H46.8906V49H49.8906V46ZM85.0469 25.4922V28.4922H88.0469V25.4922H85.0469ZM82.4688 19.2812L84.5901 17.1599L82.4688 19.2812ZM61.6094 25.4922H58.6094V28.4922H61.6094V25.4922ZM76.2578 7.98438C81.1265 7.98438 85.1973 9.67045 88.6384 13.1116L92.8811 8.86891C88.3144 4.30221 82.7173 1.98438 76.2578 1.98438V7.98438ZM88.6384 13.1116C92.0796 16.5527 93.7656 20.6235 93.7656 25.4922H99.7656C99.7656 19.0327 97.4478 13.4356 92.8811 8.86891L88.6384 13.1116ZM93.7656 25.4922V38.6758H99.7656V25.4922H93.7656ZM94.6443 36.5545L82.9256 48.2732L87.1682 52.5159L98.8869 40.7971L94.6443 36.5545ZM88.0469 50.3945V37.2109H82.0469V50.3945H88.0469ZM85.0469 34.2109H61.6094V40.2109H85.0469V34.2109ZM58.6094 37.2109V46H64.6094V37.2109H58.6094ZM61.6094 43H49.8906V49H61.6094V43ZM52.8906 46V25.4922H46.8906V46H52.8906ZM52.8906 25.4922C52.8906 20.6235 54.5767 16.5527 58.0178 13.1116L53.7752 8.86891C49.2085 13.4356 46.8906 19.0327 46.8906 25.4922H52.8906ZM58.0178 13.1116C61.4589 9.67045 65.5298 7.98438 70.3984 7.98438V1.98438C63.939 1.98438 58.3419 4.30221 53.7752 8.86891L58.0178 13.1116ZM70.3984 7.98438H76.2578V1.98438H70.3984V7.98438ZM88.0469 25.4922C88.0469 22.2714 86.8691 19.439 84.5901 17.1599L80.3474 21.4026C81.5059 22.561 82.0469 23.8692 82.0469 25.4922H88.0469ZM84.5901 17.1599C82.311 14.8809 79.4786 13.7031 76.2578 13.7031V19.7031C77.8808 19.7031 79.189 20.2441 80.3474 21.4026L84.5901 17.1599ZM76.2578 13.7031H70.3984V19.7031H76.2578V13.7031ZM70.3984 13.7031C67.1777 13.7031 64.3452 14.8809 62.0662 17.1599L66.3088 21.4026C67.4673 20.2441 68.7755 19.7031 70.3984 19.7031V13.7031ZM62.0662 17.1599C59.7871 19.439 58.6094 22.2714 58.6094 25.4922H64.6094C64.6094 23.8692 65.1504 22.561 66.3088 21.4026L62.0662 17.1599ZM61.6094 28.4922H85.0469V22.4922H61.6094V28.4922ZM134.852 28.9199L132.73 31.0412L137.852 36.1626V28.9199H134.852ZM134.852 0.589844L136.973 -1.53148L131.852 -6.6528V0.589844H134.852ZM146.57 12.3086H149.57V11.066L148.692 10.1873L146.57 12.3086ZM146.57 46V49H149.57V46H146.57ZM135.35 46L133.228 48.1213L134.107 49H135.35V46ZM111.414 22.0645L113.535 19.9431L108.414 14.8218V22.0645H111.414ZM111.414 50.3945L109.293 52.5159L114.414 57.6372V50.3945H111.414ZM99.6953 38.6758H96.6953V39.9184L97.574 40.7971L99.6953 38.6758ZM99.6953 4.98438V1.98438H96.6953V4.98438H99.6953ZM110.916 4.98438L113.037 2.86305L112.159 1.98438H110.916V4.98438ZM137.852 28.9199V0.589844H131.852V28.9199H137.852ZM132.73 2.71116L144.449 14.4299L148.692 10.1873L136.973 -1.53148L132.73 2.71116ZM143.57 12.3086V46H149.57V12.3086H143.57ZM146.57 43H135.35V49H146.57V43ZM137.471 43.8787L113.535 19.9431L109.293 24.1858L133.228 48.1213L137.471 43.8787ZM108.414 22.0645V50.3945H114.414V22.0645H108.414ZM113.535 48.2732L101.817 36.5545L97.574 40.7971L109.293 52.5159L113.535 48.2732ZM102.695 38.6758V4.98438H96.6953V38.6758H102.695ZM99.6953 7.98438H110.916V1.98438H99.6953V7.98438ZM108.795 7.1057L132.73 31.0412L136.973 26.7986L113.037 2.86305L108.795 7.1057ZM202.234 4.98438L204.356 7.1057L209.477 1.98438H202.234V4.98438ZM190.516 16.7031V19.7031H191.758L192.637 18.8244L190.516 16.7031ZM184.656 34.2812V37.2812H187.656V34.2812H184.656ZM184.656 31.3516H187.656V28.3516H184.656V31.3516ZM170.008 31.3516H167.008V34.3516H170.008V31.3516ZM170.008 19.6328V16.6328H167.008V19.6328H170.008ZM196.375 19.6328H199.375V16.6328H196.375V19.6328ZM196.375 46V49H199.375V46H196.375ZM170.008 7.98438H202.234V1.98438H170.008V7.98438ZM200.113 2.86305L188.394 14.5818L192.637 18.8244L204.356 7.1057L200.113 2.86305ZM190.516 13.7031H170.008V19.7031H190.516V13.7031ZM170.008 13.7031C166.787 13.7031 163.955 14.8809 161.676 17.1599L165.918 21.4026C167.077 20.2441 168.385 19.7031 170.008 19.7031V13.7031ZM161.676 17.1599C159.396 19.439 158.219 22.2714 158.219 25.4922H164.219C164.219 23.8692 164.76 22.561 165.918 21.4026L161.676 17.1599ZM158.219 25.4922C158.219 28.713 159.396 31.5454 161.676 33.8244L165.918 29.5818C164.76 28.4234 164.219 27.1152 164.219 25.4922H158.219ZM161.676 33.8244C163.955 36.1035 166.787 37.2812 170.008 37.2812V31.2812C168.385 31.2812 167.077 30.7402 165.918 29.5818L161.676 33.8244ZM170.008 37.2812H184.656V31.2812H170.008V37.2812ZM187.656 34.2812V31.3516H181.656V34.2812H187.656ZM184.656 28.3516H170.008V34.3516H184.656V28.3516ZM173.008 31.3516V19.6328H167.008V31.3516H173.008ZM170.008 22.6328H196.375V16.6328H170.008V22.6328ZM193.375 19.6328V46H199.375V19.6328H193.375ZM196.375 43H170.008V49H196.375V43ZM170.008 43C165.139 43 161.068 41.3139 157.627 37.8728L153.385 42.1155C157.951 46.6822 163.548 49 170.008 49V43ZM157.627 37.8728C154.186 34.4317 152.5 30.3609 152.5 25.4922H146.5C146.5 31.9516 148.818 37.5488 153.385 42.1155L157.627 37.8728ZM152.5 25.4922C152.5 20.6235 154.186 16.5527 157.627 13.1116L153.385 8.86891C148.818 13.4356 146.5 19.0327 146.5 25.4922H152.5ZM157.627 13.1116C161.068 9.67045 165.139 7.98438 170.008 7.98438V1.98438C163.548 1.98438 157.951 4.30221 153.385 8.86891L157.627 13.1116ZM211.023 34.2812H208.023V37.2812H211.023V34.2812ZM246.18 34.2812H249.18V31.2812H246.18V34.2812ZM246.18 46V49H249.18V46H246.18ZM199.305 46H196.305V49H199.305V46ZM199.305 4.98438V1.98438H196.305V4.98438H199.305ZM252.039 4.98438L254.16 7.1057L259.282 1.98438H252.039V4.98438ZM240.32 16.7031V19.7031H241.563L242.442 18.8244L240.32 16.7031ZM211.023 16.7031V13.7031H208.023V16.7031H211.023ZM211.023 19.6328H208.023V22.6328H211.023V19.6328ZM240.32 19.6328H243.32V16.6328H240.32V19.6328ZM240.32 31.3516V34.3516H243.32V31.3516H240.32ZM211.023 31.3516V28.3516H208.023V31.3516H211.023ZM211.023 37.2812H246.18V31.2812H211.023V37.2812ZM243.18 34.2812V46H249.18V34.2812H243.18ZM246.18 43H199.305V49H246.18V43ZM202.305 46V4.98438H196.305V46H202.305ZM199.305 7.98438H252.039V1.98438H199.305V7.98438ZM249.918 2.86305L238.199 14.5818L242.442 18.8244L254.16 7.1057L249.918 2.86305ZM240.32 13.7031H211.023V19.7031H240.32V13.7031ZM208.023 16.7031V19.6328H214.023V16.7031H208.023ZM211.023 22.6328H240.32V16.6328H211.023V22.6328ZM237.32 19.6328V31.3516H243.32V19.6328H237.32ZM240.32 28.3516H211.023V34.3516H240.32V28.3516ZM208.023 31.3516V34.2812H214.023V31.3516H208.023ZM287.195 30.6191L286.219 27.7824L281.678 29.3448L285.074 32.7405L287.195 30.6191ZM302.576 46V49H309.819L304.697 43.8787L302.576 46ZM285.994 46L283.873 48.1213L284.751 49H285.994V46ZM260.828 20.834L262.949 18.7127L257.828 13.5913V20.834H260.828ZM260.828 50.3945L258.707 52.5159L263.828 57.6372V50.3945H260.828ZM249.109 38.6758H246.109V39.9184L246.988 40.7971L249.109 38.6758ZM249.109 4.98438V1.98438H246.109V4.98438H249.109ZM260.828 16.7031V13.7031H257.828V16.7031H260.828ZM260.828 19.6328H257.828V22.6328H260.828V19.6328ZM283.826 17.1426L281.633 19.1895L281.704 19.2652L281.779 19.3357L283.826 17.1426ZM282.801 7.98438C285.635 7.98438 287.978 8.95506 289.996 10.9729L294.238 6.73024C291.1 3.59181 287.232 1.98438 282.801 1.98438V7.98438ZM289.996 10.9729C292.014 12.9907 292.984 15.3341 292.984 18.168H298.984C298.984 13.7363 297.377 9.86867 294.238 6.73024L289.996 10.9729ZM292.984 18.168C292.984 21.0019 292.014 23.3452 289.996 25.3631L294.238 29.6057C297.377 26.4673 298.984 22.5997 298.984 18.168H292.984ZM289.996 25.3631C288.828 26.5313 287.571 27.3172 286.219 27.7824L288.171 33.4559C290.452 32.6711 292.477 31.3672 294.238 29.6057L289.996 25.3631ZM285.074 32.7405L300.455 48.1213L304.697 43.8787L289.317 28.4978L285.074 32.7405ZM302.576 43H285.994V49H302.576V43ZM288.115 43.8787L262.949 18.7127L258.707 22.9553L283.873 48.1213L288.115 43.8787ZM257.828 20.834V50.3945H263.828V20.834H257.828ZM262.949 48.2732L251.231 36.5545L246.988 40.7971L258.707 52.5159L262.949 48.2732ZM252.109 38.6758V4.98438H246.109V38.6758H252.109ZM249.109 7.98438H282.801V1.98438H249.109V7.98438ZM257.828 16.7031V19.6328H263.828V16.7031H257.828ZM260.828 22.6328H282.801V16.6328H260.828V22.6328ZM282.801 22.6328C283.953 22.6328 285.075 22.2168 285.947 21.344L281.705 17.1013C281.841 16.9655 282.025 16.8349 282.251 16.7448C282.472 16.6562 282.668 16.6328 282.801 16.6328V22.6328ZM285.947 21.344C286.797 20.4948 287.266 19.3828 287.266 18.168H281.266C281.266 18.0077 281.296 17.8026 281.387 17.5854C281.477 17.3688 281.599 17.2074 281.705 17.1013L285.947 21.344ZM287.266 18.168C287.266 16.9484 286.79 15.8051 285.873 14.9494L281.779 19.3357C281.645 19.2107 281.502 19.0267 281.398 18.7858C281.296 18.5464 281.266 18.3271 281.266 18.168H287.266ZM286.019 15.0956C285.164 14.1788 284.02 13.7031 282.801 13.7031V19.7031C282.642 19.7031 282.422 19.673 282.183 19.5704C281.942 19.4672 281.758 19.3236 281.633 19.1895L286.019 15.0956ZM282.801 13.7031H260.828V19.7031H282.801V13.7031ZM104.09 57.9844L106.211 60.1057L111.332 54.9844H104.09V57.9844ZM92.3711 69.7031V72.7031H93.6137L94.4924 71.8244L92.3711 69.7031ZM63.0742 69.7031V66.7031H60.0742V69.7031H63.0742ZM63.0742 72.6328H60.0742V75.6328H63.0742V72.6328ZM98.2305 72.6328H101.23V69.6328H98.2305V72.6328ZM98.2305 84.3516V87.3516H101.23V84.3516H98.2305ZM63.0742 84.3516V81.3516H60.0742V84.3516H63.0742ZM63.0742 103.395L60.9529 105.516L66.0742 110.637V103.395H63.0742ZM51.3555 91.6758H48.3555V92.9184L49.2341 93.7971L51.3555 91.6758ZM51.3555 57.9844V54.9844H48.3555V57.9844H51.3555ZM101.969 55.8631L90.2498 67.5818L94.4924 71.8244L106.211 60.1057L101.969 55.8631ZM92.3711 66.7031H63.0742V72.7031H92.3711V66.7031ZM60.0742 69.7031V72.6328H66.0742V69.7031H60.0742ZM63.0742 75.6328H98.2305V69.6328H63.0742V75.6328ZM95.2305 72.6328V84.3516H101.23V72.6328H95.2305ZM98.2305 81.3516H63.0742V87.3516H98.2305V81.3516ZM60.0742 84.3516V103.395H66.0742V84.3516H60.0742ZM65.1955 101.273L53.4768 89.5545L49.2341 93.7971L60.9529 105.516L65.1955 101.273ZM54.3555 91.6758V57.9844H48.3555V91.6758H54.3555ZM51.3555 60.9844H104.09V54.9844H51.3555V60.9844ZM112.879 87.2812H109.879V90.2812H112.879V87.2812ZM148.035 87.2812H151.035V84.2812H148.035V87.2812ZM148.035 99V102H151.035V99H148.035ZM101.16 99H98.1602V102H101.16V99ZM101.16 57.9844V54.9844H98.1602V57.9844H101.16ZM153.895 57.9844L156.016 60.1057L161.137 54.9844H153.895V57.9844ZM142.176 69.7031V72.7031H143.418L144.297 71.8244L142.176 69.7031ZM112.879 69.7031V66.7031H109.879V69.7031H112.879ZM112.879 72.6328H109.879V75.6328H112.879V72.6328ZM142.176 72.6328H145.176V69.6328H142.176V72.6328ZM142.176 84.3516V87.3516H145.176V84.3516H142.176ZM112.879 84.3516V81.3516H109.879V84.3516H112.879ZM112.879 90.2812H148.035V84.2812H112.879V90.2812ZM145.035 87.2812V99H151.035V87.2812H145.035ZM148.035 96H101.16V102H148.035V96ZM104.16 99V57.9844H98.1602V99H104.16ZM101.16 60.9844H153.895V54.9844H101.16V60.9844ZM151.773 55.8631L140.054 67.5818L144.297 71.8244L156.016 60.1057L151.773 55.8631ZM142.176 66.7031H112.879V72.7031H142.176V66.7031ZM109.879 69.7031V72.6328H115.879V69.7031H109.879ZM112.879 75.6328H142.176V69.6328H112.879V75.6328ZM139.176 72.6328V84.3516H145.176V72.6328H139.176ZM142.176 81.3516H112.879V87.3516H142.176V81.3516ZM109.879 84.3516V87.2812H115.879V84.3516H109.879ZM203.699 57.9844L205.821 60.1057L210.942 54.9844H203.699V57.9844ZM191.98 69.7031V72.7031H193.223L194.102 71.8244L191.98 69.7031ZM163.094 72.2227L160.901 74.2696L160.971 74.3452L161.047 74.4158L163.094 72.2227ZM145.105 99L142.984 96.8787L137.863 102H145.105V99ZM156.824 87.2812V84.2812H155.582L154.703 85.1599L156.824 87.2812ZM185.682 84.791L183.488 86.838L183.559 86.9136L183.635 86.9842L185.682 84.791ZM201.578 55.8631L189.859 67.5818L194.102 71.8244L205.821 60.1057L201.578 55.8631ZM191.98 66.7031H164.148V72.7031H191.98V66.7031ZM164.148 66.7031C162.934 66.7031 161.822 67.1721 160.972 68.0213L165.215 72.2639C165.109 72.37 164.948 72.492 164.731 72.5822C164.514 72.6727 164.309 72.7031 164.148 72.7031V66.7031ZM160.972 68.0213C160.1 68.8941 159.684 70.0157 159.684 71.168H165.684C165.684 71.301 165.66 71.4964 165.572 71.7182C165.481 71.9434 165.351 72.1281 165.215 72.2639L160.972 68.0213ZM159.684 71.168C159.684 72.3182 160.095 73.4068 160.901 74.2696L165.287 70.1757C165.394 70.2903 165.504 70.4507 165.582 70.6519C165.66 70.852 165.684 71.0337 165.684 71.168H159.684ZM161.047 74.4158C161.91 75.2211 162.998 75.6328 164.148 75.6328V69.6328C164.283 69.6328 164.464 69.6565 164.664 69.7343C164.866 69.8125 165.026 69.9225 165.141 70.0295L161.047 74.4158ZM164.148 75.6328H184.656V69.6328H164.148V75.6328ZM184.656 75.6328C187.49 75.6328 189.834 76.6035 191.851 78.6213L196.094 74.3787C192.956 71.2402 189.088 69.6328 184.656 69.6328V75.6328ZM191.851 78.6213C193.869 80.6391 194.84 82.9825 194.84 85.8164H200.84C200.84 81.3847 199.232 77.5171 196.094 74.3787L191.851 78.6213ZM194.84 85.8164C194.84 88.6503 193.869 90.9937 191.851 93.0115L196.094 97.2541C199.232 94.1157 200.84 90.2481 200.84 85.8164H194.84ZM191.851 93.0115C189.834 95.0293 187.49 96 184.656 96V102C189.088 102 192.956 100.393 196.094 97.2541L191.851 93.0115ZM184.656 96H145.105V102H184.656V96ZM147.227 101.121L158.946 89.4026L154.703 85.1599L142.984 96.8787L147.227 101.121ZM156.824 90.2812H184.656V84.2812H156.824V90.2812ZM184.656 90.2812C185.808 90.2812 186.93 89.8652 187.803 88.9924L183.56 84.7498C183.696 84.614 183.881 84.4834 184.106 84.3933C184.328 84.3046 184.523 84.2812 184.656 84.2812V90.2812ZM187.803 88.9924C188.652 88.1433 189.121 87.0312 189.121 85.8164H183.121C183.121 85.6562 183.152 85.451 183.242 85.2338C183.332 85.0173 183.454 84.8559 183.56 84.7498L187.803 88.9924ZM189.121 85.8164C189.121 84.5968 188.645 83.4536 187.729 82.5978L183.635 86.9842C183.501 86.8591 183.357 86.6751 183.254 86.4342C183.151 86.1949 183.121 85.9756 183.121 85.8164H189.121ZM187.875 82.7441C187.019 81.8272 185.876 81.3516 184.656 81.3516V87.3516C184.497 87.3516 184.278 87.3214 184.038 87.2189C183.798 87.1156 183.614 86.972 183.488 86.838L187.875 82.7441ZM184.656 81.3516H164.148V87.3516H184.656V81.3516ZM164.148 81.3516C161.315 81.3516 158.971 80.3809 156.953 78.3631L152.711 82.6057C155.849 85.7441 159.717 87.3516 164.148 87.3516V81.3516ZM156.953 78.3631C154.936 76.3452 153.965 74.0019 153.965 71.168H147.965C147.965 75.5997 149.572 79.4673 152.711 82.6057L156.953 78.3631ZM153.965 71.168C153.965 68.3341 154.936 65.9907 156.953 63.9729L152.711 59.7302C149.572 62.8687 147.965 66.7363 147.965 71.168H153.965ZM156.953 63.9729C158.971 61.9551 161.315 60.9844 164.148 60.9844V54.9844C159.717 54.9844 155.849 56.5918 152.711 59.7302L156.953 63.9729ZM164.148 60.9844H203.699V54.9844H164.148V60.9844ZM250.574 57.9844L252.696 60.1057L257.817 54.9844H250.574V57.9844ZM238.855 69.7031V72.7031H240.098L240.977 71.8244L238.855 69.7031ZM227.137 69.7031V66.7031H224.137V69.7031H227.137ZM227.137 91.6758L229.258 93.7971L230.137 92.9184V91.6758H227.137ZM215.418 103.395H212.418V110.637L217.539 105.516L215.418 103.395ZM215.418 69.7031H218.418V66.7031H215.418V69.7031ZM197.84 69.7031H194.84V72.7031H197.84V69.7031ZM197.84 57.9844V54.9844H194.84V57.9844H197.84ZM248.453 55.8631L236.734 67.5818L240.977 71.8244L252.696 60.1057L248.453 55.8631ZM238.855 66.7031H227.137V72.7031H238.855V66.7031ZM224.137 69.7031V91.6758H230.137V69.7031H224.137ZM225.015 89.5545L213.297 101.273L217.539 105.516L229.258 93.7971L225.015 89.5545ZM218.418 103.395V69.7031H212.418V103.395H218.418ZM215.418 66.7031H197.84V72.7031H215.418V66.7031ZM200.84 69.7031V57.9844H194.84V69.7031H200.84ZM197.84 60.9844H250.574V54.9844H197.84V60.9844Z" fill="url(#paint1_radial_126_197)" fill-opacity="0.85"/>
<defs>
<linearGradient id="paint0_linear_126_197" x1="149.5" y1="0" x2="149.5" y2="106" gradientUnits="userSpaceOnUse">
<stop offset="0.15625" stop-color="#FE5B00"/>
<stop offset="0.317708" stop-color="#FFCC81"/>
<stop offset="0.510417" stop-color="#F76C08"/>
<stop offset="0.71875" stop-color="#F9BE79"/>
<stop offset="0.890625" stop-color="#E66000"/>
</linearGradient>
<radialGradient id="paint1_radial_126_197" cx="0" cy="0" r="1" gradientUnits="userSpaceOnUse" gradientTransform="translate(149.5 -424) rotate(90) scale(477 1345.5)">
<stop stop-color="#9F01FF" stop-opacity="0.15"/>
<stop offset="0.848958" stop-color="#2E01FF"/>
</radialGradient>
</defs>
</svg>
