<svg width="304" height="101" viewBox="0 0 304 101" fill="none" xmlns="http://www.w3.org/2000/svg">
<g filter="url(#filter0_ii_189_33)">
<path d="M34.2773 4.98438C37.9102 4.98438 41.0156 6.27344 43.5938 8.85156C46.1719 11.4297 47.4609 14.5352 47.4609 18.168C47.4609 21.8008 46.1719 24.9062 43.5938 27.4844C42.1289 28.9492 40.4883 29.9941 38.6719 30.6191L54.0527 46H37.4707L12.3047 20.834V50.3945L0.585938 38.6758V4.98438H34.2773ZM12.3047 16.7031V19.6328H34.2773C34.6875 19.6328 35.0293 19.4961 35.3027 19.2227C35.5957 18.9297 35.7422 18.5781 35.7422 18.168C35.7422 17.7578 35.5957 17.416 35.3027 17.1426C35.0293 16.8496 34.6875 16.7031 34.2773 16.7031H12.3047ZM76.7578 4.98438C82.4219 4.98438 87.2559 6.98633 91.2598 10.9902C95.2637 14.9941 97.2656 19.8281 97.2656 25.4922V38.6758L85.5469 50.3945V37.2109H62.1094V46H50.3906V25.4922C50.3906 19.8281 52.3926 14.9941 56.3965 10.9902C60.4004 6.98633 65.2344 4.98438 70.8984 4.98438H76.7578ZM85.5469 25.4922C85.5469 23.0703 84.6875 21 82.9688 19.2812C81.25 17.5625 79.1797 16.7031 76.7578 16.7031H70.8984C68.4766 16.7031 66.4062 17.5625 64.6875 19.2812C62.9688 21 62.1094 23.0703 62.1094 25.4922H85.5469ZM135.352 28.9199V0.589844L147.07 12.3086V46H135.85L111.914 22.0645V50.3945L100.195 38.6758V4.98438H111.416L135.352 28.9199ZM170.508 4.98438H202.734L191.016 16.7031H170.508C168.086 16.7031 166.016 17.5625 164.297 19.2812C162.578 21 161.719 23.0703 161.719 25.4922C161.719 27.9141 162.578 29.9844 164.297 31.7031C166.016 33.4219 168.086 34.2812 170.508 34.2812H185.156V31.3516H170.508V19.6328H196.875V46H170.508C164.844 46 160.01 43.998 156.006 39.9941C152.002 35.9902 150 31.1562 150 25.4922C150 19.8281 152.002 14.9941 156.006 10.9902C160.01 6.98633 164.844 4.98438 170.508 4.98438ZM211.523 34.2812H246.68V46H199.805V4.98438H252.539L240.82 16.7031H211.523V19.6328H240.82V31.3516H211.523V34.2812ZM283.301 4.98438C286.934 4.98438 290.039 6.27344 292.617 8.85156C295.195 11.4297 296.484 14.5352 296.484 18.168C296.484 21.8008 295.195 24.9062 292.617 27.4844C291.152 28.9492 289.512 29.9941 287.695 30.6191L303.076 46H286.494L261.328 20.834V50.3945L249.609 38.6758V4.98438H283.301ZM261.328 16.7031V19.6328H283.301C283.711 19.6328 284.053 19.4961 284.326 19.2227C284.619 18.9297 284.766 18.5781 284.766 18.168C284.766 17.7578 284.619 17.416 284.326 17.1426C284.053 16.8496 283.711 16.7031 283.301 16.7031H261.328ZM104.59 54.9844L92.8711 66.7031H63.5742V69.6328H98.7305V81.3516H63.5742V100.395L51.8555 88.6758V54.9844H104.59ZM113.379 84.2812H148.535V96H101.66V54.9844H154.395L142.676 66.7031H113.379V69.6328H142.676V81.3516H113.379V84.2812ZM204.199 54.9844L192.48 66.7031H164.648C164.238 66.7031 163.887 66.8496 163.594 67.1426C163.32 67.416 163.184 67.7578 163.184 68.168C163.184 68.5781 163.32 68.9297 163.594 69.2227C163.887 69.4961 164.238 69.6328 164.648 69.6328H185.156C188.789 69.6328 191.895 70.9219 194.473 73.5C197.051 76.0781 198.34 79.1836 198.34 82.8164C198.34 86.4492 197.051 89.5547 194.473 92.1328C191.895 94.7109 188.789 96 185.156 96H145.605L157.324 84.2812H185.156C185.566 84.2812 185.908 84.1445 186.182 83.8711C186.475 83.5781 186.621 83.2266 186.621 82.8164C186.621 82.4062 186.475 82.0645 186.182 81.791C185.908 81.498 185.566 81.3516 185.156 81.3516H164.648C161.016 81.3516 157.91 80.0625 155.332 77.4844C152.754 74.9062 151.465 71.8008 151.465 68.168C151.465 64.5352 152.754 61.4297 155.332 58.8516C157.91 56.2734 161.016 54.9844 164.648 54.9844H204.199ZM251.074 54.9844L239.355 66.7031H227.637V88.6758L215.918 100.395V66.7031H198.34V54.9844H251.074Z" fill="url(#paint0_linear_189_33)" fill-opacity="0.8"/>
</g>
<defs>
<filter id="filter0_ii_189_33" x="-1.41406" y="-1.41016" width="306.49" height="103.805" filterUnits="userSpaceOnUse" color-interpolation-filters="sRGB">
<feFlood flood-opacity="0" result="BackgroundImageFix"/>
<feBlend mode="normal" in="SourceGraphic" in2="BackgroundImageFix" result="shape"/>
<feColorMatrix in="SourceAlpha" type="matrix" values="0 0 0 0 0 0 0 0 0 0 0 0 0 0 0 0 0 0 127 0" result="hardAlpha"/>
<feOffset dx="2" dy="2"/>
<feGaussianBlur stdDeviation="1.5"/>
<feComposite in2="hardAlpha" operator="arithmetic" k2="-1" k3="1"/>
<feColorMatrix type="matrix" values="0 0 0 0 1 0 0 0 0 1 0 0 0 0 1 0 0 0 0.7 0"/>
<feBlend mode="normal" in2="shape" result="effect1_innerShadow_189_33"/>
<feColorMatrix in="SourceAlpha" type="matrix" values="0 0 0 0 0 0 0 0 0 0 0 0 0 0 0 0 0 0 127 0" result="hardAlpha"/>
<feOffset dx="-2" dy="-2"/>
<feGaussianBlur stdDeviation="1.5"/>
<feComposite in2="hardAlpha" operator="arithmetic" k2="-1" k3="1"/>
<feColorMatrix type="matrix" values="0 0 0 0 0 0 0 0 0 0 0 0 0 0 0 0 0 0 0.3 0"/>
<feBlend mode="normal" in2="effect1_innerShadow_189_33" result="effect2_innerShadow_189_33"/>
</filter>
<linearGradient id="paint0_linear_189_33" x1="150" y1="14" x2="150" y2="125" gradientUnits="userSpaceOnUse">
<stop stop-color="#3D00DD"/>
<stop offset="0.192708" stop-color="#BC9FFA"/>
<stop offset="0.328125" stop-color="#6746C2"/>
<stop offset="0.494792" stop-color="#3F06DE"/>
<stop offset="0.614583" stop-color="#B39CEF"/>
<stop offset="0.84375" stop-color="#4200E4"/>
<stop offset="1" stop-color="#8857E4"/>
</linearGradient>
</defs>
</svg>
