<svg width="118" height="70" viewBox="0 0 118 70" fill="none" xmlns="http://www.w3.org/2000/svg">
<g filter="url(#filter0_dd_126_105)">
<rect x="4" y="7" width="110" height="55" rx="27.5" fill="url(#paint0_linear_126_105)" fill-opacity="0.9" shape-rendering="crispEdges"/>
<rect x="5" y="8" width="108" height="53" rx="26.5" stroke="url(#paint1_linear_126_105)" stroke-opacity="0.7" stroke-width="2" shape-rendering="crispEdges"/>
</g>
<path d="M40.6094 37.5391C40.6094 37.7891 40.5651 38.0573 40.4766 38.3438C40.3932 38.6302 40.2526 38.8958 40.0547 39.1406C39.862 39.3854 39.6094 39.5911 39.2969 39.7578C38.9844 39.9193 38.6016 40 38.1484 40H30.4375C30.2917 40 30.1562 39.974 30.0312 39.9219C29.9062 39.8698 29.7969 39.7995 29.7031 39.7109C29.6146 39.6172 29.5443 39.5078 29.4922 39.3828C29.4401 39.2578 29.4141 39.1224 29.4141 38.9766V29.8203C29.4141 29.6797 29.4401 29.5469 29.4922 29.4219C29.5443 29.2969 29.6146 29.1875 29.7031 29.0938C29.7969 29 29.9062 28.9271 30.0312 28.875C30.1562 28.8229 30.2917 28.7969 30.4375 28.7969H37.2344C37.4844 28.7969 37.7526 28.8411 38.0391 28.9297C38.3255 29.0182 38.5911 29.1615 38.8359 29.3594C39.0859 29.5521 39.2917 29.8047 39.4531 30.1172C39.6198 30.4297 39.7031 30.8125 39.7031 31.2656V31.6484C39.7031 32.0078 39.6432 32.3958 39.5234 32.8125C39.4036 33.224 39.2109 33.6146 38.9453 33.9844C39.1745 34.125 39.388 34.2943 39.5859 34.4922C39.7891 34.6901 39.9661 34.9193 40.1172 35.1797C40.2682 35.4401 40.388 35.7344 40.4766 36.0625C40.5651 36.3906 40.6094 36.7526 40.6094 37.1484V37.5391ZM38.5781 37.1484C38.5781 36.8828 38.5365 36.6458 38.4531 36.4375C38.3698 36.224 38.2526 36.0417 38.1016 35.8906C37.9505 35.7396 37.7682 35.625 37.5547 35.5469C37.3411 35.4635 37.1016 35.4219 36.8359 35.4219H32.2578V33.375H35.9219C36.1875 33.375 36.4271 33.3359 36.6406 33.2578C36.8542 33.1745 37.0365 33.0573 37.1875 32.9062C37.3385 32.7552 37.4531 32.5755 37.5312 32.3672C37.6146 32.1536 37.6562 31.9141 37.6562 31.6484V31.2656C37.6562 30.974 37.5156 30.8281 37.2344 30.8281H31.4453V37.9688H38.1484C38.1849 37.9688 38.2292 37.9661 38.2812 37.9609C38.3333 37.9557 38.3802 37.9401 38.4219 37.9141C38.4635 37.888 38.5 37.8438 38.5312 37.7812C38.5625 37.7188 38.5781 37.6328 38.5781 37.5234V37.1484ZM53.375 40H51.3438V37.25H44.2031V40H42.1719V34.3984C42.1719 33.5807 42.3125 32.8281 42.5938 32.1406C42.875 31.4531 43.2656 30.862 43.7656 30.3672C44.2656 29.8724 44.8568 29.487 45.5391 29.2109C46.2214 28.9349 46.9661 28.7969 47.7734 28.7969H52.3516C52.4922 28.7969 52.625 28.8229 52.75 28.875C52.875 28.9271 52.9844 29 53.0781 29.0938C53.1719 29.1875 53.2448 29.2969 53.2969 29.4219C53.349 29.5469 53.375 29.6797 53.375 29.8203V40ZM44.2031 35.2188H51.3438V30.8281H47.7734C47.7109 30.8281 47.5781 30.8385 47.375 30.8594C47.1771 30.875 46.9453 30.9193 46.6797 30.9922C46.4193 31.0651 46.1432 31.1771 45.8516 31.3281C45.5599 31.4792 45.2917 31.6875 45.0469 31.9531C44.8021 32.2188 44.599 32.5521 44.4375 32.9531C44.2812 33.349 44.2031 33.8307 44.2031 34.3984V35.2188ZM66.9375 39.1328C66.9375 39.2786 66.9089 39.4141 66.8516 39.5391C66.7995 39.6641 66.7266 39.7734 66.6328 39.8672C66.5443 39.9557 66.4375 40.026 66.3125 40.0781C66.1875 40.1302 66.0547 40.1562 65.9141 40.1562C65.7891 40.1562 65.6615 40.1328 65.5312 40.0859C65.4062 40.0391 65.2943 39.9635 65.1953 39.8594L57.7734 32.1094V40H55.7422V29.6641C55.7422 29.4557 55.7995 29.2682 55.9141 29.1016C56.0339 28.9297 56.1849 28.8021 56.3672 28.7188C56.5599 28.6406 56.7578 28.6224 56.9609 28.6641C57.1641 28.7005 57.3385 28.7943 57.4844 28.9453L64.9062 36.6875V28.7969H66.9375V39.1328ZM80.4844 35.3125C80.4844 35.9948 80.3646 36.6224 80.125 37.1953C79.8906 37.7682 79.5651 38.263 79.1484 38.6797C78.7318 39.0911 78.237 39.4141 77.6641 39.6484C77.0911 39.8828 76.4688 40 75.7969 40H70.3125C70.1667 40 70.0312 39.974 69.9062 39.9219C69.7812 39.8698 69.6719 39.7995 69.5781 39.7109C69.4896 39.6172 69.4193 39.5078 69.3672 39.3828C69.3151 39.2578 69.2891 39.1224 69.2891 38.9766V29.8203C69.2891 29.6797 69.3151 29.5469 69.3672 29.4219C69.4193 29.2969 69.4896 29.1875 69.5781 29.0938C69.6719 29 69.7812 28.9271 69.9062 28.875C70.0312 28.8229 70.1667 28.7969 70.3125 28.7969H75.7969C76.4688 28.7969 77.0911 28.9141 77.6641 29.1484C78.237 29.3828 78.7318 29.7083 79.1484 30.125C79.5651 30.5365 79.8906 31.0312 80.125 31.6094C80.3646 32.1823 80.4844 32.8073 80.4844 33.4844V35.3125ZM78.4531 33.4844C78.4531 33.0885 78.388 32.7266 78.2578 32.3984C78.1328 32.0703 77.9531 31.7917 77.7188 31.5625C77.4844 31.3281 77.2031 31.1484 76.875 31.0234C76.5521 30.8932 76.1927 30.8281 75.7969 30.8281H71.3203V37.9688H75.7969C76.1927 37.9688 76.5521 37.9062 76.875 37.7812C77.2031 37.651 77.4844 37.4714 77.7188 37.2422C77.9531 37.0078 78.1328 36.7292 78.2578 36.4062C78.388 36.0781 78.4531 35.7135 78.4531 35.3125V33.4844ZM93.2422 36.7031C93.2422 37.1042 93.1901 37.4661 93.0859 37.7891C92.987 38.1068 92.8542 38.388 92.6875 38.6328C92.5208 38.8776 92.3255 39.0859 92.1016 39.2578C91.8776 39.4297 91.6458 39.5703 91.4062 39.6797C91.1667 39.7891 90.9219 39.8698 90.6719 39.9219C90.4271 39.974 90.1953 40 89.9766 40H82.1406V37.9688H89.9766C90.3672 37.9688 90.6693 37.8542 90.8828 37.625C91.1016 37.3958 91.2109 37.0885 91.2109 36.7031C91.2109 36.5156 91.1823 36.3438 91.125 36.1875C91.0677 36.0312 90.9844 35.8958 90.875 35.7812C90.7708 35.6667 90.6406 35.5781 90.4844 35.5156C90.3333 35.4531 90.1641 35.4219 89.9766 35.4219H85.3047C84.9766 35.4219 84.6224 35.3646 84.2422 35.25C83.862 35.1302 83.5078 34.9401 83.1797 34.6797C82.8568 34.4193 82.5859 34.0781 82.3672 33.6562C82.1536 33.2344 82.0469 32.7188 82.0469 32.1094C82.0469 31.5 82.1536 30.987 82.3672 30.5703C82.5859 30.1484 82.8568 29.8073 83.1797 29.5469C83.5078 29.2812 83.862 29.0911 84.2422 28.9766C84.6224 28.8568 84.9766 28.7969 85.3047 28.7969H92.2188V30.8281H85.3047C84.9193 30.8281 84.6172 30.9453 84.3984 31.1797C84.1849 31.4141 84.0781 31.724 84.0781 32.1094C84.0781 32.5 84.1849 32.8099 84.3984 33.0391C84.6172 33.263 84.9193 33.375 85.3047 33.375H89.9766H89.9922C90.2109 33.3802 90.4427 33.4115 90.6875 33.4688C90.9323 33.5208 91.1745 33.6042 91.4141 33.7188C91.6589 33.8333 91.8906 33.9792 92.1094 34.1562C92.3281 34.3281 92.5208 34.5365 92.6875 34.7812C92.8594 35.026 92.9948 35.3073 93.0938 35.625C93.1927 35.9427 93.2422 36.3021 93.2422 36.7031Z" fill="url(#paint2_linear_126_105)"/>
<defs>
<filter id="filter0_dd_126_105" x="0" y="0" width="118" height="70" filterUnits="userSpaceOnUse" color-interpolation-filters="sRGB">
<feFlood flood-opacity="0" result="BackgroundImageFix"/>
<feColorMatrix in="SourceAlpha" type="matrix" values="0 0 0 0 0 0 0 0 0 0 0 0 0 0 0 0 0 0 127 0" result="hardAlpha"/>
<feOffset dy="-3"/>
<feGaussianBlur stdDeviation="2"/>
<feComposite in2="hardAlpha" operator="out"/>
<feColorMatrix type="matrix" values="0 0 0 0 0.875517 0 0 0 0 0.670638 0 0 0 0 1 0 0 0 0.15 0"/>
<feBlend mode="normal" in2="BackgroundImageFix" result="effect1_dropShadow_126_105"/>
<feColorMatrix in="SourceAlpha" type="matrix" values="0 0 0 0 0 0 0 0 0 0 0 0 0 0 0 0 0 0 127 0" result="hardAlpha"/>
<feOffset dy="4"/>
<feGaussianBlur stdDeviation="2"/>
<feComposite in2="hardAlpha" operator="out"/>
<feColorMatrix type="matrix" values="0 0 0 0 0 0 0 0 0 0 0 0 0 0 0 0 0 0 0.25 0"/>
<feBlend mode="normal" in2="effect1_dropShadow_126_105" result="effect2_dropShadow_126_105"/>
<feBlend mode="normal" in="SourceGraphic" in2="effect2_dropShadow_126_105" result="shape"/>
</filter>
<linearGradient id="paint0_linear_126_105" x1="52.5" y1="7" x2="66.5" y2="62" gradientUnits="userSpaceOnUse">
<stop stop-color="white"/>
<stop offset="0.176216" stop-color="#DBDBDB"/>
<stop offset="0.739583" stop-color="#9E9E9E"/>
<stop offset="1" stop-color="#535252"/>
</linearGradient>
<linearGradient id="paint1_linear_126_105" x1="59" y1="7" x2="59" y2="62" gradientUnits="userSpaceOnUse">
<stop stop-color="#2E13D0"/>
<stop offset="0.604167" stop-color="#784CD6"/>
<stop offset="1" stop-color="#D2C5F8"/>
</linearGradient>
<linearGradient id="paint2_linear_126_105" x1="33.7052" y1="20.75" x2="86.2272" y2="66.077" gradientUnits="userSpaceOnUse">
<stop stop-color="#9E00FF"/>
<stop offset="1" stop-color="#0500FF"/>
</linearGradient>
</defs>
</svg>
